<svg xmlns="http://www.w3.org/2000/svg" width="96.42020580935423" height="94.15365910527544" viewBox="-1 -1 98 97"><line x1="41.570593181175354" y1="8.516121602654493" x2="40.5829987374309" y2="7.728060533094322" stroke="#ffffff" stroke-linecap="round" stroke-width="6"/><line x1="40.5829987374309" y1="7.728060533094322" x2="39.54643677804779" y2="6.989687368934028" stroke="#ffffff" stroke-linecap="round" stroke-width="6"/><line x1="39.54643677804779" y1="6.989687368934028" x2="38.464766396828054" y2="6.301234800997008" stroke="#ffffff" stroke-linecap="round" stroke-width="6"/><line x1="38.464766396828054" y1="6.301234800997008" x2="37.34184668757371" y2="5.662935520110295" stroke="#ffffff" stroke-linecap="round" stroke-width="6"/><line x1="37.34184668757371" y1="5.662935520110295" x2="36.18153674408677" y2="5.075022217100923" stroke="#ffffff" stroke-linecap="round" stroke-width="6"/><line x1="36.18153674408677" y1="5.075022217100923" x2="34.987695660169265" y2="4.537727582792286" stroke="#ffffff" stroke-linecap="round" stroke-width="6"/><line x1="34.987695660169265" y1="4.537727582792286" x2="33.76418252962685" y2="4.0512843080123275" stroke="#ffffff" stroke-linecap="round" stroke-width="6"/><line x1="33.76418252962685" y1="4.0512843080123275" x2="32.51485644625791" y2="3.6159250835853527" stroke="#ffffff" stroke-linecap="round" stroke-width="6"/><line x1="32.51485644625791" y1="3.6159250835853527" x2="31.24357650386446" y2="3.2318826003383947" stroke="#ffffff" stroke-linecap="round" stroke-width="6"/><line x1="31.24357650386446" y1="3.2318826003383947" x2="29.954201796252164" y2="2.899389549096668" stroke="#ffffff" stroke-linecap="round" stroke-width="6"/><line x1="29.954201796252164" y1="2.899389549096668" x2="28.65059141722304" y2="2.6186786206853867" stroke="#ffffff" stroke-linecap="round" stroke-width="6"/><line x1="28.65059141722304" y1="2.6186786206853867" x2="27.336604460575472" y2="2.3899825059315845" stroke="#ffffff" stroke-linecap="round" stroke-width="6"/><line x1="27.336604460575472" y1="2.3899825059315845" x2="26.016100020118756" y2="2.213533895659566" stroke="#ffffff" stroke-linecap="round" stroke-width="6"/><line x1="26.016100020118756" y1="2.213533895659566" x2="24.692937189647637" y2="2.0895654806972743" stroke="#ffffff" stroke-linecap="round" stroke-width="6"/><line x1="24.692937189647637" y1="2.0895654806972743" x2="23.370975062967773" y2="2.0183099518681047" stroke="#ffffff" stroke-linecap="round" stroke-width="6"/><line x1="23.370975062967773" y1="2.0183099518681047" x2="22.054072733884823" y2="2" stroke="#ffffff" stroke-linecap="round" stroke-width="6"/><line x1="22.054072733884823" y1="2" x2="20.74608929619353" y2="2.034868315917265" stroke="#ffffff" stroke-linecap="round" stroke-width="6"/><line x1="20.74608929619353" y1="2.034868315917265" x2="19.450883843703195" y2="2.1231475904469335" stroke="#ffffff" stroke-linecap="round" stroke-width="6"/><line x1="19.450883843703195" y1="2.1231475904469335" x2="18.172315470212197" y2="2.26507051441331" stroke="#ffffff" stroke-linecap="round" stroke-width="6"/><line x1="18.172315470212197" y1="2.26507051441331" x2="16.914243269526196" y2="2.460869778644337" stroke="#ffffff" stroke-linecap="round" stroke-width="6"/><line x1="16.914243269526196" y1="2.460869778644337" x2="15.680526335443574" y2="2.710778073963411" stroke="#ffffff" stroke-linecap="round" stroke-width="6"/><line x1="15.680526335443574" y1="2.710778073963411" x2="14.47502376176999" y2="3.015028091197564" stroke="#ffffff" stroke-linecap="round" stroke-width="6"/><line x1="14.47502376176999" y1="3.015028091197564" x2="13.301594642307464" y2="3.373852521172921" stroke="#ffffff" stroke-linecap="round" stroke-width="6"/><line x1="13.301594642307464" y1="3.373852521172921" x2="12.16409807085438" y2="3.787484054714696" stroke="#ffffff" stroke-linecap="round" stroke-width="6"/><line x1="12.16409807085438" y1="3.787484054714696" x2="11.066393141216395" y2="4.256155382649013" stroke="#ffffff" stroke-linecap="round" stroke-width="6"/><line x1="11.066393141216395" y1="4.256155382649013" x2="10.01233894719553" y2="4.780099195801995" stroke="#ffffff" stroke-linecap="round" stroke-width="6"/><line x1="10.01233894719553" y1="4.780099195801995" x2="9.005794582593808" y2="5.359548184998857" stroke="#ffffff" stroke-linecap="round" stroke-width="6"/><line x1="9.005794582593808" y1="5.359548184998857" x2="8.050619141216885" y2="5.994735041065724" stroke="#ffffff" stroke-linecap="round" stroke-width="6"/><line x1="8.050619141216885" y1="5.994735041065724" x2="7.150671716859506" y2="6.685892454827808" stroke="#ffffff" stroke-linecap="round" stroke-width="6"/><line x1="7.150671716859506" y1="6.685892454827808" x2="6.3098114033309685" y2="7.433253117111235" stroke="#ffffff" stroke-linecap="round" stroke-width="6"/><line x1="6.3098114033309685" y1="7.433253117111235" x2="5.531897294429655" y2="8.237049718743037" stroke="#ffffff" stroke-linecap="round" stroke-width="6"/><line x1="5.531897294429655" y1="8.237049718743037" x2="4.820788483961223" y2="9.09751495054661" stroke="#ffffff" stroke-linecap="round" stroke-width="6"/><line x1="4.820788483961223" y1="9.09751495054661" x2="4.180344065724057" y2="10.014881503349898" stroke="#ffffff" stroke-linecap="round" stroke-width="6"/><line x1="4.180344065724057" y1="10.014881503349898" x2="3.6144231335238146" y2="10.989382067978113" stroke="#ffffff" stroke-linecap="round" stroke-width="6"/><line x1="3.6144231335238146" y1="10.989382067978113" x2="3.1268847811625164" y2="12.02124933525738" stroke="#ffffff" stroke-linecap="round" stroke-width="6"/><line x1="3.1268847811625164" y1="12.02124933525738" x2="2.7215881024385453" y2="13.110715996012004" stroke="#ffffff" stroke-linecap="round" stroke-width="6"/><line x1="2.7215881024385453" y1="13.110715996012004" x2="2.402392191161198" y2="14.258014741069019" stroke="#ffffff" stroke-linecap="round" stroke-width="6"/><line x1="2.402392191161198" y1="14.258014741069019" x2="2.1731561411252187" y2="15.463378261254547" stroke="#ffffff" stroke-linecap="round" stroke-width="6"/><line x1="2.1731561411252187" y1="15.463378261254547" x2="2.0377390461399045" y2="16.727039247393805" stroke="#ffffff" stroke-linecap="round" stroke-width="6"/><line x1="2.0377390461399045" y1="16.727039247393805" x2="2" y2="18.049230390312914" stroke="#ffffff" stroke-linecap="round" stroke-width="6"/><line x1="2" y1="18.049230390312914" x2="2.0637980965148017" y2="19.43018438083709" stroke="#ffffff" stroke-linecap="round" stroke-width="6"/><line x1="2.0637980965148017" y1="19.43018438083709" x2="2.2329924294826924" y2="20.870133909792457" stroke="#ffffff" stroke-linecap="round" stroke-width="6"/><line x1="2.2329924294826924" y1="20.870133909792457" x2="2.5114420927093306" y2="22.36931166800514" stroke="#ffffff" stroke-linecap="round" stroke-width="6"/><line x1="2.5114420927093306" y1="22.36931166800514" x2="2.903006179993099" y2="23.92795034630035" stroke="#ffffff" stroke-linecap="round" stroke-width="6"/><line x1="2.903006179993099" y1="23.92795034630035" x2="3.4115437851396564" y2="25.546282635505122" stroke="#ffffff" stroke-linecap="round" stroke-width="6"/><line x1="3.4115437851396564" y1="25.546282635505122" x2="4.040914001951023" y2="27.224541226443762" stroke="#ffffff" stroke-linecap="round" stroke-width="6"/><line x1="4.040914001951023" y1="27.224541226443762" x2="4.794975924225582" y2="28.962958809943302" stroke="#ffffff" stroke-linecap="round" stroke-width="6"/><line x1="4.794975924225582" y1="28.962958809943302" x2="5.677588645768992" y2="30.761768076828048" stroke="#ffffff" stroke-linecap="round" stroke-width="6"/><line x1="5.677588645768992" y1="30.761768076828048" x2="6.6926112603832735" y2="32.62120171792503" stroke="#ffffff" stroke-linecap="round" stroke-width="6"/><line x1="6.6926112603832735" y1="32.62120171792503" x2="7.843902861870447" y2="34.54149242406038" stroke="#ffffff" stroke-linecap="round" stroke-width="6"/><line x1="7.843902861870447" y1="34.54149242406038" x2="9.135322544032533" y2="36.522872886059304" stroke="#ffffff" stroke-linecap="round" stroke-width="6"/><line x1="9.135322544032533" y1="36.522872886059304" x2="9.834786382180027" y2="37.53654449139049" stroke="#ffffff" stroke-linecap="round" stroke-width="6"/><line x1="48.210102904678934" y1="92.15365910527544" x2="9.834786382180027" y2="37.53654449139049" stroke="#ffffff" stroke-linecap="round" stroke-width="6"/><line x1="69.08360134877876" y1="2.3899825059315845" x2="70.40410578923547" y2="2.213533895659566" stroke="#ffffff" stroke-linecap="round" stroke-width="6"/><line x1="70.40410578923547" y1="2.213533895659566" x2="71.72726861970659" y2="2.0895654806972743" stroke="#ffffff" stroke-linecap="round" stroke-width="6"/><line x1="71.72726861970659" y1="2.0895654806972743" x2="73.04923074638646" y2="2.0183099518681047" stroke="#ffffff" stroke-linecap="round" stroke-width="6"/><line x1="73.04923074638646" y1="2.0183099518681047" x2="74.3661330754694" y2="2" stroke="#ffffff" stroke-linecap="round" stroke-width="6"/><line x1="74.3661330754694" y1="2" x2="75.6741165131607" y2="2.034868315917265" stroke="#ffffff" stroke-linecap="round" stroke-width="6"/><line x1="75.6741165131607" y1="2.034868315917265" x2="76.96932196565103" y2="2.1231475904469335" stroke="#ffffff" stroke-linecap="round" stroke-width="6"/><line x1="76.96932196565103" y1="2.1231475904469335" x2="78.24789033914203" y2="2.26507051441331" stroke="#ffffff" stroke-linecap="round" stroke-width="6"/><line x1="78.24789033914203" y1="2.26507051441331" x2="79.50596253982803" y2="2.460869778644337" stroke="#ffffff" stroke-linecap="round" stroke-width="6"/><line x1="79.50596253982803" y1="2.460869778644337" x2="80.73967947391066" y2="2.710778073963411" stroke="#ffffff" stroke-linecap="round" stroke-width="6"/><line x1="80.73967947391066" y1="2.710778073963411" x2="81.94518204758424" y2="3.015028091197564" stroke="#ffffff" stroke-linecap="round" stroke-width="6"/><line x1="81.94518204758424" y1="3.015028091197564" x2="83.11861116704677" y2="3.373852521172921" stroke="#ffffff" stroke-linecap="round" stroke-width="6"/><line x1="83.11861116704677" y1="3.373852521172921" x2="84.25610773849985" y2="3.787484054714696" stroke="#ffffff" stroke-linecap="round" stroke-width="6"/><line x1="84.25610773849985" y1="3.787484054714696" x2="85.35381266813783" y2="4.256155382649013" stroke="#ffffff" stroke-linecap="round" stroke-width="6"/><line x1="85.35381266813783" y1="4.256155382649013" x2="86.4078668621587" y2="4.780099195801995" stroke="#ffffff" stroke-linecap="round" stroke-width="6"/><line x1="86.4078668621587" y1="4.780099195801995" x2="87.41441122676042" y2="5.359548184998857" stroke="#ffffff" stroke-linecap="round" stroke-width="6"/><line x1="87.41441122676042" y1="5.359548184998857" x2="88.36958666813734" y2="5.994735041065724" stroke="#ffffff" stroke-linecap="round" stroke-width="6"/><line x1="88.36958666813734" y1="5.994735041065724" x2="89.26953409249472" y2="6.685892454827808" stroke="#ffffff" stroke-linecap="round" stroke-width="6"/><line x1="89.26953409249472" y1="6.685892454827808" x2="90.11039440602326" y2="7.433253117111235" stroke="#ffffff" stroke-linecap="round" stroke-width="6"/><line x1="90.11039440602326" y1="7.433253117111235" x2="90.88830851492457" y2="8.237049718743037" stroke="#ffffff" stroke-linecap="round" stroke-width="6"/><line x1="90.88830851492457" y1="8.237049718743037" x2="91.599417325393" y2="9.09751495054661" stroke="#ffffff" stroke-linecap="round" stroke-width="6"/><line x1="91.599417325393" y1="9.09751495054661" x2="92.23986174363017" y2="10.014881503349898" stroke="#ffffff" stroke-linecap="round" stroke-width="6"/><line x1="92.23986174363017" y1="10.014881503349898" x2="92.80578267583041" y2="10.989382067978113" stroke="#ffffff" stroke-linecap="round" stroke-width="6"/><line x1="92.80578267583041" y1="10.989382067978113" x2="93.29332102819171" y2="12.02124933525738" stroke="#ffffff" stroke-linecap="round" stroke-width="6"/><line x1="93.29332102819171" y1="12.02124933525738" x2="93.69861770691568" y2="13.110715996012004" stroke="#ffffff" stroke-linecap="round" stroke-width="6"/><line x1="93.69861770691568" y1="13.110715996012004" x2="94.01781361819303" y2="14.258014741069019" stroke="#ffffff" stroke-linecap="round" stroke-width="6"/><line x1="94.01781361819303" y1="14.258014741069019" x2="94.24704966822901" y2="15.463378261254547" stroke="#ffffff" stroke-linecap="round" stroke-width="6"/><line x1="94.24704966822901" y1="15.463378261254547" x2="94.38246676321432" y2="16.727039247393805" stroke="#ffffff" stroke-linecap="round" stroke-width="6"/><line x1="94.38246676321432" y1="16.727039247393805" x2="94.42020580935423" y2="18.049230390312914" stroke="#ffffff" stroke-linecap="round" stroke-width="6"/><line x1="94.42020580935423" y1="18.049230390312914" x2="94.35640771283943" y2="19.43018438083709" stroke="#ffffff" stroke-linecap="round" stroke-width="6"/><line x1="47.61865449373727" y1="17.8062329853783" x2="47.24542691184979" y2="16.58145185439116" stroke="#ffffff" stroke-linecap="round" stroke-width="6"/><line x1="47.24542691184979" y1="16.58145185439116" x2="46.7884999700982" y2="15.404264411370605" stroke="#ffffff" stroke-linecap="round" stroke-width="6"/><line x1="46.7884999700982" y1="15.404264411370605" x2="46.25173276229543" y2="14.274903347142754" stroke="#ffffff" stroke-linecap="round" stroke-width="6"/><line x1="46.25173276229543" y1="14.274903347142754" x2="45.63898438223259" y2="13.193601352531914" stroke="#ffffff" stroke-linecap="round" stroke-width="6"/><line x1="45.63898438223259" y1="13.193601352531914" x2="44.95411392371898" y2="12.160591118366028" stroke="#ffffff" stroke-linecap="round" stroke-width="6"/><line x1="44.95411392371898" y1="12.160591118366028" x2="44.20098048055297" y2="11.176105335469401" stroke="#ffffff" stroke-linecap="round" stroke-width="6"/><line x1="44.20098048055297" y1="11.176105335469401" x2="43.38344314654023" y2="10.240376694667248" stroke="#ffffff" stroke-linecap="round" stroke-width="6"/><line x1="43.38344314654023" y1="10.240376694667248" x2="42.50536101547914" y2="9.35363788678751" stroke="#ffffff" stroke-linecap="round" stroke-width="6"/><line x1="42.50536101547914" y1="9.35363788678751" x2="41.570593181175354" y2="8.516121602654493" stroke="#ffffff" stroke-linecap="round" stroke-width="6"/><line x1="48.51588218739198" y1="19.0783751135059" x2="48.80155131561696" y2="17.8062329853783" stroke="#ffffff" stroke-linecap="round" stroke-width="6"/><line x1="48.80155131561696" y1="17.8062329853783" x2="49.17477889750444" y2="16.58145185439116" stroke="#ffffff" stroke-linecap="round" stroke-width="6"/><line x1="49.17477889750444" y1="16.58145185439116" x2="49.63170583925603" y2="15.404264411370605" stroke="#ffffff" stroke-linecap="round" stroke-width="6"/><line x1="49.63170583925603" y1="15.404264411370605" x2="50.1684730470588" y2="14.274903347142754" stroke="#ffffff" stroke-linecap="round" stroke-width="6"/><line x1="50.1684730470588" y1="14.274903347142754" x2="50.781221427121636" y2="13.193601352531914" stroke="#ffffff" stroke-linecap="round" stroke-width="6"/><line x1="50.781221427121636" y1="13.193601352531914" x2="51.46609188563525" y2="12.160591118366028" stroke="#ffffff" stroke-linecap="round" stroke-width="6"/><line x1="51.46609188563525" y1="12.160591118366028" x2="52.21922532880126" y2="11.176105335469401" stroke="#ffffff" stroke-linecap="round" stroke-width="6"/><line x1="52.21922532880126" y1="11.176105335469401" x2="53.036762662814" y2="10.240376694667248" stroke="#ffffff" stroke-linecap="round" stroke-width="6"/><line x1="53.036762662814" y1="10.240376694667248" x2="53.91484479387509" y2="9.35363788678751" stroke="#ffffff" stroke-linecap="round" stroke-width="6"/><line x1="53.91484479387509" y1="9.35363788678751" x2="54.849612628178875" y2="8.516121602654493" stroke="#ffffff" stroke-linecap="round" stroke-width="6"/><line x1="54.849612628178875" y1="8.516121602654493" x2="55.83720707192333" y2="7.728060533094322" stroke="#ffffff" stroke-linecap="round" stroke-width="6"/><line x1="55.83720707192333" y1="7.728060533094322" x2="56.87376903130644" y2="6.989687368934028" stroke="#ffffff" stroke-linecap="round" stroke-width="6"/><line x1="56.87376903130644" y1="6.989687368934028" x2="57.955439412526175" y2="6.301234800997008" stroke="#ffffff" stroke-linecap="round" stroke-width="6"/><line x1="57.955439412526175" y1="6.301234800997008" x2="59.07835912178052" y2="5.662935520110295" stroke="#ffffff" stroke-linecap="round" stroke-width="6"/><line x1="59.07835912178052" y1="5.662935520110295" x2="60.23866906526746" y2="5.075022217100923" stroke="#ffffff" stroke-linecap="round" stroke-width="6"/><line x1="60.23866906526746" y1="5.075022217100923" x2="61.432510149184964" y2="4.537727582792286" stroke="#ffffff" stroke-linecap="round" stroke-width="6"/><line x1="61.432510149184964" y1="4.537727582792286" x2="62.656023279731016" y2="4.0512843080123275" stroke="#ffffff" stroke-linecap="round" stroke-width="6"/><line x1="62.656023279731016" y1="4.0512843080123275" x2="63.90534936309996" y2="3.6159250835853527" stroke="#ffffff" stroke-linecap="round" stroke-width="6"/><line x1="63.90534936309996" y1="3.6159250835853527" x2="65.17662930548977" y2="3.2318826003383947" stroke="#ffffff" stroke-linecap="round" stroke-width="6"/><line x1="65.17662930548977" y1="3.2318826003383947" x2="66.46600401310207" y2="2.899389549096668" stroke="#ffffff" stroke-linecap="round" stroke-width="6"/><line x1="66.46600401310207" y1="2.899389549096668" x2="67.76961439213119" y2="2.6186786206853867" stroke="#ffffff" stroke-linecap="round" stroke-width="6"/><line x1="67.76961439213119" y1="2.6186786206853867" x2="69.08360134877876" y2="2.3899825059315845" stroke="#ffffff" stroke-linecap="round" stroke-width="6"/><line x1="48.210102904678934" y1="22.46440776277086" x2="48.19755014221664" y2="21.763811597879794" stroke="#ffffff" stroke-linecap="round" stroke-width="6"/><line x1="48.19755014221664" y1="21.763811597879794" x2="48.098575202722714" y2="20.39764554794874" stroke="#ffffff" stroke-linecap="round" stroke-width="6"/><line x1="48.098575202722714" y1="20.39764554794874" x2="47.90432362196225" y2="19.0783751135059" stroke="#ffffff" stroke-linecap="round" stroke-width="6"/><line x1="94.35640771283943" y1="19.43018438083709" x2="94.18721337987154" y2="20.870133909792457" stroke="#ffffff" stroke-linecap="round" stroke-width="6"/><line x1="47.90432362196225" y1="19.0783751135059" x2="47.61865449373727" y2="17.8062329853783" stroke="#ffffff" stroke-linecap="round" stroke-width="6"/><line x1="94.18721337987154" y1="20.870133909792457" x2="93.9087637166449" y2="22.36931166800514" stroke="#ffffff" stroke-linecap="round" stroke-width="6"/><line x1="93.9087637166449" y1="22.36931166800514" x2="93.51719962936113" y2="23.92795034630035" stroke="#ffffff" stroke-linecap="round" stroke-width="6"/><line x1="93.51719962936113" y1="23.92795034630035" x2="93.00866202421457" y2="25.546282635505122" stroke="#ffffff" stroke-linecap="round" stroke-width="6"/><line x1="93.00866202421457" y1="25.546282635505122" x2="92.3792918074032" y2="27.224541226443762" stroke="#ffffff" stroke-linecap="round" stroke-width="6"/><line x1="92.3792918074032" y1="27.224541226443762" x2="91.62522988512865" y2="28.962958809943302" stroke="#ffffff" stroke-linecap="round" stroke-width="6"/><line x1="91.62522988512865" y1="28.962958809943302" x2="90.74261716358524" y2="30.761768076828048" stroke="#ffffff" stroke-linecap="round" stroke-width="6"/><line x1="90.74261716358524" y1="30.761768076828048" x2="89.72759454897096" y2="32.62120171792503" stroke="#ffffff" stroke-linecap="round" stroke-width="6"/><line x1="89.72759454897096" y1="32.62120171792503" x2="88.57630294748378" y2="34.54149242406038" stroke="#ffffff" stroke-linecap="round" stroke-width="6"/><line x1="88.57630294748378" y1="34.54149242406038" x2="87.2848832653217" y2="36.522872886059304" stroke="#ffffff" stroke-linecap="round" stroke-width="6"/><line x1="87.2848832653217" y1="36.522872886059304" x2="86.5854194271742" y2="37.53654449139049" stroke="#ffffff" stroke-linecap="round" stroke-width="6"/><line x1="48.210102904678934" y1="92.15365910527544" x2="86.5854194271742" y2="37.53654449139049" stroke="#ffffff" stroke-linecap="round" stroke-width="6"/><line x1="48.210102904678934" y1="22.46440776277086" x2="48.22265566713759" y2="21.763811597879794" stroke="#ffffff" stroke-linecap="round" stroke-width="6"/><line x1="48.22265566713759" y1="21.763811597879794" x2="48.321630606631516" y2="20.39764554794874" stroke="#ffffff" stroke-linecap="round" stroke-width="6"/><line x1="48.321630606631516" y1="20.39764554794874" x2="48.51588218739198" y2="19.0783751135059" stroke="#ffffff" stroke-linecap="round" stroke-width="6"/><line x1="2.3800000000010186" y1="14.375756825512326" x2="2.3800000000010186" y2="21.661625188520702" stroke="#792020" stroke-linecap="round" stroke-width="1"/><line x1="2.7600000000020373" y1="13.007462049048627" x2="2.7600000000020373" y2="23.358707735421376" stroke="#792020" stroke-linecap="round" stroke-width="1"/><line x1="3.140000000003056" y1="11.99349118052396" x2="3.140000000003056" y2="24.68214186995283" stroke="#792020" stroke-linecap="round" stroke-width="1"/><line x1="3.5200000000004366" y1="11.189227147416204" x2="3.5200000000004366" y2="25.835488526521658" stroke="#792020" stroke-linecap="round" stroke-width="1"/><line x1="3.900000000001455" y1="10.49762641486268" x2="3.900000000001455" y2="26.84878443332491" stroke="#792020" stroke-linecap="round" stroke-width="1"/><line x1="4.280000000002474" y1="9.87213528168013" x2="4.280000000002474" y2="27.77573110979938" stroke="#792020" stroke-linecap="round" stroke-width="1"/><line x1="4.6599999999998545" y1="9.327826860622736" x2="4.6599999999998545" y2="28.6517847364521" stroke="#792020" stroke-linecap="round" stroke-width="1"/><line x1="5.040000000000873" y1="8.832261749930694" x2="5.040000000000873" y2="29.462330241329255" stroke="#792020" stroke-linecap="round" stroke-width="1"/><line x1="5.420000000001892" y1="8.37244915406427" x2="5.420000000001892" y2="30.2367894177396" stroke="#792020" stroke-linecap="round" stroke-width="1"/><line x1="5.80000000000291" y1="7.960026791455675" x2="5.80000000000291" y2="30.98601509047694" stroke="#792020" stroke-linecap="round" stroke-width="1"/><line x1="6.180000000000291" y1="7.567383561148745" x2="6.180000000000291" y2="31.682142224437484" stroke="#792020" stroke-linecap="round" stroke-width="1"/><line x1="6.56000000000131" y1="7.210884297588564" x2="6.56000000000131" y2="32.37826935839803" stroke="#792020" stroke-linecap="round" stroke-width="1"/><line x1="6.940000000002328" y1="6.873138482857939" x2="6.940000000002328" y2="33.033832450989394" stroke="#792020" stroke-linecap="round" stroke-width="1"/><line x1="7.319999999999709" y1="6.555848748845165" x2="7.319999999999709" y2="33.66765143081011" stroke="#792020" stroke-linecap="round" stroke-width="1"/><line x1="7.700000000000728" y1="6.264009681226526" x2="7.700000000000728" y2="34.30147041063174" stroke="#792020" stroke-linecap="round" stroke-width="1"/><line x1="8.080000000001746" y1="5.975196918002439" x2="8.080000000001746" y2="34.9037280807479" stroke="#792020" stroke-linecap="round" stroke-width="1"/><line x1="8.460000000002765" y1="5.722498832552446" x2="8.460000000002765" y2="35.486748911202085" stroke="#792020" stroke-linecap="round" stroke-width="1"/><line x1="8.840000000000146" y1="5.469800747102454" x2="8.840000000000146" y2="36.06976974165627" stroke="#792020" stroke-linecap="round" stroke-width="1"/><line x1="9.220000000001164" y1="5.236234084833995" x2="9.220000000001164" y2="36.64558849771129" stroke="#792020" stroke-linecap="round" stroke-width="1"/><line x1="9.600000000002183" y1="5.017475107447353" x2="9.600000000002183" y2="37.196289175884885" stroke="#792020" stroke-linecap="round" stroke-width="1"/><line x1="9.979999999999563" y1="4.798716130060711" x2="9.979999999999563" y2="37.74321767422589" stroke="#792020" stroke-linecap="round" stroke-width="1"/><line x1="10.360000000000582" y1="4.607285635811422" x2="10.360000000000582" y2="38.28404718220099" stroke="#792020" stroke-linecap="round" stroke-width="1"/><line x1="10.7400000000016" y1="4.418397199024184" x2="10.7400000000016" y2="38.82487669017701" stroke="#792020" stroke-linecap="round" stroke-width="1"/><line x1="11.12000000000262" y1="4.233267631109811" x2="11.12000000000262" y2="39.36570619815302" stroke="#792020" stroke-linecap="round" stroke-width="1"/><line x1="11.5" y1="4.07102448196656" x2="11.5" y2="39.906535706129034" stroke="#792020" stroke-linecap="round" stroke-width="1"/><line x1="11.880000000001019" y1="3.9087813328224" x2="11.880000000001019" y2="40.44736521410414" stroke="#792020" stroke-linecap="round" stroke-width="1"/><line x1="12.260000000002037" y1="3.7526109280452147" x2="12.260000000002037" y2="40.98819472208015" stroke="#792020" stroke-linecap="round" stroke-width="1"/><line x1="12.640000000003056" y1="3.6144303069422676" x2="12.640000000003056" y2="41.529024230056166" stroke="#792020" stroke-linecap="round" stroke-width="1"/><line x1="13.020000000000437" y1="3.476249685838411" x2="13.020000000000437" y2="42.06985373803218" stroke="#792020" stroke-linecap="round" stroke-width="1"/><line x1="13.400000000001455" y1="3.343761017736142" x2="13.400000000001455" y2="42.610683246007284" stroke="#792020" stroke-linecap="round" stroke-width="1"/><line x1="13.780000000002474" y1="3.227560319177428" x2="13.780000000002474" y2="43.1515127539833" stroke="#792020" stroke-linecap="round" stroke-width="1"/><line x1="14.159999999999854" y1="3.111359620618714" x2="14.159999999999854" y2="43.69234226195931" stroke="#792020" stroke-linecap="round" stroke-width="1"/><line x1="14.540000000000873" y1="2.9986291037275805" x2="14.540000000000873" y2="44.233171769934415" stroke="#792020" stroke-linecap="round" stroke-width="1"/><line x1="14.920000000001892" y1="2.9027230400870394" x2="14.920000000001892" y2="44.77400127791043" stroke="#792020" stroke-linecap="round" stroke-width="1"/><line x1="15.30000000000291" y1="2.8068169764464983" x2="15.30000000000291" y2="45.31483078588644" stroke="#792020" stroke-linecap="round" stroke-width="1"/><line x1="15.680000000000291" y1="2.7109109128068667" x2="15.680000000000291" y2="45.85566029386246" stroke="#792020" stroke-linecap="round" stroke-width="1"/><line x1="16.06000000000131" y1="2.6339098605112667" x2="16.06000000000131" y2="46.39648980183847" stroke="#792020" stroke-linecap="round" stroke-width="1"/><line x1="16.44000000000233" y1="2.556935029740089" x2="16.44000000000233" y2="46.937319309813574" stroke="#792020" stroke-linecap="round" stroke-width="1"/><line x1="16.81999999999971" y1="2.4799601989680014" x2="16.81999999999971" y2="47.47814881778959" stroke="#792020" stroke-linecap="round" stroke-width="1"/><line x1="17.200000000000728" y1="2.4163962122256635" x2="17.200000000000728" y2="48.0189783257656" stroke="#792020" stroke-linecap="round" stroke-width="1"/><line x1="17.580000000001746" y1="2.3572551546885734" x2="17.580000000001746" y2="48.559807833740706" stroke="#792020" stroke-linecap="round" stroke-width="1"/><line x1="17.960000000002765" y1="2.298114097150574" x2="17.960000000002765" y2="49.10063734171672" stroke="#792020" stroke-linecap="round" stroke-width="1"/><line x1="18.340000000000146" y1="2.246457291011211" x2="18.340000000000146" y2="49.64146684969273" stroke="#792020" stroke-linecap="round" stroke-width="1"/><line x1="18.720000000001164" y1="2.204276745781499" x2="18.720000000001164" y2="50.18229635766875" stroke="#792020" stroke-linecap="round" stroke-width="1"/><line x1="19.100000000002183" y1="2.1620962005508773" x2="19.100000000002183" y2="50.72312586564385" stroke="#792020" stroke-linecap="round" stroke-width="1"/><line x1="19.479999999999563" y1="2.121163076600169" x2="19.479999999999563" y2="51.263955373619865" stroke="#792020" stroke-linecap="round" stroke-width="1"/><line x1="19.860000000000582" y1="2.0952628425820876" x2="19.860000000000582" y2="51.80478488159588" stroke="#792020" stroke-linecap="round" stroke-width="1"/><line x1="20.2400000000016" y1="2.0693626085640062" x2="20.2400000000016" y2="52.34561438957098" stroke="#792020" stroke-linecap="round" stroke-width="1"/><line x1="20.62000000000262" y1="2.043462374545925" x2="20.62000000000262" y2="52.886443897547" stroke="#792020" stroke-linecap="round" stroke-width="1"/><line x1="21" y1="2.028099546237172" x2="21" y2="53.42727340552301" stroke="#792020" stroke-linecap="round" stroke-width="1"/><line x1="21.38000000000102" y1="2.017969479092244" x2="21.38000000000102" y2="53.968102913499024" stroke="#792020" stroke-linecap="round" stroke-width="1"/><line x1="21.760000000002037" y1="2.0078394119464065" x2="21.760000000002037" y2="54.50893242147504" stroke="#792020" stroke-linecap="round" stroke-width="1"/><line x1="22.140000000003056" y1="2.0011947158664043" x2="22.140000000003056" y2="55.04976192945014" stroke="#792020" stroke-linecap="round" stroke-width="1"/><line x1="22.520000000000437" y1="2.0064781613855303" x2="22.520000000000437" y2="55.590591437426156" stroke="#792020" stroke-linecap="round" stroke-width="1"/><line x1="22.900000000001455" y1="2.011761606904656" x2="22.900000000001455" y2="56.13142094540217" stroke="#792020" stroke-linecap="round" stroke-width="1"/><line x1="23.280000000002474" y1="2.017045052423782" x2="23.280000000002474" y2="56.67225045337727" stroke="#792020" stroke-linecap="round" stroke-width="1"/><line x1="23.659999999999854" y1="2.0338887829993837" x2="23.659999999999854" y2="57.21307996135329" stroke="#792020" stroke-linecap="round" stroke-width="1"/><line x1="24.040000000000873" y1="2.0543712918461097" x2="24.040000000000873" y2="57.7539094693293" stroke="#792020" stroke-linecap="round" stroke-width="1"/><line x1="24.42000000000189" y1="2.0748538006928356" x2="24.42000000000189" y2="58.294738977305315" stroke="#792020" stroke-linecap="round" stroke-width="1"/><line x1="24.80000000000291" y1="2.0995962997276365" x2="24.80000000000291" y2="58.83556848528042" stroke="#792020" stroke-linecap="round" stroke-width="1"/><line x1="25.18000000000029" y1="2.1351988700243965" x2="25.18000000000029" y2="59.37639799325643" stroke="#792020" stroke-linecap="round" stroke-width="1"/><line x1="25.56000000000131" y1="2.1708014403211564" x2="25.56000000000131" y2="59.917227501232446" stroke="#792020" stroke-linecap="round" stroke-width="1"/><line x1="25.94000000000233" y1="2.2064040106179164" x2="25.94000000000233" y2="60.45805700920755" stroke="#792020" stroke-linecap="round" stroke-width="1"/><line x1="26.31999999999971" y1="2.2541416569583816" x2="26.31999999999971" y2="60.998886517183564" stroke="#792020" stroke-linecap="round" stroke-width="1"/><line x1="26.700000000000728" y1="2.3049180647076355" x2="26.700000000000728" y2="61.53971602515958" stroke="#792020" stroke-linecap="round" stroke-width="1"/><line x1="27.080000000001746" y1="2.3556944724568893" x2="27.080000000001746" y2="62.08054553313559" stroke="#792020" stroke-linecap="round" stroke-width="1"/><line x1="27.460000000002765" y1="2.411459188254412" x2="27.460000000002765" y2="62.621375041110696" stroke="#792020" stroke-linecap="round" stroke-width="1"/><line x1="27.840000000000146" y1="2.4775972295547035" x2="27.840000000000146" y2="63.16220454908671" stroke="#792020" stroke-linecap="round" stroke-width="1"/><line x1="28.220000000001164" y1="2.5437352708540857" x2="28.220000000001164" y2="63.70303405706272" stroke="#792020" stroke-linecap="round" stroke-width="1"/><line x1="28.600000000002183" y1="2.6098733121543773" x2="28.600000000002183" y2="64.24386356503874" stroke="#792020" stroke-linecap="round" stroke-width="1"/><line x1="28.979999999999563" y1="2.6896113093062013" x2="28.979999999999563" y2="64.78469307301384" stroke="#792020" stroke-linecap="round" stroke-width="1"/><line x1="29.360000000000582" y1="2.7714380226489084" x2="29.360000000000582" y2="65.32552258098985" stroke="#792020" stroke-linecap="round" stroke-width="1"/><line x1="29.7400000000016" y1="2.853264735992525" x2="29.7400000000016" y2="65.86635208896587" stroke="#792020" stroke-linecap="round" stroke-width="1"/><line x1="30.12000000000262" y1="2.9421441884805972" x2="30.12000000000262" y2="66.40718159694188" stroke="#792020" stroke-linecap="round" stroke-width="1"/><line x1="30.5" y1="3.0401353765546446" x2="30.5" y2="66.94801110491699" stroke="#792020" stroke-linecap="round" stroke-width="1"/><line x1="30.88000000000102" y1="3.138126564628692" x2="30.88000000000102" y2="67.488840612893" stroke="#792020" stroke-linecap="round" stroke-width="1"/><line x1="31.260000000002037" y1="3.2368439939928066" x2="31.260000000002037" y2="68.02967012086901" stroke="#792020" stroke-linecap="round" stroke-width="1"/><line x1="31.640000000003056" y1="3.3516386499677537" x2="31.640000000003056" y2="68.57049962884412" stroke="#792020" stroke-linecap="round" stroke-width="1"/><line x1="32.02000000000044" y1="3.4664333059417913" x2="32.02000000000044" y2="69.11132913682013" stroke="#792020" stroke-linecap="round" stroke-width="1"/><line x1="32.400000000001455" y1="3.5812279619167384" x2="32.400000000001455" y2="69.65215864479615" stroke="#792020" stroke-linecap="round" stroke-width="1"/><line x1="32.780000000002474" y1="3.7083210508644697" x2="32.780000000002474" y2="70.19298815277216" stroke="#792020" stroke-linecap="round" stroke-width="1"/><line x1="33.159999999999854" y1="3.840741647444702" x2="33.159999999999854" y2="70.73381766074726" stroke="#792020" stroke-linecap="round" stroke-width="1"/><line x1="33.54000000000087" y1="3.9731622440240244" x2="33.54000000000087" y2="71.27464716872328" stroke="#792020" stroke-linecap="round" stroke-width="1"/><line x1="33.92000000000189" y1="4.113234080896291" x2="33.92000000000189" y2="71.81547667669929" stroke="#792020" stroke-linecap="round" stroke-width="1"/><line x1="34.30000000000291" y1="4.264314146816105" x2="34.30000000000291" y2="72.3563061846753" stroke="#792020" stroke-linecap="round" stroke-width="1"/><line x1="34.68000000000029" y1="4.415394212735919" x2="34.68000000000029" y2="72.89713569265041" stroke="#792020" stroke-linecap="round" stroke-width="1"/><line x1="35.06000000000131" y1="4.570268541846417" x2="35.06000000000131" y2="73.43796520062642" stroke="#792020" stroke-linecap="round" stroke-width="1"/><line x1="35.44000000000233" y1="4.741289596313436" x2="35.44000000000233" y2="73.97879470860244" stroke="#792020" stroke-linecap="round" stroke-width="1"/><line x1="35.81999999999971" y1="4.912310650780455" x2="35.81999999999971" y2="74.51962421657845" stroke="#792020" stroke-linecap="round" stroke-width="1"/><line x1="36.20000000000073" y1="5.0843772983271265" x2="36.20000000000073" y2="75.06045372455355" stroke="#792020" stroke-linecap="round" stroke-width="1"/><line x1="36.580000000001746" y1="5.276918141744318" x2="36.580000000001746" y2="75.60128323252957" stroke="#792020" stroke-linecap="round" stroke-width="1"/><line x1="36.960000000002765" y1="5.4694589851606" x2="36.960000000002765" y2="76.14211274050558" stroke="#792020" stroke-linecap="round" stroke-width="1"/><line x1="37.340000000000146" y1="5.661999828577791" x2="37.340000000000146" y2="76.68294224848069" stroke="#792020" stroke-linecap="round" stroke-width="1"/><line x1="37.720000000001164" y1="5.87788854426617" x2="37.720000000001164" y2="77.2237717564567" stroke="#792020" stroke-linecap="round" stroke-width="1"/><line x1="38.10000000000218" y1="6.09389127779923" x2="38.10000000000218" y2="77.76460126443271" stroke="#792020" stroke-linecap="round" stroke-width="1"/><line x1="38.47999999999956" y1="6.310930558046493" x2="38.47999999999956" y2="78.30543077240873" stroke="#792020" stroke-linecap="round" stroke-width="1"/><line x1="38.86000000000058" y1="6.552789797568948" x2="38.86000000000058" y2="78.84626028038383" stroke="#792020" stroke-linecap="round" stroke-width="1"/><line x1="39.2400000000016" y1="6.794649037091403" x2="39.2400000000016" y2="79.38708978835984" stroke="#792020" stroke-linecap="round" stroke-width="1"/><line x1="39.62000000000262" y1="7.042088586697901" x2="39.62000000000262" y2="79.92791929633586" stroke="#792020" stroke-linecap="round" stroke-width="1"/><line x1="40" y1="7.312773614101388" x2="40" y2="80.46874880431187" stroke="#792020" stroke-linecap="round" stroke-width="1"/><line x1="40.38000000000102" y1="7.583458641504876" x2="40.38000000000102" y2="81.00957831228698" stroke="#792020" stroke-linecap="round" stroke-width="1"/><line x1="40.76000000000204" y1="7.8693004977158125" x2="40.76000000000204" y2="81.55040782026299" stroke="#792020" stroke-linecap="round" stroke-width="1"/><line x1="41.140000000003056" y1="8.172525377452075" x2="41.140000000003056" y2="82.091237328239" stroke="#792020" stroke-linecap="round" stroke-width="1"/><line x1="41.52000000000044" y1="8.475750257188338" x2="41.52000000000044" y2="82.63206683621502" stroke="#792020" stroke-linecap="round" stroke-width="1"/><line x1="41.900000000001455" y1="8.811257533467142" x2="41.900000000001455" y2="83.17289634419012" stroke="#792020" stroke-linecap="round" stroke-width="1"/><line x1="42.280000000002474" y1="9.151723022641818" x2="42.280000000002474" y2="83.71372585216614" stroke="#792020" stroke-linecap="round" stroke-width="1"/><line x1="42.659999999999854" y1="9.509801398076888" x2="42.659999999999854" y2="84.25455536014215" stroke="#792020" stroke-linecap="round" stroke-width="1"/><line x1="43.04000000000087" y1="9.893547673141256" x2="43.04000000000087" y2="84.79538486811725" stroke="#792020" stroke-linecap="round" stroke-width="1"/><line x1="43.42000000000189" y1="10.28221856950222" x2="43.42000000000189" y2="85.33621437609327" stroke="#792020" stroke-linecap="round" stroke-width="1"/><line x1="43.80000000000291" y1="10.717155139014721" x2="43.80000000000291" y2="85.87704388406928" stroke="#792020" stroke-linecap="round" stroke-width="1"/><line x1="44.18000000000029" y1="11.152091708527223" x2="44.18000000000029" y2="86.4178733920453" stroke="#792020" stroke-linecap="round" stroke-width="1"/><line x1="44.56000000000131" y1="11.645410763195287" x2="44.56000000000131" y2="86.95870290002131" stroke="#792020" stroke-linecap="round" stroke-width="1"/><line x1="44.94000000000233" y1="12.14214158944651" x2="44.94000000000233" y2="87.49953240799641" stroke="#792020" stroke-linecap="round" stroke-width="1"/><line x1="45.31999999999971" y1="12.712467837007353" x2="45.31999999999971" y2="88.04036191597243" stroke="#792020" stroke-linecap="round" stroke-width="1"/><line x1="45.70000000000073" y1="13.30127411241665" x2="45.70000000000073" y2="88.58119142394844" stroke="#792020" stroke-linecap="round" stroke-width="1"/><line x1="46.080000000001746" y1="13.971850765610725" x2="46.080000000001746" y2="89.12202093192354" stroke="#792020" stroke-linecap="round" stroke-width="1"/><line x1="46.460000000002765" y1="14.71309872458096" x2="46.460000000002765" y2="89.66285043989956" stroke="#792020" stroke-linecap="round" stroke-width="1"/><line x1="46.840000000000146" y1="15.536944678117834" x2="46.840000000000146" y2="90.20367994787557" stroke="#792020" stroke-linecap="round" stroke-width="1"/><line x1="47.220000000001164" y1="16.51594413618477" x2="47.220000000001164" y2="90.74450945585158" stroke="#792020" stroke-linecap="round" stroke-width="1"/><line x1="47.60000000000218" y1="17.74501652377694" x2="47.60000000000218" y2="91.28533896382669" stroke="#792020" stroke-linecap="round" stroke-width="1"/><line x1="48.7400000000016" y1="18.0803333830072" x2="48.7400000000016" y2="91.39949072279705" stroke="#792020" stroke-linecap="round" stroke-width="1"/><line x1="49.12000000000262" y1="16.761213917260648" x2="49.12000000000262" y2="90.85866121482104" stroke="#792020" stroke-linecap="round" stroke-width="1"/><line x1="49.5" y1="15.743580056772771" x2="49.5" y2="90.31783170684503" stroke="#792020" stroke-linecap="round" stroke-width="1"/><line x1="49.88000000000102" y1="14.881852174659798" x2="49.88000000000102" y2="89.77700219886901" stroke="#792020" stroke-linecap="round" stroke-width="1"/><line x1="50.26000000000204" y1="14.113387984562905" x2="50.26000000000204" y2="89.236172690893" stroke="#792020" stroke-linecap="round" stroke-width="1"/><line x1="50.640000000003056" y1="13.44281133136883" x2="50.640000000003056" y2="88.6953431829179" stroke="#792020" stroke-linecap="round" stroke-width="1"/><line x1="51.02000000000044" y1="12.833444615710505" x2="51.02000000000044" y2="88.15451367494188" stroke="#792020" stroke-linecap="round" stroke-width="1"/><line x1="51.400000000001455" y1="12.260279451257702" x2="51.400000000001455" y2="87.61368416696587" stroke="#792020" stroke-linecap="round" stroke-width="1"/><line x1="51.780000000002474" y1="11.750254705167208" x2="51.780000000002474" y2="87.07285465899076" stroke="#792020" stroke-linecap="round" stroke-width="1"/><line x1="52.159999999999854" y1="11.253523878915985" x2="52.159999999999854" y2="86.53202515101475" stroke="#792020" stroke-linecap="round" stroke-width="1"/><line x1="52.54000000000087" y1="10.808956295789358" x2="52.54000000000087" y2="85.99119564303874" stroke="#792020" stroke-linecap="round" stroke-width="1"/><line x1="52.92000000000189" y1="10.374019726276856" x2="52.92000000000189" y2="85.45036613506272" stroke="#792020" stroke-linecap="round" stroke-width="1"/><line x1="53.30000000000291" y1="9.974544200976197" x2="53.30000000000291" y2="84.90953662708762" stroke="#792020" stroke-linecap="round" stroke-width="1"/><line x1="53.68000000000029" y1="9.59079792591183" x2="53.68000000000029" y2="84.3687071191116" stroke="#792020" stroke-linecap="round" stroke-width="1"/><line x1="54.06000000000131" y1="9.223584365050556" x2="54.06000000000131" y2="83.82787761113559" stroke="#792020" stroke-linecap="round" stroke-width="1"/><line x1="54.44000000000233" y1="8.88311887587679" x2="54.44000000000233" y2="83.28704810315958" stroke="#792020" stroke-linecap="round" stroke-width="1"/><line x1="54.81999999999971" y1="8.542653386702113" x2="54.81999999999971" y2="82.74621859518447" stroke="#792020" stroke-linecap="round" stroke-width="1"/><line x1="55.20000000000073" y1="8.236526421912458" x2="55.20000000000073" y2="82.20538908720846" stroke="#792020" stroke-linecap="round" stroke-width="1"/><line x1="55.580000000001746" y1="7.933301542176196" x2="55.580000000001746" y2="81.66455957923245" stroke="#792020" stroke-linecap="round" stroke-width="1"/><line x1="55.960000000002765" y1="7.640591567037518" x2="55.960000000002765" y2="81.12373007125643" stroke="#792020" stroke-linecap="round" stroke-width="1"/><line x1="56.340000000000146" y1="7.36990653963403" x2="56.340000000000146" y2="80.58290056328133" stroke="#792020" stroke-linecap="round" stroke-width="1"/><line x1="56.720000000001164" y1="7.099221512230542" x2="56.720000000001164" y2="80.04207105530531" stroke="#792020" stroke-linecap="round" stroke-width="1"/><line x1="57.10000000000218" y1="6.84569776355238" x2="57.10000000000218" y2="79.5012415473293" stroke="#792020" stroke-linecap="round" stroke-width="1"/><line x1="57.4800000000032" y1="6.603838524029925" x2="57.4800000000032" y2="78.9604120393542" stroke="#792020" stroke-linecap="round" stroke-width="1"/><line x1="57.86000000000058" y1="6.36197928450747" x2="57.86000000000058" y2="78.41958253137818" stroke="#792020" stroke-linecap="round" stroke-width="1"/><line x1="58.2400000000016" y1="6.13948252533919" x2="58.2400000000016" y2="77.87875302340217" stroke="#792020" stroke-linecap="round" stroke-width="1"/><line x1="58.62000000000262" y1="5.92347979180613" x2="58.62000000000262" y2="77.33792351542616" stroke="#792020" stroke-linecap="round" stroke-width="1"/><line x1="59" y1="5.707477058273071" x2="59" y2="76.79709400745105" stroke="#792020" stroke-linecap="round" stroke-width="1"/><line x1="59.38000000000102" y1="5.510098180369823" x2="59.38000000000102" y2="76.25626449947504" stroke="#792020" stroke-linecap="round" stroke-width="1"/><line x1="59.76000000000204" y1="5.317557336953541" x2="59.76000000000204" y2="75.71543499149902" stroke="#792020" stroke-linecap="round" stroke-width="1"/><line x1="60.140000000003056" y1="5.12501649353635" x2="60.140000000003056" y2="75.17460548352301" stroke="#792020" stroke-linecap="round" stroke-width="1"/><line x1="60.52000000000044" y1="4.948407708910963" x2="60.52000000000044" y2="74.6337759755479" stroke="#792020" stroke-linecap="round" stroke-width="1"/><line x1="60.900000000001455" y1="4.777386654443944" x2="60.900000000001455" y2="74.09294646757189" stroke="#792020" stroke-linecap="round" stroke-width="1"/><line x1="61.280000000002474" y1="4.606365599977835" x2="61.280000000002474" y2="73.55211695959588" stroke="#792020" stroke-linecap="round" stroke-width="1"/><line x1="61.659999999999854" y1="4.447282367904336" x2="61.659999999999854" y2="73.01128745161986" stroke="#792020" stroke-linecap="round" stroke-width="1"/><line x1="62.04000000000087" y1="4.296202301984522" x2="62.04000000000087" y2="72.47045794364476" stroke="#792020" stroke-linecap="round" stroke-width="1"/><line x1="62.42000000000189" y1="4.145122236064708" x2="62.42000000000189" y2="71.92962843566875" stroke="#792020" stroke-linecap="round" stroke-width="1"/><line x1="62.80000000000291" y1="4.001111983822739" x2="62.80000000000291" y2="71.38879892769273" stroke="#792020" stroke-linecap="round" stroke-width="1"/><line x1="63.18000000000029" y1="3.868691387243416" x2="63.18000000000029" y2="70.84796941971763" stroke="#792020" stroke-linecap="round" stroke-width="1"/><line x1="63.56000000000131" y1="3.736270790663184" x2="63.56000000000131" y2="70.30713991174161" stroke="#792020" stroke-linecap="round" stroke-width="1"/><line x1="63.94000000000233" y1="3.6054574311046963" x2="63.94000000000233" y2="69.7663104037656" stroke="#792020" stroke-linecap="round" stroke-width="1"/><line x1="64.31999999999971" y1="3.4906627751306587" x2="64.31999999999971" y2="69.22548089578959" stroke="#792020" stroke-linecap="round" stroke-width="1"/><line x1="64.70000000000073" y1="3.3758681191557116" x2="64.70000000000073" y2="68.68465138781448" stroke="#792020" stroke-linecap="round" stroke-width="1"/><line x1="65.08000000000175" y1="3.261073463181674" x2="65.08000000000175" y2="68.14382187983847" stroke="#792020" stroke-linecap="round" stroke-width="1"/><line x1="65.46000000000276" y1="3.158809360809755" x2="65.46000000000276" y2="67.60299237186246" stroke="#792020" stroke-linecap="round" stroke-width="1"/><line x1="65.84000000000015" y1="3.0608181727357078" x2="65.84000000000015" y2="67.06216286388644" stroke="#792020" stroke-linecap="round" stroke-width="1"/><line x1="66.22000000000116" y1="2.9628269846616604" x2="66.22000000000116" y2="66.52133335591134" stroke="#792020" stroke-linecap="round" stroke-width="1"/><line x1="66.60000000000218" y1="2.8705357301250842" x2="66.60000000000218" y2="65.98050384793532" stroke="#792020" stroke-linecap="round" stroke-width="1"/><line x1="66.9800000000032" y1="2.7887090167814677" x2="66.9800000000032" y2="65.43967433995931" stroke="#792020" stroke-linecap="round" stroke-width="1"/><line x1="67.36000000000058" y1="2.706882303437851" x2="67.36000000000058" y2="64.8988448319833" stroke="#792020" stroke-linecap="round" stroke-width="1"/><line x1="67.7400000000016" y1="2.625055590095144" x2="67.7400000000016" y2="64.35801532400819" stroke="#792020" stroke-linecap="round" stroke-width="1"/><line x1="68.12000000000262" y1="2.5576948896214162" x2="68.12000000000262" y2="63.81718581603218" stroke="#792020" stroke-linecap="round" stroke-width="1"/><line x1="68.5" y1="2.4915568483211246" x2="68.5" y2="63.276356308056165" stroke="#792020" stroke-linecap="round" stroke-width="1"/><line x1="68.88000000000102" y1="2.425418807020833" x2="68.88000000000102" y2="62.73552680008106" stroke="#792020" stroke-linecap="round" stroke-width="1"/><line x1="69.26000000000204" y1="2.3664117431917475" x2="69.26000000000204" y2="62.19469729210505" stroke="#792020" stroke-linecap="round" stroke-width="1"/><line x1="69.64000000000306" y1="2.3156353354424937" x2="69.64000000000306" y2="61.653867784129034" stroke="#792020" stroke-linecap="round" stroke-width="1"/><line x1="70.02000000000044" y1="2.2648589276941493" x2="70.02000000000044" y2="61.11303827615302" stroke="#792020" stroke-linecap="round" stroke-width="1"/><line x1="70.40000000000146" y1="2.2140825199448955" x2="70.40000000000146" y2="60.572208768177006" stroke="#792020" stroke-linecap="round" stroke-width="1"/><line x1="70.78000000000247" y1="2.1783160007571496" x2="70.78000000000247" y2="60.0313792602019" stroke="#792020" stroke-linecap="round" stroke-width="1"/><line x1="71.15999999999985" y1="2.1427134304603896" x2="71.15999999999985" y2="59.49054975222589" stroke="#792020" stroke-linecap="round" stroke-width="1"/><line x1="71.54000000000087" y1="2.1071108601636297" x2="71.54000000000087" y2="58.949720244249875" stroke="#792020" stroke-linecap="round" stroke-width="1"/><line x1="71.92000000000189" y1="2.0791770012183406" x2="71.92000000000189" y2="58.40889073627477" stroke="#792020" stroke-linecap="round" stroke-width="1"/><line x1="72.30000000000291" y1="2.0586944923716146" x2="72.30000000000291" y2="57.86806122829876" stroke="#792020" stroke-linecap="round" stroke-width="1"/><line x1="72.68000000000029" y1="2.0382119835248886" x2="72.68000000000029" y2="57.32723172032274" stroke="#792020" stroke-linecap="round" stroke-width="1"/><line x1="73.06000000000131" y1="2.0181602182765346" x2="73.06000000000131" y2="56.78640221234673" stroke="#792020" stroke-linecap="round" stroke-width="1"/><line x1="73.44000000000233" y1="2.0128767727574086" x2="73.44000000000233" y2="56.245572704371625" stroke="#792020" stroke-linecap="round" stroke-width="1"/><line x1="73.81999999999971" y1="2.0075933272382827" x2="73.81999999999971" y2="55.70474319639561" stroke="#792020" stroke-linecap="round" stroke-width="1"/><line x1="74.20000000000073" y1="2.0023098817191567" x2="74.20000000000073" y2="55.1639136884196" stroke="#792020" stroke-linecap="round" stroke-width="1"/><line x1="74.58000000000175" y1="2.00570127975152" x2="74.58000000000175" y2="54.62308418044449" stroke="#792020" stroke-linecap="round" stroke-width="1"/><line x1="74.96000000000276" y1="2.0158313468973574" x2="74.96000000000276" y2="54.08225467246848" stroke="#792020" stroke-linecap="round" stroke-width="1"/><line x1="75.34000000000015" y1="2.0259614140422855" x2="75.34000000000015" y2="53.541425164492466" stroke="#792020" stroke-linecap="round" stroke-width="1"/><line x1="75.72000000000116" y1="2.0379956660408425" x2="75.72000000000116" y2="53.00059565651645" stroke="#792020" stroke-linecap="round" stroke-width="1"/><line x1="76.10000000000218" y1="2.063895900058924" x2="76.10000000000218" y2="52.45976614854135" stroke="#792020" stroke-linecap="round" stroke-width="1"/><line x1="76.4800000000032" y1="2.0897961340770053" x2="76.4800000000032" y2="51.918936640565335" stroke="#792020" stroke-linecap="round" stroke-width="1"/><line x1="76.86000000000058" y1="2.1156963680950867" x2="76.86000000000058" y2="51.37810713258932" stroke="#792020" stroke-linecap="round" stroke-width="1"/><line x1="77.2400000000016" y1="2.1531932406323904" x2="77.2400000000016" y2="50.83727762461422" stroke="#792020" stroke-linecap="round" stroke-width="1"/><line x1="77.62000000000262" y1="2.1953737858621025" x2="77.62000000000262" y2="50.2964481166382" stroke="#792020" stroke-linecap="round" stroke-width="1"/><line x1="78" y1="2.237554331092724" x2="78" y2="49.75561860866219" stroke="#792020" stroke-linecap="round" stroke-width="1"/><line x1="78.38000000000102" y1="2.2856313171878355" x2="78.38000000000102" y2="49.214789100686176" stroke="#792020" stroke-linecap="round" stroke-width="1"/><line x1="78.76000000000204" y1="2.344772374725835" x2="78.76000000000204" y2="48.67395959271107" stroke="#792020" stroke-linecap="round" stroke-width="1"/><line x1="79.14000000000306" y1="2.4039134322638347" x2="79.14000000000306" y2="48.13313008473506" stroke="#792020" stroke-linecap="round" stroke-width="1"/><line x1="79.52000000000044" y1="2.463713281595119" x2="79.52000000000044" y2="47.592300576759044" stroke="#792020" stroke-linecap="round" stroke-width="1"/><line x1="79.90000000000146" y1="2.540688112366297" x2="79.90000000000146" y2="47.05147106878303" stroke="#792020" stroke-linecap="round" stroke-width="1"/><line x1="80.28000000000247" y1="2.6176629431383844" x2="80.28000000000247" y2="46.510641560807926" stroke="#792020" stroke-linecap="round" stroke-width="1"/><line x1="80.65999999999985" y1="2.694637773910472" x2="80.65999999999985" y2="45.96981205283191" stroke="#792020" stroke-linecap="round" stroke-width="1"/><line x1="81.04000000000087" y1="2.7865742831418174" x2="81.04000000000087" y2="45.4289825448559" stroke="#792020" stroke-linecap="round" stroke-width="1"/><line x1="81.42000000000189" y1="2.882480346781449" x2="81.42000000000189" y2="44.888153036879885" stroke="#792020" stroke-linecap="round" stroke-width="1"/><line x1="81.80000000000291" y1="2.97838641042199" x2="81.80000000000291" y2="44.34732352890478" stroke="#792020" stroke-linecap="round" stroke-width="1"/><line x1="82.18000000000029" y1="3.08683338094761" x2="82.18000000000029" y2="43.80649402092877" stroke="#792020" stroke-linecap="round" stroke-width="1"/><line x1="82.56000000000131" y1="3.203034079506324" x2="82.56000000000131" y2="43.26566451295275" stroke="#792020" stroke-linecap="round" stroke-width="1"/><line x1="82.94000000000233" y1="3.319234778065038" x2="82.94000000000233" y2="42.72483500497765" stroke="#792020" stroke-linecap="round" stroke-width="1"/><line x1="83.31999999999971" y1="3.4470841896481943" x2="83.31999999999971" y2="42.184005497001635" stroke="#792020" stroke-linecap="round" stroke-width="1"/><line x1="83.70000000000073" y1="3.585264810752051" x2="83.70000000000073" y2="41.64317598902562" stroke="#792020" stroke-linecap="round" stroke-width="1"/><line x1="84.08000000000175" y1="3.723445431854998" x2="84.08000000000175" y2="41.10234648104961" stroke="#792020" stroke-linecap="round" stroke-width="1"/><line x1="84.46000000000276" y1="3.8745370089045537" x2="84.46000000000276" y2="40.561516973074504" stroke="#792020" stroke-linecap="round" stroke-width="1"/><line x1="84.84000000000015" y1="4.036780158048714" x2="84.84000000000015" y2="40.02068746509849" stroke="#792020" stroke-linecap="round" stroke-width="1"/><line x1="85.22000000000116" y1="4.199023307191965" x2="85.22000000000116" y2="39.479857957122476" stroke="#792020" stroke-linecap="round" stroke-width="1"/><line x1="85.60000000000218" y1="4.378528909683155" x2="85.60000000000218" y2="38.93902844914737" stroke="#792020" stroke-linecap="round" stroke-width="1"/><line x1="85.9800000000032" y1="4.567417346470393" x2="85.9800000000032" y2="38.39819894117136" stroke="#792020" stroke-linecap="round" stroke-width="1"/><line x1="86.36000000000058" y1="4.7563057832576305" x2="86.36000000000058" y2="37.857369433195345" stroke="#792020" stroke-linecap="round" stroke-width="1"/><line x1="86.7400000000016" y1="4.971302105252107" x2="86.7400000000016" y2="37.31252442221012" stroke="#792020" stroke-linecap="round" stroke-width="1"/><line x1="87.12000000000262" y1="5.190061082638749" x2="87.12000000000262" y2="36.76182374403652" stroke="#792020" stroke-linecap="round" stroke-width="1"/><line x1="87.5" y1="5.416464287984127" x2="87.5" y2="36.19282673527596" stroke="#792020" stroke-linecap="round" stroke-width="1"/><line x1="87.88000000000102" y1="5.66916237343321" x2="87.88000000000102" y2="35.60980590482177" stroke="#792020" stroke-linecap="round" stroke-width="1"/><line x1="88.26000000000204" y1="5.921860458883202" x2="88.26000000000204" y2="35.02678507436758" stroke="#792020" stroke-linecap="round" stroke-width="1"/><line x1="88.63999999999942" y1="6.202411816439962" x2="88.63999999999942" y2="34.43524926394457" stroke="#792020" stroke-linecap="round" stroke-width="1"/><line x1="89.02000000000044" y1="6.4942508840586015" x2="89.02000000000044" y2="33.80143028412385" stroke="#792020" stroke-linecap="round" stroke-width="1"/><line x1="89.40000000000146" y1="6.801851176473974" x2="89.40000000000146" y2="33.16761130430223" stroke="#792020" stroke-linecap="round" stroke-width="1"/><line x1="89.78000000000247" y1="7.139596991205508" x2="89.78000000000247" y2="32.52519946416396" stroke="#792020" stroke-linecap="round" stroke-width="1"/><line x1="90.15999999999985" y1="7.484509171482387" x2="90.15999999999985" y2="31.829072330203417" stroke="#792020" stroke-linecap="round" stroke-width="1"/><line x1="90.54000000000087" y1="7.877152401789317" x2="90.54000000000087" y2="31.132945196242872" stroke="#792020" stroke-linecap="round" stroke-width="1"/><line x1="90.92000000000189" y1="8.275397466164577" x2="90.92000000000189" y2="30.400252904723857" stroke="#792020" stroke-linecap="round" stroke-width="1"/><line x1="91.30000000000291" y1="8.73521006203191" x2="91.30000000000291" y2="29.62579372831351" stroke="#792020" stroke-linecap="round" stroke-width="1"/><line x1="91.68000000000029" y1="9.212940814706599" x2="91.68000000000029" y2="28.836691552665798" stroke="#792020" stroke-linecap="round" stroke-width="1"/><line x1="92.06000000000131" y1="9.757249235763993" x2="92.06000000000131" y2="27.960637926013078" stroke="#792020" stroke-linecap="round" stroke-width="1"/><line x1="92.44000000000233" y1="10.359514176822813" x2="92.44000000000233" y2="27.062658692056175" stroke="#792020" stroke-linecap="round" stroke-width="1"/><line x1="92.81999999999971" y1="11.019472811341984" x2="92.81999999999971" y2="26.049362785252924" stroke="#792020" stroke-linecap="round" stroke-width="1"/><line x1="93.20000000000073" y1="11.82373684445065" x2="93.20000000000073" y2="24.937382878173594" stroke="#792020" stroke-linecap="round" stroke-width="1"/><line x1="93.58000000000175" y1="12.791863057309456" x2="93.58000000000175" y2="23.677970611511228" stroke="#792020" stroke-linecap="round" stroke-width="1"/><line x1="93.96000000000276" y1="14.050212920132253" x2="93.96000000000276" y2="22.093454640446907" stroke="#792020" stroke-linecap="round" stroke-width="1"/><line x1="94.34000000000015" y1="16.330755514630255" x2="94.34000000000015" y2="19.569824272770347" stroke="#792020" stroke-linecap="round" stroke-width="1"/><line x1="47.97999999999956" y1="19.59233545164443" x2="47.97999999999956" y2="91.8261684718027" stroke="#792020" stroke-linecap="round" stroke-width="1"/><line x1="48.36000000000058" y1="20.137057674925018" x2="48.36000000000058" y2="91.94032023077216" stroke="#792020" stroke-linecap="round" stroke-width="1"/><line x1="41.570593181175354" y1="8.516121602654493" x2="40.5829987374309" y2="7.728060533094322" stroke="#030303" stroke-linecap="round" stroke-width="2"/><line x1="40.5829987374309" y1="7.728060533094322" x2="39.54643677804779" y2="6.989687368934028" stroke="#030303" stroke-linecap="round" stroke-width="2"/><line x1="39.54643677804779" y1="6.989687368934028" x2="38.464766396828054" y2="6.301234800997008" stroke="#030303" stroke-linecap="round" stroke-width="2"/><line x1="38.464766396828054" y1="6.301234800997008" x2="37.34184668757371" y2="5.662935520110295" stroke="#030303" stroke-linecap="round" stroke-width="2"/><line x1="37.34184668757371" y1="5.662935520110295" x2="36.18153674408677" y2="5.075022217100923" stroke="#030303" stroke-linecap="round" stroke-width="2"/><line x1="36.18153674408677" y1="5.075022217100923" x2="34.987695660169265" y2="4.537727582792286" stroke="#030303" stroke-linecap="round" stroke-width="2"/><line x1="34.987695660169265" y1="4.537727582792286" x2="33.76418252962685" y2="4.0512843080123275" stroke="#030303" stroke-linecap="round" stroke-width="2"/><line x1="33.76418252962685" y1="4.0512843080123275" x2="32.51485644625791" y2="3.6159250835853527" stroke="#030303" stroke-linecap="round" stroke-width="2"/><line x1="32.51485644625791" y1="3.6159250835853527" x2="31.24357650386446" y2="3.2318826003383947" stroke="#030303" stroke-linecap="round" stroke-width="2"/><line x1="31.24357650386446" y1="3.2318826003383947" x2="29.954201796252164" y2="2.899389549096668" stroke="#030303" stroke-linecap="round" stroke-width="2"/><line x1="29.954201796252164" y1="2.899389549096668" x2="28.65059141722304" y2="2.6186786206853867" stroke="#030303" stroke-linecap="round" stroke-width="2"/><line x1="28.65059141722304" y1="2.6186786206853867" x2="27.336604460575472" y2="2.3899825059315845" stroke="#030303" stroke-linecap="round" stroke-width="2"/><line x1="27.336604460575472" y1="2.3899825059315845" x2="26.016100020118756" y2="2.213533895659566" stroke="#030303" stroke-linecap="round" stroke-width="2"/><line x1="26.016100020118756" y1="2.213533895659566" x2="24.692937189647637" y2="2.0895654806972743" stroke="#030303" stroke-linecap="round" stroke-width="2"/><line x1="24.692937189647637" y1="2.0895654806972743" x2="23.370975062967773" y2="2.0183099518681047" stroke="#030303" stroke-linecap="round" stroke-width="2"/><line x1="23.370975062967773" y1="2.0183099518681047" x2="22.054072733884823" y2="2" stroke="#030303" stroke-linecap="round" stroke-width="2"/><line x1="22.054072733884823" y1="2" x2="20.74608929619353" y2="2.034868315917265" stroke="#030303" stroke-linecap="round" stroke-width="2"/><line x1="20.74608929619353" y1="2.034868315917265" x2="19.450883843703195" y2="2.1231475904469335" stroke="#030303" stroke-linecap="round" stroke-width="2"/><line x1="19.450883843703195" y1="2.1231475904469335" x2="18.172315470212197" y2="2.26507051441331" stroke="#030303" stroke-linecap="round" stroke-width="2"/><line x1="18.172315470212197" y1="2.26507051441331" x2="16.914243269526196" y2="2.460869778644337" stroke="#030303" stroke-linecap="round" stroke-width="2"/><line x1="16.914243269526196" y1="2.460869778644337" x2="15.680526335443574" y2="2.710778073963411" stroke="#030303" stroke-linecap="round" stroke-width="2"/><line x1="15.680526335443574" y1="2.710778073963411" x2="14.47502376176999" y2="3.015028091197564" stroke="#030303" stroke-linecap="round" stroke-width="2"/><line x1="14.47502376176999" y1="3.015028091197564" x2="13.301594642307464" y2="3.373852521172921" stroke="#030303" stroke-linecap="round" stroke-width="2"/><line x1="13.301594642307464" y1="3.373852521172921" x2="12.16409807085438" y2="3.787484054714696" stroke="#030303" stroke-linecap="round" stroke-width="2"/><line x1="12.16409807085438" y1="3.787484054714696" x2="11.066393141216395" y2="4.256155382649013" stroke="#030303" stroke-linecap="round" stroke-width="2"/><line x1="11.066393141216395" y1="4.256155382649013" x2="10.01233894719553" y2="4.780099195801995" stroke="#030303" stroke-linecap="round" stroke-width="2"/><line x1="10.01233894719553" y1="4.780099195801995" x2="9.005794582593808" y2="5.359548184998857" stroke="#030303" stroke-linecap="round" stroke-width="2"/><line x1="9.005794582593808" y1="5.359548184998857" x2="8.050619141216885" y2="5.994735041065724" stroke="#030303" stroke-linecap="round" stroke-width="2"/><line x1="8.050619141216885" y1="5.994735041065724" x2="7.150671716859506" y2="6.685892454827808" stroke="#030303" stroke-linecap="round" stroke-width="2"/><line x1="7.150671716859506" y1="6.685892454827808" x2="6.3098114033309685" y2="7.433253117111235" stroke="#030303" stroke-linecap="round" stroke-width="2"/><line x1="6.3098114033309685" y1="7.433253117111235" x2="5.531897294429655" y2="8.237049718743037" stroke="#030303" stroke-linecap="round" stroke-width="2"/><line x1="5.531897294429655" y1="8.237049718743037" x2="4.820788483961223" y2="9.09751495054661" stroke="#030303" stroke-linecap="round" stroke-width="2"/><line x1="4.820788483961223" y1="9.09751495054661" x2="4.180344065724057" y2="10.014881503349898" stroke="#030303" stroke-linecap="round" stroke-width="2"/><line x1="4.180344065724057" y1="10.014881503349898" x2="3.6144231335238146" y2="10.989382067978113" stroke="#030303" stroke-linecap="round" stroke-width="2"/><line x1="3.6144231335238146" y1="10.989382067978113" x2="3.1268847811625164" y2="12.02124933525738" stroke="#030303" stroke-linecap="round" stroke-width="2"/><line x1="3.1268847811625164" y1="12.02124933525738" x2="2.7215881024385453" y2="13.110715996012004" stroke="#030303" stroke-linecap="round" stroke-width="2"/><line x1="2.7215881024385453" y1="13.110715996012004" x2="2.402392191161198" y2="14.258014741069019" stroke="#030303" stroke-linecap="round" stroke-width="2"/><line x1="2.402392191161198" y1="14.258014741069019" x2="2.1731561411252187" y2="15.463378261254547" stroke="#030303" stroke-linecap="round" stroke-width="2"/><line x1="2.1731561411252187" y1="15.463378261254547" x2="2.0377390461399045" y2="16.727039247393805" stroke="#030303" stroke-linecap="round" stroke-width="2"/><line x1="2.0377390461399045" y1="16.727039247393805" x2="2" y2="18.049230390312914" stroke="#030303" stroke-linecap="round" stroke-width="2"/><line x1="2" y1="18.049230390312914" x2="2.0637980965148017" y2="19.43018438083709" stroke="#030303" stroke-linecap="round" stroke-width="2"/><line x1="25.409126268772525" y1="17.161126226830675" x2="25.81066772322447" y2="17.39674409975578" stroke="#030303" stroke-linecap="round" stroke-width="2"/><line x1="25.81066772322447" y1="17.39674409975578" x2="26.14255226255409" y2="17.617509271215567" stroke="#030303" stroke-linecap="round" stroke-width="2"/><line x1="26.14255226255409" y1="17.617509271215567" x2="28.83689478443921" y2="19.380879561205802" stroke="#030303" stroke-linecap="round" stroke-width="2"/><line x1="2.0637980965148017" y1="19.43018438083709" x2="2.2329924294826924" y2="20.870133909792457" stroke="#030303" stroke-linecap="round" stroke-width="2"/><line x1="2.2329924294826924" y1="20.870133909792457" x2="2.5114420927093306" y2="22.36931166800514" stroke="#030303" stroke-linecap="round" stroke-width="2"/><line x1="2.5114420927093306" y1="22.36931166800514" x2="2.903006179993099" y2="23.92795034630035" stroke="#030303" stroke-linecap="round" stroke-width="2"/><line x1="2.903006179993099" y1="23.92795034630035" x2="3.4115437851396564" y2="25.546282635505122" stroke="#030303" stroke-linecap="round" stroke-width="2"/><line x1="3.4115437851396564" y1="25.546282635505122" x2="4.040914001951023" y2="27.224541226443762" stroke="#030303" stroke-linecap="round" stroke-width="2"/><line x1="4.040914001951023" y1="27.224541226443762" x2="4.794975924225582" y2="28.962958809943302" stroke="#030303" stroke-linecap="round" stroke-width="2"/><line x1="4.794975924225582" y1="28.962958809943302" x2="5.677588645768992" y2="30.761768076828048" stroke="#030303" stroke-linecap="round" stroke-width="2"/><line x1="5.677588645768992" y1="30.761768076828048" x2="6.6926112603832735" y2="32.62120171792503" stroke="#030303" stroke-linecap="round" stroke-width="2"/><line x1="6.6926112603832735" y1="32.62120171792503" x2="7.843902861870447" y2="34.54149242406038" stroke="#030303" stroke-linecap="round" stroke-width="2"/><line x1="7.843902861870447" y1="34.54149242406038" x2="9.135322544032533" y2="36.522872886059304" stroke="#030303" stroke-linecap="round" stroke-width="2"/><line x1="9.135322544032533" y1="36.522872886059304" x2="9.834786382180027" y2="37.53654449139049" stroke="#030303" stroke-linecap="round" stroke-width="2"/><line x1="48.210102904678934" y1="92.15365910527544" x2="9.834786382180027" y2="37.53654449139049" stroke="#030303" stroke-linecap="round" stroke-width="2"/><line x1="31.557646648725495" y1="50.90492969573643" x2="31.854697945924272" y2="50.68163311472199" stroke="#030303" stroke-linecap="round" stroke-width="2"/><line x1="31.854697945924272" y1="50.68163311472199" x2="32.367404905824515" y2="50.40268176539939" stroke="#030303" stroke-linecap="round" stroke-width="2"/><line x1="32.367404905824515" y1="50.40268176539939" x2="32.78137889934078" y2="50.194421831618456" stroke="#030303" stroke-linecap="round" stroke-width="2"/><line x1="32.78137889934078" y1="50.194421831618456" x2="33.29338748403097" y2="49.95153812902936" stroke="#030303" stroke-linecap="round" stroke-width="2"/><line x1="33.29338748403097" y1="49.95153812902936" x2="33.89852893034549" y2="49.69213885170939" stroke="#030303" stroke-linecap="round" stroke-width="2"/><line x1="33.89852893034549" y1="49.69213885170939" x2="34.596240846603905" y2="49.42933253262072" stroke="#030303" stroke-linecap="round" stroke-width="2"/><line x1="34.596240846603905" y1="49.42933253262072" x2="35.40236596635441" y2="49.15919527244296" stroke="#030303" stroke-linecap="round" stroke-width="2"/><line x1="35.40236596635441" y1="49.15919527244296" x2="36.31557788083228" y2="48.88209361822919" stroke="#030303" stroke-linecap="round" stroke-width="2"/><line x1="36.31557788083228" y1="48.88209361822919" x2="37.33052225030042" y2="48.59428153827503" stroke="#030303" stroke-linecap="round" stroke-width="2"/><line x1="37.33052225030042" y1="48.59428153827503" x2="39.58062230952055" y2="48.00071945187938" stroke="#030303" stroke-linecap="round" stroke-width="2"/><line x1="39.58062230952055" y1="48.00071945187938" x2="40.75985457025308" y2="47.711939314745905" stroke="#030303" stroke-linecap="round" stroke-width="2"/><line x1="23.77501878424664" y1="24.95456192227175" x2="23.792946828860295" y2="25.248465580907578" stroke="#030303" stroke-linecap="round" stroke-width="2"/><line x1="23.792946828860295" y1="25.248465580907578" x2="23.798335455416236" y2="25.507169150194386" stroke="#030303" stroke-linecap="round" stroke-width="2"/><line x1="23.798335455416236" y1="25.507169150194386" x2="23.835822304150497" y2="28.12919215799593" stroke="#030303" stroke-linecap="round" stroke-width="2"/><line x1="23.835822304150497" y1="28.12919215799593" x2="23.829639613759355" y2="28.683811413494368" stroke="#030303" stroke-linecap="round" stroke-width="2"/><line x1="23.829639613759355" y1="28.683811413494368" x2="23.788847474515933" y2="31.72904262682823" stroke="#030303" stroke-linecap="round" stroke-width="2"/><line x1="23.788847474515933" y1="31.72904262682823" x2="23.757283294769877" y2="34.66516215268348" stroke="#030303" stroke-linecap="round" stroke-width="2"/><line x1="23.757283294769877" y1="34.66516215268348" x2="23.732859534175077" y2="37.29820446633312" stroke="#030303" stroke-linecap="round" stroke-width="2"/><line x1="23.732859534175077" y1="37.29820446633312" x2="23.72990847491019" y2="38.621316122079406" stroke="#030303" stroke-linecap="round" stroke-width="2"/><line x1="28.83689478443921" y1="19.380879561205802" x2="31.362269253197155" y2="21.003212372318558" stroke="#030303" stroke-linecap="round" stroke-width="2"/><line x1="31.362269253197155" y1="21.003212372318558" x2="33.67733417326235" y2="22.508459106103146" stroke="#030303" stroke-linecap="round" stroke-width="2"/><line x1="33.67733417326235" y1="22.508459106103146" x2="36.17546651906741" y2="24.183139022808973" stroke="#030303" stroke-linecap="round" stroke-width="2"/><line x1="36.17546651906741" y1="24.183139022808973" x2="38.2535390855337" y2="25.62958478298424" stroke="#030303" stroke-linecap="round" stroke-width="2"/><line x1="38.2535390855337" y1="25.62958478298424" x2="38.61063802177159" y2="25.87865993534797" stroke="#030303" stroke-linecap="round" stroke-width="2"/><line x1="69.08360134877876" y1="2.3899825059315845" x2="70.40410578923547" y2="2.213533895659566" stroke="#030303" stroke-linecap="round" stroke-width="2"/><line x1="70.40410578923547" y1="2.213533895659566" x2="71.72726861970659" y2="2.0895654806972743" stroke="#030303" stroke-linecap="round" stroke-width="2"/><line x1="71.72726861970659" y1="2.0895654806972743" x2="73.04923074638646" y2="2.0183099518681047" stroke="#030303" stroke-linecap="round" stroke-width="2"/><line x1="73.04923074638646" y1="2.0183099518681047" x2="74.3661330754694" y2="2" stroke="#030303" stroke-linecap="round" stroke-width="2"/><line x1="74.3661330754694" y1="2" x2="75.6741165131607" y2="2.034868315917265" stroke="#030303" stroke-linecap="round" stroke-width="2"/><line x1="75.6741165131607" y1="2.034868315917265" x2="76.96932196565103" y2="2.1231475904469335" stroke="#030303" stroke-linecap="round" stroke-width="2"/><line x1="76.96932196565103" y1="2.1231475904469335" x2="78.24789033914203" y2="2.26507051441331" stroke="#030303" stroke-linecap="round" stroke-width="2"/><line x1="78.24789033914203" y1="2.26507051441331" x2="79.50596253982803" y2="2.460869778644337" stroke="#030303" stroke-linecap="round" stroke-width="2"/><line x1="79.50596253982803" y1="2.460869778644337" x2="80.73967947391066" y2="2.710778073963411" stroke="#030303" stroke-linecap="round" stroke-width="2"/><line x1="80.73967947391066" y1="2.710778073963411" x2="81.94518204758424" y2="3.015028091197564" stroke="#030303" stroke-linecap="round" stroke-width="2"/><line x1="81.94518204758424" y1="3.015028091197564" x2="83.11861116704677" y2="3.373852521172921" stroke="#030303" stroke-linecap="round" stroke-width="2"/><line x1="83.11861116704677" y1="3.373852521172921" x2="84.25610773849985" y2="3.787484054714696" stroke="#030303" stroke-linecap="round" stroke-width="2"/><line x1="84.25610773849985" y1="3.787484054714696" x2="85.35381266813783" y2="4.256155382649013" stroke="#030303" stroke-linecap="round" stroke-width="2"/><line x1="85.35381266813783" y1="4.256155382649013" x2="86.4078668621587" y2="4.780099195801995" stroke="#030303" stroke-linecap="round" stroke-width="2"/><line x1="86.4078668621587" y1="4.780099195801995" x2="87.41441122676042" y2="5.359548184998857" stroke="#030303" stroke-linecap="round" stroke-width="2"/><line x1="87.41441122676042" y1="5.359548184998857" x2="88.36958666813734" y2="5.994735041065724" stroke="#030303" stroke-linecap="round" stroke-width="2"/><line x1="88.36958666813734" y1="5.994735041065724" x2="89.26953409249472" y2="6.685892454827808" stroke="#030303" stroke-linecap="round" stroke-width="2"/><line x1="89.26953409249472" y1="6.685892454827808" x2="90.11039440602326" y2="7.433253117111235" stroke="#030303" stroke-linecap="round" stroke-width="2"/><line x1="90.11039440602326" y1="7.433253117111235" x2="90.88830851492457" y2="8.237049718743037" stroke="#030303" stroke-linecap="round" stroke-width="2"/><line x1="90.88830851492457" y1="8.237049718743037" x2="91.599417325393" y2="9.09751495054661" stroke="#030303" stroke-linecap="round" stroke-width="2"/><line x1="91.599417325393" y1="9.09751495054661" x2="92.23986174363017" y2="10.014881503349898" stroke="#030303" stroke-linecap="round" stroke-width="2"/><line x1="92.23986174363017" y1="10.014881503349898" x2="92.80578267583041" y2="10.989382067978113" stroke="#030303" stroke-linecap="round" stroke-width="2"/><line x1="92.80578267583041" y1="10.989382067978113" x2="93.29332102819171" y2="12.02124933525738" stroke="#030303" stroke-linecap="round" stroke-width="2"/><line x1="93.29332102819171" y1="12.02124933525738" x2="93.69861770691568" y2="13.110715996012004" stroke="#030303" stroke-linecap="round" stroke-width="2"/><line x1="93.69861770691568" y1="13.110715996012004" x2="94.01781361819303" y2="14.258014741069019" stroke="#030303" stroke-linecap="round" stroke-width="2"/><line x1="94.01781361819303" y1="14.258014741069019" x2="94.24704966822901" y2="15.463378261254547" stroke="#030303" stroke-linecap="round" stroke-width="2"/><line x1="94.24704966822901" y1="15.463378261254547" x2="94.38246676321432" y2="16.727039247393805" stroke="#030303" stroke-linecap="round" stroke-width="2"/><line x1="94.38246676321432" y1="16.727039247393805" x2="94.42020580935423" y2="18.049230390312914" stroke="#030303" stroke-linecap="round" stroke-width="2"/><line x1="94.42020580935423" y1="18.049230390312914" x2="94.35640771283943" y2="19.43018438083709" stroke="#030303" stroke-linecap="round" stroke-width="2"/><line x1="47.61865449373727" y1="17.8062329853783" x2="47.24542691184979" y2="16.58145185439116" stroke="#030303" stroke-linecap="round" stroke-width="2"/><line x1="47.24542691184979" y1="16.58145185439116" x2="46.7884999700982" y2="15.404264411370605" stroke="#030303" stroke-linecap="round" stroke-width="2"/><line x1="46.7884999700982" y1="15.404264411370605" x2="46.25173276229543" y2="14.274903347142754" stroke="#030303" stroke-linecap="round" stroke-width="2"/><line x1="46.25173276229543" y1="14.274903347142754" x2="45.63898438223259" y2="13.193601352531914" stroke="#030303" stroke-linecap="round" stroke-width="2"/><line x1="45.63898438223259" y1="13.193601352531914" x2="44.95411392371898" y2="12.160591118366028" stroke="#030303" stroke-linecap="round" stroke-width="2"/><line x1="44.95411392371898" y1="12.160591118366028" x2="44.20098048055297" y2="11.176105335469401" stroke="#030303" stroke-linecap="round" stroke-width="2"/><line x1="44.20098048055297" y1="11.176105335469401" x2="43.38344314654023" y2="10.240376694667248" stroke="#030303" stroke-linecap="round" stroke-width="2"/><line x1="43.38344314654023" y1="10.240376694667248" x2="42.50536101547914" y2="9.35363788678751" stroke="#030303" stroke-linecap="round" stroke-width="2"/><line x1="42.50536101547914" y1="9.35363788678751" x2="41.570593181175354" y2="8.516121602654493" stroke="#030303" stroke-linecap="round" stroke-width="2"/><line x1="48.51588218739198" y1="19.0783751135059" x2="48.80155131561696" y2="17.8062329853783" stroke="#030303" stroke-linecap="round" stroke-width="2"/><line x1="48.80155131561696" y1="17.8062329853783" x2="49.17477889750444" y2="16.58145185439116" stroke="#030303" stroke-linecap="round" stroke-width="2"/><line x1="49.17477889750444" y1="16.58145185439116" x2="49.63170583925603" y2="15.404264411370605" stroke="#030303" stroke-linecap="round" stroke-width="2"/><line x1="49.63170583925603" y1="15.404264411370605" x2="50.1684730470588" y2="14.274903347142754" stroke="#030303" stroke-linecap="round" stroke-width="2"/><line x1="50.1684730470588" y1="14.274903347142754" x2="50.781221427121636" y2="13.193601352531914" stroke="#030303" stroke-linecap="round" stroke-width="2"/><line x1="50.781221427121636" y1="13.193601352531914" x2="51.46609188563525" y2="12.160591118366028" stroke="#030303" stroke-linecap="round" stroke-width="2"/><line x1="51.46609188563525" y1="12.160591118366028" x2="52.21922532880126" y2="11.176105335469401" stroke="#030303" stroke-linecap="round" stroke-width="2"/><line x1="52.21922532880126" y1="11.176105335469401" x2="53.036762662814" y2="10.240376694667248" stroke="#030303" stroke-linecap="round" stroke-width="2"/><line x1="53.036762662814" y1="10.240376694667248" x2="53.91484479387509" y2="9.35363788678751" stroke="#030303" stroke-linecap="round" stroke-width="2"/><line x1="53.91484479387509" y1="9.35363788678751" x2="54.849612628178875" y2="8.516121602654493" stroke="#030303" stroke-linecap="round" stroke-width="2"/><line x1="54.849612628178875" y1="8.516121602654493" x2="55.83720707192333" y2="7.728060533094322" stroke="#030303" stroke-linecap="round" stroke-width="2"/><line x1="55.83720707192333" y1="7.728060533094322" x2="56.87376903130644" y2="6.989687368934028" stroke="#030303" stroke-linecap="round" stroke-width="2"/><line x1="56.87376903130644" y1="6.989687368934028" x2="57.955439412526175" y2="6.301234800997008" stroke="#030303" stroke-linecap="round" stroke-width="2"/><line x1="57.955439412526175" y1="6.301234800997008" x2="59.07835912178052" y2="5.662935520110295" stroke="#030303" stroke-linecap="round" stroke-width="2"/><line x1="59.07835912178052" y1="5.662935520110295" x2="60.23866906526746" y2="5.075022217100923" stroke="#030303" stroke-linecap="round" stroke-width="2"/><line x1="60.23866906526746" y1="5.075022217100923" x2="61.432510149184964" y2="4.537727582792286" stroke="#030303" stroke-linecap="round" stroke-width="2"/><line x1="61.432510149184964" y1="4.537727582792286" x2="62.656023279731016" y2="4.0512843080123275" stroke="#030303" stroke-linecap="round" stroke-width="2"/><line x1="62.656023279731016" y1="4.0512843080123275" x2="63.90534936309996" y2="3.6159250835853527" stroke="#030303" stroke-linecap="round" stroke-width="2"/><line x1="63.90534936309996" y1="3.6159250835853527" x2="65.17662930548977" y2="3.2318826003383947" stroke="#030303" stroke-linecap="round" stroke-width="2"/><line x1="65.17662930548977" y1="3.2318826003383947" x2="66.46600401310207" y2="2.899389549096668" stroke="#030303" stroke-linecap="round" stroke-width="2"/><line x1="66.46600401310207" y1="2.899389549096668" x2="67.76961439213119" y2="2.6186786206853867" stroke="#030303" stroke-linecap="round" stroke-width="2"/><line x1="67.76961439213119" y1="2.6186786206853867" x2="69.08360134877876" y2="2.3899825059315845" stroke="#030303" stroke-linecap="round" stroke-width="2"/><line x1="69.84427979036263" y1="13.830060969908118" x2="69.5114337005507" y2="14.012106435899113" stroke="#030303" stroke-linecap="round" stroke-width="2"/><line x1="69.5114337005507" y1="14.012106435899113" x2="69.17297187859731" y2="14.22298017013236" stroke="#030303" stroke-linecap="round" stroke-width="2"/><line x1="69.17297187859731" y1="14.22298017013236" x2="68.70687748564524" y2="14.545868278993112" stroke="#030303" stroke-linecap="round" stroke-width="2"/><line x1="68.70687748564524" y1="14.545868278993112" x2="68.20752255326443" y2="14.909177241490397" stroke="#030303" stroke-linecap="round" stroke-width="2"/><line x1="68.20752255326443" y1="14.909177241490397" x2="66.9800005306679" y2="15.841621657687028" stroke="#030303" stroke-linecap="round" stroke-width="2"/><line x1="66.9800005306679" y1="15.841621657687028" x2="65.09097109312279" y2="17.33266318290225" stroke="#030303" stroke-linecap="round" stroke-width="2"/><line x1="65.09097109312279" y1="17.33266318290225" x2="63.902713125971786" y2="18.305830363582572" stroke="#030303" stroke-linecap="round" stroke-width="2"/><line x1="63.902713125971786" y1="18.305830363582572" x2="63.32302994345446" y2="18.798535175576035" stroke="#030303" stroke-linecap="round" stroke-width="2"/><line x1="48.210102904678934" y1="22.46440776277086" x2="48.19755014221664" y2="21.763811597879794" stroke="#030303" stroke-linecap="round" stroke-width="2"/><line x1="48.19755014221664" y1="21.763811597879794" x2="48.098575202722714" y2="20.39764554794874" stroke="#030303" stroke-linecap="round" stroke-width="2"/><line x1="48.098575202722714" y1="20.39764554794874" x2="47.90432362196225" y2="19.0783751135059" stroke="#030303" stroke-linecap="round" stroke-width="2"/><line x1="94.35640771283943" y1="19.43018438083709" x2="94.18721337987154" y2="20.870133909792457" stroke="#030303" stroke-linecap="round" stroke-width="2"/><line x1="47.90432362196225" y1="19.0783751135059" x2="47.61865449373727" y2="17.8062329853783" stroke="#030303" stroke-linecap="round" stroke-width="2"/><line x1="94.18721337987154" y1="20.870133909792457" x2="93.9087637166449" y2="22.36931166800514" stroke="#030303" stroke-linecap="round" stroke-width="2"/><line x1="93.9087637166449" y1="22.36931166800514" x2="93.51719962936113" y2="23.92795034630035" stroke="#030303" stroke-linecap="round" stroke-width="2"/><line x1="93.51719962936113" y1="23.92795034630035" x2="93.00866202421457" y2="25.546282635505122" stroke="#030303" stroke-linecap="round" stroke-width="2"/><line x1="93.00866202421457" y1="25.546282635505122" x2="92.3792918074032" y2="27.224541226443762" stroke="#030303" stroke-linecap="round" stroke-width="2"/><line x1="92.3792918074032" y1="27.224541226443762" x2="91.62522988512865" y2="28.962958809943302" stroke="#030303" stroke-linecap="round" stroke-width="2"/><line x1="91.62522988512865" y1="28.962958809943302" x2="90.74261716358524" y2="30.761768076828048" stroke="#030303" stroke-linecap="round" stroke-width="2"/><line x1="90.74261716358524" y1="30.761768076828048" x2="89.72759454897096" y2="32.62120171792503" stroke="#030303" stroke-linecap="round" stroke-width="2"/><line x1="89.72759454897096" y1="32.62120171792503" x2="88.57630294748378" y2="34.54149242406038" stroke="#030303" stroke-linecap="round" stroke-width="2"/><line x1="88.57630294748378" y1="34.54149242406038" x2="87.2848832653217" y2="36.522872886059304" stroke="#030303" stroke-linecap="round" stroke-width="2"/><line x1="87.2848832653217" y1="36.522872886059304" x2="86.5854194271742" y2="37.53654449139049" stroke="#030303" stroke-linecap="round" stroke-width="2"/><line x1="48.210102904678934" y1="92.15365910527544" x2="86.5854194271742" y2="37.53654449139049" stroke="#030303" stroke-linecap="round" stroke-width="2"/><line x1="48.210102904678934" y1="22.46440776277086" x2="48.22265566713759" y2="21.763811597879794" stroke="#030303" stroke-linecap="round" stroke-width="2"/><line x1="48.22265566713759" y1="21.763811597879794" x2="48.321630606631516" y2="20.39764554794874" stroke="#030303" stroke-linecap="round" stroke-width="2"/><line x1="48.321630606631516" y1="20.39764554794874" x2="48.51588218739198" y2="19.0783751135059" stroke="#030303" stroke-linecap="round" stroke-width="2"/><line x1="40.75985457025308" y1="47.711939314745905" x2="43.14950432883779" y2="47.18516261352397" stroke="#030303" stroke-linecap="round" stroke-width="2"/><line x1="43.14950432883779" y1="47.18516261352397" x2="44.34681655622626" y2="46.96172582676081" stroke="#030303" stroke-linecap="round" stroke-width="2"/><line x1="44.34681655622626" y1="46.96172582676081" x2="45.54977119478281" y2="46.76993213637979" stroke="#030303" stroke-linecap="round" stroke-width="2"/><line x1="45.54977119478281" y1="46.76993213637979" x2="46.75399187254152" y2="46.616387890378974" stroke="#030303" stroke-linecap="round" stroke-width="2"/><line x1="46.75399187254152" y1="46.616387890378974" x2="47.96760379036277" y2="46.490992113721404" stroke="#030303" stroke-linecap="round" stroke-width="2"/><line x1="47.96760379036277" y1="46.490992113721404" x2="49.190137386241986" y2="46.39643163434903" stroke="#030303" stroke-linecap="round" stroke-width="2"/><line x1="49.190137386241986" y1="46.39643163434903" x2="50.41295807345887" y2="46.331164687398086" stroke="#030303" stroke-linecap="round" stroke-width="2"/><line x1="50.41295807345887" y1="46.331164687398086" x2="51.62786299462459" y2="46.29782084765611" stroke="#030303" stroke-linecap="round" stroke-width="2"/><line x1="51.62786299462459" y1="46.29782084765611" x2="52.83115368664221" y2="46.29480395976134" stroke="#030303" stroke-linecap="round" stroke-width="2"/><line x1="52.83115368664221" y1="46.29480395976134" x2="54.01522235814264" y2="46.32469192753251" stroke="#030303" stroke-linecap="round" stroke-width="2"/><line x1="54.01522235814264" y1="46.32469192753251" x2="55.16055885311289" y2="46.3817452567755" stroke="#030303" stroke-linecap="round" stroke-width="2"/><line x1="55.16055885311289" y1="46.3817452567755" x2="56.265005528970505" y2="46.468699930826915" stroke="#030303" stroke-linecap="round" stroke-width="2"/><line x1="56.265005528970505" y1="46.468699930826915" x2="57.33060687666875" y2="46.588155133853434" stroke="#030303" stroke-linecap="round" stroke-width="2"/><line x1="57.33060687666875" y1="46.588155133853434" x2="58.35930516261578" y2="46.75076859363435" stroke="#030303" stroke-linecap="round" stroke-width="2"/><line x1="58.35930516261578" y1="46.75076859363435" x2="59.34475703708449" y2="46.954382397330846" stroke="#030303" stroke-linecap="round" stroke-width="2"/><line x1="59.34475703708449" y1="46.954382397330846" x2="60.289124820646975" y2="47.201040779155846" stroke="#030303" stroke-linecap="round" stroke-width="2"/><line x1="60.289124820646975" y1="47.201040779155846" x2="61.19036846644303" y2="47.480403007385576" stroke="#030303" stroke-linecap="round" stroke-width="2"/><line x1="61.19036846644303" y1="47.480403007385576" x2="62.050644181352254" y2="47.77855113547412" stroke="#030303" stroke-linecap="round" stroke-width="2"/><line x1="62.050644181352254" y1="47.77855113547412" x2="62.86790611052129" y2="48.098640119837" stroke="#030303" stroke-linecap="round" stroke-width="2"/><line x1="62.86790611052129" y1="48.098640119837" x2="63.644304943227326" y2="48.42319591202431" stroke="#030303" stroke-linecap="round" stroke-width="2"/><line x1="63.644304943227326" y1="48.42319591202431" x2="65.09466182247706" y2="49.06865343226764" stroke="#030303" stroke-linecap="round" stroke-width="2"/><line x1="65.09466182247706" y1="49.06865343226764" x2="66.40749844483798" y2="49.68290929270461" stroke="#030303" stroke-linecap="round" stroke-width="2"/><line x1="66.40749844483798" y1="49.68290929270461" x2="68.66164713065882" y2="50.779842095149434" stroke="#030303" stroke-linecap="round" stroke-width="2"/><line x1="68.52442374516613" y1="23.94895731640827" x2="68.5550711167889" y2="24.218805027363487" stroke="#030303" stroke-linecap="round" stroke-width="2"/><line x1="68.5550711167889" y1="24.218805027363487" x2="68.59497831952467" y2="24.745891660209054" stroke="#030303" stroke-linecap="round" stroke-width="2"/><line x1="68.59497831952467" y1="24.745891660209054" x2="68.61344819155784" y2="25.095716727791114" stroke="#030303" stroke-linecap="round" stroke-width="2"/><line x1="68.61344819155784" y1="25.095716727791114" x2="68.67241515918431" y2="26.82492661393735" stroke="#030303" stroke-linecap="round" stroke-width="2"/><line x1="68.67241515918431" y1="26.82492661393735" x2="68.72424427944134" y2="29.382614912373356" stroke="#030303" stroke-linecap="round" stroke-width="2"/><line x1="68.72424427944134" y1="29.382614912373356" x2="68.72500954102725" y2="30.850184906539653" stroke="#030303" stroke-linecap="round" stroke-width="2"/><line x1="68.72500954102725" y1="30.850184906539653" x2="68.71498025123583" y2="31.31903475490435" stroke="#030303" stroke-linecap="round" stroke-width="2"/><line x1="68.71498025123583" y1="31.31903475490435" x2="68.63363280335398" y2="33.88316497631149" stroke="#030303" stroke-linecap="round" stroke-width="2"/><line x1="68.63363280335398" y1="33.88316497631149" x2="68.57140333635834" y2="35.8943058993882" stroke="#030303" stroke-linecap="round" stroke-width="2"/><line x1="63.32302994345446" y1="18.798535175576035" x2="61.19077527910849" y2="20.64800977397954" stroke="#030303" stroke-linecap="round" stroke-width="2"/><line x1="61.19077527910849" y1="20.64800977397954" x2="59.010944396071864" y2="22.5463996215085" stroke="#030303" stroke-linecap="round" stroke-width="2"/><line x1="59.010944396071864" y1="22.5463996215085" x2="57.94751836535943" y2="23.472525219606723" stroke="#030303" stroke-linecap="round" stroke-width="2"/></svg>