<?xml version="1.0" encoding="UTF-8" standalone="no"?>
<svg
   width="96.42020580935423"
   height="94.15365910527544"
   viewBox="-1 -1 98 97"
   version="1.1"
   id="svg3017"
   sodipodi:docname="flame.svg"
   xml:space="preserve"
   inkscape:version="1.2.2 (b0a8486541, 2022-12-01)"
   xmlns:inkscape="http://www.inkscape.org/namespaces/inkscape"
   xmlns:sodipodi="http://sodipodi.sourceforge.net/DTD/sodipodi-0.dtd"
   xmlns="http://www.w3.org/2000/svg"
   xmlns:svg="http://www.w3.org/2000/svg"><defs
     id="defs3021" /><sodipodi:namedview
     id="namedview3019"
     pagecolor="#ffffff"
     bordercolor="#000000"
     borderopacity="0.25"
     inkscape:showpageshadow="2"
     inkscape:pageopacity="0.0"
     inkscape:pagecheckerboard="0"
     inkscape:deskcolor="#d1d1d1"
     showgrid="false"
     inkscape:zoom="4.3917572"
     inkscape:cx="32.1056"
     inkscape:cy="53.167784"
     inkscape:window-width="1920"
     inkscape:window-height="1008"
     inkscape:window-x="0"
     inkscape:window-y="0"
     inkscape:window-maximized="1"
     inkscape:current-layer="svg3017" /><path
     style="fill:none;fill-opacity:1;stroke:#ffffff;stroke-width:6.18139;stroke-linecap:round;stroke-linejoin:round;stroke-dasharray:none;stroke-opacity:1"
     d="m 17.035289,65.517433 c 6.522052,-2.14456 13.341363,-5.973429 18.974971,-3.083455 -2.760495,8.441888 3.743638,13.618438 1.959362,19.872108 10.213161,-4.46552 12.768801,-9.49161 13.811143,-19.333191 11.600207,-0.462478 8.095803,5.42344 17.74495,11.892701 C 66.790373,65.852532 74.805177,62.972895 67.994478,53.959754 64.05697,47.814665 74.006557,41.923402 84.402397,39.281637 76.133867,36.484241 69.947895,31.505059 63.523955,34.920299 71.98749,21.98903 58.600992,21.660845 55.561588,12.693526 c -3.028382,8.352454 3.884191,11.954556 -8.942431,18.181677 -7.018905,-5.3493 -9.896279,-2.727457 -17.020525,-13.849405 -0.615136,11.206101 -5.456871,14.183174 2.379462,23.82421 -5.961794,-5.739066 -19.2429,1.287041 -20.379841,4.256432 12.031432,0.722471 15.343574,1.885081 18.554441,7.778215 -12.307449,3.460733 -12.22448,7.116503 -13.117405,12.632778 z"
     id="path12870-5"
     sodipodi:nodetypes="ccccccccccccccc" /><path
     style="fill:#f7bb26;fill-opacity:1;stroke:#000000;stroke-width:2.06046;stroke-linecap:round;stroke-linejoin:round;stroke-dasharray:none;stroke-opacity:1"
     d="m 17.035755,65.517407 c 6.522052,-2.14456 13.341363,-5.973429 18.974971,-3.083455 -2.760495,8.441888 3.743638,13.618438 1.959362,19.872108 10.213161,-4.46552 12.768801,-9.49161 13.811143,-19.333191 11.600207,-0.462478 8.095803,5.42344 17.74495,11.892701 C 66.790839,65.852506 74.805644,62.972869 67.994944,53.959728 64.057436,47.814639 74.007019,41.923376 84.402863,39.281611 76.134336,36.484215 69.948361,31.505033 63.524421,34.920273 71.987956,21.989004 58.601458,21.660819 55.562054,12.6935 c -3.028382,8.352454 3.884191,11.954556 -8.942431,18.181677 -7.018905,-5.3493 -9.896279,-2.727457 -17.020525,-13.849405 -0.615136,11.206101 -5.456871,14.183174 2.379462,23.82421 -5.961794,-5.739066 -19.2429,1.287041 -20.379841,4.256432 12.031432,0.722471 15.343574,1.885081 18.554441,7.778215 -12.307449,3.460733 -12.22448,7.116503 -13.117405,12.632778 z"
     id="path12870"
     sodipodi:nodetypes="ccccccccccccccc" /><path
     style="fill:#fd3246;fill-opacity:1;stroke:#000000;stroke-width:2.06046;stroke-linecap:round;stroke-linejoin:round;stroke-dasharray:none;stroke-opacity:1"
     d="m 34.421746,53.923539 c 4.532117,1.920053 10.013562,0.765741 8.925292,9.905498 3.200777,-4.33814 5.911105,-10.863587 19.672188,-5.454105 C 58.204358,51.638914 60.812214,47.657931 66.103933,41.945376 55.194395,45.47262 54.542335,40.990427 55.465706,33.324364 45.47863,46.704347 44.739219,35.947242 35.468663,31.854648 c 5.136717,11.19934 3.093526,18.203588 -1.046917,22.068889 z"
     id="path13064"
     sodipodi:nodetypes="cccccccc" /></svg>
