<?xml version="1.0" encoding="UTF-8" standalone="no"?>
<svg
   width="96.42020580935423"
   height="94.15365910527544"
   viewBox="-1 -1 98 97"
   version="1.1"
   id="svg3017"
   sodipodi:docname="heart_burn.svg"
   xml:space="preserve"
   inkscape:version="1.2.2 (b0a8486541, 2022-12-01)"
   xmlns:inkscape="http://www.inkscape.org/namespaces/inkscape"
   xmlns:sodipodi="http://sodipodi.sourceforge.net/DTD/sodipodi-0.dtd"
   xmlns="http://www.w3.org/2000/svg"
   xmlns:svg="http://www.w3.org/2000/svg"><defs
     id="defs3021" /><sodipodi:namedview
     id="namedview3019"
     pagecolor="#ffffff"
     bordercolor="#000000"
     borderopacity="0.25"
     inkscape:showpageshadow="2"
     inkscape:pageopacity="0.0"
     inkscape:pagecheckerboard="0"
     inkscape:deskcolor="#d1d1d1"
     showgrid="false"
     inkscape:zoom="4.3917572"
     inkscape:cx="32.1056"
     inkscape:cy="53.167784"
     inkscape:window-width="1920"
     inkscape:window-height="1008"
     inkscape:window-x="0"
     inkscape:window-y="0"
     inkscape:window-maximized="1"
     inkscape:current-layer="svg3017" /><path
     id="path9285-3"
     style="fill:#000000;fill-opacity:1;stroke:#ffffff;stroke-width:5.04879;stroke-linecap:round;stroke-linejoin:round;stroke-dasharray:none;stroke-opacity:1"
     d="m 51.932615,91.31633 c 4.526652,-0.37542 12.294708,-0.480178 19.280491,-7.623181 6.985783,-7.143004 12.02082,-20.71513 12.991995,-33.898081 0,0 -3.117066,11.441086 -10.065858,9.603287 -4.238005,-1.120856 1.24829,-5.434197 3.677364,-13.73984 C 79.975182,38.277769 76.169135,27.279149 76.169135,27.279149 59.151105,39.679813 78.801953,20.202202 61.325239,7.8945903 61.210499,9.8945239 60.144847,15.204923 59.072515,16.703556 54.068377,15.641298 47.282736,14.71871 49.459084,3.4122001 44.979527,4.7030016 42.06752,15.889872 36.56244,16.703557 35.490106,15.204923 31.742043,10.277726 31.627303,8.2777919 19.215765,26.494773 36.853464,40.111025 19.465819,27.279149 c 0,0 -2.081635,11.381822 0.07694,18.762568 2.429073,8.305643 6.190957,12.235782 1.952953,13.356638 -6.948792,1.837799 -8.91625,-17.650522 -8.91625,-17.650522 -2.8734637,14.715757 2.477998,34.802312 11.842387,41.945316 7.94393,6.059499 14.75383,7.247761 19.280491,7.623181 4.52666,0.375421 3.703614,0.375421 8.230275,0 z"
     sodipodi:nodetypes="zscsscccccccsscszz" /><path
     id="path9285-3-6"
     style="fill:#ff3347;fill-opacity:0.992157;stroke:#000000;stroke-width:1.68292;stroke-linecap:round;stroke-linejoin:round;stroke-dasharray:none;stroke-opacity:1"
     d="m 51.932615,91.31633 c 4.526652,-0.37542 12.294708,-0.480178 19.280491,-7.623181 6.985783,-7.143005 12.02082,-20.715131 12.991995,-33.898081 0,0 -3.117066,11.441084 -10.065858,9.603286 -4.238005,-1.120856 1.24829,-5.434197 3.677364,-13.73984 C 79.975182,38.277768 76.169135,27.279148 76.169135,27.279148 59.151105,39.679812 78.801953,20.202201 61.325239,7.8945903 61.210499,9.8945229 60.144847,15.204923 59.072515,16.703556 54.068377,15.641297 47.282736,14.718709 49.459084,3.4122001 44.979527,4.7030016 42.06752,15.889871 36.56244,16.703556 35.490106,15.204923 31.742043,10.277726 31.627303,8.2777919 19.215765,26.494772 36.853464,40.111025 19.465819,27.279148 c 0,0 -2.081635,11.381822 0.07694,18.762568 2.429073,8.305643 6.190957,12.235782 1.952953,13.356638 -6.948792,1.837798 -8.91625,-17.650522 -8.91625,-17.650522 -2.8734637,14.715757 2.477998,34.802312 11.842387,41.945317 7.94393,6.059499 14.75383,7.247761 19.280491,7.623181 4.52666,0.375421 3.703614,0.375421 8.230275,0 z"
     sodipodi:nodetypes="zscsscccccccsscszz" /><path
     id="path9285-3-6-7"
     style="fill:#f7bc26;fill-opacity:0.996078;stroke:#000000;stroke-width:1.68292;stroke-linecap:round;stroke-linejoin:round;stroke-dasharray:none;stroke-opacity:1"
     d="M 49.910743,84.559419 C 52.987591,84.30425 58.01,83.967022 63.015886,79.377885 c 1.97088,-1.806801 6.544824,-9.338354 7.611397,-15.047338 0,0 -2.931592,1.002484 -5.622499,0.566211 -2.941231,-0.476859 0.848464,-5.725898 2.499512,-11.371312 1.467226,-5.016747 -1.390751,-9.376505 -1.390751,-9.376505 -11.567257,8.428828 2.060456,-7.926349 -9.818539,-16.291929 -0.07808,1.359371 -0.802292,4.968891 -1.531122,5.987524 -3.401434,-0.722025 -8.013627,-1.349115 -6.534378,-9.034237 -3.044781,0.877368 -5.024164,8.481169 -8.765988,9.034238 -0.728823,-1.018634 -3.276394,-4.367689 -3.354379,-5.727065 -8.436282,12.382228 3.552242,21.637304 -8.266328,12.915377 0,0 -1.414887,7.736312 0.05235,12.753065 1.651082,5.645412 4.157716,8.147156 1.327411,9.07861 -2.149003,0.707238 -5.653978,1.144582 -5.653978,1.144582 0.07914,4.718603 3.851973,12.54586 7.642941,15.368779 5.446813,4.055931 10.028262,4.926365 13.105053,5.181534 3.076824,0.255176 2.517384,0.255176 5.594215,0 z"
     sodipodi:nodetypes="zscsscccccccsscszzz" /><circle
     style="fill:#020000;fill-opacity:0.992157;stroke:#000000;stroke-width:1.68292;stroke-linecap:round;stroke-linejoin:round;stroke-dasharray:none;stroke-opacity:1"
     id="path12059"
     cx="38.311649"
     cy="66.252922"
     r="2.4429107" /><circle
     style="fill:#020000;fill-opacity:0.992157;stroke:#000000;stroke-width:1.68292;stroke-linecap:round;stroke-linejoin:round;stroke-dasharray:none;stroke-opacity:1"
     id="path12061"
     cx="53.764164"
     cy="68.799614"
     r="4.5026197" /><path
     style="fill:#020000;fill-opacity:0.992157;stroke:#000000;stroke-width:1.68292;stroke-linecap:round;stroke-linejoin:round;stroke-dasharray:none;stroke-opacity:1"
     d="M 37.562569,77.435383 H 50.83983"
     id="path12117" /></svg>
