<svg xmlns="http://www.w3.org/2000/svg" width="91.52891547242689" height="18.266998648331537"><line x1="79.1379989072484" y1="8.992927754652555" x2="7.159120997755963" y2="8.97142499045276" stroke="#ffffff" stroke-linecap="round" stroke-width="6"/><line x1="7.159120997755963" y1="8.97142499045276" x2="2" y2="13.968899074950968" stroke="#ffffff" stroke-linecap="round" stroke-width="6"/><line x1="2" y1="13.968899074950968" x2="14.18091124111379" y2="14.036815602417846" stroke="#ffffff" stroke-linecap="round" stroke-width="6"/><line x1="14.18091124111379" y1="14.036815602417846" x2="19.166501099141897" y2="8.898133240849347" stroke="#ffffff" stroke-linecap="round" stroke-width="6"/><line x1="19.166501099141897" y1="8.898133240849347" x2="13.801746737623034" y2="3.5463004144094157" stroke="#ffffff" stroke-linecap="round" stroke-width="6"/><line x1="13.801746737623034" y1="3.5463004144094157" x2="2.2829120388560113" y2="3.8149604023947177" stroke="#ffffff" stroke-linecap="round" stroke-width="6"/><line x1="2.2829120388560113" y1="3.8149604023947177" x2="7.159120997755963" y2="8.97142499045276" stroke="#ffffff" stroke-linecap="round" stroke-width="6"/><line x1="79.19341731761233" y1="8.91391156001464" x2="77.97055331392039" y2="7.235637809455511" stroke="#ffffff" stroke-linecap="round" stroke-width="6"/><line x1="77.97055331392039" y1="7.235637809455511" x2="77.59899828593916" y2="5.498243918676053" stroke="#ffffff" stroke-linecap="round" stroke-width="6"/><line x1="77.59899828593916" y1="5.498243918676053" x2="78.16381534345783" y2="3.9272846089115774" stroke="#ffffff" stroke-linecap="round" stroke-width="6"/><line x1="78.16381534345783" y1="3.9272846089115774" x2="79.2716473535038" y2="2.71990456646472" stroke="#ffffff" stroke-linecap="round" stroke-width="6"/><line x1="79.2716473535038" y1="2.71990456646472" x2="80.6665724398299" y2="2.008590553668" stroke="#ffffff" stroke-linecap="round" stroke-width="6"/><line x1="80.6665724398299" y1="2.008590553668" x2="82.01207938114021" y2="2" stroke="#ffffff" stroke-linecap="round" stroke-width="6"/><line x1="82.01207938114021" y1="2" x2="83.49610751706496" y2="2.6768849991176467" stroke="#ffffff" stroke-linecap="round" stroke-width="6"/><line x1="83.49610751706496" y1="2.6768849991176467" x2="84.68461577140988" y2="3.664683357021204" stroke="#ffffff" stroke-linecap="round" stroke-width="6"/><line x1="84.68461577140988" y1="3.664683357021204" x2="89.52891547242689" y2="9.06362008524684" stroke="#ffffff" stroke-linecap="round" stroke-width="6"/><line x1="89.52891547242689" y1="9.06362008524684" x2="84.69623677312484" y2="14.582425323383177" stroke="#ffffff" stroke-linecap="round" stroke-width="6"/><line x1="84.69623677312484" y1="14.582425323383177" x2="83.12703697562756" y2="15.64496605772365" stroke="#ffffff" stroke-linecap="round" stroke-width="6"/><line x1="83.12703697562756" y1="15.64496605772365" x2="81.49903948796418" y2="16.266998648331537" stroke="#ffffff" stroke-linecap="round" stroke-width="6"/><line x1="80.1805381852464" y1="15.930407912028386" x2="78.89728593873951" y2="15.086226139741484" stroke="#ffffff" stroke-linecap="round" stroke-width="6"/><line x1="78.89728593873951" y1="15.086226139741484" x2="77.99298241177166" y2="13.858225666004728" stroke="#ffffff" stroke-linecap="round" stroke-width="6"/><line x1="77.99298241177166" y1="13.858225666004728" x2="77.54273430421381" y2="12.39148851419759" stroke="#ffffff" stroke-linecap="round" stroke-width="6"/><line x1="77.54273430421381" y1="12.39148851419759" x2="77.68031530888038" y2="11.470353188608897" stroke="#ffffff" stroke-linecap="round" stroke-width="6"/><line x1="77.68031530888038" y1="11.470353188608897" x2="78.16988117896108" y2="10.326528800197593" stroke="#ffffff" stroke-linecap="round" stroke-width="6"/><line x1="78.16988117896108" y1="10.326528800197593" x2="79.1379989072484" y2="8.992927754652555" stroke="#ffffff" stroke-linecap="round" stroke-width="6"/><line x1="81.49903948796418" y1="16.266998648331537" x2="80.1805381852464" y2="15.930407912028386" stroke="#ffffff" stroke-linecap="round" stroke-width="6"/><line x1="2.72760662314613" y1="13.972955956593069" x2="2.4285847928767907" y2="13.553742811637676" stroke="#f7bc26" stroke-linecap="round" stroke-width="1"/><line x1="3.455213246288622" y1="13.977012838236078" x2="2.8571695857535815" y2="13.138586548323474" stroke="#f7bc26" stroke-linecap="round" stroke-width="1"/><line x1="4.182819869434752" y1="13.981069719879088" x2="3.2857543786303722" y2="12.723430285010181" stroke="#f7bc26" stroke-linecap="round" stroke-width="1"/><line x1="4.910426492580882" y1="13.985126601522097" x2="3.714339171507163" y2="12.308274021696889" stroke="#f7bc26" stroke-linecap="round" stroke-width="1"/><line x1="5.638033115723374" y1="13.989183483165107" x2="4.142923964380316" y2="11.893117758383596" stroke="#f7bc26" stroke-linecap="round" stroke-width="1"/><line x1="6.365639738869504" y1="13.993240364807207" x2="4.5715087572571065" y2="11.477961495070303" stroke="#f7bc26" stroke-linecap="round" stroke-width="1"/><line x1="7.093246362015634" y1="13.997297246450216" x2="5.000093550133897" y2="11.062805231757011" stroke="#f7bc26" stroke-linecap="round" stroke-width="1"/><line x1="7.820852985158126" y1="14.001354128093226" x2="5.428678343010688" y2="10.647648968443718" stroke="#f7bc26" stroke-linecap="round" stroke-width="1"/><line x1="8.548459608304256" y1="14.005411009735326" x2="5.857263135887479" y2="10.232492705130426" stroke="#f7bc26" stroke-linecap="round" stroke-width="1"/><line x1="9.276066231446748" y1="14.009467891378335" x2="6.2858479287642695" y2="9.817336441817133" stroke="#f7bc26" stroke-linecap="round" stroke-width="1"/><line x1="10.003672854592878" y1="14.013524773021345" x2="6.714432721637422" y2="9.40218017850384" stroke="#f7bc26" stroke-linecap="round" stroke-width="1"/><line x1="4.098847928285977" y1="5.735265538402928" x2="2.7218059203260054" y2="3.804723843923057" stroke="#f7bc26" stroke-linecap="round" stroke-width="1"/><line x1="10.731279477739008" y1="14.017581654664355" x2="7.143017514514213" y2="8.987023915190548" stroke="#f7bc26" stroke-linecap="round" stroke-width="1"/><line x1="7.048299420646799" y1="8.854234045033081" x2="3.434659397822543" y2="3.7880975781845336" stroke="#f7bc26" stroke-linecap="round" stroke-width="1"/><line x1="11.4588861008815" y1="14.021638536307364" x2="4.147512875315442" y2="3.7714713124460104" stroke="#f7bc26" stroke-linecap="round" stroke-width="1"/><line x1="12.18649272402763" y1="14.025695417949464" x2="4.86036635281198" y2="3.754845046707487" stroke="#f7bc26" stroke-linecap="round" stroke-width="1"/><line x1="12.914099347170122" y1="14.029752299593383" x2="5.573219830308517" y2="3.738218780968964" stroke="#f7bc26" stroke-linecap="round" stroke-width="1"/><line x1="13.641705970316252" y1="14.033809181235483" x2="6.286073307801416" y2="3.7215925152304408" stroke="#f7bc26" stroke-linecap="round" stroke-width="1"/><line x1="14.2890558248655" y1="13.925350223025816" x2="6.998926785297954" y2="3.7049662494919176" stroke="#f7bc26" stroke-linecap="round" stroke-width="1"/><line x1="14.706710551938158" y1="13.49487057260194" x2="7.711780262794491" y2="3.6883399837533943" stroke="#f7bc26" stroke-linecap="round" stroke-width="1"/><line x1="15.124365279014455" y1="13.064390922178063" x2="8.424633740291029" y2="3.671713718014871" stroke="#f7bc26" stroke-linecap="round" stroke-width="1"/><line x1="15.542020006087114" y1="12.633911271754187" x2="9.137487217783928" y2="3.655087452276348" stroke="#f7bc26" stroke-linecap="round" stroke-width="1"/><line x1="15.959674733159773" y1="12.20343162133031" x2="9.850340695280465" y2="3.6384611865378247" stroke="#f7bc26" stroke-linecap="round" stroke-width="1"/><line x1="16.37732946023243" y1="11.772951970906433" x2="10.563194172777003" y2="3.6218349207993015" stroke="#f7bc26" stroke-linecap="round" stroke-width="1"/><line x1="16.79498418730509" y1="11.342472320483466" x2="11.276047650269902" y2="3.6052086550616878" stroke="#f7bc26" stroke-linecap="round" stroke-width="1"/><line x1="17.212638914381387" y1="10.91199267005868" x2="11.98890112776644" y2="3.588582389322255" stroke="#f7bc26" stroke-linecap="round" stroke-width="1"/><line x1="17.630293641454045" y1="10.481513019635713" x2="12.701754605262977" y2="3.5719561235846413" stroke="#f7bc26" stroke-linecap="round" stroke-width="1"/><line x1="18.047948368526704" y1="10.051033369211837" x2="13.414608082755876" y2="3.555329857846118" stroke="#f7bc26" stroke-linecap="round" stroke-width="1"/><line x1="18.465603095603" y1="9.62055371878796" x2="14.949822042734013" y2="4.691610467965802" stroke="#f7bc26" stroke-linecap="round" stroke-width="1"/><line x1="18.88325782267566" y1="9.190074068364083" x2="17.462478565605124" y2="7.198215012090259" stroke="#f7bc26" stroke-linecap="round" stroke-width="1"/><line x1="80.19915925966416" y1="15.93516155249472" x2="77.56502572182217" y2="12.242242531694501" stroke="#f7bc26" stroke-linecap="round" stroke-width="1"/><line x1="82.37206277993391" y1="15.933429988625903" x2="78.27218138947865" y2="10.185608265721385" stroke="#f7bc26" stroke-linecap="round" stroke-width="1"/><line x1="82.9415646362213" y1="15.715832162027255" x2="78.63772258626705" y2="9.68206814039877" stroke="#f7bc26" stroke-linecap="round" stroke-width="1"/><line x1="83.45656937971944" y1="15.42183220109655" x2="79.00326378305908" y2="9.178528015075244" stroke="#f7bc26" stroke-linecap="round" stroke-width="1"/><line x1="83.94525399271879" y1="15.090932778100978" x2="77.8114460669749" y2="6.49165121796068" stroke="#f7bc26" stroke-linecap="round" stroke-width="1"/><line x1="84.4339386057145" y1="14.760033355106316" x2="77.67559878980319" y2="5.285190376693208" stroke="#f7bc26" stroke-linecap="round" stroke-width="1"/><line x1="84.88125540805413" y1="14.371138400509153" x2="77.91847118255464" y2="4.609674930763504" stroke="#f7bc26" stroke-linecap="round" stroke-width="1"/><line x1="85.28064221662862" y1="13.91504807290039" x2="78.16134357530609" y2="3.934159484833799" stroke="#f7bc26" stroke-linecap="round" stroke-width="1"/><line x1="85.68002902519947" y1="13.458957745291627" x2="78.56740596323289" y2="3.4874279743144143" stroke="#f7bc26" stroke-linecap="round" stroke-width="1"/><line x1="86.07941583377396" y1="13.002867417681955" x2="78.9751462496024" y2="3.043048790650573" stroke="#f7bc26" stroke-linecap="round" stroke-width="1"/><line x1="86.47880264234482" y1="12.546777090073192" x2="79.41662863008241" y2="2.6459742782835747" stroke="#f7bc26" stroke-linecap="round" stroke-width="1"/><line x1="86.87818945091931" y1="12.09068676246352" x2="79.94804845824547" y2="2.374987417300872" stroke="#f7bc26" stroke-linecap="round" stroke-width="1"/><line x1="87.2775762594938" y1="11.634596434854757" x2="80.47946828640488" y2="2.1040005563181694" stroke="#f7bc26" stroke-linecap="round" stroke-width="1"/><line x1="87.67696306806465" y1="11.178506107245084" x2="81.13399716834101" y2="2.0056062233070406" stroke="#f7bc26" stroke-linecap="round" stroke-width="1"/><line x1="88.07634987663914" y1="10.722415779635412" x2="81.85542458837517" y2="2.0010001816881413" stroke="#f7bc26" stroke-linecap="round" stroke-width="1"/><line x1="88.47573668521" y1="10.26632545202665" x2="82.85301665078077" y2="2.3835626894397137" stroke="#f7bc26" stroke-linecap="round" stroke-width="1"/><line x1="88.87512349378449" y1="9.810235124416977" x2="84.2104298189006" y2="3.2705757826552144" stroke="#f7bc26" stroke-linecap="round" stroke-width="1"/><line x1="89.27451030235898" y1="9.354144796808214" x2="87.27748028361748" y2="6.554411968017121" stroke="#f7bc26" stroke-linecap="round" stroke-width="1"/><line x1="81.08521540165384" y1="16.161356466845064" x2="77.70238133161911" y2="11.418798011862236" stroke="#f7bc26" stroke-linecap="round" stroke-width="1"/><line x1="81.80256092364289" y1="16.151027815224552" x2="77.97416138248445" y2="10.783809607922194" stroke="#f7bc26" stroke-linecap="round" stroke-width="1"/><line x1="79.1379989072484" y1="8.992927754652555" x2="7.159120997755963" y2="8.97142499045276" stroke="#030303" stroke-linecap="round" stroke-width="2"/><line x1="7.159120997755963" y1="8.97142499045276" x2="2" y2="13.968899074950968" stroke="#030303" stroke-linecap="round" stroke-width="2"/><line x1="2" y1="13.968899074950968" x2="14.18091124111379" y2="14.036815602417846" stroke="#030303" stroke-linecap="round" stroke-width="2"/><line x1="14.18091124111379" y1="14.036815602417846" x2="19.166501099141897" y2="8.898133240849347" stroke="#030303" stroke-linecap="round" stroke-width="2"/><line x1="19.166501099141897" y1="8.898133240849347" x2="13.801746737623034" y2="3.5463004144094157" stroke="#030303" stroke-linecap="round" stroke-width="2"/><line x1="13.801746737623034" y1="3.5463004144094157" x2="2.2829120388560113" y2="3.8149604023947177" stroke="#030303" stroke-linecap="round" stroke-width="2"/><line x1="2.2829120388560113" y1="3.8149604023947177" x2="7.159120997755963" y2="8.97142499045276" stroke="#030303" stroke-linecap="round" stroke-width="2"/><line x1="79.19341731761233" y1="8.91391156001464" x2="77.97055331392039" y2="7.235637809455511" stroke="#030303" stroke-linecap="round" stroke-width="2"/><line x1="77.97055331392039" y1="7.235637809455511" x2="77.59899828593916" y2="5.498243918676053" stroke="#030303" stroke-linecap="round" stroke-width="2"/><line x1="77.59899828593916" y1="5.498243918676053" x2="78.16381534345783" y2="3.9272846089115774" stroke="#030303" stroke-linecap="round" stroke-width="2"/><line x1="78.16381534345783" y1="3.9272846089115774" x2="79.2716473535038" y2="2.71990456646472" stroke="#030303" stroke-linecap="round" stroke-width="2"/><line x1="79.2716473535038" y1="2.71990456646472" x2="80.6665724398299" y2="2.008590553668" stroke="#030303" stroke-linecap="round" stroke-width="2"/><line x1="80.6665724398299" y1="2.008590553668" x2="82.01207938114021" y2="2" stroke="#030303" stroke-linecap="round" stroke-width="2"/><line x1="82.01207938114021" y1="2" x2="83.49610751706496" y2="2.6768849991176467" stroke="#030303" stroke-linecap="round" stroke-width="2"/><line x1="83.49610751706496" y1="2.6768849991176467" x2="84.68461577140988" y2="3.664683357021204" stroke="#030303" stroke-linecap="round" stroke-width="2"/><line x1="84.68461577140988" y1="3.664683357021204" x2="89.52891547242689" y2="9.06362008524684" stroke="#030303" stroke-linecap="round" stroke-width="2"/><line x1="89.52891547242689" y1="9.06362008524684" x2="84.69623677312484" y2="14.582425323383177" stroke="#030303" stroke-linecap="round" stroke-width="2"/><line x1="84.69623677312484" y1="14.582425323383177" x2="83.12703697562756" y2="15.64496605772365" stroke="#030303" stroke-linecap="round" stroke-width="2"/><line x1="83.12703697562756" y1="15.64496605772365" x2="81.49903948796418" y2="16.266998648331537" stroke="#030303" stroke-linecap="round" stroke-width="2"/><line x1="80.1805381852464" y1="15.930407912028386" x2="78.89728593873951" y2="15.086226139741484" stroke="#030303" stroke-linecap="round" stroke-width="2"/><line x1="78.89728593873951" y1="15.086226139741484" x2="77.99298241177166" y2="13.858225666004728" stroke="#030303" stroke-linecap="round" stroke-width="2"/><line x1="77.99298241177166" y1="13.858225666004728" x2="77.54273430421381" y2="12.39148851419759" stroke="#030303" stroke-linecap="round" stroke-width="2"/><line x1="77.54273430421381" y1="12.39148851419759" x2="77.68031530888038" y2="11.470353188608897" stroke="#030303" stroke-linecap="round" stroke-width="2"/><line x1="77.68031530888038" y1="11.470353188608897" x2="78.16988117896108" y2="10.326528800197593" stroke="#030303" stroke-linecap="round" stroke-width="2"/><line x1="78.16988117896108" y1="10.326528800197593" x2="79.1379989072484" y2="8.992927754652555" stroke="#030303" stroke-linecap="round" stroke-width="2"/><line x1="81.49903948796418" y1="16.266998648331537" x2="80.1805381852464" y2="15.930407912028386" stroke="#030303" stroke-linecap="round" stroke-width="2"/></svg>