<svg xmlns="http://www.w3.org/2000/svg" width="76.40999605658726" height="92.151251144257"><line x1="15.744241084885289" y1="18.270401170790137" x2="4.253449190480751" y2="34.379897269333924" stroke="#792020" stroke-linecap="round" stroke-width="2"/><line x1="19.802324379299534" y1="15.267577493701538" x2="2.735406313338899" y2="39.19451416824086" stroke="#792020" stroke-linecap="round" stroke-width="2"/><line x1="22.649378429036005" y1="13.962554200748855" x2="2.428392680874822" y2="42.311330683010965" stroke="#792020" stroke-linecap="round" stroke-width="2"/><line x1="25.48845759416872" y1="12.66871128366165" x2="2.1293539330108615" y2="45.4169668219165" stroke="#792020" stroke-linecap="round" stroke-width="2"/><line x1="28.008094654316665" y1="11.822709680845946" x2="2.1497572901389503" y2="48.07476164654963" stroke="#792020" stroke-linecap="round" stroke-width="2"/><line x1="30.284214976167277" y1="11.318105953958366" x2="2.4136773855570937" y2="50.39115859525555" stroke="#792020" stroke-linecap="round" stroke-width="2"/><line x1="32.56033529802153" y1="10.813502227070785" x2="2.677597480975237" y2="52.70755554396146" stroke="#792020" stroke-linecap="round" stroke-width="2"/><line x1="34.72484708032425" y1="10.465367901853824" x2="3.053126115944906" y2="54.86748309099585" stroke="#792020" stroke-linecap="round" stroke-width="2"/><line x1="36.65303970276" y1="10.448540819763366" x2="3.664973910777917" y2="56.69610339490464" stroke="#792020" stroke-linecap="round" stroke-width="2"/><line x1="38.58123232519574" y1="10.431713737671998" x2="4.276821705614566" y2="58.52472369881434" stroke="#792020" stroke-linecap="round" stroke-width="2"/><line x1="40.509424947635125" y1="10.41488665558063" x2="4.888669500447577" y2="60.353344002723134" stroke="#792020" stroke-linecap="round" stroke-width="2"/><line x1="42.33685535108452" y1="10.539322994543909" x2="5.601279514266935" y2="62.04070088557819" stroke="#792020" stroke-linecap="round" stroke-width="2"/><line x1="44.01020671682272" y1="10.879770177647515" x2="6.467968565801129" y2="63.51204692429292" stroke="#792020" stroke-linecap="round" stroke-width="2"/><line x1="45.68355808255728" y1="11.220217360750212" x2="7.334657617338962" y2="64.98339296300765" stroke="#792020" stroke-linecap="round" stroke-width="2"/><line x1="47.35690944829548" y1="11.560664543852909" x2="8.201346668873157" y2="66.45473900172328" stroke="#792020" stroke-linecap="round" stroke-width="2"/><line x1="49.03026081403004" y1="11.901111726955605" x2="9.068035720407352" y2="67.92608504043892" stroke="#792020" stroke-linecap="round" stroke-width="2"/><line x1="50.5006706473323" y1="12.526072445334648" x2="10.13766630437749" y2="69.1129175438773" stroke="#792020" stroke-linecap="round" stroke-width="2"/><line x1="51.96324512481078" y1="13.16201792744414" x2="11.2151322441714" y2="70.28876528358524" stroke="#792020" stroke-linecap="round" stroke-width="2"/><line x1="53.425819602289266" y1="13.79796340955454" x2="12.29259818396531" y2="71.46461302329317" stroke="#792020" stroke-linecap="round" stroke-width="2"/><line x1="54.88839407976775" y1="14.433908891664032" x2="13.370064123755583" y2="72.64046076300201" stroke="#792020" stroke-linecap="round" stroke-width="2"/><line x1="56.3092212789561" y1="15.128381899376109" x2="14.489277341843263" y2="73.75778097710827" stroke="#792020" stroke-linecap="round" stroke-width="2"/><line x1="57.57924148759048" y1="16.03427851028482" x2="15.75929755047764" y2="74.66367758801698" stroke="#792020" stroke-linecap="round" stroke-width="2"/><line x1="58.84926169622486" y1="16.940175121193533" x2="17.02931775911202" y2="75.5695741989257" stroke="#792020" stroke-linecap="round" stroke-width="2"/><line x1="60.11928190486287" y1="17.846071732103155" x2="18.299337967750034" y2="76.4754708098344" stroke="#792020" stroke-linecap="round" stroke-width="2"/><line x1="61.38930211349725" y1="18.751968343011868" x2="19.569358176384412" y2="77.38136742074403" stroke="#792020" stroke-linecap="round" stroke-width="2"/><line x1="62.58908612440064" y1="19.75633247154201" x2="20.90961458275342" y2="78.18879651403131" stroke="#792020" stroke-linecap="round" stroke-width="2"/><line x1="63.66655206419455" y1="20.932180211249943" x2="22.372189060231904" y2="78.8247419961408" stroke="#792020" stroke-linecap="round" stroke-width="2"/><line x1="64.74401800398482" y1="22.108027950958785" x2="23.834763537710387" y2="79.4606874782512" stroke="#792020" stroke-linecap="round" stroke-width="2"/><line x1="65.82148394377873" y1="23.28387569066672" x2="25.29733801518887" y2="80.0966329603607" stroke="#792020" stroke-linecap="round" stroke-width="2"/><line x1="66.898949883569" y1="24.459723430374652" x2="26.759912492667354" y2="80.7325784424711" stroke="#792020" stroke-linecap="round" stroke-width="2"/><line x1="67.84599929209071" y1="25.81840840367113" x2="28.35290350142168" y2="81.18568669099204" stroke="#792020" stroke-linecap="round" stroke-width="2"/><line x1="68.7126883436249" y1="27.289754442386766" x2="30.02625486715624" y2="81.52613387409474" stroke="#792020" stroke-linecap="round" stroke-width="2"/><line x1="69.57937739516274" y1="28.761100481101494" x2="31.69960623289444" y2="81.86658105719744" stroke="#792020" stroke-linecap="round" stroke-width="2"/><line x1="70.44606644669693" y1="30.23244651981713" x2="33.372957598629" y2="82.20702824030104" stroke="#792020" stroke-linecap="round" stroke-width="2"/><line x1="71.26531009797691" y1="31.770308556501732" x2="35.09375436462142" y2="82.48095942543387" stroke="#792020" stroke-linecap="round" stroke-width="2"/><line x1="71.87715789280992" y1="33.598928860410524" x2="37.02194698705716" y2="82.4641323433425" stroke="#792020" stroke-linecap="round" stroke-width="2"/><line x1="72.48900568764293" y1="35.427549164319316" x2="38.950139609496546" y2="82.44730526125204" stroke="#792020" stroke-linecap="round" stroke-width="2"/><line x1="73.10085348247958" y1="37.25616946822811" x2="40.87833223193229" y2="82.43047817916067" stroke="#792020" stroke-linecap="round" stroke-width="2"/><line x1="73.62196606504585" y1="39.21199584822352" x2="42.89726006663477" y2="82.28644502098359" stroke="#792020" stroke-linecap="round" stroke-width="2"/><line x1="73.88588616046763" y1="41.52839279692944" x2="45.17338038848902" y2="81.78184129409601" stroke="#792020" stroke-linecap="round" stroke-width="2"/><line x1="74.14980625588578" y1="43.84478974563535" x2="47.449500710339635" y2="81.27723756720843" stroke="#792020" stroke-linecap="round" stroke-width="2"/><line x1="74.40576938844242" y1="46.17234194485445" x2="49.733577995055384" y2="80.76147858980676" stroke="#792020" stroke-linecap="round" stroke-width="2"/><line x1="74.10673064057846" y1="49.27797808375999" x2="52.57265716019174" y2="79.46763567271955" stroke="#792020" stroke-linecap="round" stroke-width="2"/><line x1="73.8076918927145" y1="52.38361422266462" x2="55.411736325324455" y2="78.17379275563235" stroke="#792020" stroke-linecap="round" stroke-width="2"/><line x1="72.79174399197655" y1="56.494319925741365" x2="58.967724643334805" y2="75.87488027437394" stroke="#792020" stroke-linecap="round" stroke-width="2"/><line x1="70.75622934510466" y1="62.03440548965955" x2="63.54327970747909" y2="72.14658793227318" stroke="#792020" stroke-linecap="round" stroke-width="2"/><line x1="9.100253755135782" y1="67.9807804097727" x2="14.213926982662088" y2="73.56137547466187" stroke="#000000" stroke-linecap="round" stroke-width="2"/><line x1="5.258597512405686" y1="61.45894228936049" x2="9.100253755135782" y2="67.9807804097727" stroke="#000000" stroke-linecap="round" stroke-width="2"/><line x1="2.856857066588418" y1="54.280896734538146" x2="5.258597512405686" y2="61.45894228936049" stroke="#000000" stroke-linecap="round" stroke-width="2"/><line x1="2" y1="46.76035878013499" x2="2.856857066588418" y2="54.280896734538146" stroke="#000000" stroke-linecap="round" stroke-width="2"/><line x1="2.7254750780994073" y1="39.22601202230544" x2="2" y2="46.76035878013499" stroke="#000000" stroke-linecap="round" stroke-width="2"/><line x1="5.00157555876649" y1="32.00714356817116" x2="2.7254750780994073" y2="39.22601202230544" stroke="#000000" stroke-linecap="round" stroke-width="2"/><line x1="8.728824929046823" y1="25.419252609152863" x2="5.00157555876649" y2="32.00714356817116" stroke="#000000" stroke-linecap="round" stroke-width="2"/><line x1="13.744324506136763" y1="19.750261592368588" x2="8.728824929046823" y2="25.419252609152863" stroke="#000000" stroke-linecap="round" stroke-width="2"/><line x1="62.6656715504505" y1="73.13854350558722" x2="67.68117112754044" y2="67.46955248880295" stroke="#000000" stroke-linecap="round" stroke-width="2"/><line x1="14.213926982662088" y1="73.56137547466187" x2="20.376125136812334" y2="77.9568287010261" stroke="#000000" stroke-linecap="round" stroke-width="2"/><line x1="19.828872891481296" y1="15.247932628087256" x2="13.744324506136763" y2="19.750261592368588" stroke="#000000" stroke-linecap="round" stroke-width="2"/><line x1="26.716546123734588" y1="12.109039096621018" x2="19.828872891481296" y2="15.247932628087256" stroke="#000000" stroke-linecap="round" stroke-width="2"/><line x1="30.27482930582846" y1="11.320186706978348" x2="26.716546123734588" y2="12.109039096621018" stroke="#000000" stroke-linecap="round" stroke-width="2"/><line x1="41.67522544493477" y1="10.40471286877073" x2="36.274714715331356" y2="10.451842411910548" stroke="#000000" stroke-linecap="round" stroke-width="2"/><line x1="49.092465467841976" y1="11.913767406807892" x2="41.67522544493477" y2="10.40471286877073" stroke="#000000" stroke-linecap="round" stroke-width="2"/><line x1="56.03387091977493" y1="14.931976396930622" x2="49.092465467841976" y2="11.913767406807892" stroke="#000000" stroke-linecap="round" stroke-width="2"/><line x1="62.19606907392517" y1="19.327429623293938" x2="56.03387091977493" y2="14.931976396930622" stroke="#000000" stroke-linecap="round" stroke-width="2"/><line x1="67.30974230145148" y1="24.908024688183104" x2="62.19606907392517" y2="19.327429623293938" stroke="#000000" stroke-linecap="round" stroke-width="2"/><line x1="71.15139854418157" y1="31.429862808595317" x2="67.30974230145148" y2="24.908024688183104" stroke="#000000" stroke-linecap="round" stroke-width="2"/><line x1="73.55313898999884" y1="38.607908363417664" x2="71.15139854418157" y2="31.429862808595317" stroke="#000000" stroke-linecap="round" stroke-width="2"/><line x1="74.40999605658726" y1="46.12844631781991" x2="73.55313898999884" y2="38.607908363417664" stroke="#000000" stroke-linecap="round" stroke-width="2"/><line x1="73.68452097848785" y1="53.66279307565128" x2="74.40999605658726" y2="46.12844631781991" stroke="#000000" stroke-linecap="round" stroke-width="2"/><line x1="71.40842049782077" y1="60.88166152978465" x2="73.68452097848785" y2="53.66279307565128" stroke="#000000" stroke-linecap="round" stroke-width="2"/><line x1="67.68117112754044" y1="67.46955248880295" x2="71.40842049782077" y2="60.88166152978465" stroke="#000000" stroke-linecap="round" stroke-width="2"/><line x1="56.5811231651096" y1="77.64087246986855" x2="62.6656715504505" y2="73.13854350558722" stroke="#000000" stroke-linecap="round" stroke-width="2"/><line x1="49.69344993285631" y1="80.77976600133479" x2="56.5811231651096" y2="77.64087246986855" stroke="#000000" stroke-linecap="round" stroke-width="2"/><line x1="42.30367622466292" y1="82.4180393905799" x2="49.69344993285631" y2="80.77976600133479" stroke="#000000" stroke-linecap="round" stroke-width="2"/><line x1="33.95620926630363" y1="82.49088663111343" x2="42.30367622466292" y2="82.4180393905799" stroke="#000000" stroke-linecap="round" stroke-width="2"/><line x1="27.317530588745285" y1="80.97503769114792" x2="29.214217429529526" y2="81.3609229901922" stroke="#000000" stroke-linecap="round" stroke-width="2"/><line x1="20.376125136812334" y1="77.9568287010261" x2="27.317530588745285" y2="80.97503769114792" stroke="#000000" stroke-linecap="round" stroke-width="2"/><line x1="28.174048847798986" y1="2.0429966250940197" x2="25.766131780746946" y2="5.418771850488156" stroke="#f7bc26" stroke-linecap="round" stroke-width="1"/><line x1="28.84832654419006" y1="2.1137041413621773" x2="25.84838234720155" y2="6.319470791855565" stroke="#f7bc26" stroke-linecap="round" stroke-width="1"/><line x1="29.248609924306948" y1="2.5685375220255082" x2="26.060066827329138" y2="7.0387100786983865" stroke="#f7bc26" stroke-linecap="round" stroke-width="1"/><line x1="28.30672829457035" y1="4.905016849157619" x2="26.343496750225313" y2="7.657365964412747" stroke="#f7bc26" stroke-linecap="round" stroke-width="1"/><line x1="28.443980888274382" y1="5.728605792226517" x2="26.676241731063783" y2="8.206884688757782" stroke="#f7bc26" stroke-linecap="round" stroke-width="1"/><line x1="28.760749178938568" y1="6.300523010108009" x2="27.045121291288524" y2="8.705744601154947" stroke="#f7bc26" stroke-linecap="round" stroke-width="1"/><line x1="29.143226667369163" y1="6.7803193302570435" x2="27.44575036385504" y2="9.16009333887996" stroke="#f7bc26" stroke-linecap="round" stroke-width="1"/><line x1="29.56562109832157" y1="7.204154160910548" x2="27.870215121551155" y2="9.581025678487094" stroke="#f7bc26" stroke-linecap="round" stroke-width="1"/><line x1="30.01712640234473" y1="7.587177052712832" x2="28.315788661882834" y2="9.972364596276748" stroke="#f7bc26" stroke-linecap="round" stroke-width="1"/><line x1="30.490867197648186" y1="7.939026935438051" x2="28.7802596579495" y2="10.337210258236155" stroke="#f7bc26" stroke-linecap="round" stroke-width="1"/><line x1="30.982861772299657" y1="8.265285963336282" x2="29.261804197329184" y2="10.678119695261557" stroke="#f7bc26" stroke-linecap="round" stroke-width="1"/><line x1="31.490729034048854" y1="8.569292304630835" x2="29.758893574758986" y2="10.997236073098065" stroke="#f7bc26" stroke-linecap="round" stroke-width="1"/><line x1="32.013067362320726" y1="8.85301095889281" x2="30.270226777116477" y2="11.296383344866626" stroke="#f7bc26" stroke-linecap="round" stroke-width="1"/><line x1="32.553535363720584" y1="9.111312748839737" x2="30.79468025693859" y2="11.577136666021033" stroke="#f7bc26" stroke-linecap="round" stroke-width="1"/><line x1="33.10797932152491" y1="9.350020970535297" x2="31.33127002256515" y2="11.8408755419905" stroke="#f7bc26" stroke-linecap="round" stroke-width="1"/><line x1="33.67683326981569" y1="9.568527130648363" x2="31.87912264172337" y2="12.088824479662435" stroke="#f7bc26" stroke-linecap="round" stroke-width="1"/><line x1="34.261430526239565" y1="9.764961986773415" x2="32.43933168526564" y2="12.319450349244107" stroke="#f7bc26" stroke-linecap="round" stroke-width="1"/><line x1="34.86313181481455" y1="9.937417874197308" x2="33.0004107657187" y2="12.548856472059924" stroke="#f7bc26" stroke-linecap="round" stroke-width="1"/><line x1="35.43774390673934" y1="10.147851414662" x2="33.53680913255812" y2="12.812863679237125" stroke="#f7bc26" stroke-linecap="round" stroke-width="1"/><line x1="35.98349763329679" y1="10.398742891236907" x2="34.06757532866686" y2="13.084766898560702" stroke="#f7bc26" stroke-linecap="round" stroke-width="1"/><line x1="36.52848609099965" y1="10.650707235172376" x2="34.596961442955944" y2="13.358604921237202" stroke="#f7bc26" stroke-linecap="round" stroke-width="1"/><line x1="37.07000370213427" y1="10.907537526539272" x2="35.126347557245026" y2="13.632442943913702" stroke="#f7bc26" stroke-linecap="round" stroke-width="1"/><line x1="37.611521313268895" y1="11.164367817905259" x2="35.645948574230715" y2="13.919999167070273" stroke="#f7bc26" stroke-linecap="round" stroke-width="1"/><line x1="38.15303892440352" y1="11.421198109272154" x2="36.164461886975914" y2="14.209080295327112" stroke="#f7bc26" stroke-linecap="round" stroke-width="1"/><line x1="38.69455653553814" y1="11.67802840063814" x2="36.68297519972111" y2="14.498161423584861" stroke="#f7bc26" stroke-linecap="round" stroke-width="1"/><line x1="39.233512699422135" y1="11.93844970860573" x2="37.19100312855153" y2="14.801942517940915" stroke="#f7bc26" stroke-linecap="round" stroke-width="1"/><line x1="39.76819220471225" y1="12.204866670797855" x2="37.6984042918084" y2="15.106602305220804" stroke="#f7bc26" stroke-linecap="round" stroke-width="1"/><line x1="40.302871710002364" y1="12.47128363298907" x2="38.19946900946161" y2="15.420145461609536" stroke="#f7bc26" stroke-linecap="round" stroke-width="1"/><line x1="40.83755121529248" y1="12.737700595181195" x2="38.69623489618243" y2="15.739715356690795" stroke="#f7bc26" stroke-linecap="round" stroke-width="1"/><line x1="41.367112646228634" y1="13.0112928329836" x2="39.186782878397935" y2="16.06800243239104" stroke="#f7bc26" stroke-linecap="round" stroke-width="1"/><line x1="41.895452119741094" y1="13.286598191912162" x2="39.671208632302296" y2="16.40487255562948" stroke="#f7bc26" stroke-linecap="round" stroke-width="1"/><line x1="42.42102566437461" y1="13.565781240116848" x2="40.15112188011335" y2="16.748068979088202" stroke="#f7bc26" stroke-linecap="round" stroke-width="1"/><line x1="42.943306871366076" y1="13.849579975460983" x2="40.62386752670136" y2="17.101314008857116" stroke="#f7bc26" stroke-linecap="round" stroke-width="1"/><line x1="43.46465234104471" y1="14.134690566140307" x2="41.0891574896159" y2="17.4650115216391" stroke="#f7bc26" stroke-linecap="round" stroke-width="1"/><line x1="43.979946953699255" y1="14.428284145498765" x2="41.548929459579085" y2="17.836444975223458" stroke="#f7bc26" stroke-linecap="round" stroke-width="1"/><line x1="44.4952415663538" y1="14.721877724859041" x2="42.00071541672878" y2="18.21907440585528" stroke="#f7bc26" stroke-linecap="round" stroke-width="1"/><line x1="45.00377531630875" y1="15.024949684155217" x2="42.4429148631898" y2="18.615143628794613" stroke="#f7bc26" stroke-linecap="round" stroke-width="1"/><line x1="45.5110652473013" y1="15.329765413315727" x2="42.87813215810456" y2="19.02100146718385" stroke="#f7bc26" stroke-linecap="round" stroke-width="1"/><line x1="46.01293203378009" y1="15.642184110683047" x2="43.3051008783259" y2="19.438423380804124" stroke="#f7bc26" stroke-linecap="round" stroke-width="1"/><line x1="46.511089163690485" y1="15.95980355474785" x2="43.7188113797165" y2="19.874432631696436" stroke="#f7bc26" stroke-linecap="round" stroke-width="1"/><line x1="47.00522591193658" y1="16.28305936603283" x2="44.12335423413242" y2="20.32329444963034" stroke="#f7bc26" stroke-linecap="round" stroke-width="1"/><line x1="47.492987349229224" y1="16.615253033633962" x2="44.51800866390113" y2="20.786019327633767" stroke="#f7bc26" stroke-linecap="round" stroke-width="1"/><line x1="47.978045758976805" y1="16.95123620608865" x2="44.89829805273257" y2="21.268883250279032" stroke="#f7bc26" stroke-linecap="round" stroke-width="1"/><line x1="48.453983189006976" y1="17.30000652050512" x2="45.26340416961102" y2="21.7730333351401" stroke="#f7bc26" stroke-linecap="round" stroke-width="1"/><line x1="48.928243525373546" y1="17.65112803352349" x2="45.61468563547169" y2="22.296564865921937" stroke="#f7bc26" stroke-linecap="round" stroke-width="1"/><line x1="49.39072467215374" y1="18.018763361293168" x2="45.95054048401289" y2="22.8417237165404" stroke="#f7bc26" stroke-linecap="round" stroke-width="1"/><line x1="49.85197798233639" y1="18.388120052485647" x2="46.26804536456257" y2="23.41260827349015" stroke="#f7bc26" stroke-linecap="round" stroke-width="1"/><line x1="50.299117428672616" y1="18.77726365102626" x2="46.56057849562785" y2="24.018501932042454" stroke="#f7bc26" stroke-linecap="round" stroke-width="1"/><line x1="50.74450214669923" y1="19.16886728792724" x2="46.830000534580904" y2="24.656796146759916" stroke="#f7bc26" stroke-linecap="round" stroke-width="1"/><line x1="51.174097601695394" y1="19.58260665520538" x2="47.072577763392474" y2="25.33272539727568" stroke="#f7bc26" stroke-linecap="round" stroke-width="1"/><line x1="51.599869029603724" y1="20.00170711073406" x2="47.28353238689306" y2="26.052987905369264" stroke="#f7bc26" stroke-linecap="round" stroke-width="1"/><line x1="52.00931737852443" y1="20.44369167901459" x2="47.45665155912866" y2="26.826293759839245" stroke="#f7bc26" stroke-linecap="round" stroke-width="1"/><line x1="52.41162434268335" y1="20.89568809948014" x2="47.58370630011632" y2="27.664179565131235" stroke="#f7bc26" stroke-linecap="round" stroke-width="1"/><line x1="52.80044218284456" y1="21.366595574331768" x2="47.65356297789549" y2="28.582254097587793" stroke="#f7bc26" stroke-linecap="round" stroke-width="1"/><line x1="53.171227511105826" y1="21.86278369847969" x2="47.650779273019" y2="29.60216669061265" stroke="#f7bc26" stroke-linecap="round" stroke-width="1"/><line x1="53.52525628007061" y1="22.382463652360457" x2="47.553298350227124" y2="30.75483988678934" stroke="#f7bc26" stroke-linecap="round" stroke-width="1"/><line x1="53.86054599468116" y1="22.928414791534124" x2="47.28991363735622" y2="32.14010161851729" stroke="#f7bc26" stroke-linecap="round" stroke-width="1"/><line x1="54.17478584988203" y1="23.503876745198795" x2="46.749338582183555" y2="33.91396987787448" stroke="#f7bc26" stroke-linecap="round" stroke-width="1"/><line x1="54.46033432483091" y1="24.119562530479925" x2="46.01653801993234" y2="35.95732835903982" stroke="#f7bc26" stroke-linecap="round" stroke-width="1"/><line x1="54.716679449382355" y1="24.776189903041995" x2="45.29352243772155" y2="37.986968804124444" stroke="#f7bc26" stroke-linecap="round" stroke-width="1"/><line x1="54.935596816430916" y1="25.485289056402507" x2="44.60205077335195" y2="39.97238630738866" stroke="#f7bc26" stroke-linecap="round" stroke-width="1"/><line x1="55.10886539971034" y1="26.258385444313717" x2="43.99011352402522" y2="41.846300673135374" stroke="#f7bc26" stroke-linecap="round" stroke-width="1"/><line x1="55.220680092053954" y1="27.117637009809187" x2="43.73224855470107" y2="43.223824009809505" stroke="#f7bc26" stroke-linecap="round" stroke-width="1"/><line x1="55.25306953983454" y1="28.0882386614594" x2="43.61554145399714" y2="44.40345131331742" stroke="#f7bc26" stroke-linecap="round" stroke-width="1"/><line x1="55.16851926292293" y1="29.222783760696984" x2="43.421586361342634" y2="45.69137630739442" stroke="#f7bc26" stroke-linecap="round" stroke-width="1"/><line x1="54.8877312978766" y1="30.632443952126778" x2="43.490590644752956" y2="46.610645852684684" stroke="#f7bc26" stroke-linecap="round" stroke-width="1"/><line x1="54.167556642656564" y1="32.65810156446514" x2="43.629719623317214" y2="47.43160420119602" stroke="#f7bc26" stroke-linecap="round" stroke-width="1"/><line x1="46.61649713529914" y1="44.26030654501665" x2="43.73928960430203" y2="48.294002735954564" stroke="#f7bc26" stroke-linecap="round" stroke-width="1"/><line x1="46.27250331760297" y1="45.758578073772696" x2="43.81188439881953" y2="49.2082385703161" stroke="#f7bc26" stroke-linecap="round" stroke-width="1"/><line x1="46.354061505731806" y1="46.660247693746896" x2="43.96584716406869" y2="50.00840071688617" stroke="#f7bc26" stroke-linecap="round" stroke-width="1"/><line x1="46.523107832654205" y1="47.43926346675835" x2="44.17775403703854" y2="50.72732822046237" stroke="#f7bc26" stroke-linecap="round" stroke-width="1"/><line x1="46.761718348232534" y1="48.1207538441231" x2="44.401406329649035" y2="51.429789253005765" stroke="#f7bc26" stroke-linecap="round" stroke-width="1"/><line x1="47.03769999343058" y1="48.74985183005356" x2="44.63724666405324" y2="52.115163281145215" stroke="#f7bc26" stroke-linecap="round" stroke-width="1"/><line x1="47.340533544313075" y1="49.34130483260924" x2="44.87308699845744" y2="52.800537309283754" stroke="#f7bc26" stroke-linecap="round" stroke-width="1"/><line x1="47.66120440894156" y1="49.90775084358029" x2="45.108964661034406" y2="53.48585900524995" stroke="#f7bc26" stroke-linecap="round" stroke-width="1"/><line x1="47.995833785113064" y1="50.4546277431009" x2="45.35034673694463" y2="54.16346379833794" stroke="#f7bc26" stroke-linecap="round" stroke-width="1"/><line x1="48.34147765858506" y1="50.986062886910986" x2="45.59172881285485" y2="54.84106859142503" stroke="#f7bc26" stroke-linecap="round" stroke-width="1"/><line x1="48.69699260313428" y1="51.50365929946474" x2="45.83311088876144" y2="55.51867338451211" stroke="#f7bc26" stroke-linecap="round" stroke-width="1"/><line x1="49.061617758958164" y1="52.00848366685932" x2="46.07449296467166" y2="56.19627817760011" stroke="#f7bc26" stroke-linecap="round" stroke-width="1"/><line x1="49.432093157214695" y1="52.50510629685141" x2="46.31605877169568" y2="56.873625389160225" stroke="#f7bc26" stroke-linecap="round" stroke-width="1"/><line x1="49.80716895947626" y1="52.9952793982975" x2="46.55896797402238" y2="57.54908922997129" stroke="#f7bc26" stroke-linecap="round" stroke-width="1"/><line x1="50.190258978374914" y1="53.47421698239759" x2="46.80187717634908" y2="58.22455307078053" stroke="#f7bc26" stroke-linecap="round" stroke-width="1"/><line x1="50.575605786871165" y1="53.94999066416676" x2="47.04478637867578" y2="58.90001691159159" stroke="#f7bc26" stroke-linecap="round" stroke-width="1"/><line x1="50.96526824380635" y1="54.419714029972056" x2="47.254297502197005" y2="59.62230313202417" stroke="#f7bc26" stroke-linecap="round" stroke-width="1"/><line x1="51.34954170952551" y1="54.89699248281886" x2="47.43588431215903" y2="60.383737796220885" stroke="#f7bc26" stroke-linecap="round" stroke-width="1"/><line x1="51.72754690754664" y1="55.3830587228731" x2="47.57872956256324" y2="61.19948612376902" stroke="#f7bc26" stroke-linecap="round" stroke-width="1"/><line x1="52.09803310582356" y1="55.879666211798394" x2="47.679077592954854" y2="62.07481335643115" stroke="#f7bc26" stroke-linecap="round" stroke-width="1"/><line x1="52.45952720655623" y1="56.38888015653902" x2="47.722937067537714" y2="63.029334623564864" stroke="#f7bc26" stroke-linecap="round" stroke-width="1"/><line x1="52.80935124460302" y1="56.91445492575258" x2="47.683727406711114" y2="64.10031452341536" stroke="#f7bc26" stroke-linecap="round" stroke-width="1"/><line x1="53.14843622484477" y1="57.45508529874678" x2="47.50645631158477" y2="65.3648494156123" stroke="#f7bc26" stroke-linecap="round" stroke-width="1"/><line x1="53.47526094852219" y1="58.012903917519" x2="47.07400937444254" y2="66.98712764431366" stroke="#f7bc26" stroke-linecap="round" stroke-width="1"/><line x1="42.22389945354007" y1="73.78673097594674" x2="36.79126637207082" y2="81.4030016590259" stroke="#f7bc26" stroke-linecap="round" stroke-width="1"/><line x1="53.78803554804472" y1="58.590420083885874" x2="37.88649471064127" y2="80.8835581404337" stroke="#f7bc26" stroke-linecap="round" stroke-width="1"/><line x1="54.08464067083332" y1="59.19060502058892" x2="38.981723049208085" y2="80.36411462184151" stroke="#f7bc26" stroke-linecap="round" stroke-width="1"/><line x1="54.362549443001626" y1="59.817001274148424" x2="40.10314885304979" y2="79.80794361148764" stroke="#f7bc26" stroke-linecap="round" stroke-width="1"/><line x1="54.61872624937314" y1="60.47386462009945" x2="41.233406043706054" y2="79.23939145344957" stroke="#f7bc26" stroke-linecap="round" stroke-width="1"/><line x1="54.84804617617556" y1="61.16837992255387" x2="42.39064291664181" y2="78.63301517586115" stroke="#f7bc26" stroke-linecap="round" stroke-width="1"/><line x1="55.04177086689742" y1="61.912797905519255" x2="43.57786767770085" y2="77.98459742965406" stroke="#f7bc26" stroke-linecap="round" stroke-width="1"/><line x1="55.19668186009949" y1="62.71163068552778" x2="44.805215113417944" y2="77.27992976814858" stroke="#f7bc26" stroke-linecap="round" stroke-width="1"/><line x1="55.29097852011546" y1="63.59544162656857" x2="46.087896225952136" y2="76.4976871527997" stroke="#f7bc26" stroke-linecap="round" stroke-width="1"/><line x1="55.30480665665527" y1="64.5920652768582" x2="47.44989441558573" y2="75.60424609648453" stroke="#f7bc26" stroke-linecap="round" stroke-width="1"/><line x1="55.18719964866614" y1="65.77295420385417" x2="48.931804176361766" y2="74.54269521752212" stroke="#f7bc26" stroke-linecap="round" stroke-width="1"/><line x1="54.77864525418772" y1="67.3617363231142" x2="50.70936194647584" y2="73.06666111609957" stroke="#f7bc26" stroke-linecap="round" stroke-width="1"/><line x1="28.10432788653634" y1="82.40553044307217" x2="26.055675473835436" y2="85.2776351990342" stroke="#f7bc26" stroke-linecap="round" stroke-width="1"/><line x1="29.647629171297012" y1="81.25791182176545" x2="25.823841617002472" y2="86.61866426194956" stroke="#f7bc26" stroke-linecap="round" stroke-width="1"/><line x1="30.86476702048094" y1="80.56755747268016" x2="25.927704010617163" y2="87.4890645390833" stroke="#f7bc26" stroke-linecap="round" stroke-width="1"/><line x1="31.9554182838001" y1="80.05453077692619" x2="26.175247157403646" y2="88.1580318293627" stroke="#f7bc26" stroke-linecap="round" stroke-width="1"/><line x1="32.972941071449895" y1="79.64402642291952" x2="26.508110277267406" y2="88.70738492889905" stroke="#f7bc26" stroke-linecap="round" stroke-width="1"/><line x1="34.10079314791801" y1="79.07884611061672" x2="30.328957611203805" y2="84.36676450835785" stroke="#f7bc26" stroke-linecap="round" stroke-width="1"/><line x1="28.35503741212233" y1="87.13409856489397" x2="26.907847324360773" y2="89.16298424020897" stroke="#f7bc26" stroke-linecap="round" stroke-width="1"/><line x1="35.24986191029893" y1="78.48392110168243" x2="31.6550723391847" y2="83.52363020991106" stroke="#f7bc26" stroke-linecap="round" stroke-width="1"/><line x1="28.563743395578058" y1="87.85751355006323" x2="27.356930693207687" y2="89.5494025599055" stroke="#f7bc26" stroke-linecap="round" stroke-width="1"/><line x1="36.45305350041235" y1="77.81311868672128" x2="32.78107410075245" y2="82.96104394342638" stroke="#f7bc26" stroke-linecap="round" stroke-width="1"/><line x1="28.935598850323004" y1="88.35220141221544" x2="27.849272482224478" y2="89.87517481121449" stroke="#f7bc26" stroke-linecap="round" stroke-width="1"/><line x1="37.7037294700167" y1="77.0757456269157" x2="33.78981696798655" y2="82.56284858386698" stroke="#f7bc26" stroke-linecap="round" stroke-width="1"/><line x1="29.258701119877514" y1="88.9152387191998" x2="28.380736340892327" y2="90.14609994370585" stroke="#f7bc26" stroke-linecap="round" stroke-width="1"/><line x1="39.038185553916264" y1="76.22091717876447" x2="34.7259326639396" y2="82.26647276321728" stroke="#f7bc26" stroke-linecap="round" stroke-width="1"/><line x1="40.50361572845577" y1="75.18246982761957" x2="35.7082751521848" y2="81.9052893699536" stroke="#f7bc26" stroke-linecap="round" stroke-width="1"/><line x1="28.062947557566076" y1="2.1254829624249396" x2="27.877623036853038" y2="2.2241218247509096" stroke="#030303" stroke-linecap="round" stroke-width="2"/><line x1="27.877623036853038" y1="2.2241218247509096" x2="27.52954220620086" y2="2.435717955879227" stroke="#030303" stroke-linecap="round" stroke-width="2"/><line x1="27.52954220620086" y1="2.435717955879227" x2="27.21179799136371" y2="2.665499192646166" stroke="#030303" stroke-linecap="round" stroke-width="2"/><line x1="27.21179799136371" y1="2.665499192646166" x2="26.924685194084304" y2="2.912378211457508" stroke="#030303" stroke-linecap="round" stroke-width="2"/><line x1="26.924685194084304" y1="2.912378211457508" x2="26.668498616101715" y2="3.1752676887163034" stroke="#030303" stroke-linecap="round" stroke-width="2"/><line x1="26.668498616101715" y1="3.1752676887163034" x2="26.443533059155016" y2="3.4530803008256044" stroke="#030303" stroke-linecap="round" stroke-width="2"/><line x1="26.443533059155016" y1="3.4530803008256044" x2="26.250083324986917" y2="3.7447287241902814" stroke="#030303" stroke-linecap="round" stroke-width="2"/><line x1="26.250083324986917" y1="3.7447287241902814" x2="26.088444215336494" y2="4.049125635213386" stroke="#030303" stroke-linecap="round" stroke-width="2"/><line x1="26.088444215336494" y1="4.049125635213386" x2="25.958910531946458" y2="4.365183710299789" stroke="#030303" stroke-linecap="round" stroke-width="2"/><line x1="25.958910531946458" y1="4.365183710299789" x2="25.86177707655952" y2="4.691815625853451" stroke="#030303" stroke-linecap="round" stroke-width="2"/><line x1="25.86177707655952" y1="4.691815625853451" x2="25.797338650911115" y2="5.027934058277424" stroke="#030303" stroke-linecap="round" stroke-width="2"/><line x1="25.797338650911115" y1="5.027934058277424" x2="25.765890056743956" y2="5.372451683976578" stroke="#030303" stroke-linecap="round" stroke-width="2"/><line x1="25.765890056743956" y1="5.372451683976578" x2="25.767726095800754" y2="5.724281179353056" stroke="#030303" stroke-linecap="round" stroke-width="2"/><line x1="25.767726095800754" y1="5.724281179353056" x2="25.803141569816944" y2="6.0823352208135475" stroke="#030303" stroke-linecap="round" stroke-width="2"/><line x1="25.803141569816944" y1="6.0823352208135475" x2="25.872431280542514" y2="6.445526484759284" stroke="#030303" stroke-linecap="round" stroke-width="2"/><line x1="25.872431280542514" y1="6.445526484759284" x2="25.975890029709262" y2="6.812767647596047" stroke="#030303" stroke-linecap="round" stroke-width="2"/><line x1="25.975890029709262" y1="6.812767647596047" x2="26.113812619063538" y2="7.182971385726887" stroke="#030303" stroke-linecap="round" stroke-width="2"/><line x1="26.113812619063538" y1="7.182971385726887" x2="26.286493850340776" y2="7.555050375554856" stroke="#030303" stroke-linecap="round" stroke-width="2"/><line x1="26.286493850340776" y1="7.555050375554856" x2="26.494228525287326" y2="7.927917293486644" stroke="#030303" stroke-linecap="round" stroke-width="2"/><line x1="26.494228525287326" y1="7.927917293486644" x2="26.737311445642263" y2="8.300484815923483" stroke="#030303" stroke-linecap="round" stroke-width="2"/><line x1="26.737311445642263" y1="8.300484815923483" x2="27.01603741314466" y2="8.671665619269334" stroke="#030303" stroke-linecap="round" stroke-width="2"/><line x1="27.01603741314466" y1="8.671665619269334" x2="27.330701229537226" y2="9.040372379929977" stroke="#030303" stroke-linecap="round" stroke-width="2"/><line x1="27.330701229537226" y1="9.040372379929977" x2="27.681597696559038" y2="9.405517774308464" stroke="#030303" stroke-linecap="round" stroke-width="2"/><line x1="27.681597696559038" y1="9.405517774308464" x2="28.06902161594917" y2="9.766014478808756" stroke="#030303" stroke-linecap="round" stroke-width="2"/><line x1="28.06902161594917" y1="9.766014478808756" x2="28.493267789453967" y2="10.120775169833905" stroke="#030303" stroke-linecap="round" stroke-width="2"/><line x1="28.062947557566076" y1="2.1254829624249396" x2="28.095467109662422" y2="2.08993123532764" stroke="#030303" stroke-linecap="round" stroke-width="2"/><line x1="28.095467109662422" y1="2.08993123532764" x2="28.185354065324645" y2="2.0362443440853895" stroke="#030303" stroke-linecap="round" stroke-width="2"/><line x1="28.185354065324645" y1="2.0362443440853895" x2="28.30198816176926" y2="2.0061279145384106" stroke="#030303" stroke-linecap="round" stroke-width="2"/><line x1="28.30198816176926" y1="2.0061279145384106" x2="28.437709405570786" y2="2" stroke="#030303" stroke-linecap="round" stroke-width="2"/><line x1="28.437709405570786" y1="2" x2="28.58485780332194" y2="2.0182786537834545" stroke="#030303" stroke-linecap="round" stroke-width="2"/><line x1="28.58485780332194" y1="2.0182786537834545" x2="28.735773361600877" y2="2.0613819292002518" stroke="#030303" stroke-linecap="round" stroke-width="2"/><line x1="28.735773361600877" y1="2.0613819292002518" x2="28.88279608699304" y2="2.1297278795636885" stroke="#030303" stroke-linecap="round" stroke-width="2"/><line x1="28.88279608699304" y1="2.1297278795636885" x2="29.018265986076585" y2="2.223734558184333" stroke="#030303" stroke-linecap="round" stroke-width="2"/><line x1="29.018265986076585" y1="2.223734558184333" x2="29.134523065444228" y2="2.3438200183773006" stroke="#030303" stroke-linecap="round" stroke-width="2"/><line x1="29.134523065444228" y1="2.3438200183773006" x2="29.22390733167049" y2="2.4904023134522504" stroke="#030303" stroke-linecap="round" stroke-width="2"/><line x1="29.22390733167049" y1="2.4904023134522504" x2="29.278758791340806" y2="2.663899496724298" stroke="#030303" stroke-linecap="round" stroke-width="2"/><line x1="29.278758791340806" y1="2.663899496724298" x2="29.291417451044254" y2="2.864729621504921" stroke="#030303" stroke-linecap="round" stroke-width="2"/><line x1="29.291417451044254" y1="2.864729621504921" x2="29.254223317358992" y2="3.093310741105597" stroke="#030303" stroke-linecap="round" stroke-width="2"/><line x1="29.254223317358992" y1="3.093310741105597" x2="29.15951639686682" y2="3.3500609088405326" stroke="#030303" stroke-linecap="round" stroke-width="2"/><line x1="29.15951639686682" y1="3.3500609088405326" x2="28.999636696156813" y2="3.6353981780212052" stroke="#030303" stroke-linecap="round" stroke-width="2"/><line x1="28.999636696156813" y1="3.6353981780212052" x2="28.76692422180713" y2="3.9497406019590926" stroke="#030303" stroke-linecap="round" stroke-width="2"/><line x1="28.76692422180713" y1="3.9497406019590926" x2="28.620861946576042" y2="4.117919388623704" stroke="#030303" stroke-linecap="round" stroke-width="2"/><line x1="28.620861946576042" y1="4.117919388623704" x2="28.551937098105554" y2="4.2143034253340375" stroke="#030303" stroke-linecap="round" stroke-width="2"/><line x1="28.551937098105554" y1="4.2143034253340375" x2="28.439726498876553" y2="4.411024599987286" stroke="#030303" stroke-linecap="round" stroke-width="2"/><line x1="28.439726498876553" y1="4.411024599987286" x2="28.360672681345022" y2="4.612537789051203" stroke="#030303" stroke-linecap="round" stroke-width="2"/><line x1="28.360672681345022" y1="4.612537789051203" x2="28.31354122720586" y2="4.818268447846094" stroke="#030303" stroke-linecap="round" stroke-width="2"/><line x1="28.31354122720586" y1="4.818268447846094" x2="28.297097718150326" y2="5.027642031692267" stroke="#030303" stroke-linecap="round" stroke-width="2"/><line x1="28.297097718150326" y1="5.027642031692267" x2="28.310107735876954" y2="5.240083995909117" stroke="#030303" stroke-linecap="round" stroke-width="2"/><line x1="28.310107735876954" y1="5.240083995909117" x2="28.351336862077005" y2="5.455019795816952" stroke="#030303" stroke-linecap="round" stroke-width="2"/><line x1="28.351336862077005" y1="5.455019795816952" x2="28.419550678445376" y2="5.671874886736987" stroke="#030303" stroke-linecap="round" stroke-width="2"/><line x1="28.419550678445376" y1="5.671874886736987" x2="28.513514766673325" y2="5.890074723988619" stroke="#030303" stroke-linecap="round" stroke-width="2"/><line x1="28.513514766673325" y1="5.890074723988619" x2="28.631994708459388" y2="6.109044762892154" stroke="#030303" stroke-linecap="round" stroke-width="2"/><line x1="28.631994708459388" y1="6.109044762892154" x2="28.852981556508894" y2="6.437687132859537" stroke="#030303" stroke-linecap="round" stroke-width="2"/><line x1="28.852981556508894" y1="6.437687132859537" x2="29.221914937170368" y2="6.873210248253599" stroke="#030303" stroke-linecap="round" stroke-width="2"/><line x1="29.221914937170368" y1="6.873210248253599" x2="29.666692202543345" y2="7.301472366020789" stroke="#030303" stroke-linecap="round" stroke-width="2"/><line x1="29.666692202543345" y1="7.301472366020789" x2="30.17743800619064" y2="7.717877128722648" stroke="#030303" stroke-linecap="round" stroke-width="2"/><line x1="30.17743800619064" y1="7.717877128722648" x2="30.744277001656883" y2="8.117828178922537" stroke="#030303" stroke-linecap="round" stroke-width="2"/><line x1="30.744277001656883" y1="8.117828178922537" x2="31.357333842501248" y2="8.496729159180177" stroke="#030303" stroke-linecap="round" stroke-width="2"/><line x1="31.357333842501248" y1="8.496729159180177" x2="32.00673318226836" y2="8.849983712060748" stroke="#030303" stroke-linecap="round" stroke-width="2"/><line x1="32.00673318226836" y1="8.849983712060748" x2="32.682599674517405" y2="9.172995480123063" stroke="#030303" stroke-linecap="round" stroke-width="2"/><line x1="32.682599674517405" y1="9.172995480123063" x2="33.37505797280028" y2="9.461168105931392" stroke="#030303" stroke-linecap="round" stroke-width="2"/><line x1="33.37505797280028" y1="9.461168105931392" x2="34.074232730665244" y2="9.709905232045458" stroke="#030303" stroke-linecap="round" stroke-width="2"/><line x1="34.074232730665244" y1="9.709905232045458" x2="34.77024860167148" y2="9.914610501029529" stroke="#030303" stroke-linecap="round" stroke-width="2"/><line x1="34.77024860167148" y1="9.914610501029529" x2="35.113985908836185" y2="9.999014827397332" stroke="#030303" stroke-linecap="round" stroke-width="2"/><line x1="27.738713583621575" y1="82.74573336994945" x2="27.681597696559038" y2="9.405517774308464" stroke="#030303" stroke-linecap="round" stroke-width="2"/><line x1="28.493267789453967" y1="10.120775169833905" x2="28.95463101880887" y2="10.468712523788781" stroke="#030303" stroke-linecap="round" stroke-width="2"/><line x1="28.95463101880887" y1="10.468712523788781" x2="29.453406105756585" y2="10.808739217077346" stroke="#030303" stroke-linecap="round" stroke-width="2"/><line x1="29.453406105756585" y1="10.808739217077346" x2="29.98988785203983" y2="11.13976792610265" stroke="#030303" stroke-linecap="round" stroke-width="2"/><line x1="29.98988785203983" y1="11.13976792610265" x2="30.564371059397672" y2="11.460711327269564" stroke="#030303" stroke-linecap="round" stroke-width="2"/><line x1="30.564371059397672" y1="11.460711327269564" x2="31.17715052956919" y2="11.77048209698114" stroke="#030303" stroke-linecap="round" stroke-width="2"/><line x1="31.17715052956919" y1="11.77048209698114" x2="31.828521064293454" y2="12.06799291164134" stroke="#030303" stroke-linecap="round" stroke-width="2"/><line x1="31.828521064293454" y1="12.06799291164134" x2="32.518777465320454" y2="12.352156447655943" stroke="#030303" stroke-linecap="round" stroke-width="2"/><line x1="32.518777465320454" y1="12.352156447655943" x2="32.87857999123662" y2="12.488893197545622" stroke="#030303" stroke-linecap="round" stroke-width="2"/><line x1="32.87857999123662" y1="12.488893197545622" x2="33.642377725383994" y2="12.864822952570648" stroke="#030303" stroke-linecap="round" stroke-width="2"/><line x1="33.642377725383994" y1="12.864822952570648" x2="35.17930681689177" y2="13.65983742697972" stroke="#030303" stroke-linecap="round" stroke-width="2"/><line x1="35.17930681689177" y1="13.65983742697972" x2="36.71222123291227" y2="14.514466648665802" stroke="#030303" stroke-linecap="round" stroke-width="2"/><line x1="36.71222123291227" y1="14.514466648665802" x2="37.84739070793876" y2="15.196058485325011" stroke="#030303" stroke-linecap="round" stroke-width="2"/><line x1="37.84739070793876" y1="15.196058485325011" x2="38.59262858034708" y2="15.670379398368823" stroke="#030303" stroke-linecap="round" stroke-width="2"/><line x1="38.59262858034708" y1="15.670379398368823" x2="39.32575261704915" y2="16.16100448472025" stroke="#030303" stroke-linecap="round" stroke-width="2"/><line x1="39.32575261704915" y1="16.16100448472025" x2="40.04429389207144" y2="16.668244963598227" stroke="#030303" stroke-linecap="round" stroke-width="2"/><line x1="40.04429389207144" y1="16.668244963598227" x2="40.745783479454985" y2="17.192412054222586" stroke="#030303" stroke-linecap="round" stroke-width="2"/><line x1="40.745783479454985" y1="17.192412054222586" x2="41.42775245323355" y2="17.73381697581226" stroke="#030303" stroke-linecap="round" stroke-width="2"/><line x1="41.42775245323355" y1="17.73381697581226" x2="42.087731887440896" y2="18.292770947587087" stroke="#030303" stroke-linecap="round" stroke-width="2"/><line x1="42.087731887440896" y1="18.292770947587087" x2="42.72325285611805" y2="18.869585188765996" stroke="#030303" stroke-linecap="round" stroke-width="2"/><line x1="42.72325285611805" y1="18.869585188765996" x2="43.33184643329514" y2="19.464570918569734" stroke="#030303" stroke-linecap="round" stroke-width="2"/><line x1="43.33184643329514" y1="19.464570918569734" x2="43.91104369300956" y2="20.078039356216323" stroke="#030303" stroke-linecap="round" stroke-width="2"/><line x1="43.91104369300956" y1="20.078039356216323" x2="44.45837570929507" y2="20.7103017209256" stroke="#030303" stroke-linecap="round" stroke-width="2"/><line x1="44.45837570929507" y1="20.7103017209256" x2="44.971373556189064" y2="21.361669231918313" stroke="#030303" stroke-linecap="round" stroke-width="2"/><line x1="44.971373556189064" y1="21.361669231918313" x2="45.44756830772894" y2="22.032453108412483" stroke="#030303" stroke-linecap="round" stroke-width="2"/><line x1="45.44756830772894" y1="22.032453108412483" x2="45.88449103794483" y2="22.722964569627948" stroke="#030303" stroke-linecap="round" stroke-width="2"/><line x1="45.88449103794483" y1="22.722964569627948" x2="46.27967282087775" y2="23.433514834785456" stroke="#030303" stroke-linecap="round" stroke-width="2"/><line x1="46.27967282087775" y1="23.433514834785456" x2="46.63064473056147" y2="24.164415123103936" stroke="#030303" stroke-linecap="round" stroke-width="2"/><line x1="46.63064473056147" y1="24.164415123103936" x2="46.93493784102975" y2="24.91597665380141" stroke="#030303" stroke-linecap="round" stroke-width="2"/><line x1="46.93493784102975" y1="24.91597665380141" x2="47.19008322631635" y2="25.68851064609862" stroke="#030303" stroke-linecap="round" stroke-width="2"/><line x1="47.19008322631635" y1="25.68851064609862" x2="47.393611960462295" y2="26.482328319215412" stroke="#030303" stroke-linecap="round" stroke-width="2"/><line x1="47.393611960462295" y1="26.482328319215412" x2="47.543055117497715" y2="27.29774089237071" stroke="#030303" stroke-linecap="round" stroke-width="2"/><line x1="47.543055117497715" y1="27.29774089237071" x2="47.635943771463644" y2="28.13505958478345" stroke="#030303" stroke-linecap="round" stroke-width="2"/><line x1="47.635943771463644" y1="28.13505958478345" x2="47.6698089963902" y2="28.99459561567437" stroke="#030303" stroke-linecap="round" stroke-width="2"/><line x1="47.6698089963902" y1="28.99459561567437" x2="47.642181866314786" y2="29.876660204262407" stroke="#030303" stroke-linecap="round" stroke-width="2"/><line x1="47.642181866314786" y1="29.876660204262407" x2="47.55059345527479" y2="30.781564569767397" stroke="#030303" stroke-linecap="round" stroke-width="2"/><line x1="47.55059345527479" y1="30.781564569767397" x2="47.39257483730398" y2="31.70961993140827" stroke="#030303" stroke-linecap="round" stroke-width="2"/><line x1="47.39257483730398" y1="31.70961993140827" x2="47.16565708643975" y2="32.661137508403954" stroke="#030303" stroke-linecap="round" stroke-width="2"/><line x1="47.16565708643975" y1="32.661137508403954" x2="47.02558949680679" y2="33.1457918836677" stroke="#030303" stroke-linecap="round" stroke-width="2"/><line x1="47.02558949680679" y1="33.1457918836677" x2="46.22971807477734" y2="35.358891932433835" stroke="#030303" stroke-linecap="round" stroke-width="2"/><line x1="46.22971807477734" y1="35.358891932433835" x2="45.05022286763051" y2="38.669956363282836" stroke="#030303" stroke-linecap="round" stroke-width="2"/><line x1="45.05022286763051" y1="38.669956363282836" x2="44.3248530088822" y2="40.77794888814424" stroke="#030303" stroke-linecap="round" stroke-width="2"/><line x1="44.3248530088822" y1="40.77794888814424" x2="44.009878760047286" y2="41.774277890533995" stroke="#030303" stroke-linecap="round" stroke-width="2"/><line x1="44.009878760047286" y1="41.774277890533995" x2="43.882098744186806" y2="42.239897035834474" stroke="#030303" stroke-linecap="round" stroke-width="2"/><line x1="43.882098744186806" y1="42.239897035834474" x2="43.80336180236918" y2="42.59629676811164" stroke="#030303" stroke-linecap="round" stroke-width="2"/><line x1="43.80336180236918" y1="42.59629676811164" x2="43.75933720947796" y2="42.88604343480438" stroke="#030303" stroke-linecap="round" stroke-width="2"/><line x1="43.75933720947796" y1="42.88604343480438" x2="43.7270375131593" y2="43.28880282189493" stroke="#030303" stroke-linecap="round" stroke-width="2"/><line x1="43.7270375131593" y1="43.28880282189493" x2="43.671711038150534" y2="43.98981551789802" stroke="#030303" stroke-linecap="round" stroke-width="2"/><line x1="43.671711038150534" y1="43.98981551789802" x2="43.55832409953655" y2="44.824802944855946" stroke="#030303" stroke-linecap="round" stroke-width="2"/><line x1="43.55832409953655" y1="44.824802944855946" x2="43.42162837259457" y2="45.608524514254896" stroke="#030303" stroke-linecap="round" stroke-width="2"/><line x1="43.42162837259457" y1="45.608524514254896" x2="43.42138746747514" y2="46.083621563393535" stroke="#030303" stroke-linecap="round" stroke-width="2"/><line x1="35.113985908836185" y1="9.999014827397332" x2="36.430659068188106" y2="10.604309957861915" stroke="#030303" stroke-linecap="round" stroke-width="2"/><line x1="36.430659068188106" y1="10.604309957861915" x2="39.03323013891713" y2="11.83865409119062" stroke="#030303" stroke-linecap="round" stroke-width="2"/><line x1="39.03323013891713" y1="11.83865409119062" x2="40.94060363105382" y2="12.78904894738389" stroke="#030303" stroke-linecap="round" stroke-width="2"/><line x1="40.94060363105382" y1="12.78904894738389" x2="42.18257582588194" y2="13.436211648674544" stroke="#030303" stroke-linecap="round" stroke-width="2"/><line x1="42.18257582588194" y1="13.436211648674544" x2="43.39563725664266" y2="14.095368622612114" stroke="#030303" stroke-linecap="round" stroke-width="2"/><line x1="43.39563725664266" y1="14.095368622612114" x2="44.575311359796615" y2="14.767498184838587" stroke="#030303" stroke-linecap="round" stroke-width="2"/><line x1="44.575311359796615" y1="14.767498184838587" x2="45.71712157180082" y2="15.45357865099777" stroke="#030303" stroke-linecap="round" stroke-width="2"/><line x1="45.71712157180082" y1="15.45357865099777" x2="46.81659132911955" y2="16.15458833673165" stroke="#030303" stroke-linecap="round" stroke-width="2"/><line x1="46.81659132911955" y1="16.15458833673165" x2="47.869244068217085" y2="16.87150555768494" stroke="#030303" stroke-linecap="round" stroke-width="2"/><line x1="47.869244068217085" y1="16.87150555768494" x2="48.87060322555044" y2="17.605308629498722" stroke="#030303" stroke-linecap="round" stroke-width="2"/><line x1="48.87060322555044" y1="17.605308629498722" x2="49.81619223758389" y2="18.35697586781771" stroke="#030303" stroke-linecap="round" stroke-width="2"/><line x1="49.81619223758389" y1="18.35697586781771" x2="50.70153454078172" y2="19.12748558828389" stroke="#030303" stroke-linecap="round" stroke-width="2"/><line x1="50.70153454078172" y1="19.12748558828389" x2="51.5221535715973" y2="19.917816106541068" stroke="#030303" stroke-linecap="round" stroke-width="2"/><line x1="51.5221535715973" y1="19.917816106541068" x2="52.273572766498546" y2="20.728945738230323" stroke="#030303" stroke-linecap="round" stroke-width="2"/><line x1="52.273572766498546" y1="20.728945738230323" x2="52.789031837601215" y2="21.351530898191413" stroke="#030303" stroke-linecap="round" stroke-width="2"/><line x1="52.789031837601215" y1="21.351530898191413" x2="53.108714726102335" y2="21.77359693384551" stroke="#030303" stroke-linecap="round" stroke-width="2"/><line x1="53.108714726102335" y1="21.77359693384551" x2="53.408579588631255" y2="22.20141305040579" stroke="#030303" stroke-linecap="round" stroke-width="2"/><line x1="53.408579588631255" y1="22.20141305040579" x2="53.68806685475283" y2="22.63510153732932" stroke="#030303" stroke-linecap="round" stroke-width="2"/><line x1="53.68806685475283" y1="22.63510153732932" x2="53.94661695401737" y2="23.074784684071346" stroke="#030303" stroke-linecap="round" stroke-width="2"/><line x1="53.94661695401737" y1="23.074784684071346" x2="54.18367031598973" y2="23.52058478008712" stroke="#030303" stroke-linecap="round" stroke-width="2"/><line x1="54.18367031598973" y1="23.52058478008712" x2="54.39866737022021" y2="23.972624114831888" stroke="#030303" stroke-linecap="round" stroke-width="2"/><line x1="54.39866737022021" y1="23.972624114831888" x2="54.59104854626639" y2="24.43102497775999" stroke="#030303" stroke-linecap="round" stroke-width="2"/><line x1="54.59104854626639" y1="24.43102497775999" x2="54.760254273693135" y2="24.8959096583294" stroke="#030303" stroke-linecap="round" stroke-width="2"/><line x1="54.760254273693135" y1="24.8959096583294" x2="54.90572498205438" y2="25.367400445992644" stroke="#030303" stroke-linecap="round" stroke-width="2"/><line x1="54.90572498205438" y1="25.367400445992644" x2="55.02690110090771" y2="25.845619630206784" stroke="#030303" stroke-linecap="round" stroke-width="2"/><line x1="55.02690110090771" y1="25.845619630206784" x2="55.1232230598107" y2="26.33068950042707" stroke="#030303" stroke-linecap="round" stroke-width="2"/><line x1="55.1232230598107" y1="26.33068950042707" x2="55.19413128832093" y2="26.82273234610875" stroke="#030303" stroke-linecap="round" stroke-width="2"/><line x1="55.19413128832093" y1="26.82273234610875" x2="55.23906621599599" y2="27.321870456707074" stroke="#030303" stroke-linecap="round" stroke-width="2"/><line x1="55.23906621599599" y1="27.321870456707074" x2="55.25746827239345" y2="27.82822612167638" stroke="#030303" stroke-linecap="round" stroke-width="2"/><line x1="55.25746827239345" y1="27.82822612167638" x2="55.2487778870709" y2="28.341921630473735" stroke="#030303" stroke-linecap="round" stroke-width="2"/><line x1="55.2487778870709" y1="28.341921630473735" x2="55.212435489585914" y2="28.863079272554387" stroke="#030303" stroke-linecap="round" stroke-width="2"/><line x1="55.212435489585914" y1="28.863079272554387" x2="55.14788150949971" y2="29.391821337372676" stroke="#030303" stroke-linecap="round" stroke-width="2"/><line x1="55.14788150949971" y1="29.391821337372676" x2="55.0545563763626" y2="29.92827011438385" stroke="#030303" stroke-linecap="round" stroke-width="2"/><line x1="55.0545563763626" y1="29.92827011438385" x2="54.93190051974307" y2="30.472547893044975" stroke="#030303" stroke-linecap="round" stroke-width="2"/><line x1="54.93190051974307" y1="30.472547893044975" x2="54.779354369187786" y2="31.024776962809483" stroke="#030303" stroke-linecap="round" stroke-width="2"/><line x1="54.779354369187786" y1="31.024776962809483" x2="54.59635835425797" y2="31.58507961313353" stroke="#030303" stroke-linecap="round" stroke-width="2"/><line x1="54.59635835425797" y1="31.58507961313353" x2="54.382352904514846" y2="32.153578133473275" stroke="#030303" stroke-linecap="round" stroke-width="2"/><line x1="54.382352904514846" y1="32.153578133473275" x2="54.13677844951235" y2="32.730394813283056" stroke="#030303" stroke-linecap="round" stroke-width="2"/><line x1="54.13677844951235" y1="32.730394813283056" x2="53.8590754188117" y2="33.31565194201903" stroke="#030303" stroke-linecap="round" stroke-width="2"/><line x1="53.8590754188117" y1="33.31565194201903" x2="53.54868424196684" y2="33.90947180913554" stroke="#030303" stroke-linecap="round" stroke-width="2"/><line x1="53.54868424196684" y1="33.90947180913554" x2="53.20504534853899" y2="34.51197670408874" stroke="#030303" stroke-linecap="round" stroke-width="2"/><line x1="53.20504534853899" y1="34.51197670408874" x2="52.82759916807845" y2="35.12328891633297" stroke="#030303" stroke-linecap="round" stroke-width="2"/><line x1="52.82759916807845" y1="35.12328891633297" x2="52.41578613015372" y2="35.743530735325294" stroke="#030303" stroke-linecap="round" stroke-width="2"/><line x1="52.41578613015372" y1="35.743530735325294" x2="51.9690466643151" y2="36.37282445051915" stroke="#030303" stroke-linecap="round" stroke-width="2"/><line x1="51.9690466643151" y1="36.37282445051915" x2="51.486821200120175" y2="37.011292351372504" stroke="#030303" stroke-linecap="round" stroke-width="2"/><line x1="51.486821200120175" y1="37.011292351372504" x2="50.9685501671338" y2="37.65905672733879" stroke="#030303" stroke-linecap="round" stroke-width="2"/><line x1="50.9685501671338" y1="37.65905672733879" x2="50.6957226965751" y2="37.98646330894371" stroke="#030303" stroke-linecap="round" stroke-width="2"/><line x1="50.6957226965751" y1="37.98646330894371" x2="50.36199670885617" y2="38.39092229965445" stroke="#030303" stroke-linecap="round" stroke-width="2"/><line x1="50.36199670885617" y1="38.39092229965445" x2="49.74142859393396" y2="39.166754033893994" stroke="#030303" stroke-linecap="round" stroke-width="2"/><line x1="49.74142859393396" y1="39.166754033893994" x2="49.18130201241729" y2="39.89951039240168" stroke="#030303" stroke-linecap="round" stroke-width="2"/><line x1="49.18130201241729" y1="39.89951039240168" x2="48.67913262757065" y2="40.59043891979036" stroke="#030303" stroke-linecap="round" stroke-width="2"/><line x1="48.67913262757065" y1="40.59043891979036" x2="48.23243610265854" y2="41.24078716067379" stroke="#030303" stroke-linecap="round" stroke-width="2"/><line x1="48.23243610265854" y1="41.24078716067379" x2="47.83872810093817" y2="41.85180265966483" stroke="#030303" stroke-linecap="round" stroke-width="2"/><line x1="47.83872810093817" y1="41.85180265966483" x2="47.49552428567404" y2="42.42473296137905" stroke="#030303" stroke-linecap="round" stroke-width="2"/><line x1="47.49552428567404" y1="42.42473296137905" x2="47.200340320130636" y2="42.9608256104284" stroke="#030303" stroke-linecap="round" stroke-width="2"/><line x1="47.200340320130636" y1="42.9608256104284" x2="46.95069186756518" y2="43.46132815142664" stroke="#030303" stroke-linecap="round" stroke-width="2"/><line x1="46.95069186756518" y1="43.46132815142664" x2="46.74409459124581" y2="43.927488128986624" stroke="#030303" stroke-linecap="round" stroke-width="2"/><line x1="46.74409459124581" y1="43.927488128986624" x2="46.57806415442974" y2="44.36055308772302" stroke="#030303" stroke-linecap="round" stroke-width="2"/><line x1="46.57806415442974" y1="44.36055308772302" x2="46.45011622038146" y2="44.76177057224777" stroke="#030303" stroke-linecap="round" stroke-width="2"/><line x1="46.45011622038146" y1="44.76177057224777" x2="46.35776645236183" y2="45.132388127176455" stroke="#030303" stroke-linecap="round" stroke-width="2"/><line x1="46.35776645236183" y1="45.132388127176455" x2="46.29853051363534" y2="45.47365329712193" stroke="#030303" stroke-linecap="round" stroke-width="2"/><line x1="46.29853051363534" y1="45.47365329712193" x2="46.269924067459215" y2="45.78681362669613" stroke="#030303" stroke-linecap="round" stroke-width="2"/><line x1="46.269924067459215" y1="45.78681362669613" x2="46.26946277710158" y2="46.07311666051373" stroke="#030303" stroke-linecap="round" stroke-width="2"/><line x1="46.26946277710158" y1="46.07311666051373" x2="46.285841080232785" y2="46.18174501952217" stroke="#030303" stroke-linecap="round" stroke-width="2"/><line x1="42.14484777450707" y1="73.85848019667083" x2="42.78036874318059" y2="73.28166595549192" stroke="#030303" stroke-linecap="round" stroke-width="2"/><line x1="42.78036874318059" y1="73.28166595549192" x2="43.38896232035768" y2="72.68668022568818" stroke="#030303" stroke-linecap="round" stroke-width="2"/><line x1="43.38896232035768" y1="72.68668022568818" x2="43.9681595800721" y2="72.07321178804159" stroke="#030303" stroke-linecap="round" stroke-width="2"/><line x1="43.9681595800721" y1="72.07321178804159" x2="44.515491596357606" y2="71.44094942333231" stroke="#030303" stroke-linecap="round" stroke-width="2"/><line x1="44.515491596357606" y1="71.44094942333231" x2="45.0284894432516" y2="70.7895819123396" stroke="#030303" stroke-linecap="round" stroke-width="2"/><line x1="45.0284894432516" y1="70.7895819123396" x2="45.50468419479148" y2="70.11879803584543" stroke="#030303" stroke-linecap="round" stroke-width="2"/><line x1="45.50468419479148" y1="70.11879803584543" x2="45.941606925011" y2="69.42828657462906" stroke="#030303" stroke-linecap="round" stroke-width="2"/><line x1="45.941606925011" y1="69.42828657462906" x2="46.336788707940286" y2="68.71773630947246" stroke="#030303" stroke-linecap="round" stroke-width="2"/><line x1="46.336788707940286" y1="68.71773630947246" x2="46.68776061762401" y2="67.98683602115489" stroke="#030303" stroke-linecap="round" stroke-width="2"/><line x1="46.68776061762401" y1="67.98683602115489" x2="46.99205372809229" y2="67.2352744904565" stroke="#030303" stroke-linecap="round" stroke-width="2"/><line x1="46.99205372809229" y1="67.2352744904565" x2="47.24719911337888" y2="66.46274049815929" stroke="#030303" stroke-linecap="round" stroke-width="2"/><line x1="47.24719911337888" y1="66.46274049815929" x2="47.45072784752483" y2="65.6689228250425" stroke="#030303" stroke-linecap="round" stroke-width="2"/><line x1="47.45072784752483" y1="65.6689228250425" x2="47.60017100456389" y2="64.8535102518872" stroke="#030303" stroke-linecap="round" stroke-width="2"/><line x1="47.60017100456389" y1="64.8535102518872" x2="47.69305965852618" y2="64.01619155947446" stroke="#030303" stroke-linecap="round" stroke-width="2"/><line x1="47.69305965852618" y1="64.01619155947446" x2="47.72692488345638" y2="63.15665552858354" stroke="#030303" stroke-linecap="round" stroke-width="2"/><line x1="47.72692488345638" y1="63.15665552858354" x2="47.69929775338096" y2="62.274590939995505" stroke="#030303" stroke-linecap="round" stroke-width="2"/><line x1="47.69929775338096" y1="62.274590939995505" x2="47.60770934233733" y2="61.369686574490515" stroke="#030303" stroke-linecap="round" stroke-width="2"/><line x1="47.60770934233733" y1="61.369686574490515" x2="47.44969072436652" y2="60.44163121284964" stroke="#030303" stroke-linecap="round" stroke-width="2"/><line x1="47.44969072436652" y1="60.44163121284964" x2="47.22277297350229" y2="59.49011363585396" stroke="#030303" stroke-linecap="round" stroke-width="2"/><line x1="47.22277297350229" y1="59.49011363585396" x2="47.082705383869325" y2="59.005459260591124" stroke="#030303" stroke-linecap="round" stroke-width="2"/><line x1="47.082705383869325" y1="59.005459260591124" x2="46.286833961839875" y2="56.79235921182408" stroke="#030303" stroke-linecap="round" stroke-width="2"/><line x1="46.286833961839875" y1="56.79235921182408" x2="45.107338754693046" y2="53.48129478097508" stroke="#030303" stroke-linecap="round" stroke-width="2"/><line x1="45.107338754693046" y1="53.48129478097508" x2="44.38196889594474" y2="51.373302256113675" stroke="#030303" stroke-linecap="round" stroke-width="2"/><line x1="44.38196889594474" y1="51.373302256113675" x2="44.06699464710982" y2="50.37697325372301" stroke="#030303" stroke-linecap="round" stroke-width="2"/><line x1="44.06699464710982" y1="50.37697325372301" x2="43.93921463124934" y2="49.91135410842344" stroke="#030303" stroke-linecap="round" stroke-width="2"/><line x1="43.93921463124934" y1="49.91135410842344" x2="43.860477689435356" y2="49.55495437614627" stroke="#030303" stroke-linecap="round" stroke-width="2"/><line x1="43.860477689435356" y1="49.55495437614627" x2="43.8164530965405" y2="49.265207709453534" stroke="#030303" stroke-linecap="round" stroke-width="2"/><line x1="43.8164530965405" y1="49.265207709453534" x2="43.78415340022184" y2="48.86244832236298" stroke="#030303" stroke-linecap="round" stroke-width="2"/><line x1="43.78415340022184" y1="48.86244832236298" x2="43.72882692521307" y2="48.1614356263608" stroke="#030303" stroke-linecap="round" stroke-width="2"/><line x1="43.72882692521307" y1="48.1614356263608" x2="43.61543998660272" y2="47.326448199402876" stroke="#030303" stroke-linecap="round" stroke-width="2"/><line x1="43.61543998660272" y1="47.326448199402876" x2="43.478744259657105" y2="46.542726630003926" stroke="#030303" stroke-linecap="round" stroke-width="2"/><line x1="43.478744259657105" y1="46.542726630003926" x2="43.42138746747514" y2="46.083621563393535" stroke="#030303" stroke-linecap="round" stroke-width="2"/><line x1="49.873308124650066" y1="73.7942752764402" x2="50.75865042784426" y2="73.02376555597402" stroke="#030303" stroke-linecap="round" stroke-width="2"/><line x1="50.75865042784426" y1="73.02376555597402" x2="51.57926945865984" y2="72.23343503771775" stroke="#030303" stroke-linecap="round" stroke-width="2"/><line x1="51.57926945865984" y1="72.23343503771775" x2="52.33068865356108" y2="71.42230540602759" stroke="#030303" stroke-linecap="round" stroke-width="2"/><line x1="52.33068865356108" y1="71.42230540602759" x2="52.84614772466375" y2="70.7997202460665" stroke="#030303" stroke-linecap="round" stroke-width="2"/><line x1="52.84614772466375" y1="70.7997202460665" x2="53.16583061316487" y2="70.37765421041331" stroke="#030303" stroke-linecap="round" stroke-width="2"/><line x1="53.16583061316487" y1="70.37765421041331" x2="53.46569547569743" y2="69.94983809385212" stroke="#030303" stroke-linecap="round" stroke-width="2"/><line x1="53.46569547569743" y1="69.94983809385212" x2="53.74518274181537" y2="69.5161496069286" stroke="#030303" stroke-linecap="round" stroke-width="2"/><line x1="53.74518274181537" y1="69.5161496069286" x2="54.00373284107991" y2="69.07646646018657" stroke="#030303" stroke-linecap="round" stroke-width="2"/><line x1="54.00373284107991" y1="69.07646646018657" x2="54.24078620305227" y2="68.63066636417079" stroke="#030303" stroke-linecap="round" stroke-width="2"/><line x1="54.24078620305227" y1="68.63066636417079" x2="54.45578325727911" y2="68.17862702942602" stroke="#030303" stroke-linecap="round" stroke-width="2"/><line x1="54.45578325727911" y1="68.17862702942602" x2="54.64816443333257" y2="67.72022616649792" stroke="#030303" stroke-linecap="round" stroke-width="2"/><line x1="54.64816443333257" y1="67.72022616649792" x2="54.81737016075931" y2="67.25534148592942" stroke="#030303" stroke-linecap="round" stroke-width="2"/><line x1="54.81737016075931" y1="67.25534148592942" x2="54.96284086911692" y2="66.78385069826527" stroke="#030303" stroke-linecap="round" stroke-width="2"/><line x1="54.96284086911692" y1="66.78385069826527" x2="55.084016987970244" y2="66.30563151405113" stroke="#030303" stroke-linecap="round" stroke-width="2"/><line x1="55.084016987970244" y1="66.30563151405113" x2="55.180338946873235" y2="65.82056164383084" stroke="#030303" stroke-linecap="round" stroke-width="2"/><line x1="55.180338946873235" y1="65.82056164383084" x2="55.25124717538347" y2="65.32851879814916" stroke="#030303" stroke-linecap="round" stroke-width="2"/><line x1="55.25124717538347" y1="65.32851879814916" x2="55.29618210305853" y2="64.82938068755175" stroke="#030303" stroke-linecap="round" stroke-width="2"/><line x1="55.29618210305853" y1="64.82938068755175" x2="55.31458415945599" y2="64.32302502258153" stroke="#030303" stroke-linecap="round" stroke-width="2"/><line x1="55.31458415945599" y1="64.32302502258153" x2="55.30589377413344" y2="63.80932951378418" stroke="#030303" stroke-linecap="round" stroke-width="2"/><line x1="55.30589377413344" y1="63.80932951378418" x2="55.26955137664845" y2="63.288171871703526" stroke="#030303" stroke-linecap="round" stroke-width="2"/><line x1="55.26955137664845" y1="63.288171871703526" x2="55.20499739656225" y2="62.75942980688524" stroke="#030303" stroke-linecap="round" stroke-width="2"/><line x1="55.20499739656225" y1="62.75942980688524" x2="55.111672263425135" y2="62.22298102987406" stroke="#030303" stroke-linecap="round" stroke-width="2"/><line x1="55.111672263425135" y1="62.22298102987406" x2="54.989016406805604" y2="61.67870325121294" stroke="#030303" stroke-linecap="round" stroke-width="2"/><line x1="54.989016406805604" y1="61.67870325121294" x2="54.83647025625032" y2="61.12647418144843" stroke="#030303" stroke-linecap="round" stroke-width="2"/><line x1="54.83647025625032" y1="61.12647418144843" x2="54.65347424132051" y2="60.56617153112347" stroke="#030303" stroke-linecap="round" stroke-width="2"/><line x1="54.65347424132051" y1="60.56617153112347" x2="54.43946879157738" y2="59.99767301078464" stroke="#030303" stroke-linecap="round" stroke-width="2"/><line x1="54.43946879157738" y1="59.99767301078464" x2="54.193894336574886" y2="59.42085633097486" stroke="#030303" stroke-linecap="round" stroke-width="2"/><line x1="54.193894336574886" y1="59.42085633097486" x2="53.916191305874236" y2="58.83559920223888" stroke="#030303" stroke-linecap="round" stroke-width="2"/><line x1="53.916191305874236" y1="58.83559920223888" x2="53.605800129029376" y2="58.241779335122374" stroke="#030303" stroke-linecap="round" stroke-width="2"/><line x1="53.605800129029376" y1="58.241779335122374" x2="53.26216123559789" y2="57.639274440170084" stroke="#030303" stroke-linecap="round" stroke-width="2"/><line x1="53.26216123559789" y1="57.639274440170084" x2="52.884715055144625" y2="57.027962227924945" stroke="#030303" stroke-linecap="round" stroke-width="2"/><line x1="52.884715055144625" y1="57.027962227924945" x2="52.472902017216256" y2="56.40772040893262" stroke="#030303" stroke-linecap="round" stroke-width="2"/><line x1="52.472902017216256" y1="56.40772040893262" x2="52.02616255137764" y2="55.778426693737856" stroke="#030303" stroke-linecap="round" stroke-width="2"/><line x1="52.02616255137764" y1="55.778426693737856" x2="51.54393708718635" y2="55.13995879288541" stroke="#030303" stroke-linecap="round" stroke-width="2"/><line x1="51.54393708718635" y1="55.13995879288541" x2="51.025666054196336" y2="54.49219441692003" stroke="#030303" stroke-linecap="round" stroke-width="2"/><line x1="51.025666054196336" y1="54.49219441692003" x2="50.75283858363764" y2="54.1647878353142" stroke="#030303" stroke-linecap="round" stroke-width="2"/><line x1="50.75283858363764" y1="54.1647878353142" x2="50.419112595918705" y2="53.760328844603464" stroke="#030303" stroke-linecap="round" stroke-width="2"/><line x1="50.419112595918705" y1="53.760328844603464" x2="49.7985444809965" y2="52.98449711036392" stroke="#030303" stroke-linecap="round" stroke-width="2"/><line x1="49.7985444809965" y1="52.98449711036392" x2="49.23841789947983" y2="52.25174075185623" stroke="#030303" stroke-linecap="round" stroke-width="2"/><line x1="49.23841789947983" y1="52.25174075185623" x2="48.73624851463319" y2="51.560812224468464" stroke="#030303" stroke-linecap="round" stroke-width="2"/><line x1="48.73624851463319" y1="51.560812224468464" x2="48.289551989721076" y2="50.91046398358412" stroke="#030303" stroke-linecap="round" stroke-width="2"/><line x1="48.289551989721076" y1="50.91046398358412" x2="47.895843988000706" y2="50.299448484592176" stroke="#030303" stroke-linecap="round" stroke-width="2"/><line x1="47.895843988000706" y1="50.299448484592176" x2="47.552640172736574" y2="49.72651818287886" stroke="#030303" stroke-linecap="round" stroke-width="2"/><line x1="47.552640172736574" y1="49.72651818287886" x2="47.25745620719317" y2="49.19042553382951" stroke="#030303" stroke-linecap="round" stroke-width="2"/><line x1="47.25745620719317" y1="49.19042553382951" x2="47.00780775462772" y2="48.68992299283218" stroke="#030303" stroke-linecap="round" stroke-width="2"/><line x1="47.00780775462772" y1="48.68992299283218" x2="46.80121047830835" y2="48.2237630152722" stroke="#030303" stroke-linecap="round" stroke-width="2"/><line x1="46.80121047830835" y1="48.2237630152722" x2="46.635180041492276" y2="47.79069805653489" stroke="#030303" stroke-linecap="round" stroke-width="2"/><line x1="46.635180041492276" y1="47.79069805653489" x2="46.507232107444" y2="47.38948057201014" stroke="#030303" stroke-linecap="round" stroke-width="2"/><line x1="46.507232107444" y1="47.38948057201014" x2="46.414882339424366" y2="47.01886301708146" stroke="#030303" stroke-linecap="round" stroke-width="2"/><line x1="46.414882339424366" y1="47.01886301708146" x2="46.35564640069788" y2="46.677597847136894" stroke="#030303" stroke-linecap="round" stroke-width="2"/><line x1="46.35564640069788" y1="46.677597847136894" x2="46.32703995452175" y2="46.36443751756269" stroke="#030303" stroke-linecap="round" stroke-width="2"/><line x1="46.32703995452175" y1="46.36443751756269" x2="46.285841080232785" y2="46.18174501952217" stroke="#030303" stroke-linecap="round" stroke-width="2"/><line x1="28.120063444628613" y1="90.02576818183297" x2="27.934738923915575" y2="89.927129319507" stroke="#030303" stroke-linecap="round" stroke-width="2"/><line x1="27.934738923915575" y1="89.927129319507" x2="27.586658093263395" y2="89.7155331883796" stroke="#030303" stroke-linecap="round" stroke-width="2"/><line x1="27.586658093263395" y1="89.7155331883796" x2="27.268913878426247" y2="89.48575195161084" stroke="#030303" stroke-linecap="round" stroke-width="2"/><line x1="27.268913878426247" y1="89.48575195161084" x2="26.98180108114684" y2="89.2388729328004" stroke="#030303" stroke-linecap="round" stroke-width="2"/><line x1="26.98180108114684" y1="89.2388729328004" x2="26.725614503164252" y2="88.97598345554252" stroke="#030303" stroke-linecap="round" stroke-width="2"/><line x1="26.725614503164252" y1="88.97598345554252" x2="26.500648946217552" y2="88.69817084343231" stroke="#030303" stroke-linecap="round" stroke-width="2"/><line x1="26.500648946217552" y1="88.69817084343231" x2="26.307199212049454" y2="88.40652242006854" stroke="#030303" stroke-linecap="round" stroke-width="2"/><line x1="26.307199212049454" y1="88.40652242006854" x2="26.14556010240267" y2="88.10212550904453" stroke="#030303" stroke-linecap="round" stroke-width="2"/><line x1="26.14556010240267" y1="88.10212550904453" x2="26.016026419008995" y2="87.78606743395812" stroke="#030303" stroke-linecap="round" stroke-width="2"/><line x1="26.016026419008995" y1="87.78606743395812" x2="25.918892963622056" y2="87.45943551840446" stroke="#030303" stroke-linecap="round" stroke-width="2"/><line x1="25.918892963622056" y1="87.45943551840446" x2="25.854454537973652" y2="87.12331708598049" stroke="#030303" stroke-linecap="round" stroke-width="2"/><line x1="25.854454537973652" y1="87.12331708598049" x2="25.823005943806493" y2="86.77879946028133" stroke="#030303" stroke-linecap="round" stroke-width="2"/><line x1="25.823005943806493" y1="86.77879946028133" x2="25.82484198286329" y2="86.42696996490486" stroke="#030303" stroke-linecap="round" stroke-width="2"/><line x1="25.82484198286329" y1="86.42696996490486" x2="25.86025745687948" y2="86.06891592344527" stroke="#030303" stroke-linecap="round" stroke-width="2"/><line x1="25.86025745687948" y1="86.06891592344527" x2="25.92954716760505" y2="85.70572465949863" stroke="#030303" stroke-linecap="round" stroke-width="2"/><line x1="25.92954716760505" y1="85.70572465949863" x2="26.0330059167718" y2="85.33848349666187" stroke="#030303" stroke-linecap="round" stroke-width="2"/><line x1="26.0330059167718" y1="85.33848349666187" x2="26.170928506126074" y2="84.96827975853103" stroke="#030303" stroke-linecap="round" stroke-width="2"/><line x1="26.170928506126074" y1="84.96827975853103" x2="26.343609737403312" y2="84.59620076870215" stroke="#030303" stroke-linecap="round" stroke-width="2"/><line x1="26.343609737403312" y1="84.59620076870215" x2="26.551344412349863" y2="84.22333385077218" stroke="#030303" stroke-linecap="round" stroke-width="2"/><line x1="26.551344412349863" y1="84.22333385077218" x2="26.7944273327048" y2="83.85076632833534" stroke="#030303" stroke-linecap="round" stroke-width="2"/><line x1="26.7944273327048" y1="83.85076632833534" x2="27.073153300207196" y2="83.47958552498767" stroke="#030303" stroke-linecap="round" stroke-width="2"/><line x1="27.073153300207196" y1="83.47958552498767" x2="27.387817116599763" y2="83.11087876432794" stroke="#030303" stroke-linecap="round" stroke-width="2"/><line x1="27.387817116599763" y1="83.11087876432794" x2="27.738713583621575" y2="82.74573336994945" stroke="#030303" stroke-linecap="round" stroke-width="2"/><line x1="27.738713583621575" y1="82.74573336994945" x2="28.126137503011705" y2="82.38523666544916" stroke="#030303" stroke-linecap="round" stroke-width="2"/><line x1="28.126137503011705" y1="82.38523666544916" x2="28.550383676516503" y2="82.03047597442401" stroke="#030303" stroke-linecap="round" stroke-width="2"/><line x1="28.550383676516503" y1="82.03047597442401" x2="29.011746905871405" y2="81.68253862046913" stroke="#030303" stroke-linecap="round" stroke-width="2"/><line x1="29.011746905871405" y1="81.68253862046913" x2="29.510521992819122" y2="81.34251192718057" stroke="#030303" stroke-linecap="round" stroke-width="2"/><line x1="29.510521992819122" y1="81.34251192718057" x2="30.047003739102365" y2="81.01148321815526" stroke="#030303" stroke-linecap="round" stroke-width="2"/><line x1="30.047003739102365" y1="81.01148321815526" x2="30.62148694646021" y2="80.69053981698926" stroke="#030303" stroke-linecap="round" stroke-width="2"/><line x1="30.62148694646021" y1="80.69053981698926" x2="31.234266416631726" y2="80.38076904727677" stroke="#030303" stroke-linecap="round" stroke-width="2"/><line x1="31.234266416631726" y1="80.38076904727677" x2="31.88563695135963" y2="80.08325823261657" stroke="#030303" stroke-linecap="round" stroke-width="2"/><line x1="31.88563695135963" y1="80.08325823261657" x2="32.57589335238299" y2="79.79909469660197" stroke="#030303" stroke-linecap="round" stroke-width="2"/><line x1="32.57589335238299" y1="79.79909469660197" x2="32.93569587829916" y2="79.66235794671229" stroke="#030303" stroke-linecap="round" stroke-width="2"/><line x1="32.93569587829916" y1="79.66235794671229" x2="33.69949361244653" y2="79.28642819168726" stroke="#030303" stroke-linecap="round" stroke-width="2"/><line x1="33.69949361244653" y1="79.28642819168726" x2="35.236422703954304" y2="78.49141371727819" stroke="#030303" stroke-linecap="round" stroke-width="2"/><line x1="35.236422703954304" y1="78.49141371727819" x2="36.76933711997481" y2="77.63678449559211" stroke="#030303" stroke-linecap="round" stroke-width="2"/><line x1="36.76933711997481" y1="77.63678449559211" x2="37.904506595001294" y2="76.95519265893381" stroke="#030303" stroke-linecap="round" stroke-width="2"/><line x1="37.904506595001294" y1="76.95519265893381" x2="38.64974446741326" y2="76.48087174588909" stroke="#030303" stroke-linecap="round" stroke-width="2"/><line x1="38.64974446741326" y1="76.48087174588909" x2="39.382868504111684" y2="75.99024665953766" stroke="#030303" stroke-linecap="round" stroke-width="2"/><line x1="39.382868504111684" y1="75.99024665953766" x2="40.101409779133974" y2="75.48300618065878" stroke="#030303" stroke-linecap="round" stroke-width="2"/><line x1="40.101409779133974" y1="75.48300618065878" x2="40.80289936651752" y2="74.95883909003533" stroke="#030303" stroke-linecap="round" stroke-width="2"/><line x1="40.80289936651752" y1="74.95883909003533" x2="41.48486834029609" y2="74.41743416844565" stroke="#030303" stroke-linecap="round" stroke-width="2"/><line x1="41.48486834029609" y1="74.41743416844565" x2="42.14484777450707" y2="73.85848019667083" stroke="#030303" stroke-linecap="round" stroke-width="2"/><line x1="28.120063444628613" y1="90.02576818183297" x2="28.15258299672496" y2="90.06131990893027" stroke="#030303" stroke-linecap="round" stroke-width="2"/><line x1="28.15258299672496" y1="90.06131990893027" x2="28.242469952387182" y2="90.11500680017252" stroke="#030303" stroke-linecap="round" stroke-width="2"/><line x1="28.242469952387182" y1="90.11500680017252" x2="28.359104048831796" y2="90.1451232297195" stroke="#030303" stroke-linecap="round" stroke-width="2"/><line x1="28.359104048831796" y1="90.1451232297195" x2="28.494825292633323" y2="90.151251144257" stroke="#030303" stroke-linecap="round" stroke-width="2"/><line x1="28.494825292633323" y1="90.151251144257" x2="28.641973690384475" y2="90.13297249047446" stroke="#030303" stroke-linecap="round" stroke-width="2"/><line x1="28.641973690384475" y1="90.13297249047446" x2="28.792889248663414" y2="90.08986921505766" stroke="#030303" stroke-linecap="round" stroke-width="2"/><line x1="28.792889248663414" y1="90.08986921505766" x2="28.939911974055576" y2="90.02152326469513" stroke="#030303" stroke-linecap="round" stroke-width="2"/><line x1="28.939911974055576" y1="90.02152326469513" x2="29.075381873139122" y2="89.92751658607358" stroke="#030303" stroke-linecap="round" stroke-width="2"/><line x1="29.075381873139122" y1="89.92751658607358" x2="29.191638952503126" y2="89.80743112588152" stroke="#030303" stroke-linecap="round" stroke-width="2"/><line x1="29.191638952503126" y1="89.80743112588152" x2="29.281023218733026" y2="89.66084883080566" stroke="#030303" stroke-linecap="round" stroke-width="2"/><line x1="29.281023218733026" y1="89.66084883080566" x2="29.335874678403343" y2="89.48735164753361" stroke="#030303" stroke-linecap="round" stroke-width="2"/><line x1="29.335874678403343" y1="89.48735164753361" x2="29.34853333810679" y2="89.2865215227539" stroke="#030303" stroke-linecap="round" stroke-width="2"/><line x1="29.34853333810679" y1="89.2865215227539" x2="29.31133920442153" y2="89.05794040315232" stroke="#030303" stroke-linecap="round" stroke-width="2"/><line x1="29.31133920442153" y1="89.05794040315232" x2="29.216632283929357" y2="88.80119023541738" stroke="#030303" stroke-linecap="round" stroke-width="2"/><line x1="29.216632283929357" y1="88.80119023541738" x2="29.05675258321935" y2="88.51585296623762" stroke="#030303" stroke-linecap="round" stroke-width="2"/><line x1="29.05675258321935" y1="88.51585296623762" x2="28.824040108869667" y2="88.20151054229882" stroke="#030303" stroke-linecap="round" stroke-width="2"/><line x1="28.824040108869667" y1="88.20151054229882" x2="28.67797783363858" y2="88.03333175563421" stroke="#030303" stroke-linecap="round" stroke-width="2"/><line x1="28.67797783363858" y1="88.03333175563421" x2="28.60905298516809" y2="87.93694771892388" stroke="#030303" stroke-linecap="round" stroke-width="2"/><line x1="28.60905298516809" y1="87.93694771892388" x2="28.49684238593909" y2="87.74022654427063" stroke="#030303" stroke-linecap="round" stroke-width="2"/><line x1="28.49684238593909" y1="87.74022654427063" x2="28.41778856840756" y2="87.53871335520671" stroke="#030303" stroke-linecap="round" stroke-width="2"/><line x1="28.41778856840756" y1="87.53871335520671" x2="28.370657114268397" y2="87.33298269641182" stroke="#030303" stroke-linecap="round" stroke-width="2"/><line x1="28.370657114268397" y1="87.33298269641182" x2="28.3542136052165" y2="87.12360911256656" stroke="#030303" stroke-linecap="round" stroke-width="2"/><line x1="28.3542136052165" y1="87.12360911256656" x2="28.36722362293949" y2="86.9111671483497" stroke="#030303" stroke-linecap="round" stroke-width="2"/><line x1="28.36722362293949" y1="86.9111671483497" x2="28.408452749139542" y2="86.69623134844096" stroke="#030303" stroke-linecap="round" stroke-width="2"/><line x1="28.408452749139542" y1="86.69623134844096" x2="28.476666565507912" y2="86.47937625752093" stroke="#030303" stroke-linecap="round" stroke-width="2"/><line x1="28.476666565507912" y1="86.47937625752093" x2="28.57063065373586" y2="86.2611764202693" stroke="#030303" stroke-linecap="round" stroke-width="2"/><line x1="28.57063065373586" y1="86.2611764202693" x2="28.689110595521925" y2="86.04220638136576" stroke="#030303" stroke-linecap="round" stroke-width="2"/><line x1="28.689110595521925" y1="86.04220638136576" x2="28.91009744357143" y2="85.71356401139838" stroke="#030303" stroke-linecap="round" stroke-width="2"/><line x1="28.91009744357143" y1="85.71356401139838" x2="29.279030824232905" y2="85.27804089600431" stroke="#030303" stroke-linecap="round" stroke-width="2"/><line x1="29.279030824232905" y1="85.27804089600431" x2="29.723808089605882" y2="84.84977877823712" stroke="#030303" stroke-linecap="round" stroke-width="2"/><line x1="29.723808089605882" y1="84.84977877823712" x2="30.234553893253178" y2="84.43337401553526" stroke="#030303" stroke-linecap="round" stroke-width="2"/><line x1="30.234553893253178" y1="84.43337401553526" x2="30.80139288871942" y2="84.03342296533629" stroke="#030303" stroke-linecap="round" stroke-width="2"/><line x1="30.80139288871942" y1="84.03342296533629" x2="31.414449729563785" y2="83.65452198507683" stroke="#030303" stroke-linecap="round" stroke-width="2"/><line x1="31.414449729563785" y1="83.65452198507683" x2="32.0638490693309" y2="83.30126743219716" stroke="#030303" stroke-linecap="round" stroke-width="2"/><line x1="32.0638490693309" y1="83.30126743219716" x2="32.73971556158358" y2="82.97825566413485" stroke="#030303" stroke-linecap="round" stroke-width="2"/><line x1="32.73971556158358" y1="82.97825566413485" x2="33.432173859862814" y2="82.69008303832743" stroke="#030303" stroke-linecap="round" stroke-width="2"/><line x1="33.432173859862814" y1="82.69008303832743" x2="34.13134861773142" y2="82.44134591221246" stroke="#030303" stroke-linecap="round" stroke-width="2"/><line x1="34.13134861773142" y1="82.44134591221246" x2="34.82736448873402" y2="82.23664064322838" stroke="#030303" stroke-linecap="round" stroke-width="2"/><line x1="34.82736448873402" y1="82.23664064322838" x2="35.17110179589872" y2="82.15223631685967" stroke="#030303" stroke-linecap="round" stroke-width="2"/><line x1="35.17110179589872" y1="82.15223631685967" x2="36.48777495525064" y2="81.546941186396" stroke="#030303" stroke-linecap="round" stroke-width="2"/><line x1="36.48777495525064" y1="81.546941186396" x2="39.09034602597967" y2="80.3125970530673" stroke="#030303" stroke-linecap="round" stroke-width="2"/><line x1="39.09034602597967" y1="80.3125970530673" x2="40.997719518116355" y2="79.36220219687402" stroke="#030303" stroke-linecap="round" stroke-width="2"/><line x1="40.997719518116355" y1="79.36220219687402" x2="42.23969171294448" y2="78.71503949558337" stroke="#030303" stroke-linecap="round" stroke-width="2"/><line x1="42.23969171294448" y1="78.71503949558337" x2="43.452753143705195" y2="78.05588252164671" stroke="#030303" stroke-linecap="round" stroke-width="2"/><line x1="43.452753143705195" y1="78.05588252164671" x2="44.63242724685915" y2="77.38375295941933" stroke="#030303" stroke-linecap="round" stroke-width="2"/><line x1="44.63242724685915" y1="77.38375295941933" x2="45.774237458863354" y2="76.69767249326105" stroke="#030303" stroke-linecap="round" stroke-width="2"/><line x1="45.774237458863354" y1="76.69767249326105" x2="46.87370721618208" y2="75.99666280752626" stroke="#030303" stroke-linecap="round" stroke-width="2"/><line x1="46.87370721618208" y1="75.99666280752626" x2="47.92635995527962" y2="75.27974558657297" stroke="#030303" stroke-linecap="round" stroke-width="2"/><line x1="47.92635995527962" y1="75.27974558657297" x2="48.92771911261298" y2="74.54594251475919" stroke="#030303" stroke-linecap="round" stroke-width="2"/><line x1="48.92771911261298" y1="74.54594251475919" x2="49.873308124650066" y2="73.7942752764402" stroke="#030303" stroke-linecap="round" stroke-width="2"/></svg>