<svg xmlns="http://www.w3.org/2000/svg" width="76.40999605658726" height="92.151251144257"><line x1="73.35686994064235" y1="54.82609442998637" x2="41.685148976266646" y2="10.423979240845256" stroke="#792020" stroke-linecap="round" stroke-width="2"/><line x1="72.74502214580934" y1="56.65471473389516" x2="39.75695635382726" y2="10.407152158753888" stroke="#792020" stroke-linecap="round" stroke-width="2"/><line x1="72.13317435097633" y1="58.48333503780486" x2="37.82876373139152" y2="10.39032507666252" stroke="#792020" stroke-linecap="round" stroke-width="2"/><line x1="71.52132655613968" y1="60.311955341713656" x2="35.900571108952136" y2="10.373497994572062" stroke="#792020" stroke-linecap="round" stroke-width="2"/><line x1="70.80871654232033" y1="61.99931222456871" x2="34.07314070550274" y2="10.49793433353534" stroke="#792020" stroke-linecap="round" stroke-width="2"/><line x1="69.94202749078613" y1="63.47065826328344" x2="32.39978933976454" y2="10.838381516638037" stroke="#792020" stroke-linecap="round" stroke-width="2"/><line x1="69.0753384392483" y1="64.94200430199908" x2="30.726437974029977" y2="11.178828699740734" stroke="#792020" stroke-linecap="round" stroke-width="2"/><line x1="68.2086493877141" y1="66.4133503407138" x2="29.05308660829178" y2="11.51927588284343" stroke="#792020" stroke-linecap="round" stroke-width="2"/><line x1="67.34196033617991" y1="67.88469637942944" x2="27.379735242557217" y2="11.859723065946127" stroke="#792020" stroke-linecap="round" stroke-width="2"/><line x1="66.27232975220977" y1="69.07152888286873" x2="25.90932540925496" y2="12.48468378432517" stroke="#792020" stroke-linecap="round" stroke-width="2"/><line x1="65.19486381241586" y1="70.24737662257576" x2="24.446750931776478" y2="13.120629266435571" stroke="#792020" stroke-linecap="round" stroke-width="2"/><line x1="64.11739787262559" y1="71.4232243622846" x2="22.984176454297994" y2="13.756574748545063" stroke="#792020" stroke-linecap="round" stroke-width="2"/><line x1="63.03993193283168" y1="72.59907210199253" x2="21.52160197681951" y2="14.392520230654554" stroke="#792020" stroke-linecap="round" stroke-width="2"/><line x1="61.920718714747636" y1="73.71639231609879" x2="20.100774777634797" y2="15.086993238366631" stroke="#792020" stroke-linecap="round" stroke-width="2"/><line x1="60.65069850610962" y1="74.6222889270075" x2="18.83075456899678" y2="15.992889849275343" stroke="#792020" stroke-linecap="round" stroke-width="2"/><line x1="59.38067829747524" y1="75.52818553791622" x2="17.560734360362403" y2="16.898786460184056" stroke="#792020" stroke-linecap="round" stroke-width="2"/><line x1="58.110658088840864" y1="76.43408214882584" x2="16.290714151724387" y2="17.804683071093677" stroke="#792020" stroke-linecap="round" stroke-width="2"/><line x1="56.84063788020285" y1="77.33997875973455" x2="15.02069394309001" y2="18.71057968200239" stroke="#792020" stroke-linecap="round" stroke-width="2"/><line x1="55.50038147383384" y1="78.14740785302183" x2="13.820909932186623" y2="19.71494381053253" stroke="#792020" stroke-linecap="round" stroke-width="2"/><line x1="54.03780699635536" y1="78.78335333513223" x2="12.743443992392713" y2="20.890791550240465" stroke="#792020" stroke-linecap="round" stroke-width="2"/><line x1="52.575232518876874" y1="79.41929881724172" x2="11.66597805260244" y2="22.066639289949308" stroke="#792020" stroke-linecap="round" stroke-width="2"/><line x1="51.11265804139839" y1="80.05524429935213" x2="10.58851211280853" y2="23.24248702965724" stroke="#792020" stroke-linecap="round" stroke-width="2"/><line x1="49.65008356391991" y1="80.69118978146162" x2="9.511046173018258" y2="24.418334769365174" stroke="#792020" stroke-linecap="round" stroke-width="2"/><line x1="48.05709255516922" y1="81.14429802998256" x2="8.563996764496551" y2="25.77701974266165" stroke="#792020" stroke-linecap="round" stroke-width="2"/><line x1="46.38374118943102" y1="81.48474521308526" x2="7.697307712962356" y2="27.248365781377288" stroke="#792020" stroke-linecap="round" stroke-width="2"/><line x1="44.71038982369646" y1="81.82519239618887" x2="6.830618661428161" y2="28.719711820092016" stroke="#792020" stroke-linecap="round" stroke-width="2"/><line x1="43.03703845795826" y1="82.16563957929066" x2="5.963929609890329" y2="30.191057858807653" stroke="#792020" stroke-linecap="round" stroke-width="2"/><line x1="41.31624169196584" y1="82.43957076442439" x2="5.144685958610353" y2="31.728919895492254" stroke="#792020" stroke-linecap="round" stroke-width="2"/><line x1="39.3880490695301" y1="82.42274368233302" x2="4.532838163777342" y2="33.557540199401046" stroke="#792020" stroke-linecap="round" stroke-width="2"/><line x1="37.45985644709435" y1="82.40591660024256" x2="3.920990368944331" y2="35.38616050330984" stroke="#792020" stroke-linecap="round" stroke-width="2"/><line x1="35.53166382465497" y1="82.3890895181512" x2="3.309142574107682" y2="37.21478080721863" stroke="#792020" stroke-linecap="round" stroke-width="2"/><line x1="33.51273598995249" y1="82.24505635997411" x2="2.788029991541407" y2="39.170607187214046" stroke="#792020" stroke-linecap="round" stroke-width="2"/><line x1="31.23661566809824" y1="81.74045263308653" x2="2.5241098961232638" y2="41.48700413591996" stroke="#792020" stroke-linecap="round" stroke-width="2"/><line x1="12.866716349108174" y1="72.1051992712637" x2="5.653766711482604" y2="61.99301682865007" stroke="#792020" stroke-linecap="round" stroke-width="2"/><line x1="28.960495346247626" y1="81.23584890619895" x2="2.2601898007014825" y2="43.803401084625875" stroke="#792020" stroke-linecap="round" stroke-width="2"/><line x1="26.676418061531876" y1="80.72008992879728" x2="2.004226668144838" y2="46.130953283844974" stroke="#792020" stroke-linecap="round" stroke-width="2"/><line x1="23.83733889639916" y1="79.42624701171007" x2="2.3032654160087986" y2="49.23658942275051" stroke="#792020" stroke-linecap="round" stroke-width="2"/><line x1="20.998259731262806" y1="78.13240409462287" x2="2.602304163872759" y2="52.34222556165514" stroke="#792020" stroke-linecap="round" stroke-width="2"/><line x1="17.442271413252456" y1="75.83349161336446" x2="3.618252064610715" y2="56.45293126473189" stroke="#792020" stroke-linecap="round" stroke-width="2"/><line x1="72.15654686610651" y1="34.338508608324446" x2="60.66575497170197" y2="18.22901250978157" stroke="#792020" stroke-linecap="round" stroke-width="2"/><line x1="73.67458974324836" y1="39.15312550723138" x2="56.607671677287726" y2="15.22618883269206" stroke="#792020" stroke-linecap="round" stroke-width="2"/><line x1="73.98160337571244" y1="42.2699420220024" x2="53.76061762755489" y2="13.921165539739377" stroke="#792020" stroke-linecap="round" stroke-width="2"/><line x1="74.2806421235764" y1="45.375578160907025" x2="50.92153846241854" y2="12.627322622652173" stroke="#792020" stroke-linecap="round" stroke-width="2"/><line x1="74.26023876645195" y1="48.033372985540154" x2="48.401901402274234" y2="11.781321019837378" stroke="#792020" stroke-linecap="round" stroke-width="2"/><line x1="73.99631867103017" y1="50.34976993424607" x2="46.12578108041998" y2="11.276717292949797" stroke="#792020" stroke-linecap="round" stroke-width="2"/><line x1="73.73239857561202" y1="52.666166882951984" x2="43.84966075856573" y2="10.772113566061307" stroke="#792020" stroke-linecap="round" stroke-width="2"/><line x1="34.73477061165249" y1="10.363324207761252" x2="27.317530588745285" y2="11.872378745798414" stroke="#000000" stroke-linecap="round" stroke-width="2"/><line x1="42.30367622466292" y1="10.429377046366426" x2="34.73477061165249" y2="10.363324207761252" stroke="#000000" stroke-linecap="round" stroke-width="2"/><line x1="49.69344993285631" y1="12.06765043561154" x2="42.30367622466292" y2="10.429377046366426" stroke="#000000" stroke-linecap="round" stroke-width="2"/><line x1="39.1045754343977" y1="9.837931092559302" x2="3.150026981227711" y2="46.08628595265054" stroke="#000000" stroke-linecap="round" stroke-width="2"/><line x1="5.00157555876649" y1="60.84027286877517" x2="8.728824929046823" y2="67.42816382779347" stroke="#000000" stroke-linecap="round" stroke-width="2"/><line x1="2.7254750780994073" y1="53.6214044146418" x2="5.00157555876649" y2="60.84027286877517" stroke="#000000" stroke-linecap="round" stroke-width="2"/><line x1="2" y1="46.08705765681134" x2="2.7254750780994073" y2="53.6214044146418" stroke="#000000" stroke-linecap="round" stroke-width="2"/><line x1="2.856857066588418" y1="38.566519702408186" x2="2" y2="46.08705765681134" stroke="#000000" stroke-linecap="round" stroke-width="2"/><line x1="5.258597512405686" y1="31.38847414758584" x2="2.856857066588418" y2="38.566519702408186" stroke="#000000" stroke-linecap="round" stroke-width="2"/><line x1="9.100253755135782" y1="24.866636027173627" x2="5.258597512405686" y2="31.38847414758584" stroke="#000000" stroke-linecap="round" stroke-width="2"/><line x1="14.213926982662088" y1="19.28604096228446" x2="9.100253755135782" y2="24.866636027173627" stroke="#000000" stroke-linecap="round" stroke-width="2"/><line x1="20.376125136812334" y1="14.890587735921144" x2="14.213926982662088" y2="19.28604096228446" stroke="#000000" stroke-linecap="round" stroke-width="2"/><line x1="27.317530588745285" y1="11.872378745798414" x2="20.376125136812334" y2="14.890587735921144" stroke="#000000" stroke-linecap="round" stroke-width="2"/><line x1="13.744324506136763" y1="73.09715484457774" x2="19.828872891481296" y2="77.59948380885908" stroke="#000000" stroke-linecap="round" stroke-width="2"/><line x1="8.728824929046823" y1="67.42816382779347" x2="13.744324506136763" y2="73.09715484457774" stroke="#000000" stroke-linecap="round" stroke-width="2"/><line x1="41.67522544493477" y1="82.4427035681756" x2="49.092465467841976" y2="80.93364903013844" stroke="#000000" stroke-linecap="round" stroke-width="2"/><line x1="34.10631983192434" y1="82.37665072957043" x2="41.67522544493477" y2="82.4427035681756" stroke="#000000" stroke-linecap="round" stroke-width="2"/><line x1="26.71654612373095" y1="80.73837734032531" x2="34.10631983192434" y2="82.37665072957043" stroke="#000000" stroke-linecap="round" stroke-width="2"/><line x1="19.828872891481296" y1="77.59948380885908" x2="26.71654612373095" y2="80.73837734032531" stroke="#000000" stroke-linecap="round" stroke-width="2"/><line x1="39.304049036538345" y1="82.6892141047856" x2="3.199305800095317" y2="46.10070590230134" stroke="#000000" stroke-linecap="round" stroke-width="2"/><line x1="56.5811231651096" y1="15.206543967078687" x2="49.69344993285631" y2="12.06765043561154" stroke="#000000" stroke-linecap="round" stroke-width="2"/><line x1="62.6656715504505" y1="19.70887293135911" x2="56.5811231651096" y2="15.206543967078687" stroke="#000000" stroke-linecap="round" stroke-width="2"/><line x1="67.68117112754044" y1="25.377863948144295" x2="62.6656715504505" y2="19.70887293135911" stroke="#000000" stroke-linecap="round" stroke-width="2"/><line x1="71.40842049782077" y1="31.96575490716168" x2="67.68117112754044" y2="25.377863948144295" stroke="#000000" stroke-linecap="round" stroke-width="2"/><line x1="73.68452097848785" y1="39.18462336129596" x2="71.40842049782077" y2="31.96575490716168" stroke="#000000" stroke-linecap="round" stroke-width="2"/><line x1="74.40999605658726" y1="46.718970119126425" x2="73.68452097848785" y2="39.18462336129596" stroke="#000000" stroke-linecap="round" stroke-width="2"/><line x1="73.55313898999884" y1="54.23950807352867" x2="74.40999605658726" y2="46.718970119126425" stroke="#000000" stroke-linecap="round" stroke-width="2"/><line x1="71.15139854418157" y1="61.417553628351016" x2="73.55313898999884" y2="54.23950807352867" stroke="#000000" stroke-linecap="round" stroke-width="2"/><line x1="67.30974230145148" y1="67.93939174876323" x2="71.15139854418157" y2="61.417553628351016" stroke="#000000" stroke-linecap="round" stroke-width="2"/><line x1="62.19606907392517" y1="73.5199868136524" x2="67.30974230145148" y2="67.93939174876323" stroke="#000000" stroke-linecap="round" stroke-width="2"/><line x1="56.03387091977493" y1="77.91544004001662" x2="62.19606907392517" y2="73.5199868136524" stroke="#000000" stroke-linecap="round" stroke-width="2"/><line x1="49.092465467841976" y1="80.93364903013844" x2="56.03387091977493" y2="77.91544004001662" stroke="#000000" stroke-linecap="round" stroke-width="2"/><line x1="39.98446241347119" y1="9.745720701184837" x2="37.93581000077029" y2="6.873615945223719" stroke="#f7bc26" stroke-linecap="round" stroke-width="1"/><line x1="41.527763698231865" y1="10.893339322491556" x2="37.703976143937325" y2="5.532586882308351" stroke="#f7bc26" stroke-linecap="round" stroke-width="1"/><line x1="42.74490154741943" y1="11.583693671576839" x2="37.807838537552016" y2="4.662186605174611" stroke="#f7bc26" stroke-linecap="round" stroke-width="1"/><line x1="43.83555281073859" y1="12.096720367330818" x2="38.0553816843385" y2="3.9932193148952138" stroke="#f7bc26" stroke-linecap="round" stroke-width="1"/><line x1="44.85307559838475" y1="12.507224721338389" x2="38.38824480420226" y2="3.4438662153588666" stroke="#f7bc26" stroke-linecap="round" stroke-width="1"/><line x1="45.980927674852865" y1="13.07240503364028" x2="42.20909213813866" y2="7.784486635899157" stroke="#f7bc26" stroke-linecap="round" stroke-width="1"/><line x1="40.23517193905718" y1="5.017152579363028" x2="38.787981851299264" y2="2.9882669040480323" stroke="#f7bc26" stroke-linecap="round" stroke-width="1"/><line x1="40.44387792251291" y1="4.293737594194681" x2="39.23706522014254" y2="2.601848584351501" stroke="#f7bc26" stroke-linecap="round" stroke-width="1"/><line x1="40.815733377261495" y1="3.7990497320424765" x2="39.72940700916297" y2="2.2760763330425107" stroke="#f7bc26" stroke-linecap="round" stroke-width="1"/><line x1="41.13883564681237" y1="3.2360124250581066" x2="40.26087086782718" y2="2.0051512005520635" stroke="#f7bc26" stroke-linecap="round" stroke-width="1"/><line x1="40.05418337473748" y1="90.10825451916298" x2="37.64626630768544" y2="86.73247929376885" stroke="#f7bc26" stroke-linecap="round" stroke-width="1"/><line x1="40.72846107112491" y1="90.03754700289574" x2="37.7285168741364" y2="85.83178035240235" stroke="#f7bc26" stroke-linecap="round" stroke-width="1"/><line x1="41.1287444512418" y1="89.5827136222315" x2="37.94020135426399" y2="85.11254106555862" stroke="#f7bc26" stroke-linecap="round" stroke-width="1"/><line x1="40.1868628215052" y1="87.2462342951003" x2="38.223631277160166" y2="84.49388517984517" stroke="#f7bc26" stroke-linecap="round" stroke-width="1"/><line x1="40.324115415209235" y1="86.42264535203049" x2="38.556376257998636" y2="83.94436645549922" stroke="#f7bc26" stroke-linecap="round" stroke-width="1"/><line x1="40.64088370587342" y1="85.850728134149" x2="38.925255818227015" y2="83.44550654310297" stroke="#f7bc26" stroke-linecap="round" stroke-width="1"/><line x1="41.023361194304016" y1="85.37093181400087" x2="39.325884890789894" y2="82.99115780537795" stroke="#f7bc26" stroke-linecap="round" stroke-width="1"/><line x1="41.445755625256425" y1="84.94709698334736" x2="39.75034964848601" y2="82.57022546576991" stroke="#f7bc26" stroke-linecap="round" stroke-width="1"/><line x1="41.89726092927958" y1="84.56407409154508" x2="40.195923188821325" y2="82.17888654798026" stroke="#f7bc26" stroke-linecap="round" stroke-width="1"/><line x1="42.37100172458304" y1="84.21222420881986" x2="40.66039418488435" y2="81.81404088602176" stroke="#f7bc26" stroke-linecap="round" stroke-width="1"/><line x1="42.86299629923451" y1="83.88596518092072" x2="41.14193872426404" y2="81.47313144899545" stroke="#f7bc26" stroke-linecap="round" stroke-width="1"/><line x1="43.37086356098371" y1="83.58195883962617" x2="41.63902810169384" y2="81.15401507115985" stroke="#f7bc26" stroke-linecap="round" stroke-width="1"/><line x1="43.89320188925922" y1="83.2982401853642" x2="42.15036130405133" y2="80.85486779939038" stroke="#f7bc26" stroke-linecap="round" stroke-width="1"/><line x1="44.43366989065544" y1="83.03993839541818" x2="42.674814783873444" y2="80.57411447823688" stroke="#f7bc26" stroke-linecap="round" stroke-width="1"/><line x1="44.98811384845976" y1="82.80123017372262" x2="43.21140454950364" y2="80.3103756022665" stroke="#f7bc26" stroke-linecap="round" stroke-width="1"/><line x1="59.858180285915296" y1="75.20001493816926" x2="56.778432579667424" y2="70.88236789397888" stroke="#f7bc26" stroke-linecap="round" stroke-width="1"/><line x1="60.33411771594183" y1="74.85124462375279" x2="57.143538696545875" y2="70.37821780911781" stroke="#f7bc26" stroke-linecap="round" stroke-width="1"/><line x1="60.8083780523084" y1="74.50012311073351" x2="57.49482016240654" y2="69.85468627833507" stroke="#f7bc26" stroke-linecap="round" stroke-width="1"/><line x1="61.27085919908859" y1="74.13248778296474" x2="57.83067501094774" y2="69.3095274277166" stroke="#f7bc26" stroke-linecap="round" stroke-width="1"/><line x1="61.732112509271246" y1="73.76313109177227" x2="58.14817989149742" y2="68.73864287076776" stroke="#f7bc26" stroke-linecap="round" stroke-width="1"/><line x1="62.17925195560747" y1="73.37398749323074" x2="58.440713022562704" y2="68.13274921221546" stroke="#f7bc26" stroke-linecap="round" stroke-width="1"/><line x1="62.624636673634086" y1="72.98238385633067" x2="58.710135061519395" y2="67.494454997498" stroke="#f7bc26" stroke-linecap="round" stroke-width="1"/><line x1="63.05423212863025" y1="72.56864448905162" x2="58.95271229032733" y2="66.81852574698132" stroke="#f7bc26" stroke-linecap="round" stroke-width="1"/><line x1="63.480003556542215" y1="72.14954403352294" x2="59.16366691383155" y2="66.09826323888865" stroke="#f7bc26" stroke-linecap="round" stroke-width="1"/><line x1="63.88945190545928" y1="71.70755946524332" x2="59.33678608606351" y2="65.32495738441776" stroke="#f7bc26" stroke-linecap="round" stroke-width="1"/><line x1="64.29175886962184" y1="71.25556304477777" x2="59.46384082705117" y2="64.48707157912577" stroke="#f7bc26" stroke-linecap="round" stroke-width="1"/><line x1="64.68057670977942" y1="70.78465556992614" x2="59.53369750483034" y2="63.56899704667012" stroke="#f7bc26" stroke-linecap="round" stroke-width="1"/><line x1="65.05136203804432" y1="70.28846744577731" x2="59.53091379995385" y2="62.549084453644355" stroke="#f7bc26" stroke-linecap="round" stroke-width="1"/><line x1="65.40539080700546" y1="69.76878749189746" x2="59.43343287716198" y2="61.39641125746766" stroke="#f7bc26" stroke-linecap="round" stroke-width="1"/><line x1="65.74068052161601" y1="69.22283635272288" x2="59.170048164291074" y2="60.01114952574062" stroke="#f7bc26" stroke-linecap="round" stroke-width="1"/><line x1="66.05492037682052" y1="68.64737439905912" x2="58.62947310911841" y2="58.237281266382524" stroke="#f7bc26" stroke-linecap="round" stroke-width="1"/><line x1="66.3404688517694" y1="68.03168861377799" x2="57.896672546867194" y2="56.19392278521718" stroke="#f7bc26" stroke-linecap="round" stroke-width="1"/><line x1="66.59681397632085" y1="67.37506124121501" x2="57.1736569646564" y2="54.16428234013347" stroke="#f7bc26" stroke-linecap="round" stroke-width="1"/><line x1="66.81573134336577" y1="66.6659620878545" x2="56.48218530029044" y2="52.17886483686925" stroke="#f7bc26" stroke-linecap="round" stroke-width="1"/><line x1="66.98899992664519" y1="65.89286569994329" x2="55.87024805096007" y2="50.30495047112254" stroke="#f7bc26" stroke-linecap="round" stroke-width="1"/><line x1="67.1008146189888" y1="65.03361413444782" x2="55.612383081635926" y2="48.9274271344475" stroke="#f7bc26" stroke-linecap="round" stroke-width="1"/><line x1="67.1332040667694" y1="64.06301248279851" x2="55.49567598093563" y2="47.747799830940494" stroke="#f7bc26" stroke-linecap="round" stroke-width="1"/><line x1="67.04865378985778" y1="62.92846738356002" x2="55.30172088827749" y2="46.45987483686258" stroke="#f7bc26" stroke-linecap="round" stroke-width="1"/><line x1="66.76786582481145" y1="61.518807192131135" x2="55.37072517168781" y2="45.54060529157323" stroke="#f7bc26" stroke-linecap="round" stroke-width="1"/><line x1="66.04769116959142" y1="59.49314957979186" x2="55.50985415025207" y2="44.71964694306098" stroke="#f7bc26" stroke-linecap="round" stroke-width="1"/><line x1="58.496631662233995" y1="47.890944599241266" x2="55.61942413123688" y2="43.85724840830335" stroke="#f7bc26" stroke-linecap="round" stroke-width="1"/><line x1="58.15263784453782" y1="46.392673070485216" x2="55.69201892575438" y2="42.943012573940905" stroke="#f7bc26" stroke-linecap="round" stroke-width="1"/><line x1="58.23419603266666" y1="45.49100345051011" x2="55.845981691003544" y2="42.14285042737083" stroke="#f7bc26" stroke-linecap="round" stroke-width="1"/><line x1="58.40324235958906" y1="44.711987677500474" x2="56.05788856397339" y2="41.423922923795544" stroke="#f7bc26" stroke-linecap="round" stroke-width="1"/><line x1="58.64185287516739" y1="44.03049730013481" x2="56.281540856587526" y2="40.72146189125215" stroke="#f7bc26" stroke-linecap="round" stroke-width="1"/><line x1="58.91783452036543" y1="43.401399314203445" x2="56.51738119098809" y2="40.0360878631127" stroke="#f7bc26" stroke-linecap="round" stroke-width="1"/><line x1="59.22066807124793" y1="42.809946311647764" x2="56.75322152539229" y2="39.35071383497325" stroke="#f7bc26" stroke-linecap="round" stroke-width="1"/><line x1="59.54133893587641" y1="42.243500300677624" x2="56.9890991879729" y2="38.665392139007054" stroke="#f7bc26" stroke-linecap="round" stroke-width="1"/><line x1="59.87596831204792" y1="41.69662340115701" x2="57.23048126387948" y2="37.98778734591997" stroke="#f7bc26" stroke-linecap="round" stroke-width="1"/><line x1="60.221612185523554" y1="41.16518825734602" x2="57.47186333978971" y2="37.310182552831975" stroke="#f7bc26" stroke-linecap="round" stroke-width="1"/><line x1="60.57712713006913" y1="40.64759184479317" x2="57.71324541569629" y2="36.63257775974489" stroke="#f7bc26" stroke-linecap="round" stroke-width="1"/><line x1="60.94175228589302" y1="40.14276747739859" x2="57.954627491606516" y2="35.954972966657806" stroke="#f7bc26" stroke-linecap="round" stroke-width="1"/><line x1="61.312227684153186" y1="39.646144847405594" x2="58.19619329863417" y2="35.27762575509769" stroke="#f7bc26" stroke-linecap="round" stroke-width="1"/><line x1="61.68730348641111" y1="39.155971745960414" x2="58.43910250095723" y2="34.602161914286626" stroke="#f7bc26" stroke-linecap="round" stroke-width="1"/><line x1="62.07039350530977" y1="38.67703416185941" x2="58.68201170328393" y2="33.92669807347647" stroke="#f7bc26" stroke-linecap="round" stroke-width="1"/><line x1="62.455740313809656" y1="38.20126048009115" x2="58.924920905610634" y2="33.25123423266632" stroke="#f7bc26" stroke-linecap="round" stroke-width="1"/><line x1="62.8454027707412" y1="37.73153711428495" x2="59.13443202913186" y2="32.52894801223374" stroke="#f7bc26" stroke-linecap="round" stroke-width="1"/><line x1="63.229676236460364" y1="37.25425866143814" x2="59.316018839093886" y2="31.767513348037028" stroke="#f7bc26" stroke-linecap="round" stroke-width="1"/><line x1="63.60768143448513" y1="36.76819242138481" x2="59.45886408949809" y2="30.951765020487983" stroke="#f7bc26" stroke-linecap="round" stroke-width="1"/><line x1="47.12999643723742" y1="13.667330042575486" x2="43.53520686611955" y2="8.627620934345941" stroke="#f7bc26" stroke-linecap="round" stroke-width="1"/><line x1="63.978167632758414" y1="36.27158493245861" x2="59.55921211988971" y2="30.076437787825853" stroke="#f7bc26" stroke-linecap="round" stroke-width="1"/><line x1="48.333188027347205" y1="14.33813245753663" x2="44.6612086276873" y2="9.190207200830628" stroke="#f7bc26" stroke-linecap="round" stroke-width="1"/><line x1="64.33966173349108" y1="35.762370987718896" x2="59.603071594476205" y2="29.12191652069305" stroke="#f7bc26" stroke-linecap="round" stroke-width="1"/><line x1="49.58386399695155" y1="15.075505517342208" x2="45.669951494921406" y2="9.588402560390023" stroke="#f7bc26" stroke-linecap="round" stroke-width="1"/><line x1="64.68948577154151" y1="35.23679621850442" x2="59.56386193364597" y2="28.05093662084164" stroke="#f7bc26" stroke-linecap="round" stroke-width="1"/><line x1="50.91832008085112" y1="15.930333965492537" x2="46.606067190874455" y2="9.884778381039723" stroke="#f7bc26" stroke-linecap="round" stroke-width="1"/><line x1="65.02857075177963" y1="34.69616584551113" x2="59.38659083851962" y2="26.786401728644705" stroke="#f7bc26" stroke-linecap="round" stroke-width="1"/><line x1="52.38375025539062" y1="16.968781316637433" x2="47.58840967912329" y2="10.245961774304305" stroke="#f7bc26" stroke-linecap="round" stroke-width="1"/><line x1="65.35539547545704" y1="34.138347226738006" x2="58.95414390137739" y2="25.164123499944253" stroke="#f7bc26" stroke-linecap="round" stroke-width="1"/><line x1="54.104033980474924" y1="18.364520168310264" x2="48.67140089900931" y2="10.7482494852311" stroke="#f7bc26" stroke-linecap="round" stroke-width="1"/><line x1="65.66817007498321" y1="33.56083106037113" x2="49.766629237576126" y2="11.267693003823297" stroke="#f7bc26" stroke-linecap="round" stroke-width="1"/><line x1="65.96477519776818" y1="32.960646123668994" x2="50.86185757614294" y2="11.787136522416404" stroke="#f7bc26" stroke-linecap="round" stroke-width="1"/><line x1="66.24268396993648" y1="32.33424987010858" x2="51.98328337998464" y2="12.343307532769359" stroke="#f7bc26" stroke-linecap="round" stroke-width="1"/><line x1="66.49886077630799" y1="31.677386524158464" x2="53.113540570644545" y2="12.911859690808342" stroke="#f7bc26" stroke-linecap="round" stroke-width="1"/><line x1="66.72818070311041" y1="30.982871221704045" x2="54.27077744357666" y2="13.518235968396766" stroke="#f7bc26" stroke-linecap="round" stroke-width="1"/><line x1="66.92190539383591" y1="30.238453238738657" x2="55.45800220463934" y2="14.166653714602944" stroke="#f7bc26" stroke-linecap="round" stroke-width="1"/><line x1="67.07681638703798" y1="29.439620458730133" x2="56.6853496403528" y2="14.871321376109336" stroke="#f7bc26" stroke-linecap="round" stroke-width="1"/><line x1="67.17111304705395" y1="28.55580951768934" x2="57.96803075288699" y2="15.653563991458213" stroke="#f7bc26" stroke-linecap="round" stroke-width="1"/><line x1="67.18494118359013" y1="27.55918586739881" x2="59.330028942520585" y2="16.547005047773382" stroke="#f7bc26" stroke-linecap="round" stroke-width="1"/><line x1="67.06733417560099" y1="26.378296940403743" x2="60.81193870329662" y2="17.60855592673579" stroke="#f7bc26" stroke-linecap="round" stroke-width="1"/><line x1="66.65877978112258" y1="24.789514821142802" x2="62.58949647341433" y2="19.084590028157436" stroke="#f7bc26" stroke-linecap="round" stroke-width="1"/><line x1="45.55696779675054" y1="82.58272401360864" x2="43.75925716865822" y2="80.06242666459457" stroke="#f7bc26" stroke-linecap="round" stroke-width="1"/><line x1="46.141565053178056" y1="82.3862891574845" x2="44.319466212200496" y2="79.8318007950138" stroke="#f7bc26" stroke-linecap="round" stroke-width="1"/><line x1="46.743266341749404" y1="82.2138332700597" x2="44.88054529265719" y2="79.60239467219708" stroke="#f7bc26" stroke-linecap="round" stroke-width="1"/><line x1="47.317878433674196" y1="82.00339972959591" x2="45.41694365949297" y2="79.33838746501988" stroke="#f7bc26" stroke-linecap="round" stroke-width="1"/><line x1="47.863632160231646" y1="81.752508253021" x2="45.947709855601715" y2="79.0664842456963" stroke="#f7bc26" stroke-linecap="round" stroke-width="1"/><line x1="48.40862061793814" y1="81.50054390908554" x2="46.4770959698908" y2="78.7926462230198" stroke="#f7bc26" stroke-linecap="round" stroke-width="1"/><line x1="48.950138229069125" y1="81.24371361771864" x2="47.00648208418352" y2="78.5188082003433" stroke="#f7bc26" stroke-linecap="round" stroke-width="1"/><line x1="49.49165584020375" y1="80.98688332635174" x2="47.52608310116557" y2="78.23125197718764" stroke="#f7bc26" stroke-linecap="round" stroke-width="1"/><line x1="50.03317345133837" y1="80.73005303498576" x2="48.04459641391077" y2="77.94217084892989" stroke="#f7bc26" stroke-linecap="round" stroke-width="1"/><line x1="50.57469106247299" y1="80.47322274361886" x2="48.563109726655966" y2="77.65308972067214" stroke="#f7bc26" stroke-linecap="round" stroke-width="1"/><line x1="51.11364722635699" y1="80.21280143565218" x2="49.07113765548638" y2="77.349308626317" stroke="#f7bc26" stroke-linecap="round" stroke-width="1"/><line x1="51.6483267316471" y1="79.94638447346006" x2="49.578538818743255" y2="77.04464883903711" stroke="#f7bc26" stroke-linecap="round" stroke-width="1"/><line x1="52.18300623693722" y1="79.67996751126793" x2="50.07960353639646" y2="76.73110568264747" stroke="#f7bc26" stroke-linecap="round" stroke-width="1"/><line x1="52.71768574222733" y1="79.41355054907672" x2="50.576369423117285" y2="76.41153578756712" stroke="#f7bc26" stroke-linecap="round" stroke-width="1"/><line x1="53.24724717316349" y1="79.1399583112734" x2="51.06691740533279" y2="76.08324871186596" stroke="#f7bc26" stroke-linecap="round" stroke-width="1"/><line x1="53.77558664667595" y1="78.86465295234484" x2="51.55134315923715" y2="75.74637858862752" stroke="#f7bc26" stroke-linecap="round" stroke-width="1"/><line x1="54.301160191309464" y1="78.58546990414106" x2="52.031256407048204" y2="75.4031821651688" stroke="#f7bc26" stroke-linecap="round" stroke-width="1"/><line x1="54.82344139830457" y1="78.30167116879693" x2="52.50400205363621" y2="75.0499371354008" stroke="#f7bc26" stroke-linecap="round" stroke-width="1"/><line x1="55.344786867979565" y1="78.0165605781176" x2="52.96929201655075" y2="74.68623962261881" stroke="#f7bc26" stroke-linecap="round" stroke-width="1"/><line x1="55.86008148063411" y1="77.72296699875824" x2="53.42906398651394" y2="74.31480616903445" stroke="#f7bc26" stroke-linecap="round" stroke-width="1"/><line x1="56.37537609329229" y1="77.42937341939887" x2="53.880849943663634" y2="73.93217673840263" stroke="#f7bc26" stroke-linecap="round" stroke-width="1"/><line x1="56.8839098432436" y1="77.1263014601027" x2="54.32304939012465" y2="73.5361075154633" stroke="#f7bc26" stroke-linecap="round" stroke-width="1"/><line x1="57.391199774236156" y1="76.82148573094219" x2="54.758266685043054" y2="73.13024967707315" stroke="#f7bc26" stroke-linecap="round" stroke-width="1"/><line x1="57.89306656071494" y1="76.50906703357487" x2="55.185235405260755" y2="72.71282776345379" stroke="#f7bc26" stroke-linecap="round" stroke-width="1"/><line x1="58.391223690628976" y1="76.19144758951006" x2="55.59894590665135" y2="72.27681851256057" stroke="#f7bc26" stroke-linecap="round" stroke-width="1"/><line x1="58.88536043887143" y1="75.86819177822508" x2="56.003488761067274" y2="71.82795669462757" stroke="#f7bc26" stroke-linecap="round" stroke-width="1"/><line x1="59.37312187616408" y1="75.53599811062304" x2="56.39814319083598" y2="71.36523181662324" stroke="#f7bc26" stroke-linecap="round" stroke-width="1"/><line x1="40.000197971563466" y1="2.12548296242403" x2="39.81487345085043" y2="2.22412182475" stroke="#030303" stroke-linecap="round" stroke-width="2"/><line x1="39.81487345085043" y1="2.22412182475" x2="39.46679262019825" y2="2.4357179558783173" stroke="#030303" stroke-linecap="round" stroke-width="2"/><line x1="39.46679262019825" y1="2.4357179558783173" x2="39.14904840536474" y2="2.665499192646166" stroke="#030303" stroke-linecap="round" stroke-width="2"/><line x1="39.14904840536474" y1="2.665499192646166" x2="38.861935608081694" y2="2.9123782114565984" stroke="#030303" stroke-linecap="round" stroke-width="2"/><line x1="38.861935608081694" y1="2.9123782114565984" x2="38.605749030099105" y2="3.175267688715394" stroke="#030303" stroke-linecap="round" stroke-width="2"/><line x1="38.605749030099105" y1="3.175267688715394" x2="38.380783473152405" y2="3.453080300824695" stroke="#030303" stroke-linecap="round" stroke-width="2"/><line x1="38.380783473152405" y1="3.453080300824695" x2="38.18733373898431" y2="3.744728724189372" stroke="#030303" stroke-linecap="round" stroke-width="2"/><line x1="38.18733373898431" y1="3.744728724189372" x2="38.02569462933752" y2="4.049125635213386" stroke="#030303" stroke-linecap="round" stroke-width="2"/><line x1="38.02569462933752" y1="4.049125635213386" x2="37.896160945947486" y2="4.365183710299789" stroke="#030303" stroke-linecap="round" stroke-width="2"/><line x1="37.896160945947486" y1="4.365183710299789" x2="37.79902749055691" y2="4.691815625852541" stroke="#030303" stroke-linecap="round" stroke-width="2"/><line x1="37.79902749055691" y1="4.691815625852541" x2="37.734589064908505" y2="5.027934058277424" stroke="#030303" stroke-linecap="round" stroke-width="2"/><line x1="37.734589064908505" y1="5.027934058277424" x2="37.703140470741346" y2="5.372451683975669" stroke="#030303" stroke-linecap="round" stroke-width="2"/><line x1="37.703140470741346" y1="5.372451683975669" x2="37.70497650979814" y2="5.724281179353056" stroke="#030303" stroke-linecap="round" stroke-width="2"/><line x1="37.70497650979814" y1="5.724281179353056" x2="37.74039198381797" y2="6.082335220812638" stroke="#030303" stroke-linecap="round" stroke-width="2"/><line x1="37.74039198381797" y1="6.082335220812638" x2="37.809681694539904" y2="6.445526484759284" stroke="#030303" stroke-linecap="round" stroke-width="2"/><line x1="37.809681694539904" y1="6.445526484759284" x2="37.91314044370665" y2="6.812767647596047" stroke="#030303" stroke-linecap="round" stroke-width="2"/><line x1="37.91314044370665" y1="6.812767647596047" x2="38.05106303306093" y2="7.182971385725978" stroke="#030303" stroke-linecap="round" stroke-width="2"/><line x1="38.05106303306093" y1="7.182971385725978" x2="38.223744264338166" y2="7.555050375554856" stroke="#030303" stroke-linecap="round" stroke-width="2"/><line x1="38.223744264338166" y1="7.555050375554856" x2="38.431478939288354" y2="7.927917293485734" stroke="#030303" stroke-linecap="round" stroke-width="2"/><line x1="38.431478939288354" y1="7.927917293485734" x2="38.67456185963965" y2="8.300484815922573" stroke="#030303" stroke-linecap="round" stroke-width="2"/><line x1="38.67456185963965" y1="8.300484815922573" x2="38.95328782714205" y2="8.671665619269334" stroke="#030303" stroke-linecap="round" stroke-width="2"/><line x1="38.95328782714205" y1="8.671665619269334" x2="39.267951643534616" y2="9.040372379929977" stroke="#030303" stroke-linecap="round" stroke-width="2"/><line x1="39.267951643534616" y1="9.040372379929977" x2="39.61884811055643" y2="9.405517774308464" stroke="#030303" stroke-linecap="round" stroke-width="2"/><line x1="39.61884811055643" y1="9.405517774308464" x2="40.00627202994656" y2="9.766014478807847" stroke="#030303" stroke-linecap="round" stroke-width="2"/><line x1="40.00627202994656" y1="9.766014478807847" x2="40.430518203451356" y2="10.120775169832996" stroke="#030303" stroke-linecap="round" stroke-width="2"/><line x1="40.430518203451356" y1="10.120775169832996" x2="40.89188143280626" y2="10.468712523788781" stroke="#030303" stroke-linecap="round" stroke-width="2"/><line x1="40.89188143280626" y1="10.468712523788781" x2="41.39065651975761" y2="10.808739217076436" stroke="#030303" stroke-linecap="round" stroke-width="2"/><line x1="41.39065651975761" y1="10.808739217076436" x2="41.92713826603722" y2="11.13976792610265" stroke="#030303" stroke-linecap="round" stroke-width="2"/><line x1="41.92713826603722" y1="11.13976792610265" x2="42.50162147339506" y2="11.460711327268655" stroke="#030303" stroke-linecap="round" stroke-width="2"/><line x1="42.50162147339506" y1="11.460711327268655" x2="43.11440094356658" y2="11.770482096980231" stroke="#030303" stroke-linecap="round" stroke-width="2"/><line x1="40.000197971563466" y1="2.12548296242403" x2="40.03271752365981" y2="2.0899312353267305" stroke="#030303" stroke-linecap="round" stroke-width="2"/><line x1="40.03271752365981" y1="2.0899312353267305" x2="40.122604479322035" y2="2.03624434408448" stroke="#030303" stroke-linecap="round" stroke-width="2"/><line x1="40.122604479322035" y1="2.03624434408448" x2="40.23923857576665" y2="2.006127914537501" stroke="#030303" stroke-linecap="round" stroke-width="2"/><line x1="40.23923857576665" y1="2.006127914537501" x2="40.374959819571814" y2="2" stroke="#030303" stroke-linecap="round" stroke-width="2"/><line x1="40.374959819571814" y1="2" x2="40.52210821731933" y2="2.018278653782545" stroke="#030303" stroke-linecap="round" stroke-width="2"/><line x1="40.52210821731933" y1="2.018278653782545" x2="40.67302377559827" y2="2.0613819291993423" stroke="#030303" stroke-linecap="round" stroke-width="2"/><line x1="40.67302377559827" y1="2.0613819291993423" x2="40.82004650099043" y2="2.129727879562779" stroke="#030303" stroke-linecap="round" stroke-width="2"/><line x1="40.82004650099043" y1="2.129727879562779" x2="40.955516400073975" y2="2.223734558184333" stroke="#030303" stroke-linecap="round" stroke-width="2"/><line x1="40.955516400073975" y1="2.223734558184333" x2="41.07177347944162" y2="2.343820018376391" stroke="#030303" stroke-linecap="round" stroke-width="2"/><line x1="41.07177347944162" y1="2.343820018376391" x2="41.16115774566788" y2="2.4904023134522504" stroke="#030303" stroke-linecap="round" stroke-width="2"/><line x1="41.16115774566788" y1="2.4904023134522504" x2="41.216009205341834" y2="2.6638994967233884" stroke="#030303" stroke-linecap="round" stroke-width="2"/><line x1="41.216009205341834" y1="2.6638994967233884" x2="41.22866786504164" y2="2.8647296215040114" stroke="#030303" stroke-linecap="round" stroke-width="2"/><line x1="41.22866786504164" y1="2.8647296215040114" x2="41.19147373135638" y2="3.093310741105597" stroke="#030303" stroke-linecap="round" stroke-width="2"/><line x1="41.19147373135638" y1="3.093310741105597" x2="41.09676681086421" y2="3.3500609088405326" stroke="#030303" stroke-linecap="round" stroke-width="2"/><line x1="41.09676681086421" y1="3.3500609088405326" x2="40.9368871101542" y2="3.6353981780202957" stroke="#030303" stroke-linecap="round" stroke-width="2"/><line x1="40.9368871101542" y1="3.6353981780202957" x2="40.70417463580452" y2="3.9497406019590926" stroke="#030303" stroke-linecap="round" stroke-width="2"/><line x1="40.70417463580452" y1="3.9497406019590926" x2="40.55811236057343" y2="4.117919388623704" stroke="#030303" stroke-linecap="round" stroke-width="2"/><line x1="40.55811236057343" y1="4.117919388623704" x2="40.489187512102944" y2="4.214303425333128" stroke="#030303" stroke-linecap="round" stroke-width="2"/><line x1="40.489187512102944" y1="4.214303425333128" x2="40.37697691287394" y2="4.411024599987286" stroke="#030303" stroke-linecap="round" stroke-width="2"/><line x1="40.37697691287394" y1="4.411024599987286" x2="40.29792309534241" y2="4.612537789051203" stroke="#030303" stroke-linecap="round" stroke-width="2"/><line x1="40.29792309534241" y1="4.612537789051203" x2="40.25079164120325" y2="4.818268447846094" stroke="#030303" stroke-linecap="round" stroke-width="2"/><line x1="40.25079164120325" y1="4.818268447846094" x2="40.234348132151354" y2="5.027642031691357" stroke="#030303" stroke-linecap="round" stroke-width="2"/><line x1="40.234348132151354" y1="5.027642031691357" x2="40.247358149874344" y2="5.240083995908208" stroke="#030303" stroke-linecap="round" stroke-width="2"/><line x1="40.247358149874344" y1="5.240083995908208" x2="40.288587276074395" y2="5.4550197958160425" stroke="#030303" stroke-linecap="round" stroke-width="2"/><line x1="40.288587276074395" y1="5.4550197958160425" x2="40.356801092442765" y2="5.671874886736077" stroke="#030303" stroke-linecap="round" stroke-width="2"/><line x1="40.356801092442765" y1="5.671874886736077" x2="40.450765180670714" y2="5.890074723987709" stroke="#030303" stroke-linecap="round" stroke-width="2"/><line x1="40.450765180670714" y1="5.890074723987709" x2="40.56924512245678" y2="6.109044762892154" stroke="#030303" stroke-linecap="round" stroke-width="2"/><line x1="40.56924512245678" y1="6.109044762892154" x2="40.79023197050992" y2="6.437687132858628" stroke="#030303" stroke-linecap="round" stroke-width="2"/><line x1="40.79023197050992" y1="6.437687132858628" x2="41.15916535116776" y2="6.87321024825269" stroke="#030303" stroke-linecap="round" stroke-width="2"/><line x1="41.15916535116776" y1="6.87321024825269" x2="41.60394261654437" y2="7.30147236601988" stroke="#030303" stroke-linecap="round" stroke-width="2"/><line x1="41.60394261654437" y1="7.30147236601988" x2="42.11468842018803" y2="7.717877128721739" stroke="#030303" stroke-linecap="round" stroke-width="2"/><line x1="42.11468842018803" y1="7.717877128721739" x2="42.68152741565791" y2="8.117828178921627" stroke="#030303" stroke-linecap="round" stroke-width="2"/><line x1="42.68152741565791" y1="8.117828178921627" x2="43.29458425649864" y2="8.496729159180177" stroke="#030303" stroke-linecap="round" stroke-width="2"/><line x1="43.29458425649864" y1="8.496729159180177" x2="43.94398359626939" y2="8.849983712059839" stroke="#030303" stroke-linecap="round" stroke-width="2"/><line x1="43.11440094356658" y1="11.770482096980231" x2="43.76577147829448" y2="12.06799291164134" stroke="#030303" stroke-linecap="round" stroke-width="2"/><line x1="39.94308208449729" y1="90.02576818183297" x2="39.75775756378789" y2="89.927129319507" stroke="#030303" stroke-linecap="round" stroke-width="2"/><line x1="39.75775756378789" y1="89.927129319507" x2="39.40967673313571" y2="89.71553318837869" stroke="#030303" stroke-linecap="round" stroke-width="2"/><line x1="39.40967673313571" y1="89.71553318837869" x2="39.0919325183022" y2="89.48575195161084" stroke="#030303" stroke-linecap="round" stroke-width="2"/><line x1="39.0919325183022" y1="89.48575195161084" x2="38.80481972101916" y2="89.2388729327995" stroke="#030303" stroke-linecap="round" stroke-width="2"/><line x1="38.80481972101916" y1="89.2388729327995" x2="38.54863314303657" y2="88.97598345554161" stroke="#030303" stroke-linecap="round" stroke-width="2"/><line x1="38.54863314303657" y1="88.97598345554161" x2="38.32366758608987" y2="88.6981708434314" stroke="#030303" stroke-linecap="round" stroke-width="2"/><line x1="38.32366758608987" y1="88.6981708434314" x2="38.13021785192177" y2="88.40652242006763" stroke="#030303" stroke-linecap="round" stroke-width="2"/><line x1="38.13021785192177" y1="88.40652242006763" x2="37.968578742274985" y2="88.10212550904362" stroke="#030303" stroke-linecap="round" stroke-width="2"/><line x1="37.968578742274985" y1="88.10212550904362" x2="37.83904505888495" y2="87.78606743395721" stroke="#030303" stroke-linecap="round" stroke-width="2"/><line x1="37.83904505888495" y1="87.78606743395721" x2="37.74191160349437" y2="87.45943551840355" stroke="#030303" stroke-linecap="round" stroke-width="2"/><line x1="37.74191160349437" y1="87.45943551840355" x2="37.67747317784597" y2="87.12331708597958" stroke="#030303" stroke-linecap="round" stroke-width="2"/><line x1="37.67747317784597" y1="87.12331708597958" x2="37.64602458367881" y2="86.77879946028133" stroke="#030303" stroke-linecap="round" stroke-width="2"/><line x1="37.64602458367881" y1="86.77879946028133" x2="37.64786062273561" y2="86.42696996490395" stroke="#030303" stroke-linecap="round" stroke-width="2"/><line x1="37.64786062273561" y1="86.42696996490395" x2="37.683276096755435" y2="86.06891592344437" stroke="#030303" stroke-linecap="round" stroke-width="2"/><line x1="37.683276096755435" y1="86.06891592344437" x2="37.75256580747737" y2="85.70572465949863" stroke="#030303" stroke-linecap="round" stroke-width="2"/><line x1="37.75256580747737" y1="85.70572465949863" x2="37.856024556644115" y2="85.33848349666187" stroke="#030303" stroke-linecap="round" stroke-width="2"/><line x1="37.856024556644115" y1="85.33848349666187" x2="37.99394714599839" y2="84.96827975853103" stroke="#030303" stroke-linecap="round" stroke-width="2"/><line x1="37.99394714599839" y1="84.96827975853103" x2="38.16662837727563" y2="84.59620076870215" stroke="#030303" stroke-linecap="round" stroke-width="2"/><line x1="38.16662837727563" y1="84.59620076870215" x2="38.37436305222218" y2="84.22333385077127" stroke="#030303" stroke-linecap="round" stroke-width="2"/><line x1="38.37436305222218" y1="84.22333385077127" x2="38.617445972577116" y2="83.85076632833443" stroke="#030303" stroke-linecap="round" stroke-width="2"/><line x1="38.617445972577116" y1="83.85076632833443" x2="38.89617194007951" y2="83.47958552498767" stroke="#030303" stroke-linecap="round" stroke-width="2"/><line x1="38.89617194007951" y1="83.47958552498767" x2="39.21083575647208" y2="83.11087876432703" stroke="#030303" stroke-linecap="round" stroke-width="2"/><line x1="39.21083575647208" y1="83.11087876432703" x2="39.56173222349389" y2="82.74573336994854" stroke="#030303" stroke-linecap="round" stroke-width="2"/><line x1="39.56173222349389" y1="82.74573336994854" x2="39.94915614288402" y2="82.38523666544916" stroke="#030303" stroke-linecap="round" stroke-width="2"/><line x1="39.94915614288402" y1="82.38523666544916" x2="40.37340231638882" y2="82.03047597442401" stroke="#030303" stroke-linecap="round" stroke-width="2"/><line x1="40.37340231638882" y1="82.03047597442401" x2="40.83476554574372" y2="81.68253862046913" stroke="#030303" stroke-linecap="round" stroke-width="2"/><line x1="40.83476554574372" y1="81.68253862046913" x2="41.33354063269144" y2="81.34251192718057" stroke="#030303" stroke-linecap="round" stroke-width="2"/><line x1="41.33354063269144" y1="81.34251192718057" x2="41.87002237897468" y2="81.01148321815526" stroke="#030303" stroke-linecap="round" stroke-width="2"/><line x1="41.87002237897468" y1="81.01148321815526" x2="42.444505586332525" y2="80.69053981698835" stroke="#030303" stroke-linecap="round" stroke-width="2"/><line x1="42.444505586332525" y1="80.69053981698835" x2="43.05728505650404" y2="80.38076904727677" stroke="#030303" stroke-linecap="round" stroke-width="2"/><line x1="43.05728505650404" y1="80.38076904727677" x2="43.708655591231945" y2="80.08325823261566" stroke="#030303" stroke-linecap="round" stroke-width="2"/><line x1="39.94308208449729" y1="90.02576818183297" x2="39.975601636597276" y2="90.06131990892936" stroke="#030303" stroke-linecap="round" stroke-width="2"/><line x1="39.975601636597276" y1="90.06131990892936" x2="40.0654885922595" y2="90.11500680017252" stroke="#030303" stroke-linecap="round" stroke-width="2"/><line x1="40.0654885922595" y1="90.11500680017252" x2="40.18212268870411" y2="90.1451232297195" stroke="#030303" stroke-linecap="round" stroke-width="2"/><line x1="40.18212268870411" y1="90.1451232297195" x2="40.31784393250928" y2="90.151251144257" stroke="#030303" stroke-linecap="round" stroke-width="2"/><line x1="40.31784393250928" y1="90.151251144257" x2="40.46499233025679" y2="90.13297249047355" stroke="#030303" stroke-linecap="round" stroke-width="2"/><line x1="40.46499233025679" y1="90.13297249047355" x2="40.61590788853573" y2="90.08986921505766" stroke="#030303" stroke-linecap="round" stroke-width="2"/><line x1="40.61590788853573" y1="90.08986921505766" x2="40.76293061392789" y2="90.02152326469422" stroke="#030303" stroke-linecap="round" stroke-width="2"/><line x1="40.76293061392789" y1="90.02152326469422" x2="40.89840051301144" y2="89.92751658607267" stroke="#030303" stroke-linecap="round" stroke-width="2"/><line x1="40.89840051301144" y1="89.92751658607267" x2="41.01465759237544" y2="89.80743112588061" stroke="#030303" stroke-linecap="round" stroke-width="2"/><line x1="41.01465759237544" y1="89.80743112588061" x2="41.10404185860534" y2="89.66084883080475" stroke="#030303" stroke-linecap="round" stroke-width="2"/><line x1="41.10404185860534" y1="89.66084883080475" x2="41.1588933182793" y2="89.4873516475327" stroke="#030303" stroke-linecap="round" stroke-width="2"/><line x1="41.1588933182793" y1="89.4873516475327" x2="41.17155197797911" y2="89.28652152275299" stroke="#030303" stroke-linecap="round" stroke-width="2"/><line x1="41.17155197797911" y1="89.28652152275299" x2="41.134357844293845" y2="89.0579404031514" stroke="#030303" stroke-linecap="round" stroke-width="2"/><line x1="41.134357844293845" y1="89.0579404031514" x2="41.03965092380167" y2="88.80119023541738" stroke="#030303" stroke-linecap="round" stroke-width="2"/><line x1="41.03965092380167" y1="88.80119023541738" x2="40.879771223091666" y2="88.51585296623671" stroke="#030303" stroke-linecap="round" stroke-width="2"/><line x1="40.879771223091666" y1="88.51585296623671" x2="40.64705874874198" y2="88.20151054229791" stroke="#030303" stroke-linecap="round" stroke-width="2"/><line x1="40.64705874874198" y1="88.20151054229791" x2="40.500996473510895" y2="88.03333175563421" stroke="#030303" stroke-linecap="round" stroke-width="2"/><line x1="40.500996473510895" y1="88.03333175563421" x2="40.43207162504041" y2="87.93694771892388" stroke="#030303" stroke-linecap="round" stroke-width="2"/><line x1="40.43207162504041" y1="87.93694771892388" x2="40.319861025811406" y2="87.74022654426972" stroke="#030303" stroke-linecap="round" stroke-width="2"/><line x1="40.319861025811406" y1="87.74022654426972" x2="40.240807208279875" y2="87.5387133552058" stroke="#030303" stroke-linecap="round" stroke-width="2"/><line x1="40.240807208279875" y1="87.5387133552058" x2="40.19367575414071" y2="87.33298269641091" stroke="#030303" stroke-linecap="round" stroke-width="2"/><line x1="40.19367575414071" y1="87.33298269641091" x2="40.17723224508882" y2="87.12360911256565" stroke="#030303" stroke-linecap="round" stroke-width="2"/><line x1="40.17723224508882" y1="87.12360911256565" x2="40.19024226281181" y2="86.9111671483488" stroke="#030303" stroke-linecap="round" stroke-width="2"/><line x1="40.19024226281181" y1="86.9111671483488" x2="40.23147138901186" y2="86.69623134844096" stroke="#030303" stroke-linecap="round" stroke-width="2"/><line x1="40.23147138901186" y1="86.69623134844096" x2="40.29968520538023" y2="86.47937625752093" stroke="#030303" stroke-linecap="round" stroke-width="2"/><line x1="40.29968520538023" y1="86.47937625752093" x2="40.39364929360818" y2="86.26117642026838" stroke="#030303" stroke-linecap="round" stroke-width="2"/><line x1="40.39364929360818" y1="86.26117642026838" x2="40.51212923539424" y2="86.04220638136485" stroke="#030303" stroke-linecap="round" stroke-width="2"/><line x1="40.51212923539424" y1="86.04220638136485" x2="40.733116083447385" y2="85.71356401139838" stroke="#030303" stroke-linecap="round" stroke-width="2"/><line x1="40.733116083447385" y1="85.71356401139838" x2="41.10204946410522" y2="85.27804089600431" stroke="#030303" stroke-linecap="round" stroke-width="2"/><line x1="41.10204946410522" y1="85.27804089600431" x2="41.546826729481836" y2="84.84977877823712" stroke="#030303" stroke-linecap="round" stroke-width="2"/><line x1="41.546826729481836" y1="84.84977877823712" x2="42.057572533125494" y2="84.43337401553526" stroke="#030303" stroke-linecap="round" stroke-width="2"/><line x1="42.057572533125494" y1="84.43337401553526" x2="42.624411528591736" y2="84.03342296533538" stroke="#030303" stroke-linecap="round" stroke-width="2"/><line x1="42.624411528591736" y1="84.03342296533538" x2="43.2374683694361" y2="83.65452198507683" stroke="#030303" stroke-linecap="round" stroke-width="2"/><line x1="43.2374683694361" y1="83.65452198507683" x2="43.886867709206854" y2="83.30126743219716" stroke="#030303" stroke-linecap="round" stroke-width="2"/><line x1="43.94398359626939" y1="8.849983712059839" x2="44.61985008851843" y2="9.172995480123063" stroke="#030303" stroke-linecap="round" stroke-width="2"/><line x1="44.61985008851843" y1="9.172995480123063" x2="45.31230838679767" y2="9.461168105930483" stroke="#030303" stroke-linecap="round" stroke-width="2"/><line x1="45.31230838679767" y1="9.461168105930483" x2="46.01148314466627" y2="9.709905232044548" stroke="#030303" stroke-linecap="round" stroke-width="2"/><line x1="46.01148314466627" y1="9.709905232044548" x2="46.70749901566887" y2="9.91461050102862" stroke="#030303" stroke-linecap="round" stroke-width="2"/><line x1="46.70749901566887" y1="9.91461050102862" x2="47.051236322833574" y2="9.999014827397332" stroke="#030303" stroke-linecap="round" stroke-width="2"/><line x1="47.051236322833574" y1="9.999014827397332" x2="48.367909482185496" y2="10.604309957861005" stroke="#030303" stroke-linecap="round" stroke-width="2"/><line x1="48.367909482185496" y1="10.604309957861005" x2="50.97048055291816" y2="11.83865409119062" stroke="#030303" stroke-linecap="round" stroke-width="2"/><line x1="51.92442841900629" y1="75.48300618065878" x2="52.62591800638984" y2="74.95883909003533" stroke="#030303" stroke-linecap="round" stroke-width="2"/><line x1="52.62591800638984" y1="74.95883909003533" x2="53.307886980168405" y2="74.41743416844474" stroke="#030303" stroke-linecap="round" stroke-width="2"/><line x1="53.307886980168405" y1="74.41743416844474" x2="53.96786641437575" y2="73.85848019667083" stroke="#030303" stroke-linecap="round" stroke-width="2"/><line x1="53.96786641437575" y1="73.85848019667083" x2="54.603387383052905" y2="73.28166595549192" stroke="#030303" stroke-linecap="round" stroke-width="2"/><line x1="54.603387383052905" y1="73.28166595549192" x2="55.211980960229994" y2="72.68668022568818" stroke="#030303" stroke-linecap="round" stroke-width="2"/><line x1="55.211980960229994" y1="72.68668022568818" x2="55.79117821994441" y2="72.07321178804159" stroke="#030303" stroke-linecap="round" stroke-width="2"/><line x1="55.79117821994441" y1="72.07321178804159" x2="56.33851023622992" y2="71.4409494233314" stroke="#030303" stroke-linecap="round" stroke-width="2"/><line x1="56.33851023622992" y1="71.4409494233314" x2="56.851508083127555" y2="70.7895819123396" stroke="#030303" stroke-linecap="round" stroke-width="2"/><line x1="56.851508083127555" y1="70.7895819123396" x2="57.327702834663796" y2="70.11879803584452" stroke="#030303" stroke-linecap="round" stroke-width="2"/><line x1="57.327702834663796" y1="70.11879803584452" x2="57.76462556488332" y2="69.42828657462906" stroke="#030303" stroke-linecap="round" stroke-width="2"/><line x1="57.76462556488332" y1="69.42828657462906" x2="58.1598073478126" y2="68.71773630947155" stroke="#030303" stroke-linecap="round" stroke-width="2"/><line x1="58.1598073478126" y1="68.71773630947155" x2="58.510779257496324" y2="67.98683602115398" stroke="#030303" stroke-linecap="round" stroke-width="2"/><line x1="58.510779257496324" y1="67.98683602115398" x2="58.8150723679646" y2="67.2352744904565" stroke="#030303" stroke-linecap="round" stroke-width="2"/><line x1="58.8150723679646" y1="67.2352744904565" x2="59.0702177532512" y2="66.46274049815838" stroke="#030303" stroke-linecap="round" stroke-width="2"/><line x1="59.0702177532512" y1="66.46274049815838" x2="59.27374648739715" y2="65.66892282504159" stroke="#030303" stroke-linecap="round" stroke-width="2"/><line x1="59.27374648739715" y1="65.66892282504159" x2="59.423189644436206" y2="64.8535102518872" stroke="#030303" stroke-linecap="round" stroke-width="2"/><line x1="59.423189644436206" y1="64.8535102518872" x2="59.5160782983985" y2="64.01619155947355" stroke="#030303" stroke-linecap="round" stroke-width="2"/><line x1="59.5160782983985" y1="64.01619155947355" x2="59.54994352332869" y2="63.15665552858263" stroke="#030303" stroke-linecap="round" stroke-width="2"/><line x1="59.54994352332869" y1="63.15665552858263" x2="59.52231639325328" y2="62.274590939994596" stroke="#030303" stroke-linecap="round" stroke-width="2"/><line x1="59.52231639325328" y1="62.274590939994596" x2="59.430727982213284" y2="61.369686574489606" stroke="#030303" stroke-linecap="round" stroke-width="2"/><line x1="59.430727982213284" y1="61.369686574489606" x2="59.272709364238835" y2="60.44163121284964" stroke="#030303" stroke-linecap="round" stroke-width="2"/><line x1="59.272709364238835" y1="60.44163121284964" x2="59.045791613374604" y2="59.49011363585305" stroke="#030303" stroke-linecap="round" stroke-width="2"/><line x1="59.045791613374604" y1="59.49011363585305" x2="58.90572402374164" y2="59.005459260590214" stroke="#030303" stroke-linecap="round" stroke-width="2"/><line x1="58.90572402374164" y1="59.005459260590214" x2="58.10985260171219" y2="56.79235921182317" stroke="#030303" stroke-linecap="round" stroke-width="2"/><line x1="58.10985260171219" y1="56.79235921182317" x2="56.93035739456536" y2="53.48129478097417" stroke="#030303" stroke-linecap="round" stroke-width="2"/><line x1="56.93035739456536" y1="53.48129478097417" x2="56.204987535817054" y2="51.373302256112765" stroke="#030303" stroke-linecap="round" stroke-width="2"/><line x1="56.204987535817054" y1="51.373302256112765" x2="55.89001328698214" y2="50.3769732537221" stroke="#030303" stroke-linecap="round" stroke-width="2"/><line x1="55.89001328698214" y1="50.3769732537221" x2="55.76223327112166" y2="49.91135410842253" stroke="#030303" stroke-linecap="round" stroke-width="2"/><line x1="55.76223327112166" y1="49.91135410842253" x2="55.683496329304035" y2="49.55495437614627" stroke="#030303" stroke-linecap="round" stroke-width="2"/><line x1="55.683496329304035" y1="49.55495437614627" x2="55.639471736412816" y2="49.265207709453534" stroke="#030303" stroke-linecap="round" stroke-width="2"/><line x1="55.639471736412816" y1="49.265207709453534" x2="55.607172040094156" y2="48.86244832236298" stroke="#030303" stroke-linecap="round" stroke-width="2"/><line x1="55.607172040094156" y1="48.86244832236298" x2="55.55184556508539" y2="48.16143562635989" stroke="#030303" stroke-linecap="round" stroke-width="2"/><line x1="55.55184556508539" y1="48.16143562635989" x2="55.4384586264714" y2="47.326448199401966" stroke="#030303" stroke-linecap="round" stroke-width="2"/><line x1="55.4384586264714" y1="47.326448199401966" x2="55.30176289952942" y2="46.54272663000302" stroke="#030303" stroke-linecap="round" stroke-width="2"/><line x1="55.30176289952942" y1="46.54272663000302" x2="55.301521994409995" y2="46.06762958086438" stroke="#030303" stroke-linecap="round" stroke-width="2"/><line x1="59.74937859515194" y1="75.27974558657297" x2="60.75073775248529" y2="74.54594251475828" stroke="#030303" stroke-linecap="round" stroke-width="2"/><line x1="60.75073775248529" y1="74.54594251475828" x2="61.69632676452238" y2="73.7942752764393" stroke="#030303" stroke-linecap="round" stroke-width="2"/><line x1="61.69632676452238" y1="73.7942752764393" x2="62.581669067716575" y2="73.02376555597311" stroke="#030303" stroke-linecap="round" stroke-width="2"/><line x1="62.581669067716575" y1="73.02376555597311" x2="63.40228809853215" y2="72.23343503771684" stroke="#030303" stroke-linecap="round" stroke-width="2"/><line x1="63.40228809853215" y1="72.23343503771684" x2="64.1537072934334" y2="71.42230540602759" stroke="#030303" stroke-linecap="round" stroke-width="2"/><line x1="64.1537072934334" y1="71.42230540602759" x2="64.66916636453607" y2="70.79972024606559" stroke="#030303" stroke-linecap="round" stroke-width="2"/><line x1="64.66916636453607" y1="70.79972024606559" x2="64.98884925303719" y2="70.3776542104124" stroke="#030303" stroke-linecap="round" stroke-width="2"/><line x1="64.98884925303719" y1="70.3776542104124" x2="65.28871411556611" y2="69.94983809385212" stroke="#030303" stroke-linecap="round" stroke-width="2"/><line x1="65.28871411556611" y1="69.94983809385212" x2="65.56820138168769" y2="69.51614960692768" stroke="#030303" stroke-linecap="round" stroke-width="2"/><line x1="65.56820138168769" y1="69.51614960692768" x2="65.82675148095223" y2="69.07646646018657" stroke="#030303" stroke-linecap="round" stroke-width="2"/><line x1="65.82675148095223" y1="69.07646646018657" x2="66.06380484292458" y2="68.63066636416988" stroke="#030303" stroke-linecap="round" stroke-width="2"/><line x1="66.06380484292458" y1="68.63066636416988" x2="66.27880189715506" y2="68.17862702942602" stroke="#030303" stroke-linecap="round" stroke-width="2"/><line x1="66.27880189715506" y1="68.17862702942602" x2="66.47118307320488" y2="67.72022616649701" stroke="#030303" stroke-linecap="round" stroke-width="2"/><line x1="66.47118307320488" y1="67.72022616649701" x2="66.64038880063163" y2="67.25534148592851" stroke="#030303" stroke-linecap="round" stroke-width="2"/><line x1="66.64038880063163" y1="67.25534148592851" x2="66.78585950898923" y2="66.78385069826436" stroke="#030303" stroke-linecap="round" stroke-width="2"/><line x1="66.78585950898923" y1="66.78385069826436" x2="66.90703562784256" y2="66.30563151405022" stroke="#030303" stroke-linecap="round" stroke-width="2"/><line x1="66.90703562784256" y1="66.30563151405022" x2="67.00335758674555" y2="65.82056164382993" stroke="#030303" stroke-linecap="round" stroke-width="2"/><line x1="67.00335758674555" y1="65.82056164382993" x2="67.07426581525579" y2="65.32851879814916" stroke="#030303" stroke-linecap="round" stroke-width="2"/><line x1="67.07426581525579" y1="65.32851879814916" x2="67.11920074293084" y2="64.82938068755084" stroke="#030303" stroke-linecap="round" stroke-width="2"/><line x1="67.11920074293084" y1="64.82938068755084" x2="67.1376027993283" y2="64.32302502258062" stroke="#030303" stroke-linecap="round" stroke-width="2"/><line x1="67.1376027993283" y1="64.32302502258062" x2="67.12891241400575" y2="63.80932951378327" stroke="#030303" stroke-linecap="round" stroke-width="2"/><line x1="67.12891241400575" y1="63.80932951378327" x2="67.09257001652077" y2="63.288171871703526" stroke="#030303" stroke-linecap="round" stroke-width="2"/><line x1="67.09257001652077" y1="63.288171871703526" x2="67.02801603643456" y2="62.75942980688524" stroke="#030303" stroke-linecap="round" stroke-width="2"/><line x1="67.02801603643456" y1="62.75942980688524" x2="66.93469090330109" y2="62.222981029873154" stroke="#030303" stroke-linecap="round" stroke-width="2"/><line x1="66.93469090330109" y1="62.222981029873154" x2="66.81203504667428" y2="61.67870325121294" stroke="#030303" stroke-linecap="round" stroke-width="2"/><line x1="66.81203504667428" y1="61.67870325121294" x2="66.65948889612264" y2="61.12647418144843" stroke="#030303" stroke-linecap="round" stroke-width="2"/><line x1="66.65948889612264" y1="61.12647418144843" x2="66.47649288119283" y2="60.56617153112347" stroke="#030303" stroke-linecap="round" stroke-width="2"/><line x1="66.47649288119283" y1="60.56617153112347" x2="66.2624874314497" y2="59.99767301078464" stroke="#030303" stroke-linecap="round" stroke-width="2"/><line x1="66.2624874314497" y1="59.99767301078464" x2="66.01691297645084" y2="59.42085633097395" stroke="#030303" stroke-linecap="round" stroke-width="2"/><line x1="66.01691297645084" y1="59.42085633097395" x2="65.73920994574655" y2="58.83559920223888" stroke="#030303" stroke-linecap="round" stroke-width="2"/><line x1="65.73920994574655" y1="58.83559920223888" x2="65.42881876890169" y2="58.241779335122374" stroke="#030303" stroke-linecap="round" stroke-width="2"/><line x1="65.42881876890169" y1="58.241779335122374" x2="65.08517987547384" y2="57.639274440169174" stroke="#030303" stroke-linecap="round" stroke-width="2"/><line x1="65.08517987547384" y1="57.639274440169174" x2="64.70773369501694" y2="57.027962227924945" stroke="#030303" stroke-linecap="round" stroke-width="2"/><line x1="64.70773369501694" y1="57.027962227924945" x2="64.29592065708857" y2="56.40772040893262" stroke="#030303" stroke-linecap="round" stroke-width="2"/><line x1="64.29592065708857" y1="56.40772040893262" x2="63.849181191249954" y2="55.778426693737856" stroke="#030303" stroke-linecap="round" stroke-width="2"/><line x1="63.849181191249954" y1="55.778426693737856" x2="63.36695572705867" y2="55.13995879288541" stroke="#030303" stroke-linecap="round" stroke-width="2"/><line x1="63.36695572705867" y1="55.13995879288541" x2="62.84868469406865" y2="54.49219441691912" stroke="#030303" stroke-linecap="round" stroke-width="2"/><line x1="62.84868469406865" y1="54.49219441691912" x2="62.575857223509956" y2="54.1647878353142" stroke="#030303" stroke-linecap="round" stroke-width="2"/><line x1="62.575857223509956" y1="54.1647878353142" x2="62.24213123579102" y2="53.760328844602554" stroke="#030303" stroke-linecap="round" stroke-width="2"/><line x1="62.24213123579102" y1="53.760328844602554" x2="61.621563120868814" y2="52.98449711036301" stroke="#030303" stroke-linecap="round" stroke-width="2"/><line x1="61.621563120868814" y1="52.98449711036301" x2="61.061436539352144" y2="52.25174075185623" stroke="#030303" stroke-linecap="round" stroke-width="2"/><line x1="61.061436539352144" y1="52.25174075185623" x2="60.559267154505505" y2="51.560812224467554" stroke="#030303" stroke-linecap="round" stroke-width="2"/><line x1="60.559267154505505" y1="51.560812224467554" x2="60.11257062959339" y2="50.91046398358321" stroke="#030303" stroke-linecap="round" stroke-width="2"/><line x1="60.11257062959339" y1="50.91046398358321" x2="59.71886262787302" y2="50.299448484592176" stroke="#030303" stroke-linecap="round" stroke-width="2"/><line x1="59.71886262787302" y1="50.299448484592176" x2="59.37565881260889" y2="49.72651818287886" stroke="#030303" stroke-linecap="round" stroke-width="2"/><line x1="59.37565881260889" y1="49.72651818287886" x2="59.08047484706549" y2="49.1904255338286" stroke="#030303" stroke-linecap="round" stroke-width="2"/><line x1="59.08047484706549" y1="49.1904255338286" x2="58.830826394503674" y2="48.68992299283127" stroke="#030303" stroke-linecap="round" stroke-width="2"/><line x1="58.830826394503674" y1="48.68992299283127" x2="58.624229118180665" y2="48.22376301527038" stroke="#030303" stroke-linecap="round" stroke-width="2"/><line x1="58.624229118180665" y1="48.22376301527038" x2="58.45819868136459" y2="47.79069805653489" stroke="#030303" stroke-linecap="round" stroke-width="2"/><line x1="58.45819868136459" y1="47.79069805653489" x2="58.33025074731631" y2="47.389480572009234" stroke="#030303" stroke-linecap="round" stroke-width="2"/><line x1="58.33025074731631" y1="47.389480572009234" x2="58.23790097929668" y2="47.01886301708146" stroke="#030303" stroke-linecap="round" stroke-width="2"/><line x1="58.23790097929668" y1="47.01886301708146" x2="58.17866504056656" y2="46.677597847136894" stroke="#030303" stroke-linecap="round" stroke-width="2"/><line x1="58.17866504056656" y1="46.677597847136894" x2="58.15005859439407" y2="46.36443751756178" stroke="#030303" stroke-linecap="round" stroke-width="2"/><line x1="58.15005859439407" y1="46.36443751756178" x2="58.14959730403643" y2="46.07813448374327" stroke="#030303" stroke-linecap="round" stroke-width="2"/><line x1="58.14959730403643" y1="46.07813448374327" x2="58.16597560716764" y2="45.969506124735744" stroke="#030303" stroke-linecap="round" stroke-width="2"/><line x1="43.76577147829448" y1="12.06799291164134" x2="44.456027879317844" y2="12.352156447655034" stroke="#030303" stroke-linecap="round" stroke-width="2"/><line x1="44.456027879317844" y1="12.352156447655034" x2="44.81583040523401" y2="12.488893197545622" stroke="#030303" stroke-linecap="round" stroke-width="2"/><line x1="44.81583040523401" y1="12.488893197545622" x2="45.579628139381384" y2="12.864822952569739" stroke="#030303" stroke-linecap="round" stroke-width="2"/><line x1="45.579628139381384" y1="12.864822952569739" x2="47.11655723088916" y2="13.659837426978811" stroke="#030303" stroke-linecap="round" stroke-width="2"/><line x1="47.11655723088916" y1="13.659837426978811" x2="48.64947164690966" y2="14.514466648664893" stroke="#030303" stroke-linecap="round" stroke-width="2"/><line x1="48.64947164690966" y1="14.514466648664893" x2="49.78464112193615" y2="15.196058485324102" stroke="#030303" stroke-linecap="round" stroke-width="2"/><line x1="49.78464112193615" y1="15.196058485324102" x2="50.52987899434811" y2="15.670379398368823" stroke="#030303" stroke-linecap="round" stroke-width="2"/><line x1="50.52987899434811" y1="15.670379398368823" x2="51.26300303104654" y2="16.16100448472025" stroke="#030303" stroke-linecap="round" stroke-width="2"/><line x1="51.26300303104654" y1="16.16100448472025" x2="51.98154430606883" y2="16.668244963598227" stroke="#030303" stroke-linecap="round" stroke-width="2"/><line x1="51.98154430606883" y1="16.668244963598227" x2="52.683033893452375" y2="17.192412054222586" stroke="#030303" stroke-linecap="round" stroke-width="2"/><line x1="52.683033893452375" y1="17.192412054222586" x2="53.36500286723094" y2="17.73381697581226" stroke="#030303" stroke-linecap="round" stroke-width="2"/><line x1="53.36500286723094" y1="17.73381697581226" x2="54.02498230144192" y2="18.292770947586177" stroke="#030303" stroke-linecap="round" stroke-width="2"/><line x1="54.02498230144192" y1="18.292770947586177" x2="54.66050327011544" y2="18.869585188765996" stroke="#030303" stroke-linecap="round" stroke-width="2"/><line x1="54.66050327011544" y1="18.869585188765996" x2="55.26909684729253" y2="19.464570918568825" stroke="#030303" stroke-linecap="round" stroke-width="2"/><line x1="55.26909684729253" y1="19.464570918568825" x2="55.84829410700695" y2="20.078039356215413" stroke="#030303" stroke-linecap="round" stroke-width="2"/><line x1="55.84829410700695" y1="20.078039356215413" x2="56.39562612329246" y2="20.7103017209256" stroke="#030303" stroke-linecap="round" stroke-width="2"/><line x1="56.39562612329246" y1="20.7103017209256" x2="56.90862397019009" y2="21.361669231917404" stroke="#030303" stroke-linecap="round" stroke-width="2"/><line x1="56.90862397019009" y1="21.361669231917404" x2="57.38481872172633" y2="22.032453108411573" stroke="#030303" stroke-linecap="round" stroke-width="2"/><line x1="57.38481872172633" y1="22.032453108411573" x2="57.821741451945854" y2="22.722964569627948" stroke="#030303" stroke-linecap="round" stroke-width="2"/><line x1="57.821741451945854" y1="22.722964569627948" x2="58.21692323487878" y2="23.433514834785456" stroke="#030303" stroke-linecap="round" stroke-width="2"/><line x1="58.21692323487878" y1="23.433514834785456" x2="58.56789514455886" y2="24.164415123103026" stroke="#030303" stroke-linecap="round" stroke-width="2"/><line x1="58.56789514455886" y1="24.164415123103026" x2="58.87218825502714" y2="24.91597665380141" stroke="#030303" stroke-linecap="round" stroke-width="2"/><line x1="58.87218825502714" y1="24.91597665380141" x2="59.127333640317374" y2="25.68851064609862" stroke="#030303" stroke-linecap="round" stroke-width="2"/><line x1="59.127333640317374" y1="25.68851064609862" x2="59.330862374459684" y2="26.482328319214503" stroke="#030303" stroke-linecap="round" stroke-width="2"/><line x1="59.330862374459684" y1="26.482328319214503" x2="59.48030553149874" y2="27.297740892369802" stroke="#030303" stroke-linecap="round" stroke-width="2"/><line x1="59.48030553149874" y1="27.297740892369802" x2="59.573194185461034" y2="28.13505958478345" stroke="#030303" stroke-linecap="round" stroke-width="2"/><line x1="59.573194185461034" y1="28.13505958478345" x2="59.60705941039123" y2="28.99459561567346" stroke="#030303" stroke-linecap="round" stroke-width="2"/><line x1="59.60705941039123" y1="28.99459561567346" x2="59.579432280315814" y2="29.876660204261498" stroke="#030303" stroke-linecap="round" stroke-width="2"/><line x1="59.579432280315814" y1="29.876660204261498" x2="59.48784386927582" y2="30.781564569766488" stroke="#030303" stroke-linecap="round" stroke-width="2"/><line x1="59.48784386927582" y1="30.781564569766488" x2="59.32982525130501" y2="31.70961993140736" stroke="#030303" stroke-linecap="round" stroke-width="2"/><line x1="59.32982525130501" y1="31.70961993140736" x2="59.10290750043714" y2="32.661137508403954" stroke="#030303" stroke-linecap="round" stroke-width="2"/><line x1="59.10290750043714" y1="32.661137508403954" x2="58.96283991080418" y2="33.14579188366679" stroke="#030303" stroke-linecap="round" stroke-width="2"/><line x1="58.96283991080418" y1="33.14579188366679" x2="58.16696848877473" y2="35.358891932433835" stroke="#030303" stroke-linecap="round" stroke-width="2"/><line x1="58.16696848877473" y1="35.358891932433835" x2="56.9874732816279" y2="38.669956363282836" stroke="#030303" stroke-linecap="round" stroke-width="2"/><line x1="56.9874732816279" y1="38.669956363282836" x2="56.26210342287959" y2="40.77794888814424" stroke="#030303" stroke-linecap="round" stroke-width="2"/><line x1="56.26210342287959" y1="40.77794888814424" x2="55.947129174044676" y2="41.774277890533995" stroke="#030303" stroke-linecap="round" stroke-width="2"/><line x1="55.947129174044676" y1="41.774277890533995" x2="55.819349158184195" y2="42.239897035834474" stroke="#030303" stroke-linecap="round" stroke-width="2"/><line x1="55.819349158184195" y1="42.239897035834474" x2="55.74061221637021" y2="42.59629676811073" stroke="#030303" stroke-linecap="round" stroke-width="2"/><line x1="55.74061221637021" y1="42.59629676811073" x2="55.69658762347535" y2="42.88604343480347" stroke="#030303" stroke-linecap="round" stroke-width="2"/><line x1="55.69658762347535" y1="42.88604343480347" x2="55.66428792715669" y2="43.28880282189402" stroke="#030303" stroke-linecap="round" stroke-width="2"/><line x1="55.66428792715669" y1="43.28880282189402" x2="55.60896145214792" y2="43.989815517897114" stroke="#030303" stroke-linecap="round" stroke-width="2"/><line x1="55.60896145214792" y1="43.989815517897114" x2="55.49557451353394" y2="44.82480294485504" stroke="#030303" stroke-linecap="round" stroke-width="2"/><line x1="55.49557451353394" y1="44.82480294485504" x2="55.35887878659196" y2="45.608524514253986" stroke="#030303" stroke-linecap="round" stroke-width="2"/><line x1="55.35887878659196" y1="45.608524514253986" x2="55.301521994409995" y2="46.06762958086438" stroke="#030303" stroke-linecap="round" stroke-width="2"/><line x1="50.97048055291816" y1="11.83865409119062" x2="52.87785404505121" y2="12.78904894738298" stroke="#030303" stroke-linecap="round" stroke-width="2"/><line x1="52.87785404505121" y1="12.78904894738298" x2="54.11982623987933" y2="13.436211648673634" stroke="#030303" stroke-linecap="round" stroke-width="2"/><line x1="54.11982623987933" y1="13.436211648673634" x2="55.33288767064005" y2="14.095368622611204" stroke="#030303" stroke-linecap="round" stroke-width="2"/><line x1="55.33288767064005" y1="14.095368622611204" x2="56.512561773794005" y2="14.767498184837677" stroke="#030303" stroke-linecap="round" stroke-width="2"/><line x1="56.512561773794005" y1="14.767498184837677" x2="57.65437198579821" y2="15.45357865099686" stroke="#030303" stroke-linecap="round" stroke-width="2"/><line x1="57.65437198579821" y1="15.45357865099686" x2="58.753841743120574" y2="16.15458833673165" stroke="#030303" stroke-linecap="round" stroke-width="2"/><line x1="58.753841743120574" y1="16.15458833673165" x2="59.806494482214475" y2="16.87150555768403" stroke="#030303" stroke-linecap="round" stroke-width="2"/><line x1="59.806494482214475" y1="16.87150555768403" x2="60.80785363955147" y2="17.605308629498722" stroke="#030303" stroke-linecap="round" stroke-width="2"/><line x1="60.80785363955147" y1="17.605308629498722" x2="61.75344265158492" y2="18.35697586781771" stroke="#030303" stroke-linecap="round" stroke-width="2"/><line x1="61.75344265158492" y1="18.35697586781771" x2="62.63878495477911" y2="19.12748558828389" stroke="#030303" stroke-linecap="round" stroke-width="2"/><line x1="62.63878495477911" y1="19.12748558828389" x2="63.45940398559469" y2="19.917816106540158" stroke="#030303" stroke-linecap="round" stroke-width="2"/><line x1="63.45940398559469" y1="19.917816106540158" x2="64.21082318049594" y2="20.728945738229413" stroke="#030303" stroke-linecap="round" stroke-width="2"/><line x1="64.21082318049594" y1="20.728945738229413" x2="64.7262822515986" y2="21.351530898191413" stroke="#030303" stroke-linecap="round" stroke-width="2"/><line x1="64.7262822515986" y1="21.351530898191413" x2="65.04596514009972" y2="21.7735969338446" stroke="#030303" stroke-linecap="round" stroke-width="2"/><line x1="65.04596514009972" y1="21.7735969338446" x2="65.34583000263228" y2="22.20141305040488" stroke="#030303" stroke-linecap="round" stroke-width="2"/><line x1="65.34583000263228" y1="22.20141305040488" x2="65.62531726875022" y2="22.63510153732932" stroke="#030303" stroke-linecap="round" stroke-width="2"/><line x1="65.62531726875022" y1="22.63510153732932" x2="65.8838673680184" y2="23.074784684070437" stroke="#030303" stroke-linecap="round" stroke-width="2"/><line x1="65.8838673680184" y1="23.074784684070437" x2="66.12092072998712" y2="23.52058478008621" stroke="#030303" stroke-linecap="round" stroke-width="2"/><line x1="66.12092072998712" y1="23.52058478008621" x2="66.3359177842176" y2="23.972624114830978" stroke="#030303" stroke-linecap="round" stroke-width="2"/><line x1="66.3359177842176" y1="23.972624114830978" x2="66.52829896026742" y2="24.43102497775999" stroke="#030303" stroke-linecap="round" stroke-width="2"/><line x1="66.52829896026742" y1="24.43102497775999" x2="66.69750468769416" y2="24.895909658328492" stroke="#030303" stroke-linecap="round" stroke-width="2"/><line x1="66.69750468769416" y1="24.895909658328492" x2="66.84297539605541" y2="25.367400445991734" stroke="#030303" stroke-linecap="round" stroke-width="2"/><line x1="66.84297539605541" y1="25.367400445991734" x2="66.9641515149051" y2="25.845619630206784" stroke="#030303" stroke-linecap="round" stroke-width="2"/><line x1="66.9641515149051" y1="25.845619630206784" x2="67.06047347380809" y2="26.33068950042616" stroke="#030303" stroke-linecap="round" stroke-width="2"/><line x1="67.06047347380809" y1="26.33068950042616" x2="67.13138170231832" y2="26.82273234610784" stroke="#030303" stroke-linecap="round" stroke-width="2"/><line x1="67.13138170231832" y1="26.82273234610784" x2="67.17631662999338" y2="27.321870456706165" stroke="#030303" stroke-linecap="round" stroke-width="2"/><line x1="67.17631662999338" y1="27.321870456706165" x2="67.19471868639084" y2="27.82822612167547" stroke="#030303" stroke-linecap="round" stroke-width="2"/><line x1="67.19471868639084" y1="27.82822612167547" x2="67.18602830106829" y2="28.341921630473735" stroke="#030303" stroke-linecap="round" stroke-width="2"/><line x1="67.18602830106829" y1="28.341921630473735" x2="67.14968590358694" y2="28.863079272553477" stroke="#030303" stroke-linecap="round" stroke-width="2"/><line x1="67.14968590358694" y1="28.863079272553477" x2="67.0851319234971" y2="29.391821337371766" stroke="#030303" stroke-linecap="round" stroke-width="2"/><line x1="67.0851319234971" y1="29.391821337371766" x2="66.99180679036363" y2="29.92827011438385" stroke="#030303" stroke-linecap="round" stroke-width="2"/><line x1="66.99180679036363" y1="29.92827011438385" x2="66.86915093374046" y2="30.472547893044066" stroke="#030303" stroke-linecap="round" stroke-width="2"/><line x1="66.86915093374046" y1="30.472547893044066" x2="66.71660478318518" y2="31.024776962809483" stroke="#030303" stroke-linecap="round" stroke-width="2"/><line x1="66.71660478318518" y1="31.024776962809483" x2="66.53360876825536" y2="31.58507961313353" stroke="#030303" stroke-linecap="round" stroke-width="2"/><line x1="66.53360876825536" y1="31.58507961313353" x2="66.31960331851224" y2="32.153578133472365" stroke="#030303" stroke-linecap="round" stroke-width="2"/><line x1="66.31960331851224" y1="32.153578133472365" x2="66.07402886351338" y2="32.730394813282146" stroke="#030303" stroke-linecap="round" stroke-width="2"/><line x1="66.07402886351338" y1="32.730394813282146" x2="65.79632583280909" y2="33.31565194201721" stroke="#030303" stroke-linecap="round" stroke-width="2"/><line x1="65.79632583280909" y1="33.31565194201721" x2="65.48593465596423" y2="33.90947180913463" stroke="#030303" stroke-linecap="round" stroke-width="2"/><line x1="65.48593465596423" y1="33.90947180913463" x2="65.14229576253638" y2="34.51197670408783" stroke="#030303" stroke-linecap="round" stroke-width="2"/><line x1="65.14229576253638" y1="34.51197670408783" x2="64.76484958207948" y2="35.12328891633206" stroke="#030303" stroke-linecap="round" stroke-width="2"/><line x1="64.76484958207948" y1="35.12328891633206" x2="64.35303654415111" y2="35.743530735324384" stroke="#030303" stroke-linecap="round" stroke-width="2"/><line x1="64.35303654415111" y1="35.743530735324384" x2="63.90629707831249" y2="36.37282445051915" stroke="#030303" stroke-linecap="round" stroke-width="2"/><line x1="63.90629707831249" y1="36.37282445051915" x2="63.4240716141212" y2="37.011292351371594" stroke="#030303" stroke-linecap="round" stroke-width="2"/><line x1="63.4240716141212" y1="37.011292351371594" x2="62.90580058113119" y2="37.659056727337884" stroke="#030303" stroke-linecap="round" stroke-width="2"/><line x1="62.90580058113119" y1="37.659056727337884" x2="62.63297311057249" y2="37.9864633089428" stroke="#030303" stroke-linecap="round" stroke-width="2"/><line x1="62.63297311057249" y1="37.9864633089428" x2="62.29924712285356" y2="38.39092229965445" stroke="#030303" stroke-linecap="round" stroke-width="2"/><line x1="62.29924712285356" y1="38.39092229965445" x2="61.67867900793135" y2="39.166754033893085" stroke="#030303" stroke-linecap="round" stroke-width="2"/><line x1="61.67867900793135" y1="39.166754033893085" x2="61.11855242641468" y2="39.89951039240077" stroke="#030303" stroke-linecap="round" stroke-width="2"/><line x1="61.11855242641468" y1="39.89951039240077" x2="60.61638304157168" y2="40.59043891978945" stroke="#030303" stroke-linecap="round" stroke-width="2"/><line x1="60.61638304157168" y1="40.59043891978945" x2="60.16968651665593" y2="41.24078716067288" stroke="#030303" stroke-linecap="round" stroke-width="2"/><line x1="60.16968651665593" y1="41.24078716067288" x2="59.77597851493556" y2="41.85180265966483" stroke="#030303" stroke-linecap="round" stroke-width="2"/><line x1="59.77597851493556" y1="41.85180265966483" x2="59.432774699675065" y2="42.42473296137905" stroke="#030303" stroke-linecap="round" stroke-width="2"/><line x1="59.432774699675065" y1="42.42473296137905" x2="59.137590734128025" y2="42.96082561042749" stroke="#030303" stroke-linecap="round" stroke-width="2"/><line x1="59.137590734128025" y1="42.96082561042749" x2="58.88794228156621" y2="43.46132815142573" stroke="#030303" stroke-linecap="round" stroke-width="2"/><line x1="58.88794228156621" y1="43.46132815142573" x2="58.6813450052432" y2="43.927488128985715" stroke="#030303" stroke-linecap="round" stroke-width="2"/><line x1="58.6813450052432" y1="43.927488128985715" x2="58.51531456842713" y2="44.36055308772211" stroke="#030303" stroke-linecap="round" stroke-width="2"/><line x1="58.51531456842713" y1="44.36055308772211" x2="58.38736663437885" y2="44.76177057224777" stroke="#030303" stroke-linecap="round" stroke-width="2"/><line x1="58.38736663437885" y1="44.76177057224777" x2="58.29501686635922" y2="45.132388127176455" stroke="#030303" stroke-linecap="round" stroke-width="2"/><line x1="58.29501686635922" y1="45.132388127176455" x2="58.23578092763273" y2="45.47365329712011" stroke="#030303" stroke-linecap="round" stroke-width="2"/><line x1="58.23578092763273" y1="45.47365329712011" x2="58.207174481456605" y2="45.78681362669522" stroke="#030303" stroke-linecap="round" stroke-width="2"/><line x1="58.207174481456605" y1="45.78681362669522" x2="58.16597560716764" y2="45.969506124735744" stroke="#030303" stroke-linecap="round" stroke-width="2"/><line x1="43.708655591231945" y1="80.08325823261566" x2="44.39891199225531" y2="79.79909469660197" stroke="#030303" stroke-linecap="round" stroke-width="2"/><line x1="44.39891199225531" y1="79.79909469660197" x2="44.75871451817147" y2="79.66235794671138" stroke="#030303" stroke-linecap="round" stroke-width="2"/><line x1="44.75871451817147" y1="79.66235794671138" x2="45.52251225231885" y2="79.28642819168635" stroke="#030303" stroke-linecap="round" stroke-width="2"/><line x1="45.52251225231885" y1="79.28642819168635" x2="47.05944134382662" y2="78.49141371727819" stroke="#030303" stroke-linecap="round" stroke-width="2"/><line x1="47.05944134382662" y1="78.49141371727819" x2="48.59235575984712" y2="77.63678449559211" stroke="#030303" stroke-linecap="round" stroke-width="2"/><line x1="48.59235575984712" y1="77.63678449559211" x2="49.72752523487361" y2="76.9551926589329" stroke="#030303" stroke-linecap="round" stroke-width="2"/><line x1="49.72752523487361" y1="76.9551926589329" x2="50.47276310728557" y2="76.48087174588818" stroke="#030303" stroke-linecap="round" stroke-width="2"/><line x1="50.47276310728557" y1="76.48087174588818" x2="51.205887143984" y2="75.99024665953675" stroke="#030303" stroke-linecap="round" stroke-width="2"/><line x1="51.205887143984" y1="75.99024665953675" x2="51.92442841900629" y2="75.48300618065878" stroke="#030303" stroke-linecap="round" stroke-width="2"/><line x1="43.886867709206854" y1="83.30126743219716" x2="44.562734201455896" y2="82.97825566413485" stroke="#030303" stroke-linecap="round" stroke-width="2"/><line x1="44.562734201455896" y1="82.97825566413485" x2="45.25519249973513" y2="82.69008303832743" stroke="#030303" stroke-linecap="round" stroke-width="2"/><line x1="45.25519249973513" y1="82.69008303832743" x2="45.954367257603735" y2="82.44134591221155" stroke="#030303" stroke-linecap="round" stroke-width="2"/><line x1="45.954367257603735" y1="82.44134591221155" x2="46.650383128606336" y2="82.23664064322838" stroke="#030303" stroke-linecap="round" stroke-width="2"/><line x1="46.650383128606336" y1="82.23664064322838" x2="46.99412043577104" y2="82.15223631685967" stroke="#030303" stroke-linecap="round" stroke-width="2"/><line x1="46.99412043577104" y1="82.15223631685967" x2="48.31079359512296" y2="81.546941186396" stroke="#030303" stroke-linecap="round" stroke-width="2"/><line x1="48.31079359512296" y1="81.546941186396" x2="50.913364665855624" y2="80.31259705306638" stroke="#030303" stroke-linecap="round" stroke-width="2"/><line x1="50.913364665855624" y1="80.31259705306638" x2="52.82073815798867" y2="79.36220219687402" stroke="#030303" stroke-linecap="round" stroke-width="2"/><line x1="52.82073815798867" y1="79.36220219687402" x2="54.062710352816794" y2="78.71503949558246" stroke="#030303" stroke-linecap="round" stroke-width="2"/><line x1="54.062710352816794" y1="78.71503949558246" x2="55.27577178357751" y2="78.0558825216458" stroke="#030303" stroke-linecap="round" stroke-width="2"/><line x1="55.27577178357751" y1="78.0558825216458" x2="56.45544588673147" y2="77.38375295941933" stroke="#030303" stroke-linecap="round" stroke-width="2"/><line x1="56.45544588673147" y1="77.38375295941933" x2="57.59725609873567" y2="76.69767249325923" stroke="#030303" stroke-linecap="round" stroke-width="2"/><line x1="57.59725609873567" y1="76.69767249325923" x2="58.6967258560544" y2="75.99666280752535" stroke="#030303" stroke-linecap="round" stroke-width="2"/><line x1="58.6967258560544" y1="75.99666280752535" x2="59.74937859515194" y2="75.27974558657297" stroke="#030303" stroke-linecap="round" stroke-width="2"/></svg>