<svg xmlns="http://www.w3.org/2000/svg" width="33.841758974882396" height="53.285514907703146"><line x1="31.841758974882396" y1="2" x2="2" y2="2" stroke="#ffc32c" stroke-linecap="round" stroke-width="2"/><line x1="31.841758974882396" y1="3.180000000000291" x2="2" y2="3.180000000000291" stroke="#ffc32c" stroke-linecap="round" stroke-width="2"/><line x1="31.841758974882396" y1="4.360000000000582" x2="2" y2="4.360000000000582" stroke="#ffc32c" stroke-linecap="round" stroke-width="2"/><line x1="31.841758974882396" y1="5.539999999999964" x2="2" y2="5.539999999999964" stroke="#ffc32c" stroke-linecap="round" stroke-width="2"/><line x1="31.841758974882396" y1="6.720000000000255" x2="2" y2="6.720000000000255" stroke="#ffc32c" stroke-linecap="round" stroke-width="2"/><line x1="31.841758974882396" y1="7.900000000000546" x2="2" y2="7.900000000000546" stroke="#ffc32c" stroke-linecap="round" stroke-width="2"/><line x1="31.841758974882396" y1="9.080000000000837" x2="2" y2="9.080000000000837" stroke="#ffc32c" stroke-linecap="round" stroke-width="2"/><line x1="31.841758974882396" y1="10.260000000000218" x2="2" y2="10.260000000000218" stroke="#ffc32c" stroke-linecap="round" stroke-width="2"/><line x1="31.841758974882396" y1="11.44000000000051" x2="2" y2="11.44000000000051" stroke="#ffc32c" stroke-linecap="round" stroke-width="2"/><line x1="31.841758974882396" y1="12.6200000000008" x2="2" y2="12.6200000000008" stroke="#ffc32c" stroke-linecap="round" stroke-width="2"/><line x1="31.841758974882396" y1="13.800000000000182" x2="2" y2="13.800000000000182" stroke="#ffc32c" stroke-linecap="round" stroke-width="2"/><line x1="31.841758974882396" y1="14.980000000000473" x2="2" y2="14.980000000000473" stroke="#ffc32c" stroke-linecap="round" stroke-width="2"/><line x1="31.841758974882396" y1="16.160000000000764" x2="2" y2="16.160000000000764" stroke="#ffc32c" stroke-linecap="round" stroke-width="2"/><line x1="31.841758974882396" y1="17.340000000000146" x2="2" y2="17.340000000000146" stroke="#ffc32c" stroke-linecap="round" stroke-width="2"/><line x1="31.841758974882396" y1="18.520000000000437" x2="2" y2="18.520000000000437" stroke="#ffc32c" stroke-linecap="round" stroke-width="2"/><line x1="31.841758974882396" y1="19.700000000000728" x2="2" y2="19.700000000000728" stroke="#ffc32c" stroke-linecap="round" stroke-width="2"/><line x1="31.841758974882396" y1="20.88000000000011" x2="2" y2="20.88000000000011" stroke="#ffc32c" stroke-linecap="round" stroke-width="2"/><line x1="31.841758974882396" y1="22.0600000000004" x2="2" y2="22.0600000000004" stroke="#ffc32c" stroke-linecap="round" stroke-width="2"/><line x1="31.841758974882396" y1="23.24000000000069" x2="2" y2="23.24000000000069" stroke="#ffc32c" stroke-linecap="round" stroke-width="2"/><line x1="31.841758974882396" y1="24.420000000000982" x2="2" y2="24.420000000000982" stroke="#ffc32c" stroke-linecap="round" stroke-width="2"/><line x1="31.841758974882396" y1="25.600000000000364" x2="2" y2="25.600000000000364" stroke="#ffc32c" stroke-linecap="round" stroke-width="2"/><line x1="31.841758974882396" y1="26.780000000000655" x2="2" y2="26.780000000000655" stroke="#ffc32c" stroke-linecap="round" stroke-width="2"/><line x1="31.841758974882396" y1="27.960000000000946" x2="2" y2="27.960000000000946" stroke="#ffc32c" stroke-linecap="round" stroke-width="2"/><line x1="31.841758974882396" y1="29.140000000000327" x2="2" y2="29.140000000000327" stroke="#ffc32c" stroke-linecap="round" stroke-width="2"/><line x1="31.841758974882396" y1="30.32000000000062" x2="2" y2="30.32000000000062" stroke="#ffc32c" stroke-linecap="round" stroke-width="2"/><line x1="31.841758974882396" y1="31.50000000000091" x2="2" y2="31.50000000000091" stroke="#ffc32c" stroke-linecap="round" stroke-width="2"/><line x1="31.841758974882396" y1="32.6800000000012" x2="2" y2="32.6800000000012" stroke="#ffc32c" stroke-linecap="round" stroke-width="2"/><line x1="31.841758974882396" y1="33.86000000000058" x2="2" y2="33.86000000000058" stroke="#ffc32c" stroke-linecap="round" stroke-width="2"/><line x1="31.841758974882396" y1="35.04000000000087" x2="2" y2="35.04000000000087" stroke="#ffc32c" stroke-linecap="round" stroke-width="2"/><line x1="31.841758974882396" y1="36.220000000001164" x2="2" y2="36.220000000001164" stroke="#ffc32c" stroke-linecap="round" stroke-width="2"/><line x1="31.841758974882396" y1="37.400000000000546" x2="2" y2="37.400000000000546" stroke="#ffc32c" stroke-linecap="round" stroke-width="2"/><line x1="31.841758974882396" y1="38.58000000000084" x2="2" y2="38.58000000000084" stroke="#ffc32c" stroke-linecap="round" stroke-width="2"/><line x1="31.841758974882396" y1="39.76000000000113" x2="2" y2="39.76000000000113" stroke="#ffc32c" stroke-linecap="round" stroke-width="2"/><line x1="31.841758974882396" y1="40.94000000000051" x2="2" y2="40.94000000000051" stroke="#ffc32c" stroke-linecap="round" stroke-width="2"/><line x1="31.841758974882396" y1="42.1200000000008" x2="2" y2="42.1200000000008" stroke="#ffc32c" stroke-linecap="round" stroke-width="2"/><line x1="31.841758974882396" y1="43.30000000000109" x2="2" y2="43.30000000000109" stroke="#ffc32c" stroke-linecap="round" stroke-width="2"/><line x1="31.841758974882396" y1="44.48000000000047" x2="2" y2="44.48000000000047" stroke="#ffc32c" stroke-linecap="round" stroke-width="2"/><line x1="31.841758974882396" y1="45.660000000000764" x2="2" y2="45.660000000000764" stroke="#ffc32c" stroke-linecap="round" stroke-width="2"/><line x1="31.841758974882396" y1="46.840000000001055" x2="2" y2="46.840000000001055" stroke="#ffc32c" stroke-linecap="round" stroke-width="2"/><line x1="31.841758974882396" y1="48.020000000001346" x2="2" y2="48.020000000001346" stroke="#ffc32c" stroke-linecap="round" stroke-width="2"/><line x1="31.841758974882396" y1="49.20000000000073" x2="2" y2="49.20000000000073" stroke="#ffc32c" stroke-linecap="round" stroke-width="2"/><line x1="31.841758974882396" y1="50.38000000000102" x2="2" y2="50.38000000000102" stroke="#ffc32c" stroke-linecap="round" stroke-width="2"/><line x1="10.686528146252385" y1="25.408053837113584" x2="10.686528146252385" y2="11.397022772268429" stroke="#000000" stroke-linecap="round" stroke-width="6"/><line x1="9.50910056291832" y1="10.862972982326028" x2="16.920879487443017" y2="10.862972982326028" stroke="#000000" stroke-linecap="round" stroke-width="6"/><line x1="23.15523082863365" y1="25.408053837113584" x2="23.15523082863365" y2="11.397022772268429" stroke="#000000" stroke-linecap="round" stroke-width="6"/><line x1="24.332658411967714" y1="10.862972982326028" x2="16.920879487443017" y2="10.862972982326028" stroke="#000000" stroke-linecap="round" stroke-width="6"/><line x1="10.686528146252385" y1="25.408053837113584" x2="10.686528146252385" y2="39.41908490195874" stroke="#000000" stroke-linecap="round" stroke-width="6"/><line x1="9.50910056291832" y1="39.95313469190114" x2="16.920879487443017" y2="39.95313469190114" stroke="#000000" stroke-linecap="round" stroke-width="6"/><line x1="23.15523082863365" y1="25.408053837113584" x2="23.15523082863365" y2="39.41908490195874" stroke="#000000" stroke-linecap="round" stroke-width="6"/><line x1="24.332658411967714" y1="39.95313469190114" x2="16.920879487443017" y2="39.95313469190114" stroke="#000000" stroke-linecap="round" stroke-width="6"/><line x1="10.686528146252385" y1="25.408053837113584" x2="10.686528146252385" y2="11.397022772268429" stroke="#f7bc26" stroke-linecap="round" stroke-width="2"/><line x1="9.50910056291832" y1="10.862972982326028" x2="16.920879487443017" y2="10.862972982326028" stroke="#f7bc26" stroke-linecap="round" stroke-width="2"/><line x1="23.15523082863365" y1="25.408053837113584" x2="23.15523082863365" y2="11.397022772268429" stroke="#f7bc26" stroke-linecap="round" stroke-width="2"/><line x1="24.332658411967714" y1="10.862972982326028" x2="16.920879487443017" y2="10.862972982326028" stroke="#f7bc26" stroke-linecap="round" stroke-width="2"/><line x1="2" y1="51.285514907703146" x2="2" y2="2" stroke="#030303" stroke-linecap="round" stroke-width="2"/><line x1="2" y1="2" x2="31.841758974882396" y2="2" stroke="#030303" stroke-linecap="round" stroke-width="2"/><line x1="2" y1="51.285514907703146" x2="31.841758974882396" y2="51.285514907703146" stroke="#030303" stroke-linecap="round" stroke-width="2"/><line x1="31.841758974882396" y1="51.285514907703146" x2="31.841758974882396" y2="2" stroke="#030303" stroke-linecap="round" stroke-width="2"/></svg>