<svg xmlns="http://www.w3.org/2000/svg" width="33.841758974882396" height="53.285514907703146"><line x1="31.841758974882396" y1="15.88551490770169" x2="2" y2="15.88551490770169" stroke="#792020" stroke-linecap="round" stroke-width="2"/><line x1="31.841758974882396" y1="14.705514907702309" x2="2" y2="14.705514907702309" stroke="#792020" stroke-linecap="round" stroke-width="2"/><line x1="31.841758974882396" y1="13.525514907702018" x2="2" y2="13.525514907702018" stroke="#792020" stroke-linecap="round" stroke-width="2"/><line x1="31.841758974882396" y1="12.345514907701727" x2="2" y2="12.345514907701727" stroke="#792020" stroke-linecap="round" stroke-width="2"/><line x1="31.841758974882396" y1="11.165514907702345" x2="2" y2="11.165514907702345" stroke="#792020" stroke-linecap="round" stroke-width="2"/><line x1="31.841758974882396" y1="9.985514907702054" x2="2" y2="9.985514907702054" stroke="#792020" stroke-linecap="round" stroke-width="2"/><line x1="31.841758974882396" y1="8.805514907701763" x2="2" y2="8.805514907701763" stroke="#792020" stroke-linecap="round" stroke-width="2"/><line x1="31.841758974882396" y1="7.625514907702382" x2="2" y2="7.625514907702382" stroke="#792020" stroke-linecap="round" stroke-width="2"/><line x1="31.841758974882396" y1="6.445514907702091" x2="2" y2="6.445514907702091" stroke="#792020" stroke-linecap="round" stroke-width="2"/><line x1="31.841758974882396" y1="5.2655149077017995" x2="2" y2="5.2655149077017995" stroke="#792020" stroke-linecap="round" stroke-width="2"/><line x1="31.841758974882396" y1="4.085514907702418" x2="2" y2="4.085514907702418" stroke="#792020" stroke-linecap="round" stroke-width="2"/><line x1="31.841758974882396" y1="2.905514907702127" x2="2" y2="2.905514907702127" stroke="#792020" stroke-linecap="round" stroke-width="2"/><line x1="31.841758974882396" y1="51.285514907703146" x2="2" y2="51.285514907703146" stroke="#792020" stroke-linecap="round" stroke-width="2"/><line x1="31.841758974882396" y1="50.105514907702855" x2="2" y2="50.105514907702855" stroke="#792020" stroke-linecap="round" stroke-width="2"/><line x1="31.841758974882396" y1="48.92551490770256" x2="2" y2="48.92551490770256" stroke="#792020" stroke-linecap="round" stroke-width="2"/><line x1="31.841758974882396" y1="47.74551490770227" x2="2" y2="47.74551490770227" stroke="#792020" stroke-linecap="round" stroke-width="2"/><line x1="31.841758974882396" y1="46.56551490770289" x2="2" y2="46.56551490770289" stroke="#792020" stroke-linecap="round" stroke-width="2"/><line x1="31.841758974882396" y1="45.3855149077026" x2="2" y2="45.3855149077026" stroke="#792020" stroke-linecap="round" stroke-width="2"/><line x1="31.841758974882396" y1="44.20551490770231" x2="2" y2="44.20551490770231" stroke="#792020" stroke-linecap="round" stroke-width="2"/><line x1="31.841758974882396" y1="43.02551490770293" x2="2" y2="43.02551490770293" stroke="#792020" stroke-linecap="round" stroke-width="2"/><line x1="31.841758974882396" y1="41.845514907702636" x2="2" y2="41.845514907702636" stroke="#792020" stroke-linecap="round" stroke-width="2"/><line x1="31.841758974882396" y1="40.665514907702345" x2="2" y2="40.665514907702345" stroke="#792020" stroke-linecap="round" stroke-width="2"/><line x1="31.841758974882396" y1="39.485514907702054" x2="2" y2="39.485514907702054" stroke="#792020" stroke-linecap="round" stroke-width="2"/><line x1="31.841758974882396" y1="38.30551490770267" x2="2" y2="38.30551490770267" stroke="#792020" stroke-linecap="round" stroke-width="2"/><line x1="31.841758974882396" y1="37.12551490770238" x2="2" y2="37.12551490770238" stroke="#792020" stroke-linecap="round" stroke-width="2"/><line x1="31.841758974882396" y1="35.94551490770209" x2="2" y2="35.94551490770209" stroke="#792020" stroke-linecap="round" stroke-width="2"/><line x1="31.841758974882396" y1="34.76551490770271" x2="2" y2="34.76551490770271" stroke="#792020" stroke-linecap="round" stroke-width="2"/><line x1="31.841758974882396" y1="33.58551490770242" x2="2" y2="33.58551490770242" stroke="#792020" stroke-linecap="round" stroke-width="2"/><line x1="31.841758974882396" y1="32.40551490770213" x2="2" y2="32.40551490770213" stroke="#792020" stroke-linecap="round" stroke-width="2"/><line x1="31.841758974882396" y1="31.225514907702745" x2="2" y2="31.225514907702745" stroke="#792020" stroke-linecap="round" stroke-width="2"/><line x1="31.841758974882396" y1="30.045514907702454" x2="2" y2="30.045514907702454" stroke="#792020" stroke-linecap="round" stroke-width="2"/><line x1="31.841758974882396" y1="28.865514907702163" x2="2" y2="28.865514907702163" stroke="#792020" stroke-linecap="round" stroke-width="2"/><line x1="31.841758974882396" y1="27.685514907702782" x2="2" y2="27.685514907702782" stroke="#792020" stroke-linecap="round" stroke-width="2"/><line x1="31.841758974882396" y1="26.50551490770249" x2="2" y2="26.50551490770249" stroke="#792020" stroke-linecap="round" stroke-width="2"/><line x1="31.841758974882396" y1="25.3255149077022" x2="2" y2="25.3255149077022" stroke="#792020" stroke-linecap="round" stroke-width="2"/><line x1="31.841758974882396" y1="24.14551490770191" x2="2" y2="24.14551490770191" stroke="#792020" stroke-linecap="round" stroke-width="2"/><line x1="31.841758974882396" y1="22.965514907702527" x2="2" y2="22.965514907702527" stroke="#792020" stroke-linecap="round" stroke-width="2"/><line x1="31.841758974882396" y1="21.785514907702236" x2="2" y2="21.785514907702236" stroke="#792020" stroke-linecap="round" stroke-width="2"/><line x1="31.841758974882396" y1="20.605514907701945" x2="2" y2="20.605514907701945" stroke="#792020" stroke-linecap="round" stroke-width="2"/><line x1="31.841758974882396" y1="19.425514907702564" x2="2" y2="19.425514907702564" stroke="#792020" stroke-linecap="round" stroke-width="2"/><line x1="31.841758974882396" y1="18.245514907702272" x2="2" y2="18.245514907702272" stroke="#792020" stroke-linecap="round" stroke-width="2"/><line x1="31.841758974882396" y1="17.06551490770198" x2="2" y2="17.06551490770198" stroke="#792020" stroke-linecap="round" stroke-width="2"/><line x1="10.686528146252385" y1="27.87746107058956" x2="10.686528146252385" y2="13.866430005744405" stroke="#000000" stroke-linecap="round" stroke-width="6"/><line x1="9.50910056291832" y1="13.332380215802004" x2="16.920879487443017" y2="13.332380215802004" stroke="#000000" stroke-linecap="round" stroke-width="6"/><line x1="23.15523082863365" y1="27.87746107058956" x2="23.15523082863365" y2="13.866430005744405" stroke="#000000" stroke-linecap="round" stroke-width="6"/><line x1="24.332658411964076" y1="13.332380215802004" x2="16.920879487443017" y2="13.332380215802004" stroke="#000000" stroke-linecap="round" stroke-width="6"/><line x1="10.686528146252385" y1="27.87746107058956" x2="10.686528146252385" y2="41.88849213543381" stroke="#000000" stroke-linecap="round" stroke-width="6"/><line x1="9.50910056291832" y1="42.42254192537712" x2="16.920879487443017" y2="42.42254192537712" stroke="#000000" stroke-linecap="round" stroke-width="6"/><line x1="23.15523082863365" y1="27.87746107058956" x2="23.15523082863365" y2="41.88849213543381" stroke="#000000" stroke-linecap="round" stroke-width="6"/><line x1="24.332658411964076" y1="42.42254192537712" x2="16.920879487443017" y2="42.42254192537712" stroke="#000000" stroke-linecap="round" stroke-width="6"/><line x1="10.686528146252385" y1="27.87746107058956" x2="10.686528146252385" y2="41.88849213543381" stroke="#f7bc26" stroke-linecap="round" stroke-width="2"/><line x1="9.50910056291832" y1="42.42254192537712" x2="16.920879487443017" y2="42.42254192537712" stroke="#f7bc26" stroke-linecap="round" stroke-width="2"/><line x1="23.15523082863365" y1="27.87746107058956" x2="23.15523082863365" y2="41.88849213543381" stroke="#f7bc26" stroke-linecap="round" stroke-width="2"/><line x1="24.332658411964076" y1="42.42254192537712" x2="16.920879487443017" y2="42.42254192537712" stroke="#f7bc26" stroke-linecap="round" stroke-width="2"/><line x1="2" y1="2" x2="2" y2="51.285514907703146" stroke="#030303" stroke-linecap="round" stroke-width="2"/><line x1="2" y1="2" x2="31.841758974882396" y2="2" stroke="#030303" stroke-linecap="round" stroke-width="2"/><line x1="31.841758974882396" y1="2" x2="31.841758974882396" y2="51.285514907703146" stroke="#030303" stroke-linecap="round" stroke-width="2"/><line x1="2" y1="51.285514907703146" x2="31.841758974882396" y2="51.285514907703146" stroke="#030303" stroke-linecap="round" stroke-width="2"/></svg>