<svg xmlns="http://www.w3.org/2000/svg" width="49.914834703173256" height="56.04676801144069"><line x1="3.180000000000291" y1="8.230640991057044" x2="3.180000000000291" y2="20.738234910689243" stroke="#792020" stroke-linecap="round" stroke-width="2"/><line x1="4.359999999996944" y1="8.178384145766358" x2="4.359999999996944" y2="25.95179365578224" stroke="#792020" stroke-linecap="round" stroke-width="2"/><line x1="5.539999999997235" y1="8.1170353486159" x2="5.539999999997235" y2="29.786910350161634" stroke="#792020" stroke-linecap="round" stroke-width="2"/><line x1="6.719999999997526" y1="8.055686551464532" x2="6.719999999997526" y2="32.89175941042049" stroke="#792020" stroke-linecap="round" stroke-width="2"/><line x1="7.899999999997817" y1="7.956386389381805" x2="7.899999999997817" y2="35.530729303859516" stroke="#792020" stroke-linecap="round" stroke-width="2"/><line x1="9.079999999998108" y1="7.844028158230685" x2="9.079999999998108" y2="37.832201062788045" stroke="#792020" stroke-linecap="round" stroke-width="2"/><line x1="10.2599999999984" y1="7.687224215905189" x2="10.2599999999984" y2="39.86258617756448" stroke="#792020" stroke-linecap="round" stroke-width="2"/><line x1="11.43999999999869" y1="7.483241725100925" x2="11.43999999999869" y2="41.68726028174933" stroke="#792020" stroke-linecap="round" stroke-width="2"/><line x1="12.619999999998981" y1="7.2248803323882385" x2="12.619999999998981" y2="43.34632636619517" stroke="#792020" stroke-linecap="round" stroke-width="2"/><line x1="13.799999999999272" y1="6.908835460470073" x2="13.799999999999272" y2="44.83716397330318" stroke="#792020" stroke-linecap="round" stroke-width="2"/><line x1="14.979999999995925" y1="6.536331890561087" x2="14.979999999995925" y2="46.20341965480566" stroke="#792020" stroke-linecap="round" stroke-width="2"/><line x1="16.159999999996217" y1="6.112495873422631" x2="16.159999999996217" y2="47.45715812031267" stroke="#792020" stroke-linecap="round" stroke-width="2"/><line x1="17.339999999996508" y1="5.6401456294652235" x2="17.339999999996508" y2="48.60844156962776" stroke="#792020" stroke-linecap="round" stroke-width="2"/><line x1="18.5199999999968" y1="5.122893671820748" x2="18.5199999999968" y2="49.66576287596126" stroke="#792020" stroke-linecap="round" stroke-width="2"/><line x1="19.69999999999709" y1="4.597606117312353" x2="19.69999999999709" y2="50.6363276052316" stroke="#792020" stroke-linecap="round" stroke-width="2"/><line x1="20.87999999999738" y1="4.024431506315523" x2="20.87999999999738" y2="51.52627625963942" stroke="#792020" stroke-linecap="round" stroke-width="2"/><line x1="22.05999999999767" y1="3.4512568953177833" x2="22.05999999999767" y2="52.33872978933687" stroke="#792020" stroke-linecap="round" stroke-width="2"/><line x1="23.239999999997963" y1="2.873010674692523" x2="23.239999999997963" y2="53.08141521462585" stroke="#792020" stroke-linecap="round" stroke-width="2"/><line x1="24.419999999998254" y1="2.273184083220258" x2="24.419999999998254" y2="53.758954752326645" stroke="#792020" stroke-linecap="round" stroke-width="2"/><line x1="25.599999999998545" y1="2.3266425082510978" x2="25.599999999998545" y2="53.700729918377874" stroke="#792020" stroke-linecap="round" stroke-width="2"/><line x1="26.779999999998836" y1="2.926469099723363" x2="26.779999999998836" y2="53.01811354882011" stroke="#792020" stroke-linecap="round" stroke-width="2"/><line x1="27.959999999999127" y1="3.502340012350942" x2="27.959999999999127" y2="52.268279255529706" stroke="#792020" stroke-linecap="round" stroke-width="2"/><line x1="29.139999999999418" y1="4.075514623347772" x2="29.139999999999418" y2="51.44732223584833" stroke="#792020" stroke-linecap="round" stroke-width="2"/><line x1="30.31999999999971" y1="4.646540812512285" x2="30.31999999999971" y2="50.550700563560895" stroke="#792020" stroke-linecap="round" stroke-width="2"/><line x1="31.5" y1="5.169501573198431" x2="31.5" y2="49.5731202833058" stroke="#792020" stroke-linecap="round" stroke-width="2"/><line x1="32.68000000000029" y1="5.6822429630337865" x2="32.68000000000029" y2="48.50839291927514" stroke="#792020" stroke-linecap="round" stroke-width="2"/><line x1="33.859999999996944" y1="6.150672312284769" x2="33.859999999996944" y2="47.34925756184748" stroke="#792020" stroke-linecap="round" stroke-width="2"/><line x1="35.039999999997235" y1="6.573029618729379" x2="35.039999999997235" y2="46.08715701754318" stroke="#792020" stroke-linecap="round" stroke-width="2"/><line x1="36.219999999997526" y1="6.941691787976197" x2="36.219999999997526" y2="44.7119537575154" stroke="#792020" stroke-linecap="round" stroke-width="2"/><line x1="37.39999999999782" y1="7.252578192029432" x2="37.39999999999782" y2="43.2010917930902" stroke="#792020" stroke-linecap="round" stroke-width="2"/><line x1="38.57999999999811" y1="7.5057970069974544" x2="38.57999999999811" y2="41.53071578881281" stroke="#792020" stroke-linecap="round" stroke-width="2"/><line x1="39.7599999999984" y1="7.704959047241573" x2="39.7599999999984" y2="39.693669786383" stroke="#792020" stroke-linecap="round" stroke-width="2"/><line x1="40.93999999999869" y1="7.857522166630588" x2="40.93999999999869" y2="37.63455188197531" stroke="#792020" stroke-linecap="round" stroke-width="2"/><line x1="42.11999999999898" y1="7.9656609359708455" x2="42.11999999999898" y2="35.31618892300958" stroke="#792020" stroke-linecap="round" stroke-width="2"/><line x1="43.29999999999927" y1="8.061154148466812" x2="43.29999999999927" y2="32.63647378254336" stroke="#792020" stroke-linecap="round" stroke-width="2"/><line x1="44.47999999999956" y1="8.12250294561727" x2="44.47999999999956" y2="29.47749275379647" stroke="#792020" stroke-linecap="round" stroke-width="2"/><line x1="45.659999999999854" y1="8.183851742768638" x2="45.659999999999854" y2="25.566300272700573" stroke="#792020" stroke-linecap="round" stroke-width="2"/><line x1="46.83999999999651" y1="8.234473710888778" x2="46.83999999999651" y2="20.152739947265218" stroke="#792020" stroke-linecap="round" stroke-width="2"/><line x1="27.296395563800615" y1="3.1799999999993815" x2="22.61843913937264" y2="3.1799999999993815" stroke="#f7bc26" stroke-linecap="round" stroke-width="2"/><line x1="29.725672739175934" y1="4.359999999999673" x2="20.18916196399732" y2="4.359999999999673" stroke="#f7bc26" stroke-linecap="round" stroke-width="2"/><line x1="32.33598651465218" y1="5.539999999999964" x2="17.57884818852108" y2="5.539999999999964" stroke="#f7bc26" stroke-linecap="round" stroke-width="2"/><line x1="35.510417266443255" y1="6.719999999999345" x2="14.404417436726362" y2="6.719999999999345" stroke="#f7bc26" stroke-linecap="round" stroke-width="2"/><line x1="41.37546205900071" y1="7.899999999999636" x2="8.539372644172545" y2="7.899999999999636" stroke="#f7bc26" stroke-linecap="round" stroke-width="2"/><line x1="47.899630974676256" y1="9.079999999999018" x2="26.086913322495093" y2="9.079999999999018" stroke="#f7bc26" stroke-linecap="round" stroke-width="2"/><line x1="23.827921380674525" y1="9.079999999999018" x2="2.0152037284969992" y2="9.079999999999018" stroke="#f7bc26" stroke-linecap="round" stroke-width="2"/><line x1="47.85927508304667" y1="10.259999999999309" x2="28.500986579059827" y2="10.259999999999309" stroke="#f7bc26" stroke-linecap="round" stroke-width="2"/><line x1="21.41384812410979" y1="10.259999999999309" x2="2.055559620126587" y2="10.259999999999309" stroke="#f7bc26" stroke-linecap="round" stroke-width="2"/><line x1="47.813515253768855" y1="11.4399999999996" x2="31.180214062496816" y2="11.4399999999996" stroke="#f7bc26" stroke-linecap="round" stroke-width="2"/><line x1="18.73462064067644" y1="11.4399999999996" x2="2.101319449400762" y2="11.4399999999996" stroke="#f7bc26" stroke-linecap="round" stroke-width="2"/><line x1="47.73682744517282" y1="12.619999999998981" x2="35.103512575049535" y2="12.619999999998981" stroke="#f7bc26" stroke-linecap="round" stroke-width="2"/><line x1="14.811322128120082" y1="12.619999999998981" x2="2.1780072579967964" y2="12.619999999998981" stroke="#f7bc26" stroke-linecap="round" stroke-width="2"/><line x1="47.65249357069479" y1="13.799999999999272" x2="42.16437634367321" y2="13.799999999999272" stroke="#f7bc26" stroke-linecap="round" stroke-width="2"/><line x1="7.750458359496406" y1="13.799999999999272" x2="2.2623411324784684" y2="13.799999999999272" stroke="#f7bc26" stroke-linecap="round" stroke-width="2"/><line x1="47.542366911096906" y1="14.979999999998654" x2="42.12298519313117" y2="14.979999999998654" stroke="#f7bc26" stroke-linecap="round" stroke-width="2"/><line x1="7.791849510038446" y1="14.979999999998654" x2="2.3724677920763497" y2="14.979999999998654" stroke="#f7bc26" stroke-linecap="round" stroke-width="2"/><line x1="47.416379330570635" y1="16.159999999998945" x2="42.06242589442263" y2="16.159999999998945" stroke="#f7bc26" stroke-linecap="round" stroke-width="2"/><line x1="7.852408808750624" y1="16.159999999998945" x2="2.4984553725989826" y2="16.159999999998945" stroke="#f7bc26" stroke-linecap="round" stroke-width="2"/><line x1="47.27308097974674" y1="17.339999999999236" x2="41.98020338642891" y2="17.339999999999236" stroke="#f7bc26" stroke-linecap="round" stroke-width="2"/><line x1="7.934631316740706" y1="17.339999999999236" x2="2.6417537234228803" y2="17.339999999999236" stroke="#f7bc26" stroke-linecap="round" stroke-width="2"/><line x1="47.10310712371938" y1="18.519999999998618" x2="41.87007672683467" y2="18.519999999998618" stroke="#f7bc26" stroke-linecap="round" stroke-width="2"/><line x1="8.044757976338587" y1="18.519999999998618" x2="2.8117275794538727" y2="18.519999999998618" stroke="#f7bc26" stroke-linecap="round" stroke-width="2"/><line x1="46.92132013751325" y1="19.69999999999891" x2="41.73191398742347" y2="19.69999999999891" stroke="#f7bc26" stroke-linecap="round" stroke-width="2"/><line x1="8.182920715749788" y1="19.69999999999891" x2="2.993514565660007" y2="19.69999999999891" stroke="#f7bc26" stroke-linecap="round" stroke-width="2"/><line x1="46.70937117465655" y1="20.87999999999829" x2="41.56906446561334" y2="20.87999999999829" stroke="#f7bc26" stroke-linecap="round" stroke-width="2"/><line x1="8.34577023755628" y1="20.87999999999829" x2="3.2054635285130644" y2="20.87999999999829" stroke="#f7bc26" stroke-linecap="round" stroke-width="2"/><line x1="46.479111310673034" y1="22.05999999999858" x2="41.38020342367963" y2="22.05999999999858" stroke="#f7bc26" stroke-linecap="round" stroke-width="2"/><line x1="8.534631279489986" y1="22.05999999999858" x2="3.435723392500222" y2="22.05999999999858" stroke="#f7bc26" stroke-linecap="round" stroke-width="2"/><line x1="46.23152969742296" y1="23.239999999998872" x2="41.163907951839064" y2="23.239999999998872" stroke="#f7bc26" stroke-linecap="round" stroke-width="2"/><line x1="8.750926751334191" y1="23.239999999998872" x2="3.6833050057466608" y2="23.239999999998872" stroke="#f7bc26" stroke-linecap="round" stroke-width="2"/><line x1="45.94975879071353" y1="24.419999999998254" x2="40.91632633858899" y2="24.419999999998254" stroke="#f7bc26" stroke-linecap="round" stroke-width="2"/><line x1="8.99850836458063" y1="24.419999999998254" x2="3.9650759124560864" y2="24.419999999998254" stroke="#f7bc26" stroke-linecap="round" stroke-width="2"/><line x1="45.65080647819195" y1="25.599999999998545" x2="40.63443927726985" y2="25.599999999998545" stroke="#f7bc26" stroke-linecap="round" stroke-width="2"/><line x1="9.280395425903407" y1="25.599999999998545" x2="4.264028224981303" y2="25.599999999998545" stroke="#f7bc26" stroke-linecap="round" stroke-width="2"/><line x1="45.32889420757783" y1="26.779999999997926" x2="40.32082596148757" y2="26.779999999997926" stroke="#f7bc26" stroke-linecap="round" stroke-width="2"/><line x1="9.594008741685684" y1="26.779999999997926" x2="4.585940495595423" y2="26.779999999997926" stroke="#f7bc26" stroke-linecap="round" stroke-width="2"/><line x1="44.97247404388327" y1="27.959999999998217" x2="39.97355529254855" y2="27.959999999998217" stroke="#f7bc26" stroke-linecap="round" stroke-width="2"/><line x1="9.941279410621064" y1="27.959999999998217" x2="4.942360659286351" y2="27.959999999998217" stroke="#f7bc26" stroke-linecap="round" stroke-width="2"/><line x1="44.59470752163543" y1="29.13999999999851" x2="39.59050571735861" y2="29.13999999999851" stroke="#f7bc26" stroke-linecap="round" stroke-width="2"/><line x1="10.324328985811007" y1="29.13999999999851" x2="5.320127181537828" y2="29.13999999999851" stroke="#f7bc26" stroke-linecap="round" stroke-width="2"/><line x1="44.19364742772814" y1="30.3199999999988" x2="39.16933341031108" y2="30.3199999999988" stroke="#f7bc26" stroke-linecap="round" stroke-width="2"/><line x1="10.745501292858535" y1="30.3199999999988" x2="5.72118727544148" y2="30.3199999999988" stroke="#f7bc26" stroke-linecap="round" stroke-width="2"/><line x1="43.75112216881462" y1="31.49999999999818" x2="38.70743410406067" y2="31.49999999999818" stroke="#f7bc26" stroke-linecap="round" stroke-width="2"/><line x1="11.207400599112589" y1="31.49999999999818" x2="6.163712534358638" y2="31.49999999999818" stroke="#f7bc26" stroke-linecap="round" stroke-width="2"/><line x1="43.28206930951637" y1="32.67999999999847" x2="38.201897032256966" y2="32.67999999999847" stroke="#f7bc26" stroke-linecap="round" stroke-width="2"/><line x1="11.71293767091629" y1="32.67999999999847" x2="6.632765393656882" y2="32.67999999999847" stroke="#f7bc26" stroke-linecap="round" stroke-width="2"/><line x1="42.784295454042876" y1="33.85999999999876" x2="37.649449007349176" y2="33.85999999999876" stroke="#f7bc26" stroke-linecap="round" stroke-width="2"/><line x1="12.265385695820441" y1="33.85999999999876" x2="7.130539249126741" y2="33.85999999999876" stroke="#f7bc26" stroke-linecap="round" stroke-width="2"/><line x1="42.253043534867174" y1="35.039999999998145" x2="37.04638606946173" y2="35.039999999998145" stroke="#f7bc26" stroke-linecap="round" stroke-width="2"/><line x1="12.868448633711523" y1="35.039999999998145" x2="7.661791168302443" y2="35.039999999998145" stroke="#f7bc26" stroke-linecap="round" stroke-width="2"/><line x1="41.676961911740364" y1="36.219999999998436" x2="36.38848935162241" y2="36.219999999998436" stroke="#f7bc26" stroke-linecap="round" stroke-width="2"/><line x1="13.526345351550844" y1="36.219999999998436" x2="8.237872791429254" y2="36.219999999998436" stroke="#f7bc26" stroke-linecap="round" stroke-width="2"/><line x1="41.06480050859682" y1="37.39999999999873" x2="35.67092073072854" y2="37.39999999999873" stroke="#f7bc26" stroke-linecap="round" stroke-width="2"/><line x1="14.243913972441078" y1="37.39999999999873" x2="8.850034194576438" y2="37.39999999999873" stroke="#f7bc26" stroke-linecap="round" stroke-width="2"/><line x1="40.41328277141656" y1="38.57999999999811" x2="34.88794771736866" y2="38.57999999999811" stroke="#f7bc26" stroke-linecap="round" stroke-width="2"/><line x1="15.026886985800957" y1="38.57999999999811" x2="9.501551931753056" y2="38.57999999999811" stroke="#f7bc26" stroke-linecap="round" stroke-width="2"/><line x1="39.71870361334004" y1="39.7599999999984" x2="34.01989021847112" y2="39.7599999999984" stroke="#f7bc26" stroke-linecap="round" stroke-width="2"/><line x1="15.894944484702137" y1="39.7599999999984" x2="10.196131089833216" y2="39.7599999999984" stroke="#f7bc26" stroke-linecap="round" stroke-width="2"/><line x1="38.97683798583239" y1="40.93999999999869" x2="33.068231912904594" y2="40.93999999999869" stroke="#f7bc26" stroke-linecap="round" stroke-width="2"/><line x1="16.846602790265024" y1="40.93999999999869" x2="10.937996717340866" y2="40.93999999999869" stroke="#f7bc26" stroke-linecap="round" stroke-width="2"/><line x1="38.18282558268038" y1="42.11999999999807" x2="32.02205961976506" y2="42.11999999999807" stroke="#f7bc26" stroke-linecap="round" stroke-width="2"/><line x1="17.892775083408196" y1="42.11999999999807" x2="11.732009120489238" y2="42.11999999999807" stroke="#f7bc26" stroke-linecap="round" stroke-width="2"/><line x1="37.32837992555142" y1="43.29999999999836" x2="30.84095154176248" y2="43.29999999999836" stroke="#f7bc26" stroke-linecap="round" stroke-width="2"/><line x1="19.073883161410777" y1="43.29999999999836" x2="12.5864547776182" y2="43.29999999999836" stroke="#f7bc26" stroke-linecap="round" stroke-width="2"/><line x1="36.41065768235421" y1="44.479999999998654" x2="29.51836681203713" y2="44.479999999998654" stroke="#f7bc26" stroke-linecap="round" stroke-width="2"/><line x1="20.396467891136126" y1="44.479999999998654" x2="13.504177020819043" y2="44.479999999998654" stroke="#f7bc26" stroke-linecap="round" stroke-width="2"/><line x1="35.423726597957284" y1="45.659999999998945" x2="28.001996078452066" y2="45.659999999998945" stroke="#f7bc26" stroke-linecap="round" stroke-width="2"/><line x1="21.91283862472119" y1="45.659999999998945" x2="14.491108105215972" y2="45.659999999998945" stroke="#f7bc26" stroke-linecap="round" stroke-width="2"/><line x1="34.35634796533486" y1="46.83999999999833" x2="26.205402656178194" y2="46.83999999999833" stroke="#f7bc26" stroke-linecap="round" stroke-width="2"/><line x1="23.70943204699506" y1="46.83999999999833" x2="15.558486737838393" y2="46.83999999999833" stroke="#f7bc26" stroke-linecap="round" stroke-width="2"/><line x1="33.193370106866496" y1="48.01999999999862" x2="16.72146459630312" y2="48.01999999999862" stroke="#f7bc26" stroke-linecap="round" stroke-width="2"/><line x1="31.923555777328147" y1="49.19999999999891" x2="17.99127892584511" y2="49.19999999999891" stroke="#f7bc26" stroke-linecap="round" stroke-width="2"/><line x1="30.5296507725252" y1="50.37999999999829" x2="19.385183930644416" y2="50.37999999999829" stroke="#f7bc26" stroke-linecap="round" stroke-width="2"/><line x1="28.98624278582065" y1="51.55999999999858" x2="20.928591917352605" y2="51.55999999999858" stroke="#f7bc26" stroke-linecap="round" stroke-width="2"/><line x1="27.219995936793566" y1="52.73999999999887" x2="22.69483876637969" y2="52.73999999999887" stroke="#f7bc26" stroke-linecap="round" stroke-width="2"/><line x1="25.19412405920957" y1="53.91999999999916" x2="24.720710643963685" y2="53.91999999999916" stroke="#f7bc26" stroke-linecap="round" stroke-width="2"/><line x1="10.102786171315529" y1="28.488176183370342" x2="9.706127099743753" y2="27.190980489363938" stroke="#030303" stroke-linecap="round" stroke-width="2"/><line x1="9.706127099743753" y1="27.190980489363938" x2="9.34294136754761" y2="25.859688696183184" stroke="#030303" stroke-linecap="round" stroke-width="2"/><line x1="9.34294136754761" y1="25.859688696183184" x2="9.014163114425173" y2="24.49461218372744" stroke="#030303" stroke-linecap="round" stroke-width="2"/><line x1="9.014163114425173" y1="24.49461218372744" x2="8.720726480081794" y2="23.096062331899702" stroke="#030303" stroke-linecap="round" stroke-width="2"/><line x1="8.720726480081794" y1="23.096062331899702" x2="8.46356560422646" y2="21.664350520599328" stroke="#030303" stroke-linecap="round" stroke-width="2"/><line x1="8.46356560422646" y1="21.664350520599328" x2="8.243614626553608" y2="20.199788129728404" stroke="#030303" stroke-linecap="round" stroke-width="2"/><line x1="8.243614626553608" y1="20.199788129728404" x2="8.061807686775865" y2="18.702686539188107" stroke="#030303" stroke-linecap="round" stroke-width="2"/><line x1="8.061807686775865" y1="18.702686539188107" x2="7.919078924587666" y2="17.173357128878706" stroke="#030303" stroke-linecap="round" stroke-width="2"/><line x1="7.919078924587666" y1="17.173357128878706" x2="7.816362479698" y2="15.612111278702287" stroke="#030303" stroke-linecap="round" stroke-width="2"/><line x1="7.816362479698" y1="15.612111278702287" x2="7.75459249180858" y2="14.019260368560026" stroke="#030303" stroke-linecap="round" stroke-width="2"/><line x1="7.75459249180858" y1="14.019260368560026" x2="7.739354337893019" y2="13.211080322220369" stroke="#030303" stroke-linecap="round" stroke-width="2"/><line x1="24.957417351586628" y1="8.505846001429745" x2="23.500947546319367" y2="9.246209830984299" stroke="#030303" stroke-linecap="round" stroke-width="2"/><line x1="23.500947546319367" y1="9.246209830984299" x2="20.97334548237268" y2="10.473970279932473" stroke="#030303" stroke-linecap="round" stroke-width="2"/><line x1="20.97334548237268" y1="10.473970279932473" x2="19.344181231961556" y2="11.195994835591591" stroke="#030303" stroke-linecap="round" stroke-width="2"/><line x1="19.344181231961556" y1="11.195994835591591" x2="18.35135946589071" y2="11.593418228311748" stroke="#030303" stroke-linecap="round" stroke-width="2"/><line x1="18.35135946589071" y1="11.593418228311748" x2="17.412239574379782" y2="11.930382210067364" stroke="#030303" stroke-linecap="round" stroke-width="2"/><line x1="17.412239574379782" y1="11.930382210067364" x2="16.508883003596566" y2="12.212613899040662" stroke="#030303" stroke-linecap="round" stroke-width="2"/><line x1="16.508883003596566" y1="12.212613899040662" x2="15.62335119970885" y2="12.445840413412043" stroke="#030303" stroke-linecap="round" stroke-width="2"/><line x1="15.62335119970885" y1="12.445840413412043" x2="14.737705608884426" y2="12.635788871364639" stroke="#030303" stroke-linecap="round" stroke-width="2"/><line x1="14.737705608884426" y1="12.635788871364639" x2="13.834007677291083" y2="12.788186391077943" stroke="#030303" stroke-linecap="round" stroke-width="2"/><line x1="13.834007677291083" y1="12.788186391077943" x2="12.894318851096614" y2="12.908760090734177" stroke="#030303" stroke-linecap="round" stroke-width="2"/><line x1="12.894318851096614" y1="12.908760090734177" x2="11.378062097915972" y2="13.04247904863314" stroke="#030303" stroke-linecap="round" stroke-width="2"/><line x1="11.378062097915972" y1="13.04247904863314" x2="9.062991793471156" y2="13.162840725325623" stroke="#030303" stroke-linecap="round" stroke-width="2"/><line x1="9.062991793471156" y1="13.162840725325623" x2="7.739354337893019" y2="13.211080322220369" stroke="#030303" stroke-linecap="round" stroke-width="2"/><line x1="39.38285026061567" y1="29.750964398299402" x2="39.81204853185773" y2="28.488176183370342" stroke="#030303" stroke-linecap="round" stroke-width="2"/><line x1="39.81204853185773" y1="28.488176183370342" x2="40.2087076034295" y2="27.190980489363938" stroke="#030303" stroke-linecap="round" stroke-width="2"/><line x1="40.2087076034295" y1="27.190980489363938" x2="40.571893335625646" y2="25.859688696183184" stroke="#030303" stroke-linecap="round" stroke-width="2"/><line x1="40.571893335625646" y1="25.859688696183184" x2="40.900671588744444" y2="24.49461218372744" stroke="#030303" stroke-linecap="round" stroke-width="2"/><line x1="40.900671588744444" y1="24.49461218372744" x2="41.194108223087824" y2="23.096062331899702" stroke="#030303" stroke-linecap="round" stroke-width="2"/><line x1="41.194108223087824" y1="23.096062331899702" x2="41.45126909894316" y2="21.664350520599328" stroke="#030303" stroke-linecap="round" stroke-width="2"/><line x1="41.45126909894316" y1="21.664350520599328" x2="41.67122007661601" y2="20.199788129728404" stroke="#030303" stroke-linecap="round" stroke-width="2"/><line x1="41.67122007661601" y1="20.199788129728404" x2="41.85302701639739" y2="18.702686539188107" stroke="#030303" stroke-linecap="round" stroke-width="2"/><line x1="41.85302701639739" y1="18.702686539188107" x2="41.99575577858195" y2="17.173357128878706" stroke="#030303" stroke-linecap="round" stroke-width="2"/><line x1="41.99575577858195" y1="17.173357128878706" x2="42.098472223475255" y2="15.612111278702287" stroke="#030303" stroke-linecap="round" stroke-width="2"/><line x1="42.098472223475255" y1="15.612111278702287" x2="42.160242211364675" y2="14.019260368560026" stroke="#030303" stroke-linecap="round" stroke-width="2"/><line x1="42.160242211364675" y1="14.019260368560026" x2="42.1754803652766" y2="13.211080322220369" stroke="#030303" stroke-linecap="round" stroke-width="2"/><line x1="24.957417351586628" y1="8.505846001429745" x2="26.41388715685025" y2="9.246209830984299" stroke="#030303" stroke-linecap="round" stroke-width="2"/><line x1="26.41388715685025" y1="9.246209830984299" x2="28.94148922079694" y2="10.473970279932473" stroke="#030303" stroke-linecap="round" stroke-width="2"/><line x1="28.94148922079694" y1="10.473970279932473" x2="30.5706534712117" y2="11.195994835591591" stroke="#030303" stroke-linecap="round" stroke-width="2"/><line x1="30.5706534712117" y1="11.195994835591591" x2="31.563475237278908" y2="11.593418228311748" stroke="#030303" stroke-linecap="round" stroke-width="2"/><line x1="31.563475237278908" y1="11.593418228311748" x2="32.502595128789835" y2="11.930382210067364" stroke="#030303" stroke-linecap="round" stroke-width="2"/><line x1="32.502595128789835" y1="11.930382210067364" x2="33.40595169957305" y2="12.212613899040662" stroke="#030303" stroke-linecap="round" stroke-width="2"/><line x1="33.40595169957305" y1="12.212613899040662" x2="34.29148350346077" y2="12.445840413412043" stroke="#030303" stroke-linecap="round" stroke-width="2"/><line x1="34.29148350346077" y1="12.445840413412043" x2="35.17712909428519" y2="12.635788871364639" stroke="#030303" stroke-linecap="round" stroke-width="2"/><line x1="35.17712909428519" y1="12.635788871364639" x2="36.080827025878534" y2="12.788186391077943" stroke="#030303" stroke-linecap="round" stroke-width="2"/><line x1="36.080827025878534" y1="12.788186391077943" x2="37.02051585207664" y2="12.908760090734177" stroke="#030303" stroke-linecap="round" stroke-width="2"/><line x1="37.02051585207664" y1="12.908760090734177" x2="38.536772605253645" y2="13.04247904863314" stroke="#030303" stroke-linecap="round" stroke-width="2"/><line x1="38.536772605253645" y1="13.04247904863314" x2="40.85184290969846" y2="13.162840725325623" stroke="#030303" stroke-linecap="round" stroke-width="2"/><line x1="40.85184290969846" y1="13.162840725325623" x2="42.1754803652766" y2="13.211080322220369" stroke="#030303" stroke-linecap="round" stroke-width="2"/><line x1="5.151242444557283" y1="28.64310690925322" x2="4.622363682461582" y2="26.913512650578923" stroke="#030303" stroke-linecap="round" stroke-width="2"/><line x1="4.622363682461582" y1="26.913512650578923" x2="4.1381160395321785" y2="25.138456926337312" stroke="#030303" stroke-linecap="round" stroke-width="2"/><line x1="4.1381160395321785" y1="25.138456926337312" x2="3.6997450353701424" y2="23.31835490973026" stroke="#030303" stroke-linecap="round" stroke-width="2"/><line x1="3.6997450353701424" y1="23.31835490973026" x2="3.3084961895838205" y2="21.45362177395964" stroke="#030303" stroke-linecap="round" stroke-width="2"/><line x1="3.3084961895838205" y1="21.45362177395964" x2="2.9656150217706454" y2="19.544672692225504" stroke="#030303" stroke-linecap="round" stroke-width="2"/><line x1="2.9656150217706454" y1="19.544672692225504" x2="2.6723470515426015" y2="17.591922837730635" stroke="#030303" stroke-linecap="round" stroke-width="2"/><line x1="2.6723470515426015" y1="17.591922837730635" x2="2.4299377985043975" y2="15.595787383676907" stroke="#030303" stroke-linecap="round" stroke-width="2"/><line x1="2.4299377985043975" y1="15.595787383676907" x2="2.239632782253466" y2="13.556681503265281" stroke="#030303" stroke-linecap="round" stroke-width="2"/><line x1="2.239632782253466" y1="13.556681503265281" x2="2.102677522401791" y2="11.475020369696722" stroke="#030303" stroke-linecap="round" stroke-width="2"/><line x1="2.102677522401791" y1="11.475020369696722" x2="2.0203175385468057" y2="9.351219156173102" stroke="#030303" stroke-linecap="round" stroke-width="2"/><line x1="2.0203175385468057" y1="9.351219156173102" x2="2" y2="8.273645761053558" stroke="#030303" stroke-linecap="round" stroke-width="2"/><line x1="24.957417351586628" y1="2" x2="23.015457611232705" y2="2.987151772738798" stroke="#030303" stroke-linecap="round" stroke-width="2"/><line x1="23.015457611232705" y1="2.987151772738798" x2="19.645321525971667" y2="4.6241657046693945" stroke="#030303" stroke-linecap="round" stroke-width="2"/><line x1="19.645321525971667" y1="4.6241657046693945" x2="17.473102525418653" y2="5.5868651122154915" stroke="#030303" stroke-linecap="round" stroke-width="2"/><line x1="17.473102525418653" y1="5.5868651122154915" x2="16.149340170657524" y2="6.116762969175397" stroke="#030303" stroke-linecap="round" stroke-width="2"/><line x1="16.149340170657524" y1="6.116762969175397" x2="14.897180315310834" y2="6.566048278183189" stroke="#030303" stroke-linecap="round" stroke-width="2"/><line x1="14.897180315310834" y1="6.566048278183189" x2="13.692704887602304" y2="6.942357196814555" stroke="#030303" stroke-linecap="round" stroke-width="2"/><line x1="13.692704887602304" y1="6.942357196814555" x2="12.511995815752016" y2="7.253325882643367" stroke="#030303" stroke-linecap="round" stroke-width="2"/><line x1="12.511995815752016" y1="7.253325882643367" x2="11.331135027983692" y2="7.506590493245312" stroke="#030303" stroke-linecap="round" stroke-width="2"/><line x1="11.331135027983692" y1="7.506590493245312" x2="10.126204452528327" y2="7.709787186196991" stroke="#030303" stroke-linecap="round" stroke-width="2"/><line x1="10.126204452528327" y1="7.709787186196991" x2="8.87328601759873" y2="7.8705521190713625" stroke="#030303" stroke-linecap="round" stroke-width="2"/><line x1="8.87328601759873" y1="7.8705521190713625" x2="6.851610346693633" y2="8.04884406293695" stroke="#030303" stroke-linecap="round" stroke-width="2"/><line x1="6.851610346693633" y1="8.04884406293695" x2="3.7648499407659983" y2="8.20932629852723" stroke="#030303" stroke-linecap="round" stroke-width="2"/><line x1="3.7648499407659983" y1="8.20932629852723" x2="2" y2="8.273645761053558" stroke="#030303" stroke-linecap="round" stroke-width="2"/><line x1="44.763592258612334" y1="28.64310690925322" x2="45.292471020708035" y2="26.913512650578923" stroke="#030303" stroke-linecap="round" stroke-width="2"/><line x1="45.292471020708035" y1="26.913512650578923" x2="45.77671866363744" y2="25.138456926337312" stroke="#030303" stroke-linecap="round" stroke-width="2"/><line x1="45.77671866363744" y1="25.138456926337312" x2="46.215089667799475" y2="23.31835490973026" stroke="#030303" stroke-linecap="round" stroke-width="2"/><line x1="46.215089667799475" y1="23.31835490973026" x2="46.6063385135858" y2="21.45362177395964" stroke="#030303" stroke-linecap="round" stroke-width="2"/><line x1="46.6063385135858" y1="21.45362177395964" x2="46.94921968139897" y2="19.544672692225504" stroke="#030303" stroke-linecap="round" stroke-width="2"/><line x1="46.94921968139897" y1="19.544672692225504" x2="47.242487651627016" y2="17.591922837730635" stroke="#030303" stroke-linecap="round" stroke-width="2"/><line x1="47.242487651627016" y1="17.591922837730635" x2="47.48489690466522" y2="15.595787383676907" stroke="#030303" stroke-linecap="round" stroke-width="2"/><line x1="47.48489690466522" y1="15.595787383676907" x2="47.67520192091615" y2="13.556681503265281" stroke="#030303" stroke-linecap="round" stroke-width="2"/><line x1="47.67520192091615" y1="13.556681503265281" x2="47.812157180771464" y2="11.475020369696722" stroke="#030303" stroke-linecap="round" stroke-width="2"/><line x1="47.812157180771464" y1="11.475020369696722" x2="47.89451716462281" y2="9.351219156173102" stroke="#030303" stroke-linecap="round" stroke-width="2"/><line x1="47.89451716462281" y1="9.351219156173102" x2="47.914834703173256" y2="8.273645761053558" stroke="#030303" stroke-linecap="round" stroke-width="2"/><line x1="24.957417351586628" y1="2" x2="26.89937709194055" y2="2.987151772738798" stroke="#030303" stroke-linecap="round" stroke-width="2"/><line x1="26.89937709194055" y1="2.987151772738798" x2="30.26951317720159" y2="4.6241657046693945" stroke="#030303" stroke-linecap="round" stroke-width="2"/><line x1="30.26951317720159" y1="4.6241657046693945" x2="32.441732177750964" y2="5.5868651122154915" stroke="#030303" stroke-linecap="round" stroke-width="2"/><line x1="32.441732177750964" y1="5.5868651122154915" x2="33.76549453251209" y2="6.116762969175397" stroke="#030303" stroke-linecap="round" stroke-width="2"/><line x1="33.76549453251209" y1="6.116762969175397" x2="35.017654387858784" y2="6.566048278183189" stroke="#030303" stroke-linecap="round" stroke-width="2"/><line x1="35.017654387858784" y1="6.566048278183189" x2="36.22212981557095" y2="6.942357196814555" stroke="#030303" stroke-linecap="round" stroke-width="2"/><line x1="36.22212981557095" y1="6.942357196814555" x2="37.40283888742124" y2="7.253325882643367" stroke="#030303" stroke-linecap="round" stroke-width="2"/><line x1="37.40283888742124" y1="7.253325882643367" x2="38.583699675185926" y2="7.506590493245312" stroke="#030303" stroke-linecap="round" stroke-width="2"/><line x1="38.583699675185926" y1="7.506590493245312" x2="39.78863025064493" y2="7.709787186196991" stroke="#030303" stroke-linecap="round" stroke-width="2"/><line x1="39.78863025064493" y1="7.709787186196991" x2="41.04154868557089" y2="7.8705521190713625" stroke="#030303" stroke-linecap="round" stroke-width="2"/><line x1="41.04154868557089" y1="7.8705521190713625" x2="43.063224356475985" y2="8.04884406293695" stroke="#030303" stroke-linecap="round" stroke-width="2"/><line x1="43.063224356475985" y1="8.04884406293695" x2="46.14998476240362" y2="8.20932629852723" stroke="#030303" stroke-linecap="round" stroke-width="2"/><line x1="46.14998476240362" y1="8.20932629852723" x2="47.914834703173256" y2="8.273645761053558" stroke="#030303" stroke-linecap="round" stroke-width="2"/><line x1="24.957417351586628" y1="47.540922010010945" x2="24.510606654686853" y2="47.301633043061884" stroke="#030303" stroke-linecap="round" stroke-width="2"/><line x1="24.510606654686853" y1="47.301633043061884" x2="23.626793727773475" y2="46.79238418890327" stroke="#030303" stroke-linecap="round" stroke-width="2"/><line x1="23.626793727773475" y1="46.79238418890327" x2="22.756837206463388" y2="46.24250025764377" stroke="#030303" stroke-linecap="round" stroke-width="2"/><line x1="22.756837206463388" y1="46.24250025764377" x2="21.901671230458305" y2="45.652292629187286" stroke="#030303" stroke-linecap="round" stroke-width="2"/><line x1="21.901671230458305" y1="45.652292629187286" x2="21.06222993945994" y2="45.02207268343318" stroke="#030303" stroke-linecap="round" stroke-width="2"/><line x1="21.06222993945994" y1="45.02207268343318" x2="20.23944747317364" y2="44.35215180028263" stroke="#030303" stroke-linecap="round" stroke-width="2"/><line x1="20.23944747317364" y1="44.35215180028263" x2="19.434257971301122" y2="43.64284135963862" stroke="#030303" stroke-linecap="round" stroke-width="2"/><line x1="19.434257971301122" y1="43.64284135963862" x2="18.647595573547733" y2="42.89445274139962" stroke="#030303" stroke-linecap="round" stroke-width="2"/><line x1="18.647595573547733" y1="42.89445274139962" x2="17.880394419615186" y2="42.10729732546861" stroke="#030303" stroke-linecap="round" stroke-width="2"/><line x1="17.880394419615186" y1="42.10729732546861" x2="17.133588649208832" y2="41.28168649174677" stroke="#030303" stroke-linecap="round" stroke-width="2"/><line x1="17.133588649208832" y1="41.28168649174677" x2="16.408112402030383" y2="40.41793162013437" stroke="#030303" stroke-linecap="round" stroke-width="2"/><line x1="16.408112402030383" y1="40.41793162013437" x2="15.704899817781552" y2="39.516344090532584" stroke="#030303" stroke-linecap="round" stroke-width="2"/><line x1="15.704899817781552" y1="39.516344090532584" x2="15.024885036167689" y2="38.577235282842594" stroke="#030303" stroke-linecap="round" stroke-width="2"/><line x1="15.024885036167689" y1="38.577235282842594" x2="14.369002196894144" y2="37.60091657696648" stroke="#030303" stroke-linecap="round" stroke-width="2"/><line x1="14.369002196894144" y1="37.60091657696648" x2="13.738185439666267" y2="36.58769935280452" stroke="#030303" stroke-linecap="round" stroke-width="2"/><line x1="13.738185439666267" y1="36.58769935280452" x2="13.133368904178496" y2="35.53789499025879" stroke="#030303" stroke-linecap="round" stroke-width="2"/><line x1="13.133368904178496" y1="35.53789499025879" x2="12.555486730139819" y2="34.451814869228656" stroke="#030303" stroke-linecap="round" stroke-width="2"/><line x1="12.555486730139819" y1="34.451814869228656" x2="12.005473057259223" y2="33.32977036961711" stroke="#030303" stroke-linecap="round" stroke-width="2"/><line x1="12.005473057259223" y1="33.32977036961711" x2="11.484262025231146" y2="32.17207287132351" stroke="#030303" stroke-linecap="round" stroke-width="2"/><line x1="11.484262025231146" y1="32.17207287132351" x2="10.992787773760938" y2="30.97903375425085" stroke="#030303" stroke-linecap="round" stroke-width="2"/><line x1="10.992787773760938" y1="30.97903375425085" x2="10.531984442553949" y2="29.750964398299402" stroke="#030303" stroke-linecap="round" stroke-width="2"/><line x1="10.531984442553949" y1="29.750964398299402" x2="10.102786171315529" y2="28.488176183370342" stroke="#030303" stroke-linecap="round" stroke-width="2"/><line x1="24.957417351586628" y1="47.540922010010945" x2="25.404228048482764" y2="47.301633043061884" stroke="#030303" stroke-linecap="round" stroke-width="2"/><line x1="25.404228048482764" y1="47.301633043061884" x2="26.288040975396143" y2="46.79238418890327" stroke="#030303" stroke-linecap="round" stroke-width="2"/><line x1="26.288040975396143" y1="46.79238418890327" x2="27.15799749670623" y2="46.24250025764377" stroke="#030303" stroke-linecap="round" stroke-width="2"/><line x1="27.15799749670623" y1="46.24250025764377" x2="28.013163472711312" y2="45.652292629187286" stroke="#030303" stroke-linecap="round" stroke-width="2"/><line x1="28.013163472711312" y1="45.652292629187286" x2="28.852604763709678" y2="45.02207268343318" stroke="#030303" stroke-linecap="round" stroke-width="2"/><line x1="28.852604763709678" y1="45.02207268343318" x2="29.675387229995977" y2="44.35215180028263" stroke="#030303" stroke-linecap="round" stroke-width="2"/><line x1="29.675387229995977" y1="44.35215180028263" x2="30.480576731868496" y2="43.64284135963862" stroke="#030303" stroke-linecap="round" stroke-width="2"/><line x1="30.480576731868496" y1="43.64284135963862" x2="31.267239129621885" y2="42.89445274139962" stroke="#030303" stroke-linecap="round" stroke-width="2"/><line x1="31.267239129621885" y1="42.89445274139962" x2="32.03444028355443" y2="42.10729732546861" stroke="#030303" stroke-linecap="round" stroke-width="2"/><line x1="32.03444028355443" y1="42.10729732546861" x2="32.78124605396442" y2="41.28168649174677" stroke="#030303" stroke-linecap="round" stroke-width="2"/><line x1="32.78124605396442" y1="41.28168649174677" x2="33.50672230114287" y2="40.41793162013437" stroke="#030303" stroke-linecap="round" stroke-width="2"/><line x1="33.50672230114287" y1="40.41793162013437" x2="34.209934885388066" y2="39.516344090532584" stroke="#030303" stroke-linecap="round" stroke-width="2"/><line x1="34.209934885388066" y1="39.516344090532584" x2="34.88994966700193" y2="38.577235282842594" stroke="#030303" stroke-linecap="round" stroke-width="2"/><line x1="34.88994966700193" y1="38.577235282842594" x2="35.545832506275474" y2="37.60091657696648" stroke="#030303" stroke-linecap="round" stroke-width="2"/><line x1="35.545832506275474" y1="37.60091657696648" x2="36.17664926350699" y2="36.58769935280452" stroke="#030303" stroke-linecap="round" stroke-width="2"/><line x1="36.17664926350699" y1="36.58769935280452" x2="36.78146579899112" y2="35.53789499025879" stroke="#030303" stroke-linecap="round" stroke-width="2"/><line x1="36.78146579899112" y1="35.53789499025879" x2="37.3593479730298" y2="34.451814869228656" stroke="#030303" stroke-linecap="round" stroke-width="2"/><line x1="37.3593479730298" y1="34.451814869228656" x2="37.90936164591403" y2="33.32977036961711" stroke="#030303" stroke-linecap="round" stroke-width="2"/><line x1="37.90936164591403" y1="33.32977036961711" x2="38.43057267794211" y2="32.17207287132351" stroke="#030303" stroke-linecap="round" stroke-width="2"/><line x1="38.43057267794211" y1="32.17207287132351" x2="38.92204692940868" y2="30.97903375425085" stroke="#030303" stroke-linecap="round" stroke-width="2"/><line x1="38.92204692940868" y1="30.97903375425085" x2="39.38285026061567" y2="29.750964398299402" stroke="#030303" stroke-linecap="round" stroke-width="2"/><line x1="24.957417351586628" y1="54.04676801144069" x2="24.361669755722687" y2="53.72771605550952" stroke="#030303" stroke-linecap="round" stroke-width="2"/><line x1="24.361669755722687" y1="53.72771605550952" x2="23.183252519840607" y2="53.04871758329682" stroke="#030303" stroke-linecap="round" stroke-width="2"/><line x1="23.183252519840607" y1="53.04871758329682" x2="22.023310491425946" y2="52.31553900828567" stroke="#030303" stroke-linecap="round" stroke-width="2"/><line x1="22.023310491425946" y1="52.31553900828567" x2="20.88308919008341" y2="51.528595503676115" stroke="#030303" stroke-linecap="round" stroke-width="2"/><line x1="20.88308919008341" y1="51.528595503676115" x2="19.76383413541771" y2="50.68830224267094" stroke="#030303" stroke-linecap="round" stroke-width="2"/><line x1="19.76383413541771" y1="50.68830224267094" x2="18.66679084703719" y2="49.795074398470206" stroke="#030303" stroke-linecap="round" stroke-width="2"/><line x1="18.66679084703719" y1="49.795074398470206" x2="17.593204844539287" y2="48.849327144277595" stroke="#030303" stroke-linecap="round" stroke-width="2"/><line x1="17.593204844539287" y1="48.849327144277595" x2="16.54432164753598" y2="47.851475653293164" stroke="#030303" stroke-linecap="round" stroke-width="2"/><line x1="16.54432164753598" y1="47.851475653293164" x2="15.521386775624705" y2="46.801935098718786" stroke="#030303" stroke-linecap="round" stroke-width="2"/><line x1="15.521386775624705" y1="46.801935098718786" x2="14.525645748413808" y2="45.701120653755424" stroke="#030303" stroke-linecap="round" stroke-width="2"/><line x1="14.525645748413808" y1="45.701120653755424" x2="13.558344085511635" y2="44.54944749160495" stroke="#030303" stroke-linecap="round" stroke-width="2"/><line x1="13.558344085511635" y1="44.54944749160495" x2="12.62072730651198" y2="43.34733078547015" stroke="#030303" stroke-linecap="round" stroke-width="2"/><line x1="12.62072730651198" y1="43.34733078547015" x2="11.714040931030468" y2="42.09518570855016" stroke="#030303" stroke-linecap="round" stroke-width="2"/><line x1="11.714040931030468" y1="42.09518570855016" x2="10.839530478664528" y2="40.79342743404868" stroke="#030303" stroke-linecap="round" stroke-width="2"/><line x1="10.839530478664528" y1="40.79342743404868" x2="9.99844146902251" y2="39.44247113516667" stroke="#030303" stroke-linecap="round" stroke-width="2"/><line x1="9.99844146902251" y1="39.44247113516667" x2="9.19201942170912" y2="38.04273198510418" stroke="#030303" stroke-linecap="round" stroke-width="2"/><line x1="9.19201942170912" y1="38.04273198510418" x2="8.421509856329067" y2="36.59462515706491" stroke="#030303" stroke-linecap="round" stroke-width="2"/><line x1="8.421509856329067" y1="36.59462515706491" x2="7.688158292483422" y2="35.09856582424891" stroke="#030303" stroke-linecap="round" stroke-width="2"/><line x1="7.688158292483422" y1="35.09856582424891" x2="6.993210249776894" y2="33.55496915985805" stroke="#030303" stroke-linecap="round" stroke-width="2"/><line x1="6.993210249776894" y1="33.55496915985805" x2="6.3379112478178286" y2="31.9642503370942" stroke="#030303" stroke-linecap="round" stroke-width="2"/><line x1="6.3379112478178286" y1="31.9642503370942" x2="5.723506806210935" y2="30.32682452915924" stroke="#030303" stroke-linecap="round" stroke-width="2"/><line x1="5.723506806210935" y1="30.32682452915924" x2="5.151242444557283" y2="28.64310690925322" stroke="#030303" stroke-linecap="round" stroke-width="2"/><line x1="24.957417351586628" y1="54.04676801144069" x2="25.55316494745057" y2="53.72771605550952" stroke="#030303" stroke-linecap="round" stroke-width="2"/><line x1="25.55316494745057" y1="53.72771605550952" x2="26.731582183332648" y2="53.04871758329682" stroke="#030303" stroke-linecap="round" stroke-width="2"/><line x1="26.731582183332648" y1="53.04871758329682" x2="27.891524211743672" y2="52.31553900828567" stroke="#030303" stroke-linecap="round" stroke-width="2"/><line x1="27.891524211743672" y1="52.31553900828567" x2="29.031745513086207" y2="51.528595503676115" stroke="#030303" stroke-linecap="round" stroke-width="2"/><line x1="29.031745513086207" y1="51.528595503676115" x2="30.151000567751908" y2="50.68830224267094" stroke="#030303" stroke-linecap="round" stroke-width="2"/><line x1="30.151000567751908" y1="50.68830224267094" x2="31.248043856132426" y2="49.795074398470206" stroke="#030303" stroke-linecap="round" stroke-width="2"/><line x1="31.248043856132426" y1="49.795074398470206" x2="32.32162985863033" y2="48.849327144277595" stroke="#030303" stroke-linecap="round" stroke-width="2"/><line x1="32.32162985863033" y1="48.849327144277595" x2="33.37051305563364" y2="47.851475653293164" stroke="#030303" stroke-linecap="round" stroke-width="2"/><line x1="33.37051305563364" y1="47.851475653293164" x2="34.39344792754491" y2="46.801935098718786" stroke="#030303" stroke-linecap="round" stroke-width="2"/><line x1="34.39344792754491" y1="46.801935098718786" x2="35.38918895475581" y2="45.701120653755424" stroke="#030303" stroke-linecap="round" stroke-width="2"/><line x1="35.38918895475581" y1="45.701120653755424" x2="36.35649061766162" y2="44.54944749160495" stroke="#030303" stroke-linecap="round" stroke-width="2"/><line x1="36.35649061766162" y1="44.54944749160495" x2="37.29410739665764" y2="43.34733078547015" stroke="#030303" stroke-linecap="round" stroke-width="2"/><line x1="37.29410739665764" y1="43.34733078547015" x2="38.20079377214279" y2="42.09518570855016" stroke="#030303" stroke-linecap="round" stroke-width="2"/><line x1="38.20079377214279" y1="42.09518570855016" x2="39.07530422450509" y2="40.79342743404868" stroke="#030303" stroke-linecap="round" stroke-width="2"/><line x1="39.07530422450509" y1="40.79342743404868" x2="39.91639323414711" y2="39.44247113516667" stroke="#030303" stroke-linecap="round" stroke-width="2"/><line x1="39.91639323414711" y1="39.44247113516667" x2="40.7228152814605" y2="38.04273198510418" stroke="#030303" stroke-linecap="round" stroke-width="2"/><line x1="40.7228152814605" y1="38.04273198510418" x2="41.49332484684419" y2="36.59462515706491" stroke="#030303" stroke-linecap="round" stroke-width="2"/><line x1="41.49332484684419" y1="36.59462515706491" x2="42.226676410689834" y2="35.09856582424891" stroke="#030303" stroke-linecap="round" stroke-width="2"/><line x1="42.226676410689834" y1="35.09856582424891" x2="42.921624453392724" y2="33.55496915985805" stroke="#030303" stroke-linecap="round" stroke-width="2"/><line x1="42.921624453392724" y1="33.55496915985805" x2="43.57692345535179" y2="31.9642503370942" stroke="#030303" stroke-linecap="round" stroke-width="2"/><line x1="43.57692345535179" y1="31.9642503370942" x2="44.19132789695868" y2="30.32682452915924" stroke="#030303" stroke-linecap="round" stroke-width="2"/><line x1="44.19132789695868" y1="30.32682452915924" x2="44.763592258612334" y2="28.64310690925322" stroke="#030303" stroke-linecap="round" stroke-width="2"/></svg>