<svg xmlns="http://www.w3.org/2000/svg" width="49.914834703173256" height="56.0467680114416"><line x1="3.180000000000291" y1="8.230640991057953" x2="3.180000000000291" y2="20.738234910690153" stroke="#f7bc26" stroke-linecap="round" stroke-width="2"/><line x1="4.360000000000582" y1="8.178384145767268" x2="4.360000000000582" y2="25.95179365578224" stroke="#f7bc26" stroke-linecap="round" stroke-width="2"/><line x1="5.540000000000873" y1="8.1170353486159" x2="5.540000000000873" y2="29.786910350161634" stroke="#f7bc26" stroke-linecap="round" stroke-width="2"/><line x1="6.720000000001164" y1="8.055686551465442" x2="6.720000000001164" y2="32.8917594104214" stroke="#f7bc26" stroke-linecap="round" stroke-width="2"/><line x1="7.900000000001455" y1="7.956386389381805" x2="7.900000000001455" y2="35.530729303860426" stroke="#f7bc26" stroke-linecap="round" stroke-width="2"/><line x1="9.080000000001746" y1="7.844028158231595" x2="9.080000000001746" y2="37.832201062788954" stroke="#f7bc26" stroke-linecap="round" stroke-width="2"/><line x1="10.2599999999984" y1="7.687224215905189" x2="10.2599999999984" y2="39.86258617756539" stroke="#f7bc26" stroke-linecap="round" stroke-width="2"/><line x1="11.43999999999869" y1="7.483241725100925" x2="11.43999999999869" y2="41.68726028174933" stroke="#f7bc26" stroke-linecap="round" stroke-width="2"/><line x1="12.619999999998981" y1="7.224880332389148" x2="12.619999999998981" y2="43.34632636619517" stroke="#f7bc26" stroke-linecap="round" stroke-width="2"/><line x1="13.799999999999272" y1="6.908835460470982" x2="13.799999999999272" y2="44.83716397330318" stroke="#f7bc26" stroke-linecap="round" stroke-width="2"/><line x1="14.979999999999563" y1="6.536331890561996" x2="14.979999999999563" y2="46.20341965480657" stroke="#f7bc26" stroke-linecap="round" stroke-width="2"/><line x1="16.159999999999854" y1="6.112495873422631" x2="16.159999999999854" y2="47.45715812031267" stroke="#f7bc26" stroke-linecap="round" stroke-width="2"/><line x1="17.340000000000146" y1="5.6401456294652235" x2="17.340000000000146" y2="48.60844156962776" stroke="#f7bc26" stroke-linecap="round" stroke-width="2"/><line x1="18.520000000000437" y1="5.122893671821657" x2="18.520000000000437" y2="49.66576287596126" stroke="#f7bc26" stroke-linecap="round" stroke-width="2"/><line x1="19.700000000000728" y1="4.597606117313262" x2="19.700000000000728" y2="50.6363276052316" stroke="#f7bc26" stroke-linecap="round" stroke-width="2"/><line x1="20.88000000000102" y1="4.024431506315523" x2="20.88000000000102" y2="51.526276259640326" stroke="#f7bc26" stroke-linecap="round" stroke-width="2"/><line x1="22.05999999999767" y1="3.451256895318693" x2="22.05999999999767" y2="52.338729789337776" stroke="#f7bc26" stroke-linecap="round" stroke-width="2"/><line x1="23.239999999997963" y1="2.8730106746934325" x2="23.239999999997963" y2="53.08141521462676" stroke="#f7bc26" stroke-linecap="round" stroke-width="2"/><line x1="24.419999999998254" y1="2.2731840832211674" x2="24.419999999998254" y2="53.758954752327554" stroke="#f7bc26" stroke-linecap="round" stroke-width="2"/><line x1="25.599999999998545" y1="2.3266425082520072" x2="25.599999999998545" y2="53.700729918378784" stroke="#f7bc26" stroke-linecap="round" stroke-width="2"/><line x1="26.779999999998836" y1="2.9264690997242724" x2="26.779999999998836" y2="53.01811354882102" stroke="#f7bc26" stroke-linecap="round" stroke-width="2"/><line x1="27.959999999999127" y1="3.502340012350942" x2="27.959999999999127" y2="52.268279255529706" stroke="#f7bc26" stroke-linecap="round" stroke-width="2"/><line x1="29.139999999999418" y1="4.075514623348681" x2="29.139999999999418" y2="51.44732223584924" stroke="#f7bc26" stroke-linecap="round" stroke-width="2"/><line x1="30.31999999999971" y1="4.646540812513194" x2="30.31999999999971" y2="50.550700563561804" stroke="#f7bc26" stroke-linecap="round" stroke-width="2"/><line x1="31.5" y1="5.169501573199341" x2="31.5" y2="49.57312028330671" stroke="#f7bc26" stroke-linecap="round" stroke-width="2"/><line x1="32.68000000000029" y1="5.682242963034696" x2="32.68000000000029" y2="48.50839291927605" stroke="#f7bc26" stroke-linecap="round" stroke-width="2"/><line x1="33.86000000000058" y1="6.150672312285678" x2="33.86000000000058" y2="47.34925756184839" stroke="#f7bc26" stroke-linecap="round" stroke-width="2"/><line x1="35.04000000000087" y1="6.573029618730288" x2="35.04000000000087" y2="46.08715701754409" stroke="#f7bc26" stroke-linecap="round" stroke-width="2"/><line x1="36.220000000001164" y1="6.941691787977106" x2="36.220000000001164" y2="44.71195375751631" stroke="#f7bc26" stroke-linecap="round" stroke-width="2"/><line x1="37.400000000001455" y1="7.252578192030342" x2="37.400000000001455" y2="43.20109179309111" stroke="#f7bc26" stroke-linecap="round" stroke-width="2"/><line x1="38.580000000001746" y1="7.505797006998364" x2="38.580000000001746" y2="41.53071578881281" stroke="#f7bc26" stroke-linecap="round" stroke-width="2"/><line x1="39.76000000000204" y1="7.7049590472424825" x2="39.76000000000204" y2="39.69366978638391" stroke="#f7bc26" stroke-linecap="round" stroke-width="2"/><line x1="40.93999999999869" y1="7.857522166631497" x2="40.93999999999869" y2="37.63455188197622" stroke="#f7bc26" stroke-linecap="round" stroke-width="2"/><line x1="42.11999999999898" y1="7.965660935971755" x2="42.11999999999898" y2="35.316188923010486" stroke="#f7bc26" stroke-linecap="round" stroke-width="2"/><line x1="43.29999999999927" y1="8.061154148467722" x2="43.29999999999927" y2="32.63647378254427" stroke="#f7bc26" stroke-linecap="round" stroke-width="2"/><line x1="44.47999999999956" y1="8.12250294561818" x2="44.47999999999956" y2="29.47749275379647" stroke="#f7bc26" stroke-linecap="round" stroke-width="2"/><line x1="45.659999999999854" y1="8.183851742769548" x2="45.659999999999854" y2="25.566300272701483" stroke="#f7bc26" stroke-linecap="round" stroke-width="2"/><line x1="46.840000000000146" y1="8.234473710889688" x2="46.840000000000146" y2="20.152739947265218" stroke="#f7bc26" stroke-linecap="round" stroke-width="2"/><line x1="10.102786171315529" y1="28.488176183370342" x2="9.706127099743753" y2="27.190980489364847" stroke="#030303" stroke-linecap="round" stroke-width="2"/><line x1="9.706127099743753" y1="27.190980489364847" x2="9.34294136754761" y2="25.859688696184094" stroke="#030303" stroke-linecap="round" stroke-width="2"/><line x1="9.34294136754761" y1="25.859688696184094" x2="9.014163114425173" y2="24.49461218372835" stroke="#030303" stroke-linecap="round" stroke-width="2"/><line x1="9.014163114425173" y1="24.49461218372835" x2="8.720726480085432" y2="23.09606233190061" stroke="#030303" stroke-linecap="round" stroke-width="2"/><line x1="8.720726480085432" y1="23.09606233190061" x2="8.46356560422646" y2="21.664350520600237" stroke="#030303" stroke-linecap="round" stroke-width="2"/><line x1="8.46356560422646" y1="21.664350520600237" x2="8.243614626557246" y2="20.199788129729313" stroke="#030303" stroke-linecap="round" stroke-width="2"/><line x1="8.243614626557246" y1="20.199788129729313" x2="8.061807686775865" y2="18.702686539188107" stroke="#030303" stroke-linecap="round" stroke-width="2"/><line x1="8.061807686775865" y1="18.702686539188107" x2="7.919078924587666" y2="17.173357128879616" stroke="#030303" stroke-linecap="round" stroke-width="2"/><line x1="7.919078924587666" y1="17.173357128879616" x2="7.816362479698" y2="15.612111278703196" stroke="#030303" stroke-linecap="round" stroke-width="2"/><line x1="7.816362479698" y1="15.612111278703196" x2="7.75459249180858" y2="14.019260368560936" stroke="#030303" stroke-linecap="round" stroke-width="2"/><line x1="7.75459249180858" y1="14.019260368560936" x2="7.739354337896657" y2="13.211080322221278" stroke="#030303" stroke-linecap="round" stroke-width="2"/><line x1="12.894318851096614" y1="12.908760090734177" x2="11.37806209791961" y2="13.04247904863405" stroke="#030303" stroke-linecap="round" stroke-width="2"/><line x1="11.37806209791961" y1="13.04247904863405" x2="9.062991793474794" y2="13.162840725326532" stroke="#030303" stroke-linecap="round" stroke-width="2"/><line x1="9.062991793474794" y1="13.162840725326532" x2="7.739354337896657" y2="13.211080322221278" stroke="#030303" stroke-linecap="round" stroke-width="2"/><line x1="5.151242444557283" y1="28.64310690925413" x2="4.62236368246522" y2="26.913512650579833" stroke="#030303" stroke-linecap="round" stroke-width="2"/><line x1="4.62236368246522" y1="26.913512650579833" x2="4.1381160395321785" y2="25.138456926338222" stroke="#030303" stroke-linecap="round" stroke-width="2"/><line x1="4.1381160395321785" y1="25.138456926338222" x2="3.6997450353737804" y2="23.31835490973117" stroke="#030303" stroke-linecap="round" stroke-width="2"/><line x1="3.6997450353737804" y1="23.31835490973117" x2="3.3084961895838205" y2="21.45362177395964" stroke="#030303" stroke-linecap="round" stroke-width="2"/><line x1="3.3084961895838205" y1="21.45362177395964" x2="2.9656150217742834" y2="19.544672692226413" stroke="#030303" stroke-linecap="round" stroke-width="2"/><line x1="2.9656150217742834" y1="19.544672692226413" x2="2.6723470515462395" y2="17.591922837731545" stroke="#030303" stroke-linecap="round" stroke-width="2"/><line x1="2.6723470515462395" y1="17.591922837731545" x2="2.4299377985043975" y2="15.595787383677816" stroke="#030303" stroke-linecap="round" stroke-width="2"/><line x1="2.4299377985043975" y1="15.595787383677816" x2="2.239632782257104" y2="13.556681503265281" stroke="#030303" stroke-linecap="round" stroke-width="2"/><line x1="2.239632782257104" y1="13.556681503265281" x2="2.102677522401791" y2="11.475020369696722" stroke="#030303" stroke-linecap="round" stroke-width="2"/><line x1="2.102677522401791" y1="11.475020369696722" x2="2.0203175385504437" y2="9.351219156174011" stroke="#030303" stroke-linecap="round" stroke-width="2"/><line x1="2.0203175385504437" y1="9.351219156174011" x2="2" y2="8.273645761054468" stroke="#030303" stroke-linecap="round" stroke-width="2"/><line x1="13.692704887602304" y1="6.942357196814555" x2="12.511995815752016" y2="7.253325882644276" stroke="#030303" stroke-linecap="round" stroke-width="2"/><line x1="12.511995815752016" y1="7.253325882644276" x2="11.33113502798733" y2="7.506590493246222" stroke="#030303" stroke-linecap="round" stroke-width="2"/><line x1="11.33113502798733" y1="7.506590493246222" x2="10.126204452528327" y2="7.709787186196991" stroke="#030303" stroke-linecap="round" stroke-width="2"/><line x1="10.126204452528327" y1="7.709787186196991" x2="8.873286017602368" y2="7.870552119072272" stroke="#030303" stroke-linecap="round" stroke-width="2"/><line x1="8.873286017602368" y1="7.870552119072272" x2="6.851610346697271" y2="8.04884406293786" stroke="#030303" stroke-linecap="round" stroke-width="2"/><line x1="6.851610346697271" y1="8.04884406293786" x2="3.7648499407696363" y2="8.20932629852814" stroke="#030303" stroke-linecap="round" stroke-width="2"/><line x1="3.7648499407696363" y1="8.20932629852814" x2="2" y2="8.273645761054468" stroke="#030303" stroke-linecap="round" stroke-width="2"/><line x1="13.133368904178496" y1="35.53789499025879" x2="12.555486730143457" y2="34.451814869229565" stroke="#030303" stroke-linecap="round" stroke-width="2"/><line x1="12.555486730143457" y1="34.451814869229565" x2="12.005473057259223" y2="33.32977036961711" stroke="#030303" stroke-linecap="round" stroke-width="2"/><line x1="12.005473057259223" y1="33.32977036961711" x2="11.484262025231146" y2="32.17207287132442" stroke="#030303" stroke-linecap="round" stroke-width="2"/><line x1="11.484262025231146" y1="32.17207287132442" x2="10.992787773760938" y2="30.97903375425176" stroke="#030303" stroke-linecap="round" stroke-width="2"/><line x1="10.992787773760938" y1="30.97903375425176" x2="10.531984442553949" y2="29.750964398299402" stroke="#030303" stroke-linecap="round" stroke-width="2"/><line x1="10.531984442553949" y1="29.750964398299402" x2="10.102786171315529" y2="28.488176183370342" stroke="#030303" stroke-linecap="round" stroke-width="2"/><line x1="13.558344085511635" y1="44.54944749160586" x2="12.620727306515619" y2="43.34733078547106" stroke="#030303" stroke-linecap="round" stroke-width="2"/><line x1="12.620727306515619" y1="43.34733078547106" x2="11.714040931030468" y2="42.09518570855107" stroke="#030303" stroke-linecap="round" stroke-width="2"/><line x1="11.714040931030468" y1="42.09518570855107" x2="10.839530478668166" y2="40.79342743404959" stroke="#030303" stroke-linecap="round" stroke-width="2"/><line x1="10.839530478668166" y1="40.79342743404959" x2="9.998441469026147" y2="39.44247113516667" stroke="#030303" stroke-linecap="round" stroke-width="2"/><line x1="9.998441469026147" y1="39.44247113516667" x2="9.19201942170912" y2="38.04273198510509" stroke="#030303" stroke-linecap="round" stroke-width="2"/><line x1="9.19201942170912" y1="38.04273198510509" x2="8.421509856329067" y2="36.59462515706582" stroke="#030303" stroke-linecap="round" stroke-width="2"/><line x1="8.421509856329067" y1="36.59462515706582" x2="7.688158292483422" y2="35.09856582424982" stroke="#030303" stroke-linecap="round" stroke-width="2"/><line x1="7.688158292483422" y1="35.09856582424982" x2="6.993210249776894" y2="33.554969159858956" stroke="#030303" stroke-linecap="round" stroke-width="2"/><line x1="6.993210249776894" y1="33.554969159858956" x2="6.3379112478214665" y2="31.96425033709511" stroke="#030303" stroke-linecap="round" stroke-width="2"/><line x1="6.3379112478214665" y1="31.96425033709511" x2="5.723506806210935" y2="30.32682452915924" stroke="#030303" stroke-linecap="round" stroke-width="2"/><line x1="5.723506806210935" y1="30.32682452915924" x2="5.151242444557283" y2="28.64310690925413" stroke="#030303" stroke-linecap="round" stroke-width="2"/><line x1="24.957417351586628" y1="8.505846001430655" x2="23.500947546323005" y2="9.246209830984299" stroke="#030303" stroke-linecap="round" stroke-width="2"/><line x1="23.500947546323005" y1="9.246209830984299" x2="20.973345482376317" y2="10.473970279932473" stroke="#030303" stroke-linecap="round" stroke-width="2"/><line x1="20.973345482376317" y1="10.473970279932473" x2="19.344181231961556" y2="11.1959948355925" stroke="#030303" stroke-linecap="round" stroke-width="2"/><line x1="19.344181231961556" y1="11.1959948355925" x2="18.35135946589071" y2="11.593418228312657" stroke="#030303" stroke-linecap="round" stroke-width="2"/><line x1="18.35135946589071" y1="11.593418228312657" x2="17.41223957438342" y2="11.930382210068274" stroke="#030303" stroke-linecap="round" stroke-width="2"/><line x1="17.41223957438342" y1="11.930382210068274" x2="16.508883003596566" y2="12.212613899041571" stroke="#030303" stroke-linecap="round" stroke-width="2"/><line x1="16.508883003596566" y1="12.212613899041571" x2="15.623351199712488" y2="12.445840413412952" stroke="#030303" stroke-linecap="round" stroke-width="2"/><line x1="15.623351199712488" y1="12.445840413412952" x2="14.737705608888064" y2="12.635788871364639" stroke="#030303" stroke-linecap="round" stroke-width="2"/><line x1="14.737705608888064" y1="12.635788871364639" x2="13.834007677294721" y2="12.788186391077943" stroke="#030303" stroke-linecap="round" stroke-width="2"/><line x1="13.834007677294721" y1="12.788186391077943" x2="12.894318851096614" y2="12.908760090734177" stroke="#030303" stroke-linecap="round" stroke-width="2"/><line x1="39.81204853185773" y1="28.488176183370342" x2="40.2087076034295" y2="27.190980489364847" stroke="#030303" stroke-linecap="round" stroke-width="2"/><line x1="40.2087076034295" y1="27.190980489364847" x2="40.571893335625646" y2="25.859688696184094" stroke="#030303" stroke-linecap="round" stroke-width="2"/><line x1="40.571893335625646" y1="25.859688696184094" x2="40.90067158874808" y2="24.49461218372835" stroke="#030303" stroke-linecap="round" stroke-width="2"/><line x1="40.90067158874808" y1="24.49461218372835" x2="41.194108223087824" y2="23.09606233190061" stroke="#030303" stroke-linecap="round" stroke-width="2"/><line x1="41.194108223087824" y1="23.09606233190061" x2="41.451269098946796" y2="21.664350520600237" stroke="#030303" stroke-linecap="round" stroke-width="2"/><line x1="41.451269098946796" y1="21.664350520600237" x2="41.67122007661965" y2="20.199788129729313" stroke="#030303" stroke-linecap="round" stroke-width="2"/><line x1="41.67122007661965" y1="20.199788129729313" x2="41.85302701639739" y2="18.702686539188107" stroke="#030303" stroke-linecap="round" stroke-width="2"/><line x1="41.85302701639739" y1="18.702686539188107" x2="41.99575577858559" y2="17.173357128879616" stroke="#030303" stroke-linecap="round" stroke-width="2"/><line x1="41.99575577858559" y1="17.173357128879616" x2="42.098472223475255" y2="15.612111278703196" stroke="#030303" stroke-linecap="round" stroke-width="2"/><line x1="42.098472223475255" y1="15.612111278703196" x2="42.160242211364675" y2="14.019260368560936" stroke="#030303" stroke-linecap="round" stroke-width="2"/><line x1="42.160242211364675" y1="14.019260368560936" x2="42.1754803652766" y2="13.211080322221278" stroke="#030303" stroke-linecap="round" stroke-width="2"/><line x1="24.957417351586628" y1="8.505846001430655" x2="26.41388715685025" y2="9.246209830984299" stroke="#030303" stroke-linecap="round" stroke-width="2"/><line x1="26.41388715685025" y1="9.246209830984299" x2="28.94148922079694" y2="10.473970279932473" stroke="#030303" stroke-linecap="round" stroke-width="2"/><line x1="28.94148922079694" y1="10.473970279932473" x2="30.5706534712117" y2="11.1959948355925" stroke="#030303" stroke-linecap="round" stroke-width="2"/><line x1="30.5706534712117" y1="11.1959948355925" x2="31.563475237282546" y2="11.593418228312657" stroke="#030303" stroke-linecap="round" stroke-width="2"/><line x1="31.563475237282546" y1="11.593418228312657" x2="32.50259512879347" y2="11.930382210068274" stroke="#030303" stroke-linecap="round" stroke-width="2"/><line x1="32.50259512879347" y1="11.930382210068274" x2="33.40595169957669" y2="12.212613899041571" stroke="#030303" stroke-linecap="round" stroke-width="2"/><line x1="33.40595169957669" y1="12.212613899041571" x2="34.29148350346077" y2="12.445840413412952" stroke="#030303" stroke-linecap="round" stroke-width="2"/><line x1="34.29148350346077" y1="12.445840413412952" x2="35.17712909428519" y2="12.635788871364639" stroke="#030303" stroke-linecap="round" stroke-width="2"/><line x1="35.17712909428519" y1="12.635788871364639" x2="36.080827025878534" y2="12.788186391077943" stroke="#030303" stroke-linecap="round" stroke-width="2"/><line x1="36.080827025878534" y1="12.788186391077943" x2="37.02051585207664" y2="12.908760090734177" stroke="#030303" stroke-linecap="round" stroke-width="2"/><line x1="37.02051585207664" y1="12.908760090734177" x2="38.536772605253645" y2="13.04247904863405" stroke="#030303" stroke-linecap="round" stroke-width="2"/><line x1="38.536772605253645" y1="13.04247904863405" x2="40.8518429097021" y2="13.162840725326532" stroke="#030303" stroke-linecap="round" stroke-width="2"/><line x1="40.8518429097021" y1="13.162840725326532" x2="42.1754803652766" y2="13.211080322221278" stroke="#030303" stroke-linecap="round" stroke-width="2"/><line x1="24.957417351586628" y1="2" x2="23.015457611232705" y2="2.9871517727397077" stroke="#030303" stroke-linecap="round" stroke-width="2"/><line x1="23.015457611232705" y1="2.9871517727397077" x2="19.645321525971667" y2="4.624165704670304" stroke="#030303" stroke-linecap="round" stroke-width="2"/><line x1="19.645321525971667" y1="4.624165704670304" x2="17.47310252542229" y2="5.586865112216401" stroke="#030303" stroke-linecap="round" stroke-width="2"/><line x1="17.47310252542229" y1="5.586865112216401" x2="16.149340170661162" y2="6.116762969176307" stroke="#030303" stroke-linecap="round" stroke-width="2"/><line x1="16.149340170661162" y1="6.116762969176307" x2="14.897180315310834" y2="6.566048278184098" stroke="#030303" stroke-linecap="round" stroke-width="2"/><line x1="14.897180315310834" y1="6.566048278184098" x2="13.692704887602304" y2="6.942357196814555" stroke="#030303" stroke-linecap="round" stroke-width="2"/><line x1="44.76359225861597" y1="28.64310690925413" x2="45.292471020708035" y2="26.913512650579833" stroke="#030303" stroke-linecap="round" stroke-width="2"/><line x1="45.292471020708035" y1="26.913512650579833" x2="45.77671866364108" y2="25.138456926338222" stroke="#030303" stroke-linecap="round" stroke-width="2"/><line x1="45.77671866364108" y1="25.138456926338222" x2="46.215089667799475" y2="23.31835490973117" stroke="#030303" stroke-linecap="round" stroke-width="2"/><line x1="46.215089667799475" y1="23.31835490973117" x2="46.606338513589435" y2="21.45362177395964" stroke="#030303" stroke-linecap="round" stroke-width="2"/><line x1="46.606338513589435" y1="21.45362177395964" x2="46.94921968139897" y2="19.544672692226413" stroke="#030303" stroke-linecap="round" stroke-width="2"/><line x1="46.94921968139897" y1="19.544672692226413" x2="47.242487651627016" y2="17.591922837731545" stroke="#030303" stroke-linecap="round" stroke-width="2"/><line x1="47.242487651627016" y1="17.591922837731545" x2="47.48489690466886" y2="15.595787383677816" stroke="#030303" stroke-linecap="round" stroke-width="2"/><line x1="47.48489690466886" y1="15.595787383677816" x2="47.67520192091615" y2="13.556681503265281" stroke="#030303" stroke-linecap="round" stroke-width="2"/><line x1="47.67520192091615" y1="13.556681503265281" x2="47.812157180771464" y2="11.475020369696722" stroke="#030303" stroke-linecap="round" stroke-width="2"/><line x1="47.812157180771464" y1="11.475020369696722" x2="47.89451716462645" y2="9.351219156174011" stroke="#030303" stroke-linecap="round" stroke-width="2"/><line x1="47.89451716462645" y1="9.351219156174011" x2="47.914834703173256" y2="8.273645761054468" stroke="#030303" stroke-linecap="round" stroke-width="2"/><line x1="24.957417351586628" y1="2" x2="26.89937709194055" y2="2.9871517727397077" stroke="#030303" stroke-linecap="round" stroke-width="2"/><line x1="26.89937709194055" y1="2.9871517727397077" x2="30.26951317720159" y2="4.624165704670304" stroke="#030303" stroke-linecap="round" stroke-width="2"/><line x1="30.26951317720159" y1="4.624165704670304" x2="32.4417321777546" y2="5.586865112216401" stroke="#030303" stroke-linecap="round" stroke-width="2"/><line x1="32.4417321777546" y1="5.586865112216401" x2="33.76549453251209" y2="6.116762969176307" stroke="#030303" stroke-linecap="round" stroke-width="2"/><line x1="33.76549453251209" y1="6.116762969176307" x2="35.01765438786242" y2="6.566048278184098" stroke="#030303" stroke-linecap="round" stroke-width="2"/><line x1="35.01765438786242" y1="6.566048278184098" x2="36.22212981557095" y2="6.942357196814555" stroke="#030303" stroke-linecap="round" stroke-width="2"/><line x1="36.22212981557095" y1="6.942357196814555" x2="37.40283888742124" y2="7.253325882644276" stroke="#030303" stroke-linecap="round" stroke-width="2"/><line x1="37.40283888742124" y1="7.253325882644276" x2="38.583699675185926" y2="7.506590493246222" stroke="#030303" stroke-linecap="round" stroke-width="2"/><line x1="38.583699675185926" y1="7.506590493246222" x2="39.78863025064493" y2="7.709787186196991" stroke="#030303" stroke-linecap="round" stroke-width="2"/><line x1="39.78863025064493" y1="7.709787186196991" x2="41.04154868557089" y2="7.870552119072272" stroke="#030303" stroke-linecap="round" stroke-width="2"/><line x1="41.04154868557089" y1="7.870552119072272" x2="43.063224356475985" y2="8.04884406293786" stroke="#030303" stroke-linecap="round" stroke-width="2"/><line x1="43.063224356475985" y1="8.04884406293786" x2="46.14998476240362" y2="8.20932629852814" stroke="#030303" stroke-linecap="round" stroke-width="2"/><line x1="46.14998476240362" y1="8.20932629852814" x2="47.914834703173256" y2="8.273645761054468" stroke="#030303" stroke-linecap="round" stroke-width="2"/><line x1="24.957417351586628" y1="47.540922010010945" x2="24.510606654686853" y2="47.30163304306279" stroke="#030303" stroke-linecap="round" stroke-width="2"/><line x1="24.510606654686853" y1="47.30163304306279" x2="23.626793727777113" y2="46.79238418890327" stroke="#030303" stroke-linecap="round" stroke-width="2"/><line x1="23.626793727777113" y1="46.79238418890327" x2="22.756837206467026" y2="46.24250025764468" stroke="#030303" stroke-linecap="round" stroke-width="2"/><line x1="22.756837206467026" y1="46.24250025764468" x2="21.901671230461943" y2="45.652292629187286" stroke="#030303" stroke-linecap="round" stroke-width="2"/><line x1="21.901671230461943" y1="45.652292629187286" x2="21.062229939463577" y2="45.02207268343409" stroke="#030303" stroke-linecap="round" stroke-width="2"/><line x1="21.062229939463577" y1="45.02207268343409" x2="20.23944747317728" y2="44.352151800283536" stroke="#030303" stroke-linecap="round" stroke-width="2"/><line x1="20.23944747317728" y1="44.352151800283536" x2="19.43425797130476" y2="43.64284135963862" stroke="#030303" stroke-linecap="round" stroke-width="2"/><line x1="19.43425797130476" y1="43.64284135963862" x2="18.64759557355137" y2="42.89445274140053" stroke="#030303" stroke-linecap="round" stroke-width="2"/><line x1="18.64759557355137" y1="42.89445274140053" x2="17.880394419618824" y2="42.10729732546952" stroke="#030303" stroke-linecap="round" stroke-width="2"/><line x1="17.880394419618824" y1="42.10729732546952" x2="17.133588649208832" y2="41.28168649174768" stroke="#030303" stroke-linecap="round" stroke-width="2"/><line x1="17.133588649208832" y1="41.28168649174768" x2="16.408112402030383" y2="40.41793162013437" stroke="#030303" stroke-linecap="round" stroke-width="2"/><line x1="16.408112402030383" y1="40.41793162013437" x2="15.704899817781552" y2="39.516344090533494" stroke="#030303" stroke-linecap="round" stroke-width="2"/><line x1="15.704899817781552" y1="39.516344090533494" x2="15.024885036171327" y2="38.5772352828435" stroke="#030303" stroke-linecap="round" stroke-width="2"/><line x1="15.024885036171327" y1="38.5772352828435" x2="14.369002196897782" y2="37.60091657696739" stroke="#030303" stroke-linecap="round" stroke-width="2"/><line x1="14.369002196897782" y1="37.60091657696739" x2="13.738185439666267" y2="36.58769935280543" stroke="#030303" stroke-linecap="round" stroke-width="2"/><line x1="13.738185439666267" y1="36.58769935280543" x2="13.133368904178496" y2="35.53789499025879" stroke="#030303" stroke-linecap="round" stroke-width="2"/><line x1="24.957417351586628" y1="47.540922010010945" x2="25.404228048486402" y2="47.30163304306279" stroke="#030303" stroke-linecap="round" stroke-width="2"/><line x1="25.404228048486402" y1="47.30163304306279" x2="26.288040975396143" y2="46.79238418890327" stroke="#030303" stroke-linecap="round" stroke-width="2"/><line x1="26.288040975396143" y1="46.79238418890327" x2="27.15799749670623" y2="46.24250025764468" stroke="#030303" stroke-linecap="round" stroke-width="2"/><line x1="27.15799749670623" y1="46.24250025764468" x2="28.01316347271495" y2="45.652292629187286" stroke="#030303" stroke-linecap="round" stroke-width="2"/><line x1="28.01316347271495" y1="45.652292629187286" x2="28.852604763709678" y2="45.02207268343409" stroke="#030303" stroke-linecap="round" stroke-width="2"/><line x1="28.852604763709678" y1="45.02207268343409" x2="29.675387229995977" y2="44.352151800283536" stroke="#030303" stroke-linecap="round" stroke-width="2"/><line x1="29.675387229995977" y1="44.352151800283536" x2="30.480576731868496" y2="43.64284135963862" stroke="#030303" stroke-linecap="round" stroke-width="2"/><line x1="30.480576731868496" y1="43.64284135963862" x2="31.267239129625523" y2="42.89445274140053" stroke="#030303" stroke-linecap="round" stroke-width="2"/><line x1="31.267239129625523" y1="42.89445274140053" x2="32.03444028355807" y2="42.10729732546952" stroke="#030303" stroke-linecap="round" stroke-width="2"/><line x1="32.03444028355807" y1="42.10729732546952" x2="32.78124605396442" y2="41.28168649174768" stroke="#030303" stroke-linecap="round" stroke-width="2"/><line x1="32.78124605396442" y1="41.28168649174768" x2="33.50672230114287" y2="40.41793162013437" stroke="#030303" stroke-linecap="round" stroke-width="2"/><line x1="33.50672230114287" y1="40.41793162013437" x2="34.209934885391704" y2="39.516344090533494" stroke="#030303" stroke-linecap="round" stroke-width="2"/><line x1="34.209934885391704" y1="39.516344090533494" x2="34.88994966700193" y2="38.5772352828435" stroke="#030303" stroke-linecap="round" stroke-width="2"/><line x1="34.88994966700193" y1="38.5772352828435" x2="35.545832506275474" y2="37.60091657696739" stroke="#030303" stroke-linecap="round" stroke-width="2"/><line x1="35.545832506275474" y1="37.60091657696739" x2="36.17664926350699" y2="36.58769935280543" stroke="#030303" stroke-linecap="round" stroke-width="2"/><line x1="36.17664926350699" y1="36.58769935280543" x2="36.78146579899476" y2="35.53789499025879" stroke="#030303" stroke-linecap="round" stroke-width="2"/><line x1="36.78146579899476" y1="35.53789499025879" x2="37.3593479730298" y2="34.451814869229565" stroke="#030303" stroke-linecap="round" stroke-width="2"/><line x1="37.3593479730298" y1="34.451814869229565" x2="37.90936164591403" y2="33.32977036961711" stroke="#030303" stroke-linecap="round" stroke-width="2"/><line x1="37.90936164591403" y1="33.32977036961711" x2="38.43057267794211" y2="32.17207287132442" stroke="#030303" stroke-linecap="round" stroke-width="2"/><line x1="38.43057267794211" y1="32.17207287132442" x2="38.92204692941232" y2="30.97903375425176" stroke="#030303" stroke-linecap="round" stroke-width="2"/><line x1="38.92204692941232" y1="30.97903375425176" x2="39.38285026061931" y2="29.750964398299402" stroke="#030303" stroke-linecap="round" stroke-width="2"/><line x1="39.38285026061931" y1="29.750964398299402" x2="39.81204853185773" y2="28.488176183370342" stroke="#030303" stroke-linecap="round" stroke-width="2"/><line x1="24.957417351586628" y1="54.0467680114416" x2="24.361669755722687" y2="53.72771605551043" stroke="#030303" stroke-linecap="round" stroke-width="2"/><line x1="24.361669755722687" y1="53.72771605551043" x2="23.183252519840607" y2="53.04871758329773" stroke="#030303" stroke-linecap="round" stroke-width="2"/><line x1="23.183252519840607" y1="53.04871758329773" x2="22.023310491425946" y2="52.31553900828658" stroke="#030303" stroke-linecap="round" stroke-width="2"/><line x1="22.023310491425946" y1="52.31553900828658" x2="20.88308919008705" y2="51.528595503677025" stroke="#030303" stroke-linecap="round" stroke-width="2"/><line x1="20.88308919008705" y1="51.528595503677025" x2="19.763834135421348" y2="50.68830224267094" stroke="#030303" stroke-linecap="round" stroke-width="2"/><line x1="19.763834135421348" y1="50.68830224267094" x2="18.66679084704083" y2="49.795074398471115" stroke="#030303" stroke-linecap="round" stroke-width="2"/><line x1="18.66679084704083" y1="49.795074398471115" x2="17.593204844542925" y2="48.849327144278504" stroke="#030303" stroke-linecap="round" stroke-width="2"/><line x1="17.593204844542925" y1="48.849327144278504" x2="16.54432164753598" y2="47.851475653293164" stroke="#030303" stroke-linecap="round" stroke-width="2"/><line x1="16.54432164753598" y1="47.851475653293164" x2="15.521386775624705" y2="46.801935098718786" stroke="#030303" stroke-linecap="round" stroke-width="2"/><line x1="15.521386775624705" y1="46.801935098718786" x2="14.525645748417446" y2="45.701120653756334" stroke="#030303" stroke-linecap="round" stroke-width="2"/><line x1="14.525645748417446" y1="45.701120653756334" x2="13.558344085511635" y2="44.54944749160586" stroke="#030303" stroke-linecap="round" stroke-width="2"/><line x1="24.957417351586628" y1="54.0467680114416" x2="25.55316494745057" y2="53.72771605551043" stroke="#030303" stroke-linecap="round" stroke-width="2"/><line x1="25.55316494745057" y1="53.72771605551043" x2="26.731582183332648" y2="53.04871758329773" stroke="#030303" stroke-linecap="round" stroke-width="2"/><line x1="26.731582183332648" y1="53.04871758329773" x2="27.89152421174731" y2="52.31553900828658" stroke="#030303" stroke-linecap="round" stroke-width="2"/><line x1="27.89152421174731" y1="52.31553900828658" x2="29.031745513089845" y2="51.528595503677025" stroke="#030303" stroke-linecap="round" stroke-width="2"/><line x1="29.031745513089845" y1="51.528595503677025" x2="30.151000567751908" y2="50.68830224267094" stroke="#030303" stroke-linecap="round" stroke-width="2"/><line x1="30.151000567751908" y1="50.68830224267094" x2="31.248043856136064" y2="49.795074398471115" stroke="#030303" stroke-linecap="round" stroke-width="2"/><line x1="31.248043856136064" y1="49.795074398471115" x2="32.32162985863033" y2="48.849327144278504" stroke="#030303" stroke-linecap="round" stroke-width="2"/><line x1="32.32162985863033" y1="48.849327144278504" x2="33.370513055637275" y2="47.851475653293164" stroke="#030303" stroke-linecap="round" stroke-width="2"/><line x1="33.370513055637275" y1="47.851475653293164" x2="34.39344792754855" y2="46.801935098718786" stroke="#030303" stroke-linecap="round" stroke-width="2"/><line x1="34.39344792754855" y1="46.801935098718786" x2="35.38918895475581" y2="45.701120653756334" stroke="#030303" stroke-linecap="round" stroke-width="2"/><line x1="35.38918895475581" y1="45.701120653756334" x2="36.35649061766162" y2="44.54944749160586" stroke="#030303" stroke-linecap="round" stroke-width="2"/><line x1="36.35649061766162" y1="44.54944749160586" x2="37.29410739665764" y2="43.34733078547106" stroke="#030303" stroke-linecap="round" stroke-width="2"/><line x1="37.29410739665764" y1="43.34733078547106" x2="38.20079377214279" y2="42.09518570855107" stroke="#030303" stroke-linecap="round" stroke-width="2"/><line x1="38.20079377214279" y1="42.09518570855107" x2="39.07530422450509" y2="40.79342743404959" stroke="#030303" stroke-linecap="round" stroke-width="2"/><line x1="39.07530422450509" y1="40.79342743404959" x2="39.91639323414711" y2="39.44247113516667" stroke="#030303" stroke-linecap="round" stroke-width="2"/><line x1="39.91639323414711" y1="39.44247113516667" x2="40.722815281464136" y2="38.04273198510509" stroke="#030303" stroke-linecap="round" stroke-width="2"/><line x1="40.722815281464136" y1="38.04273198510509" x2="41.49332484684419" y2="36.59462515706582" stroke="#030303" stroke-linecap="round" stroke-width="2"/><line x1="41.49332484684419" y1="36.59462515706582" x2="42.226676410689834" y2="35.09856582424982" stroke="#030303" stroke-linecap="round" stroke-width="2"/><line x1="42.226676410689834" y1="35.09856582424982" x2="42.92162445339636" y2="33.554969159858956" stroke="#030303" stroke-linecap="round" stroke-width="2"/><line x1="42.92162445339636" y1="33.554969159858956" x2="43.57692345535179" y2="31.96425033709511" stroke="#030303" stroke-linecap="round" stroke-width="2"/><line x1="43.57692345535179" y1="31.96425033709511" x2="44.19132789696232" y2="30.32682452915924" stroke="#030303" stroke-linecap="round" stroke-width="2"/><line x1="44.19132789696232" y1="30.32682452915924" x2="44.76359225861597" y2="28.64310690925413" stroke="#030303" stroke-linecap="round" stroke-width="2"/></svg>