<svg xmlns="http://www.w3.org/2000/svg" width="2956.9370090266752" height="1460.829372753121"><line x1="4" y1="1102.1449856110169" x2="2" y2="1100.1449856110169" stroke="#ffffff" stroke-linecap="round" stroke-width="1.4145826209762262"/><line x1="2" y1="1102.1449856110169" x2="4" y2="1100.1449856110169" stroke="#ffffff" stroke-linecap="round" stroke-width="1.4145826209762262"/><line x1="40.042551664390075" y1="366.5675969588644" x2="38.042551664390075" y2="364.5675969588644" stroke="#ffffff" stroke-linecap="round" stroke-width="1.6671947090360035"/><line x1="38.042551664390075" y1="366.5675969588644" x2="40.042551664390075" y2="364.5675969588644" stroke="#ffffff" stroke-linecap="round" stroke-width="1.6671947090360035"/><line x1="184.08657130554906" y1="182.17871311325973" x2="182.08657130554906" y2="180.17871311325973" stroke="#ffffff" stroke-linecap="round" stroke-width="2.6941012952174495"/><line x1="182.08657130554906" y1="182.17871311325973" x2="184.08657130554906" y2="180.17871311325973" stroke="#ffffff" stroke-linecap="round" stroke-width="2.6941012952174495"/><line x1="293.6335572933455" y1="122.72143545998892" x2="291.6335572933455" y2="120.72143545998892" stroke="#ffffff" stroke-linecap="round" stroke-width="1.2375991502586627"/><line x1="291.6335572933455" y1="122.72143545998892" x2="293.6335572933455" y2="120.72143545998892" stroke="#ffffff" stroke-linecap="round" stroke-width="1.2375991502586627"/><line x1="240.72693608126406" y1="494.2022162001533" x2="238.72693608126406" y2="492.2022162001533" stroke="#ffffff" stroke-linecap="round" stroke-width="1.6626458386648477"/><line x1="238.72693608126406" y1="494.2022162001533" x2="240.72693608126406" y2="492.2022162001533" stroke="#ffffff" stroke-linecap="round" stroke-width="1.6626458386648477"/><line x1="252.70230945648132" y1="676.8533167157206" x2="250.70230945648132" y2="674.8533167157206" stroke="#ffffff" stroke-linecap="round" stroke-width="2.2891506613394874"/><line x1="250.70230945648132" y1="676.8533167157206" x2="252.70230945648132" y2="674.8533167157206" stroke="#ffffff" stroke-linecap="round" stroke-width="2.2891506613394874"/><line x1="318.32528142087347" y1="442.7391693846943" x2="316.32528142087347" y2="440.7391693846943" stroke="#ffffff" stroke-linecap="round" stroke-width="2.1815950333227376"/><line x1="316.32528142087347" y1="442.7391693846943" x2="318.32528142087347" y2="440.7391693846943" stroke="#ffffff" stroke-linecap="round" stroke-width="2.1815950333227376"/><line x1="347.72462962984105" y1="518.4495249089013" x2="345.72462962984105" y2="516.4495249089013" stroke="#ffffff" stroke-linecap="round" stroke-width="2.382739057788723"/><line x1="345.72462962984105" y1="518.4495249089013" x2="347.72462962984105" y2="516.4495249089013" stroke="#ffffff" stroke-linecap="round" stroke-width="2.382739057788723"/><line x1="344.13548941197433" y1="1255.4784653246359" x2="342.13548941197433" y2="1253.4784653246359" stroke="#ffffff" stroke-linecap="round" stroke-width="2.791632454978435"/><line x1="342.13548941197433" y1="1255.4784653246359" x2="344.13548941197433" y2="1253.4784653246359" stroke="#ffffff" stroke-linecap="round" stroke-width="2.791632454978435"/><line x1="322.16768710676445" y1="1350.1863455497046" x2="320.16768710676445" y2="1348.1863455497046" stroke="#ffffff" stroke-linecap="round" stroke-width="2.2906738217361426"/><line x1="320.16768710676445" y1="1350.1863455497046" x2="322.16768710676445" y2="1348.1863455497046" stroke="#ffffff" stroke-linecap="round" stroke-width="2.2906738217361426"/><line x1="388.63472189520667" y1="311.00747044956773" x2="386.63472189520667" y2="309.00747044956773" stroke="#ffffff" stroke-linecap="round" stroke-width="1.247516879006335"/><line x1="386.63472189520667" y1="311.00747044956773" x2="388.63472189520667" y2="309.00747044956773" stroke="#ffffff" stroke-linecap="round" stroke-width="1.247516879006335"/><line x1="362.34942720358987" y1="862.5266181082429" x2="360.34942720358987" y2="860.5266181082429" stroke="#ffffff" stroke-linecap="round" stroke-width="1.0271934732189862"/><line x1="360.34942720358987" y1="862.5266181082429" x2="362.34942720358987" y2="860.5266181082429" stroke="#ffffff" stroke-linecap="round" stroke-width="1.0271934732189862"/><line x1="451.6447267509609" y1="82.32660625561039" x2="449.6447267509609" y2="80.32660625561039" stroke="#ffffff" stroke-linecap="round" stroke-width="1.2635474276595051"/><line x1="449.6447267509609" y1="82.32660625561039" x2="451.6447267509609" y2="80.32660625561039" stroke="#ffffff" stroke-linecap="round" stroke-width="1.2635474276595051"/><line x1="483.69300300865547" y1="1032.9890695232361" x2="481.69300300865547" y2="1030.9890695232361" stroke="#ffffff" stroke-linecap="round" stroke-width="1.2090171587842216"/><line x1="481.69300300865547" y1="1032.9890695232361" x2="483.69300300865547" y2="1030.9890695232361" stroke="#ffffff" stroke-linecap="round" stroke-width="1.2090171587842216"/><line x1="500.8310997221381" y1="42.74289244195295" x2="498.8310997221381" y2="40.74289244195295" stroke="#ffffff" stroke-linecap="round" stroke-width="1.882646407823239"/><line x1="498.8310997221381" y1="42.74289244195295" x2="500.8310997221381" y2="40.74289244195295" stroke="#ffffff" stroke-linecap="round" stroke-width="1.882646407823239"/><line x1="495.14317087268057" y1="159.6133900854876" x2="493.14317087268057" y2="157.6133900854876" stroke="#ffffff" stroke-linecap="round" stroke-width="1.6407218925098768"/><line x1="493.14317087268057" y1="159.6133900854876" x2="495.14317087268057" y2="157.6133900854876" stroke="#ffffff" stroke-linecap="round" stroke-width="1.6407218925098768"/><line x1="525.573877675541" y1="205.54711498382449" x2="523.573877675541" y2="203.54711498382449" stroke="#ffffff" stroke-linecap="round" stroke-width="2.9504337204663758"/><line x1="523.573877675541" y1="205.54711498382449" x2="525.573877675541" y2="203.54711498382449" stroke="#ffffff" stroke-linecap="round" stroke-width="2.9504337204663758"/><line x1="495.55068490143503" y1="1011.4937945478149" x2="493.55068490143503" y2="1009.4937945478149" stroke="#ffffff" stroke-linecap="round" stroke-width="2.770620438745583"/><line x1="493.55068490143503" y1="1011.4937945478149" x2="495.55068490143503" y2="1009.4937945478149" stroke="#ffffff" stroke-linecap="round" stroke-width="2.770620438745583"/><line x1="548.1021358689617" y1="1092.432116284262" x2="546.1021358689617" y2="1090.432116284262" stroke="#ffffff" stroke-linecap="round" stroke-width="2.258708755338596"/><line x1="546.1021358689617" y1="1092.432116284262" x2="548.1021358689617" y2="1090.432116284262" stroke="#ffffff" stroke-linecap="round" stroke-width="2.258708755338596"/><line x1="678.7843566287626" y1="188.02746448931717" x2="676.7843566287626" y2="186.02746448931717" stroke="#ffffff" stroke-linecap="round" stroke-width="1.7569168770780434"/><line x1="676.7843566287626" y1="188.02746448931717" x2="678.7843566287626" y2="186.02746448931717" stroke="#ffffff" stroke-linecap="round" stroke-width="1.7569168770780434"/><line x1="670.4275227066769" y1="625.9280679223945" x2="668.4275227066769" y2="623.9280679223945" stroke="#ffffff" stroke-linecap="round" stroke-width="2.1953384371894553"/><line x1="668.4275227066769" y1="625.9280679223945" x2="670.4275227066769" y2="623.9280679223945" stroke="#ffffff" stroke-linecap="round" stroke-width="2.1953384371894553"/><line x1="647.649859458357" y1="1148.4938803017199" x2="645.649859458357" y2="1146.4938803017199" stroke="#ffffff" stroke-linecap="round" stroke-width="2.6417460888482873"/><line x1="645.649859458357" y1="1148.4938803017199" x2="647.649859458357" y2="1146.4938803017199" stroke="#ffffff" stroke-linecap="round" stroke-width="2.6417460888482873"/><line x1="626.266438874618" y1="1174.944310420957" x2="624.266438874618" y2="1172.944310420957" stroke="#ffffff" stroke-linecap="round" stroke-width="1.9895344972992248"/><line x1="624.266438874618" y1="1174.944310420957" x2="626.266438874618" y2="1172.944310420957" stroke="#ffffff" stroke-linecap="round" stroke-width="1.9895344972992248"/><line x1="699.7364301883114" y1="1126.8771179771325" x2="697.7364301883114" y2="1124.8771179771325" stroke="#ffffff" stroke-linecap="round" stroke-width="2.495177332063226"/><line x1="697.7364301883114" y1="1126.8771179771325" x2="699.7364301883114" y2="1124.8771179771325" stroke="#ffffff" stroke-linecap="round" stroke-width="2.495177332063226"/><line x1="801.0480598178762" y1="411.4951066759711" x2="799.0480598178762" y2="409.4951066759711" stroke="#ffffff" stroke-linecap="round" stroke-width="2.472967800581854"/><line x1="799.0480598178762" y1="411.4951066759711" x2="801.0480598178762" y2="409.4951066759711" stroke="#ffffff" stroke-linecap="round" stroke-width="2.472967800581854"/><line x1="800.0458659840443" y1="445.0753583356743" x2="798.0458659840443" y2="443.0753583356743" stroke="#ffffff" stroke-linecap="round" stroke-width="2.165240198287841"/><line x1="798.0458659840443" y1="445.0753583356743" x2="800.0458659840443" y2="443.0753583356743" stroke="#ffffff" stroke-linecap="round" stroke-width="2.165240198287841"/><line x1="771.522366078801" y1="976.5809146997333" x2="769.522366078801" y2="974.5809146997333" stroke="#ffffff" stroke-linecap="round" stroke-width="1.0716059036057066"/><line x1="769.522366078801" y1="976.5809146997333" x2="771.522366078801" y2="974.5809146997333" stroke="#ffffff" stroke-linecap="round" stroke-width="1.0716059036057066"/><line x1="777.1713821362447" y1="1045.651637610972" x2="775.1713821362447" y2="1043.651637610972" stroke="#ffffff" stroke-linecap="round" stroke-width="1.6166757882958467"/><line x1="775.1713821362447" y1="1045.651637610972" x2="777.1713821362447" y2="1043.651637610972" stroke="#ffffff" stroke-linecap="round" stroke-width="1.6166757882958467"/><line x1="866.222974783502" y1="126.57882891226191" x2="864.222974783502" y2="124.57882891226191" stroke="#ffffff" stroke-linecap="round" stroke-width="1.1308351260608864"/><line x1="864.222974783502" y1="126.57882891226191" x2="866.222974783502" y2="124.57882891226191" stroke="#ffffff" stroke-linecap="round" stroke-width="1.1308351260608864"/><line x1="880.9129353442863" y1="929.5430572767997" x2="878.9129353442863" y2="927.5430572767997" stroke="#ffffff" stroke-linecap="round" stroke-width="2.4161203869203374"/><line x1="878.9129353442863" y1="929.5430572767997" x2="880.9129353442863" y2="927.5430572767997" stroke="#ffffff" stroke-linecap="round" stroke-width="2.4161203869203374"/><line x1="898.656183519301" y1="1437.8974661863078" x2="896.656183519301" y2="1435.8974661863078" stroke="#ffffff" stroke-linecap="round" stroke-width="2.9188743358121374"/><line x1="896.656183519301" y1="1437.8974661863078" x2="898.656183519301" y2="1435.8974661863078" stroke="#ffffff" stroke-linecap="round" stroke-width="2.9188743358121374"/><line x1="1108.6711057778473" y1="39.60077276973294" x2="1106.6711057778473" y2="37.60077276973294" stroke="#ffffff" stroke-linecap="round" stroke-width="1.536346854819005"/><line x1="1106.6711057778473" y1="39.60077276973294" x2="1108.6711057778473" y2="37.60077276973294" stroke="#ffffff" stroke-linecap="round" stroke-width="1.536346854819005"/><line x1="1108.5314385287086" y1="982.0656268504915" x2="1106.5314385287086" y2="980.0656268504915" stroke="#ffffff" stroke-linecap="round" stroke-width="1.235740861724394"/><line x1="1106.5314385287086" y1="982.0656268504915" x2="1108.5314385287086" y2="980.0656268504915" stroke="#ffffff" stroke-linecap="round" stroke-width="1.235740861724394"/><line x1="1089.2329121449018" y1="1004.816303617659" x2="1087.2329121449018" y2="1002.816303617659" stroke="#ffffff" stroke-linecap="round" stroke-width="1.7806047357786943"/><line x1="1087.2329121449018" y1="1004.816303617659" x2="1089.2329121449018" y2="1002.816303617659" stroke="#ffffff" stroke-linecap="round" stroke-width="1.7806047357786943"/><line x1="1073.9869321502006" y1="1080.7805442799483" x2="1071.9869321502006" y2="1078.7805442799483" stroke="#ffffff" stroke-linecap="round" stroke-width="1.1176659873675736"/><line x1="1071.9869321502006" y1="1080.7805442799483" x2="1073.9869321502006" y2="1078.7805442799483" stroke="#ffffff" stroke-linecap="round" stroke-width="1.1176659873675736"/><line x1="1121.2148908314155" y1="1394.0406492772327" x2="1119.2148908314155" y2="1392.0406492772327" stroke="#ffffff" stroke-linecap="round" stroke-width="1.611727655888807"/><line x1="1119.2148908314155" y1="1394.0406492772327" x2="1121.2148908314155" y2="1392.0406492772327" stroke="#ffffff" stroke-linecap="round" stroke-width="1.611727655888807"/><line x1="1187.8183340054534" y1="59.362741864632966" x2="1185.8183340054534" y2="57.362741864632966" stroke="#ffffff" stroke-linecap="round" stroke-width="1.342840975802285"/><line x1="1185.8183340054534" y1="59.362741864632966" x2="1187.8183340054534" y2="57.362741864632966" stroke="#ffffff" stroke-linecap="round" stroke-width="1.342840975802285"/><line x1="1138.4013887120464" y1="69.38946485429864" x2="1136.4013887120464" y2="67.38946485429864" stroke="#ffffff" stroke-linecap="round" stroke-width="1.588106427837869"/><line x1="1136.4013887120464" y1="69.38946485429864" x2="1138.4013887120464" y2="67.38946485429864" stroke="#ffffff" stroke-linecap="round" stroke-width="1.588106427837869"/><line x1="1167.81635516316" y1="436.90217879612743" x2="1165.81635516316" y2="434.90217879612743" stroke="#ffffff" stroke-linecap="round" stroke-width="1.9901824745367098"/><line x1="1165.81635516316" y1="436.90217879612743" x2="1167.81635516316" y2="434.90217879612743" stroke="#ffffff" stroke-linecap="round" stroke-width="1.9901824745367098"/><line x1="1224.194921646348" y1="578.5870426193393" x2="1222.194921646348" y2="576.5870426193393" stroke="#ffffff" stroke-linecap="round" stroke-width="2.502034852002577"/><line x1="1222.194921646348" y1="578.5870426193393" x2="1224.194921646348" y2="576.5870426193393" stroke="#ffffff" stroke-linecap="round" stroke-width="2.502034852002577"/><line x1="1305.8241218282174" y1="616.9966559777777" x2="1303.8241218282174" y2="614.9966559777777" stroke="#ffffff" stroke-linecap="round" stroke-width="1.6741312277974698"/><line x1="1303.8241218282174" y1="616.9966559777777" x2="1305.8241218282174" y2="614.9966559777777" stroke="#ffffff" stroke-linecap="round" stroke-width="1.6741312277974698"/><line x1="1315.3694009514072" y1="1149.2385725254285" x2="1313.3694009514072" y2="1147.2385725254285" stroke="#ffffff" stroke-linecap="round" stroke-width="1.488277801131523"/><line x1="1313.3694009514072" y1="1149.2385725254285" x2="1315.3694009514072" y2="1147.2385725254285" stroke="#ffffff" stroke-linecap="round" stroke-width="1.488277801131523"/><line x1="1369.2633174074213" y1="334.04773756218884" x2="1367.2633174074213" y2="332.04773756218884" stroke="#ffffff" stroke-linecap="round" stroke-width="2.077939218569191"/><line x1="1367.2633174074213" y1="334.04773756218884" x2="1369.2633174074213" y2="332.04773756218884" stroke="#ffffff" stroke-linecap="round" stroke-width="2.077939218569191"/><line x1="1357.5494858282852" y1="899.0449041876074" x2="1355.5494858282852" y2="897.0449041876074" stroke="#ffffff" stroke-linecap="round" stroke-width="2.093702409524445"/><line x1="1355.5494858282852" y1="899.0449041876074" x2="1357.5494858282852" y2="897.0449041876074" stroke="#ffffff" stroke-linecap="round" stroke-width="2.093702409524445"/><line x1="1441.3513367097555" y1="4" x2="1439.3513367097555" y2="2" stroke="#ffffff" stroke-linecap="round" stroke-width="2.8234278160379955"/><line x1="1439.3513367097555" y1="4" x2="1441.3513367097555" y2="2" stroke="#ffffff" stroke-linecap="round" stroke-width="2.8234278160379955"/><line x1="1412.5956235878275" y1="1253.8802972400053" x2="1410.5956235878275" y2="1251.8802972400053" stroke="#ffffff" stroke-linecap="round" stroke-width="1.4627045609359524"/><line x1="1410.5956235878275" y1="1253.8802972400053" x2="1412.5956235878275" y2="1251.8802972400053" stroke="#ffffff" stroke-linecap="round" stroke-width="1.4627045609359524"/><line x1="1490.8374795949258" y1="900.8822624134347" x2="1488.8374795949258" y2="898.8822624134347" stroke="#ffffff" stroke-linecap="round" stroke-width="1.1567635677165073"/><line x1="1488.8374795949258" y1="900.8822624134347" x2="1490.8374795949258" y2="898.8822624134347" stroke="#ffffff" stroke-linecap="round" stroke-width="1.1567635677165073"/><line x1="1504.609977114438" y1="943.9675390728345" x2="1502.609977114438" y2="941.9675390728345" stroke="#ffffff" stroke-linecap="round" stroke-width="2.8024079259087165"/><line x1="1502.609977114438" y1="943.9675390728345" x2="1504.609977114438" y2="941.9675390728345" stroke="#ffffff" stroke-linecap="round" stroke-width="2.8024079259087165"/><line x1="1573.4968510474023" y1="812.0270153843248" x2="1571.4968510474023" y2="810.0270153843248" stroke="#ffffff" stroke-linecap="round" stroke-width="2.0320524044421324"/><line x1="1571.4968510474023" y1="812.0270153843248" x2="1573.4968510474023" y2="810.0270153843248" stroke="#ffffff" stroke-linecap="round" stroke-width="2.0320524044421324"/><line x1="1597.7459694411348" y1="497.69556161035075" x2="1595.7459694411348" y2="495.69556161035075" stroke="#ffffff" stroke-linecap="round" stroke-width="2.1954341594851297"/><line x1="1595.7459694411348" y1="497.69556161035075" x2="1597.7459694411348" y2="495.69556161035075" stroke="#ffffff" stroke-linecap="round" stroke-width="2.1954341594851297"/><line x1="1636.7464711381629" y1="1410.602623481673" x2="1634.7464711381629" y2="1408.602623481673" stroke="#ffffff" stroke-linecap="round" stroke-width="1.9711778172748642"/><line x1="1634.7464711381629" y1="1410.602623481673" x2="1636.7464711381629" y2="1408.602623481673" stroke="#ffffff" stroke-linecap="round" stroke-width="1.9711778172748642"/><line x1="1687.5049928471149" y1="227.64757789650193" x2="1685.5049928471149" y2="225.64757789650193" stroke="#ffffff" stroke-linecap="round" stroke-width="2.5316818818757034"/><line x1="1685.5049928471149" y1="227.64757789650193" x2="1687.5049928471149" y2="225.64757789650193" stroke="#ffffff" stroke-linecap="round" stroke-width="2.5316818818757034"/><line x1="1797.0523845965536" y1="697.6989219142313" x2="1795.0523845965536" y2="695.6989219142313" stroke="#ffffff" stroke-linecap="round" stroke-width="1.3781201512096568"/><line x1="1795.0523845965536" y1="697.6989219142313" x2="1797.0523845965536" y2="695.6989219142313" stroke="#ffffff" stroke-linecap="round" stroke-width="1.3781201512096568"/><line x1="1819.1005887431882" y1="652.6293804625694" x2="1817.1005887431882" y2="650.6293804625694" stroke="#ffffff" stroke-linecap="round" stroke-width="1.5619668165382543"/><line x1="1817.1005887431882" y1="652.6293804625694" x2="1819.1005887431882" y2="650.6293804625694" stroke="#ffffff" stroke-linecap="round" stroke-width="1.5619668165382543"/><line x1="1870.2061117101543" y1="105.67952560626237" x2="1868.2061117101543" y2="103.67952560626237" stroke="#ffffff" stroke-linecap="round" stroke-width="1.440288435082905"/><line x1="1868.2061117101543" y1="105.67952560626237" x2="1870.2061117101543" y2="103.67952560626237" stroke="#ffffff" stroke-linecap="round" stroke-width="1.440288435082905"/><line x1="1835.0073839783843" y1="156.1433432387813" x2="1833.0073839783843" y2="154.1433432387813" stroke="#ffffff" stroke-linecap="round" stroke-width="1.8420684171365527"/><line x1="1833.0073839783843" y1="156.1433432387813" x2="1835.0073839783843" y2="154.1433432387813" stroke="#ffffff" stroke-linecap="round" stroke-width="1.8420684171365527"/><line x1="1887.0793647800097" y1="453.1242172766039" x2="1885.0793647800097" y2="451.1242172766039" stroke="#ffffff" stroke-linecap="round" stroke-width="1.2669987222332129"/><line x1="1885.0793647800097" y1="453.1242172766039" x2="1887.0793647800097" y2="451.1242172766039" stroke="#ffffff" stroke-linecap="round" stroke-width="1.2669987222332129"/><line x1="1831.9005567426912" y1="673.4911739706545" x2="1829.9005567426912" y2="671.4911739706545" stroke="#ffffff" stroke-linecap="round" stroke-width="1.7316943858740395"/><line x1="1829.9005567426912" y1="673.4911739706545" x2="1831.9005567426912" y2="671.4911739706545" stroke="#ffffff" stroke-linecap="round" stroke-width="1.7316943858740395"/><line x1="1867.128907141324" y1="787.0714552144298" x2="1865.128907141324" y2="785.0714552144298" stroke="#ffffff" stroke-linecap="round" stroke-width="1.95654186241197"/><line x1="1865.128907141324" y1="787.0714552144298" x2="1867.128907141324" y2="785.0714552144298" stroke="#ffffff" stroke-linecap="round" stroke-width="1.95654186241197"/><line x1="1870.941796707875" y1="780.7493912874634" x2="1868.941796707875" y2="778.7493912874634" stroke="#ffffff" stroke-linecap="round" stroke-width="1.3283317220802986"/><line x1="1868.941796707875" y1="780.7493912874634" x2="1870.941796707875" y2="778.7493912874634" stroke="#ffffff" stroke-linecap="round" stroke-width="1.3283317220802986"/><line x1="1856.157850717505" y1="1293.3789886870195" x2="1854.157850717505" y2="1291.3789886870195" stroke="#ffffff" stroke-linecap="round" stroke-width="2.5747653734430953"/><line x1="1854.157850717505" y1="1293.3789886870195" x2="1856.157850717505" y2="1291.3789886870195" stroke="#ffffff" stroke-linecap="round" stroke-width="2.5747653734430953"/><line x1="1953.7893857675494" y1="929.5578023923762" x2="1951.7893857675494" y2="927.5578023923762" stroke="#ffffff" stroke-linecap="round" stroke-width="2.6961641149302276"/><line x1="1951.7893857675494" y1="929.5578023923762" x2="1953.7893857675494" y2="927.5578023923762" stroke="#ffffff" stroke-linecap="round" stroke-width="2.6961641149302276"/><line x1="1926.7530967633136" y1="1054.457992835345" x2="1924.7530967633136" y2="1052.457992835345" stroke="#ffffff" stroke-linecap="round" stroke-width="2.224862947021486"/><line x1="1924.7530967633136" y1="1054.457992835345" x2="1926.7530967633136" y2="1052.457992835345" stroke="#ffffff" stroke-linecap="round" stroke-width="2.224862947021486"/><line x1="1942.615510459818" y1="1026.0563642318386" x2="1940.615510459818" y2="1024.0563642318386" stroke="#ffffff" stroke-linecap="round" stroke-width="2.505833812615568"/><line x1="1940.615510459818" y1="1026.0563642318386" x2="1942.615510459818" y2="1024.0563642318386" stroke="#ffffff" stroke-linecap="round" stroke-width="2.505833812615568"/><line x1="1965.7276717789853" y1="1040.051464379635" x2="1963.7276717789853" y2="1038.051464379635" stroke="#ffffff" stroke-linecap="round" stroke-width="2.5385899238614176"/><line x1="1963.7276717789853" y1="1040.051464379635" x2="1965.7276717789853" y2="1038.051464379635" stroke="#ffffff" stroke-linecap="round" stroke-width="2.5385899238614176"/><line x1="2040.8829848129108" y1="1425.8760672442254" x2="2038.8829848129108" y2="1423.8760672442254" stroke="#ffffff" stroke-linecap="round" stroke-width="1.841263815683738"/><line x1="2038.8829848129108" y1="1425.8760672442254" x2="2040.8829848129108" y2="1423.8760672442254" stroke="#ffffff" stroke-linecap="round" stroke-width="1.841263815683738"/><line x1="2131.3058358103845" y1="816.1485969111704" x2="2129.3058358103845" y2="814.1485969111704" stroke="#ffffff" stroke-linecap="round" stroke-width="1.742717129106262"/><line x1="2129.3058358103845" y1="816.1485969111704" x2="2131.3058358103845" y2="814.1485969111704" stroke="#ffffff" stroke-linecap="round" stroke-width="1.742717129106262"/><line x1="2102.4188039124747" y1="1434.0202987223888" x2="2100.4188039124747" y2="1432.0202987223888" stroke="#ffffff" stroke-linecap="round" stroke-width="2.6947247013941347"/><line x1="2100.4188039124747" y1="1434.0202987223888" x2="2102.4188039124747" y2="1432.0202987223888" stroke="#ffffff" stroke-linecap="round" stroke-width="2.6947247013941347"/><line x1="2187.7768824324844" y1="73.69397571941228" x2="2185.7768824324844" y2="71.69397571941228" stroke="#ffffff" stroke-linecap="round" stroke-width="2.646910521531299"/><line x1="2185.7768824324844" y1="73.69397571941228" x2="2187.7768824324844" y2="71.69397571941228" stroke="#ffffff" stroke-linecap="round" stroke-width="2.646910521531299"/><line x1="2175.214517803121" y1="355.14943715213764" x2="2173.214517803121" y2="353.14943715213764" stroke="#ffffff" stroke-linecap="round" stroke-width="2.5318365717366507"/><line x1="2173.214517803121" y1="355.14943715213764" x2="2175.214517803121" y2="353.14943715213764" stroke="#ffffff" stroke-linecap="round" stroke-width="2.5318365717366507"/><line x1="2197.935232391833" y1="619.6624330258223" x2="2195.935232391833" y2="617.6624330258223" stroke="#ffffff" stroke-linecap="round" stroke-width="1.0965742726102476"/><line x1="2195.935232391833" y1="619.6624330258223" x2="2197.935232391833" y2="617.6624330258223" stroke="#ffffff" stroke-linecap="round" stroke-width="1.0965742726102476"/><line x1="2264.8749845619745" y1="317.04739642347346" x2="2262.8749845619745" y2="315.04739642347346" stroke="#ffffff" stroke-linecap="round" stroke-width="2.0148576388878507"/><line x1="2262.8749845619745" y1="317.04739642347346" x2="2264.8749845619745" y2="315.04739642347346" stroke="#ffffff" stroke-linecap="round" stroke-width="2.0148576388878507"/><line x1="2334.654845703893" y1="1195.2131356963614" x2="2332.654845703893" y2="1193.2131356963614" stroke="#ffffff" stroke-linecap="round" stroke-width="2.758414958514758"/><line x1="2332.654845703893" y1="1195.2131356963614" x2="2334.654845703893" y2="1193.2131356963614" stroke="#ffffff" stroke-linecap="round" stroke-width="2.758414958514758"/><line x1="2351.7258313131824" y1="211.7829926432848" x2="2349.7258313131824" y2="209.7829926432848" stroke="#ffffff" stroke-linecap="round" stroke-width="1.6090458966289978"/><line x1="2349.7258313131824" y1="211.7829926432848" x2="2351.7258313131824" y2="209.7829926432848" stroke="#ffffff" stroke-linecap="round" stroke-width="1.6090458966289978"/><line x1="2353.6562640827524" y1="437.80119979808603" x2="2351.6562640827524" y2="435.80119979808603" stroke="#ffffff" stroke-linecap="round" stroke-width="1.320772328021396"/><line x1="2351.6562640827524" y1="437.80119979808603" x2="2353.6562640827524" y2="435.80119979808603" stroke="#ffffff" stroke-linecap="round" stroke-width="1.320772328021396"/><line x1="2371.462203375752" y1="465.85180317691055" x2="2369.462203375752" y2="463.85180317691055" stroke="#ffffff" stroke-linecap="round" stroke-width="2.6739230853917446"/><line x1="2369.462203375752" y1="465.85180317691055" x2="2371.462203375752" y2="463.85180317691055" stroke="#ffffff" stroke-linecap="round" stroke-width="2.6739230853917446"/><line x1="2402.6735812861584" y1="1399.3632441001218" x2="2400.6735812861584" y2="1397.3632441001218" stroke="#ffffff" stroke-linecap="round" stroke-width="1.4240064834431312"/><line x1="2400.6735812861584" y1="1399.3632441001218" x2="2402.6735812861584" y2="1397.3632441001218" stroke="#ffffff" stroke-linecap="round" stroke-width="1.4240064834431312"/><line x1="2419.5318720150644" y1="713.6044106008057" x2="2417.5318720150644" y2="711.6044106008057" stroke="#ffffff" stroke-linecap="round" stroke-width="1.3562427828922838"/><line x1="2417.5318720150644" y1="713.6044106008057" x2="2419.5318720150644" y2="711.6044106008057" stroke="#ffffff" stroke-linecap="round" stroke-width="1.3562427828922838"/><line x1="2598.146932474347" y1="55.021210555394106" x2="2596.146932474347" y2="53.021210555394106" stroke="#ffffff" stroke-linecap="round" stroke-width="1.1812276271902449"/><line x1="2596.146932474347" y1="55.021210555394106" x2="2598.146932474347" y2="53.021210555394106" stroke="#ffffff" stroke-linecap="round" stroke-width="1.1812276271902449"/><line x1="2549.5675203677565" y1="221.87748850069" x2="2547.5675203677565" y2="219.87748850069" stroke="#ffffff" stroke-linecap="round" stroke-width="1.8190857376315877"/><line x1="2547.5675203677565" y1="221.87748850069" x2="2549.5675203677565" y2="219.87748850069" stroke="#ffffff" stroke-linecap="round" stroke-width="1.8190857376315877"/><line x1="2578.7786809532395" y1="510.9414203045014" x2="2576.7786809532395" y2="508.9414203045014" stroke="#ffffff" stroke-linecap="round" stroke-width="2.1305527923554934"/><line x1="2576.7786809532395" y1="510.9414203045014" x2="2578.7786809532395" y2="508.9414203045014" stroke="#ffffff" stroke-linecap="round" stroke-width="2.1305527923554934"/><line x1="2592.7335064349545" y1="1035.6364546193972" x2="2590.7335064349545" y2="1033.6364546193972" stroke="#ffffff" stroke-linecap="round" stroke-width="1.7635512498339838"/><line x1="2590.7335064349545" y1="1035.6364546193972" x2="2592.7335064349545" y2="1033.6364546193972" stroke="#ffffff" stroke-linecap="round" stroke-width="1.7635512498339838"/><line x1="2554.4134103395804" y1="1096.8979103207046" x2="2552.4134103395804" y2="1094.8979103207046" stroke="#ffffff" stroke-linecap="round" stroke-width="1.820033087433615"/><line x1="2552.4134103395804" y1="1096.8979103207046" x2="2554.4134103395804" y2="1094.8979103207046" stroke="#ffffff" stroke-linecap="round" stroke-width="1.820033087433615"/><line x1="2560.827862563667" y1="1090.3524731407358" x2="2558.827862563667" y2="1088.3524731407358" stroke="#ffffff" stroke-linecap="round" stroke-width="1.7787637764146993"/><line x1="2558.827862563667" y1="1090.3524731407358" x2="2560.827862563667" y2="1088.3524731407358" stroke="#ffffff" stroke-linecap="round" stroke-width="1.7787637764146993"/><line x1="2590.394533672561" y1="1221.434514439466" x2="2588.394533672561" y2="1219.434514439466" stroke="#ffffff" stroke-linecap="round" stroke-width="1.6517260945361008"/><line x1="2588.394533672561" y1="1221.434514439466" x2="2590.394533672561" y2="1219.434514439466" stroke="#ffffff" stroke-linecap="round" stroke-width="1.6517260945361008"/><line x1="2649.617178172131" y1="97.94201975204086" x2="2647.617178172131" y2="95.94201975204086" stroke="#ffffff" stroke-linecap="round" stroke-width="2.3924818703832704"/><line x1="2647.617178172131" y1="97.94201975204086" x2="2649.617178172131" y2="95.94201975204086" stroke="#ffffff" stroke-linecap="round" stroke-width="2.3924818703832704"/><line x1="2621.1624654013735" y1="443.46004065346455" x2="2619.1624654013735" y2="441.46004065346455" stroke="#ffffff" stroke-linecap="round" stroke-width="2.236048031342766"/><line x1="2619.1624654013735" y1="443.46004065346455" x2="2621.1624654013735" y2="441.46004065346455" stroke="#ffffff" stroke-linecap="round" stroke-width="2.236048031342766"/><line x1="2657.2968535887694" y1="449.3176950656816" x2="2655.2968535887694" y2="447.3176950656816" stroke="#ffffff" stroke-linecap="round" stroke-width="2.0795469615477953"/><line x1="2655.2968535887694" y1="449.3176950656816" x2="2657.2968535887694" y2="447.3176950656816" stroke="#ffffff" stroke-linecap="round" stroke-width="2.0795469615477953"/><line x1="2634.831427528854" y1="644.6110854044852" x2="2632.831427528854" y2="642.6110854044852" stroke="#ffffff" stroke-linecap="round" stroke-width="1.6311926511257044"/><line x1="2632.831427528854" y1="644.6110854044852" x2="2634.831427528854" y2="642.6110854044852" stroke="#ffffff" stroke-linecap="round" stroke-width="1.6311926511257044"/><line x1="2682.15535006255" y1="211.93288273549592" x2="2680.15535006255" y2="209.93288273549592" stroke="#ffffff" stroke-linecap="round" stroke-width="2.9147913966181105"/><line x1="2680.15535006255" y1="211.93288273549592" x2="2682.15535006255" y2="209.93288273549592" stroke="#ffffff" stroke-linecap="round" stroke-width="2.9147913966181105"/><line x1="2724.5157835836903" y1="1458.829372753121" x2="2722.5157835836903" y2="1456.829372753121" stroke="#ffffff" stroke-linecap="round" stroke-width="1.2038531388268856"/><line x1="2722.5157835836903" y1="1458.829372753121" x2="2724.5157835836903" y2="1456.829372753121" stroke="#ffffff" stroke-linecap="round" stroke-width="1.2038531388268856"/><line x1="2771.7562229833075" y1="818.4883494738418" x2="2769.7562229833075" y2="816.4883494738418" stroke="#ffffff" stroke-linecap="round" stroke-width="2.8188676396496715"/><line x1="2769.7562229833075" y1="818.4883494738418" x2="2771.7562229833075" y2="816.4883494738418" stroke="#ffffff" stroke-linecap="round" stroke-width="2.8188676396496715"/><line x1="2753.243503933026" y1="1063.5545385242633" x2="2751.243503933026" y2="1061.5545385242633" stroke="#ffffff" stroke-linecap="round" stroke-width="1.7243065904585704"/><line x1="2751.243503933026" y1="1063.5545385242633" x2="2753.243503933026" y2="1061.5545385242633" stroke="#ffffff" stroke-linecap="round" stroke-width="1.7243065904585704"/><line x1="2804.0443307709133" y1="518.906701079363" x2="2802.0443307709133" y2="516.906701079363" stroke="#ffffff" stroke-linecap="round" stroke-width="1.7745112883332501"/><line x1="2802.0443307709133" y1="518.906701079363" x2="2804.0443307709133" y2="516.906701079363" stroke="#ffffff" stroke-linecap="round" stroke-width="1.7745112883332501"/><line x1="2805.80059214269" y1="826.3997785795171" x2="2803.80059214269" y2="824.3997785795171" stroke="#ffffff" stroke-linecap="round" stroke-width="1.9436075732947713"/><line x1="2803.80059214269" y1="826.3997785795171" x2="2805.80059214269" y2="824.3997785795171" stroke="#ffffff" stroke-linecap="round" stroke-width="1.9436075732947713"/><line x1="2834.4544995615265" y1="1111.3632118209975" x2="2832.4544995615265" y2="1109.3632118209975" stroke="#ffffff" stroke-linecap="round" stroke-width="2.6588062327808593"/><line x1="2832.4544995615265" y1="1111.3632118209975" x2="2834.4544995615265" y2="1109.3632118209975" stroke="#ffffff" stroke-linecap="round" stroke-width="2.6588062327808593"/><line x1="2847.786554593057" y1="1211.7713619373578" x2="2845.786554593057" y2="1209.7713619373578" stroke="#ffffff" stroke-linecap="round" stroke-width="1.081390664203922"/><line x1="2845.786554593057" y1="1211.7713619373578" x2="2847.786554593057" y2="1209.7713619373578" stroke="#ffffff" stroke-linecap="round" stroke-width="1.081390664203922"/><line x1="2853.6737234164443" y1="1221.4593825899371" x2="2851.6737234164443" y2="1219.4593825899371" stroke="#ffffff" stroke-linecap="round" stroke-width="2.085056467385334"/><line x1="2851.6737234164443" y1="1221.4593825899371" x2="2853.6737234164443" y2="1219.4593825899371" stroke="#ffffff" stroke-linecap="round" stroke-width="2.085056467385334"/><line x1="2914.108224928321" y1="182.3341533947923" x2="2912.108224928321" y2="180.3341533947923" stroke="#ffffff" stroke-linecap="round" stroke-width="2.938704279465044"/><line x1="2912.108224928321" y1="182.3341533947923" x2="2914.108224928321" y2="180.3341533947923" stroke="#ffffff" stroke-linecap="round" stroke-width="2.938704279465044"/><line x1="2954.9370090266752" y1="1095.0909386535686" x2="2952.9370090266752" y2="1093.0909386535686" stroke="#ffffff" stroke-linecap="round" stroke-width="1.3652761979970425"/><line x1="2952.9370090266752" y1="1095.0909386535686" x2="2954.9370090266752" y2="1093.0909386535686" stroke="#ffffff" stroke-linecap="round" stroke-width="1.3652761979970425"/></svg>