<svg xmlns="http://www.w3.org/2000/svg" width="2916.141427200767" height="1466.371346593294"><line x1="2537.499792849606" y1="111.5689934918712" x2="2535.499792849606" y2="109.5689934918712" stroke="#ffffff" stroke-linecap="round" stroke-width="4.819539345017869"/><line x1="2535.499792849606" y1="111.5689934918712" x2="2537.499792849606" y2="109.5689934918712" stroke="#ffffff" stroke-linecap="round" stroke-width="4.819539345017869"/><line x1="871.6141265773515" y1="738.5528126925319" x2="869.6141265773515" y2="736.5528126925319" stroke="#ffffff" stroke-linecap="round" stroke-width="4.474641908076835"/><line x1="869.6141265773515" y1="738.5528126925319" x2="871.6141265773515" y2="736.5528126925319" stroke="#ffffff" stroke-linecap="round" stroke-width="4.474641908076835"/><line x1="1497.598298619997" y1="1446.8495996071492" x2="1499.598298619997" y2="1444.8495996071492" stroke="#ffffff" stroke-linecap="round" stroke-width="3.792864589025523"/><line x1="2262.6848039979777" y1="126.23607731739708" x2="2260.6848039979777" y2="124.23607731739708" stroke="#ffffff" stroke-linecap="round" stroke-width="3.640531429812978"/><line x1="1824.3106085220866" y1="1221.4860744960154" x2="1826.3106085220866" y2="1219.4860744960154" stroke="#ffffff" stroke-linecap="round" stroke-width="3.800894065122407"/><line x1="1295.9031242693982" y1="291.91550173374594" x2="1293.9031242693982" y2="289.91550173374594" stroke="#ffffff" stroke-linecap="round" stroke-width="3.9405074441498718"/><line x1="1249.6654775696934" y1="489.7372962180608" x2="1251.6654775696934" y2="487.7372962180608" stroke="#ffffff" stroke-linecap="round" stroke-width="4.046971972092538"/><line x1="1408.0927022308736" y1="808.8163756445913" x2="1406.0927022308736" y2="806.8163756445913" stroke="#ffffff" stroke-linecap="round" stroke-width="4.043289530223463"/><line x1="1108.1282969027213" y1="1431.525837022854" x2="1106.1282969027213" y2="1429.525837022854" stroke="#ffffff" stroke-linecap="round" stroke-width="4.71486699300189"/><line x1="1106.1282969027213" y1="1431.525837022854" x2="1108.1282969027213" y2="1429.525837022854" stroke="#ffffff" stroke-linecap="round" stroke-width="4.71486699300189"/><line x1="292.9894179941" y1="453.2613417104244" x2="290.9894179941" y2="451.2613417104244" stroke="#ffffff" stroke-linecap="round" stroke-width="3.7045836624191772"/><line x1="290.9894179941" y1="453.2613417104244" x2="292.9894179941" y2="451.2613417104244" stroke="#ffffff" stroke-linecap="round" stroke-width="3.7045836624191772"/><line x1="339.24939832394557" y1="941.9982918190773" x2="341.24939832394557" y2="939.9982918190773" stroke="#ffffff" stroke-linecap="round" stroke-width="3.3074668926587365"/><line x1="1771.7093274129236" y1="413.51837408842835" x2="1773.7093274129236" y2="411.51837408842835" stroke="#ffffff" stroke-linecap="round" stroke-width="3.7841398056269764"/><line x1="2110.321451982276" y1="343.86131780683104" x2="2112.321451982276" y2="341.86131780683104" stroke="#ffffff" stroke-linecap="round" stroke-width="4.674139108659247"/><line x1="1940.5915314338463" y1="1464.371346593294" x2="1938.5915314338463" y2="1462.371346593294" stroke="#ffffff" stroke-linecap="round" stroke-width="4.053744762203394"/><line x1="1938.5915314338463" y1="1464.371346593294" x2="1940.5915314338463" y2="1462.371346593294" stroke="#ffffff" stroke-linecap="round" stroke-width="4.053744762203394"/><line x1="219.12300447315533" y1="708.639350357227" x2="217.12300447315533" y2="706.639350357227" stroke="#ffffff" stroke-linecap="round" stroke-width="3.5105112040411703"/><line x1="679.0160555949703" y1="289.4497011260271" x2="681.0160555949703" y2="287.4497011260271" stroke="#ffffff" stroke-linecap="round" stroke-width="4.260176105725721"/><line x1="1416.2374148879123" y1="1142.8797294993549" x2="1414.2374148879123" y2="1140.8797294993549" stroke="#ffffff" stroke-linecap="round" stroke-width="3.553089850293888"/><line x1="539.9865913939368" y1="789.7075483978639" x2="537.9865913939368" y2="787.7075483978639" stroke="#ffffff" stroke-linecap="round" stroke-width="4.598342516407862"/><line x1="2682.6307690846706" y1="390.4649182619519" x2="2680.6307690846706" y2="388.4649182619519" stroke="#ffffff" stroke-linecap="round" stroke-width="4.405285135330818"/><line x1="2478.9336881763793" y1="261.3442513096593" x2="2480.9336881763793" y2="259.3442513096593" stroke="#ffffff" stroke-linecap="round" stroke-width="3.1086351657733005"/><line x1="1620.649204213291" y1="433.06523914848185" x2="1618.649204213291" y2="431.06523914848185" stroke="#ffffff" stroke-linecap="round" stroke-width="3.816585320534403"/><line x1="1293.9031242693982" y1="291.91550173374594" x2="1295.9031242693982" y2="289.91550173374594" stroke="#ffffff" stroke-linecap="round" stroke-width="3.9405074441498718"/><line x1="2441.4830885289985" y1="1354.4751116492955" x2="2439.4830885289985" y2="1352.4751116492955" stroke="#ffffff" stroke-linecap="round" stroke-width="4.152698673375584"/><line x1="738.082242879598" y1="1436.6368261337975" x2="740.082242879598" y2="1434.6368261337975" stroke="#ffffff" stroke-linecap="round" stroke-width="4.275414561399717"/><line x1="1499.598298619997" y1="1446.8495996071492" x2="1497.598298619997" y2="1444.8495996071492" stroke="#ffffff" stroke-linecap="round" stroke-width="3.792864589025523"/><line x1="1860.278204949224" y1="120.19975331174805" x2="1858.278204949224" y2="118.19975331174805" stroke="#ffffff" stroke-linecap="round" stroke-width="3.7569429646139785"/><line x1="1101.7072425788547" y1="345.5798307712636" x2="1103.7072425788547" y2="343.5798307712636" stroke="#ffffff" stroke-linecap="round" stroke-width="3.539985929259915"/><line x1="2237.558179004147" y1="443.79143091944843" x2="2239.558179004147" y2="441.79143091944843" stroke="#ffffff" stroke-linecap="round" stroke-width="3.9206439309144736"/><line x1="681.0160555949703" y1="289.4497011260271" x2="679.0160555949703" y2="287.4497011260271" stroke="#ffffff" stroke-linecap="round" stroke-width="4.260176105725721"/><line x1="987.4165453231265" y1="977.2471766869102" x2="985.4165453231265" y2="975.2471766869102" stroke="#ffffff" stroke-linecap="round" stroke-width="4.597826051300264"/><line x1="985.4165453231265" y1="977.2471766869102" x2="987.4165453231265" y2="975.2471766869102" stroke="#ffffff" stroke-linecap="round" stroke-width="4.597826051300264"/><line x1="1858.278204949224" y1="120.19975331174805" x2="1860.278204949224" y2="118.19975331174805" stroke="#ffffff" stroke-linecap="round" stroke-width="3.7569429646139785"/><line x1="2512.66030807865" y1="1114.4852900256146" x2="2514.66030807865" y2="1112.4852900256146" stroke="#ffffff" stroke-linecap="round" stroke-width="4.5940134165564235"/><line x1="2171.2230617864407" y1="1155.4658108248072" x2="2173.2230617864407" y2="1153.4658108248072" stroke="#ffffff" stroke-linecap="round" stroke-width="3.370258658980128"/><line x1="2914.141427200767" y1="1427.1366665583307" x2="2912.141427200767" y2="1425.1366665583307" stroke="#ffffff" stroke-linecap="round" stroke-width="3.6956745009664704"/><line x1="2712.833153975117" y1="1379.758793056017" x2="2714.833153975117" y2="1377.758793056017" stroke="#ffffff" stroke-linecap="round" stroke-width="3.0658946184662144"/><line x1="4" y1="4" x2="2" y2="2" stroke="#ffffff" stroke-linecap="round" stroke-width="4.182707923923189"/><line x1="1321.4196977073007" y1="424.6812921958682" x2="1319.4196977073007" y2="422.6812921958682" stroke="#ffffff" stroke-linecap="round" stroke-width="3.585374943423861"/><line x1="1319.4196977073007" y1="424.6812921958682" x2="1321.4196977073007" y2="422.6812921958682" stroke="#ffffff" stroke-linecap="round" stroke-width="3.585374943423861"/><line x1="2776.497271535457" y1="428.21857188973104" x2="2774.497271535457" y2="426.21857188973104" stroke="#ffffff" stroke-linecap="round" stroke-width="4.296919113364323"/><line x1="2774.497271535457" y1="428.21857188973104" x2="2776.497271535457" y2="426.21857188973104" stroke="#ffffff" stroke-linecap="round" stroke-width="4.296919113364323"/><line x1="2514.66030807865" y1="1114.4852900256146" x2="2512.66030807865" y2="1112.4852900256146" stroke="#ffffff" stroke-linecap="round" stroke-width="4.5940134165564235"/><line x1="2008.9544355737094" y1="1285.5166711288455" x2="2010.9544355737094" y2="1283.5166711288455" stroke="#ffffff" stroke-linecap="round" stroke-width="4.874908831431865"/><line x1="510.67224115593126" y1="72.56638853101799" x2="512.6722411559313" y2="70.56638853101799" stroke="#ffffff" stroke-linecap="round" stroke-width="4.594798312156325"/><line x1="2006.0249709625457" y1="472.5004028826354" x2="2004.0249709625457" y2="470.5004028826354" stroke="#ffffff" stroke-linecap="round" stroke-width="3.162515144459476"/><line x1="2906.229801069543" y1="1191.5159339452864" x2="2908.229801069543" y2="1189.5159339452864" stroke="#ffffff" stroke-linecap="round" stroke-width="3.845148409894619"/><line x1="1043.117483166043" y1="575.5006488195771" x2="1041.117483166043" y2="573.5006488195771" stroke="#ffffff" stroke-linecap="round" stroke-width="4.678308227816488"/><line x1="1907.086486337023" y1="617.4641442813636" x2="1905.086486337023" y2="615.4641442813636" stroke="#ffffff" stroke-linecap="round" stroke-width="3.8004337929171275"/><line x1="341.24939832394557" y1="941.9982918190773" x2="339.24939832394557" y2="939.9982918190773" stroke="#ffffff" stroke-linecap="round" stroke-width="3.3074668926587365"/><line x1="1412.972144877564" y1="533.3193671749218" x2="1410.972144877564" y2="531.3193671749218" stroke="#ffffff" stroke-linecap="round" stroke-width="4.7628013561834255"/><line x1="1410.972144877564" y1="533.3193671749218" x2="1412.972144877564" y2="531.3193671749218" stroke="#ffffff" stroke-linecap="round" stroke-width="4.7628013561834255"/><line x1="2019.8244240417023" y1="171.83569067026383" x2="2017.8244240417023" y2="169.83569067026383" stroke="#ffffff" stroke-linecap="round" stroke-width="4.831490613295351"/><line x1="2017.8244240417023" y1="171.83569067026383" x2="2019.8244240417023" y2="169.83569067026383" stroke="#ffffff" stroke-linecap="round" stroke-width="4.831490613295351"/><line x1="1362.2319157079573" y1="988.2581252735196" x2="1360.2319157079573" y2="986.2581252735196" stroke="#ffffff" stroke-linecap="round" stroke-width="3.9133147415993017"/><line x1="1360.2319157079573" y1="988.2581252735196" x2="1362.2319157079573" y2="986.2581252735196" stroke="#ffffff" stroke-linecap="round" stroke-width="3.9133147415993017"/><line x1="1282.9666025684708" y1="1168.1212525466856" x2="1280.9666025684708" y2="1166.1212525466856" stroke="#ffffff" stroke-linecap="round" stroke-width="4.348903666030559"/><line x1="1433.528669913722" y1="5.610888052218343" x2="1435.528669913722" y2="3.6108880522183426" stroke="#ffffff" stroke-linecap="round" stroke-width="4.1576769163638385"/><line x1="1519.855191766288" y1="1152.383606736754" x2="1517.855191766288" y2="1150.383606736754" stroke="#ffffff" stroke-linecap="round" stroke-width="3.104835338519322"/><line x1="1688.2189412013897" y1="468.8583681563207" x2="1686.2189412013897" y2="466.8583681563207" stroke="#ffffff" stroke-linecap="round" stroke-width="4.64547016305605"/><line x1="1693.0577813573877" y1="1205.1285412869238" x2="1695.0577813573877" y2="1203.1285412869238" stroke="#ffffff" stroke-linecap="round" stroke-width="4.772603901249825"/><line x1="1826.3106085220866" y1="1221.4860744960154" x2="1824.3106085220866" y2="1219.4860744960154" stroke="#ffffff" stroke-linecap="round" stroke-width="3.800894065122407"/><line x1="2836.4094664585846" y1="605.2355321187811" x2="2834.4094664585846" y2="603.2355321187811" stroke="#ffffff" stroke-linecap="round" stroke-width="3.918245297405767"/><line x1="2834.4094664585846" y1="605.2355321187811" x2="2836.4094664585846" y2="603.2355321187811" stroke="#ffffff" stroke-linecap="round" stroke-width="3.918245297405767"/><line x1="721.468508491306" y1="246.39710510163172" x2="719.468508491306" y2="244.39710510163172" stroke="#ffffff" stroke-linecap="round" stroke-width="4.361177144614036"/><line x1="719.468508491306" y1="246.39710510163172" x2="721.468508491306" y2="244.39710510163172" stroke="#ffffff" stroke-linecap="round" stroke-width="4.361177144614036"/><line x1="1936.4711434890935" y1="1420.8396274256913" x2="1934.4711434890935" y2="1418.8396274256913" stroke="#ffffff" stroke-linecap="round" stroke-width="4.856115191165366"/><line x1="1934.4711434890935" y1="1420.8396274256913" x2="1936.4711434890935" y2="1418.8396274256913" stroke="#ffffff" stroke-linecap="round" stroke-width="4.856115191165366"/><line x1="84.17398442916738" y1="1138.7012211714712" x2="86.17398442916738" y2="1136.7012211714712" stroke="#ffffff" stroke-linecap="round" stroke-width="3.5508540935841992"/><line x1="555.3011628782917" y1="741.3229634369118" x2="553.3011628782917" y2="739.3229634369118" stroke="#ffffff" stroke-linecap="round" stroke-width="4.514716011093707"/><line x1="855.9781300970801" y1="395.5516965407405" x2="853.9781300970801" y2="393.5516965407405" stroke="#ffffff" stroke-linecap="round" stroke-width="4.316009915109238"/><line x1="853.9781300970801" y1="395.5516965407405" x2="855.9781300970801" y2="393.5516965407405" stroke="#ffffff" stroke-linecap="round" stroke-width="4.316009915109238"/><line x1="831.2044889046522" y1="229.5340572098048" x2="829.2044889046522" y2="227.5340572098048" stroke="#ffffff" stroke-linecap="round" stroke-width="4.0155901739214315"/><line x1="829.2044889046522" y1="229.5340572098048" x2="831.2044889046522" y2="227.5340572098048" stroke="#ffffff" stroke-linecap="round" stroke-width="4.0155901739214315"/><line x1="671.7086377424391" y1="1462.5150286028265" x2="669.7086377424391" y2="1460.5150286028265" stroke="#ffffff" stroke-linecap="round" stroke-width="3.4951436476700106"/><line x1="669.7086377424391" y1="1462.5150286028265" x2="671.7086377424391" y2="1460.5150286028265" stroke="#ffffff" stroke-linecap="round" stroke-width="3.4951436476700106"/><line x1="2004.0249709625457" y1="472.5004028826354" x2="2006.0249709625457" y2="470.5004028826354" stroke="#ffffff" stroke-linecap="round" stroke-width="3.162515144459476"/><line x1="1773.7093274129236" y1="413.51837408842835" x2="1771.7093274129236" y2="411.51837408842835" stroke="#ffffff" stroke-linecap="round" stroke-width="3.7841398056269764"/><line x1="1488.8537108712437" y1="930.5084646332363" x2="1486.8537108712437" y2="928.5084646332363" stroke="#ffffff" stroke-linecap="round" stroke-width="4.043846928436897"/><line x1="1486.8537108712437" y1="930.5084646332363" x2="1488.8537108712437" y2="928.5084646332363" stroke="#ffffff" stroke-linecap="round" stroke-width="4.043846928436897"/><line x1="537.9865913939368" y1="789.7075483978639" x2="539.9865913939368" y2="787.7075483978639" stroke="#ffffff" stroke-linecap="round" stroke-width="4.598342516407862"/><line x1="118.17319707564684" y1="272.72192153300466" x2="116.17319707564684" y2="270.72192153300466" stroke="#ffffff" stroke-linecap="round" stroke-width="3.4696717300976077"/><line x1="900.9185529502836" y1="412.4121219579878" x2="902.9185529502836" y2="410.4121219579878" stroke="#ffffff" stroke-linecap="round" stroke-width="4.919522273095518"/><line x1="1695.0577813573877" y1="1205.1285412869238" x2="1693.0577813573877" y2="1203.1285412869238" stroke="#ffffff" stroke-linecap="round" stroke-width="4.772603901249825"/><line x1="1858.2158194082642" y1="1247.6170920616537" x2="1856.2158194082642" y2="1245.6170920616537" stroke="#ffffff" stroke-linecap="round" stroke-width="4.9798387843002505"/><line x1="1856.2158194082642" y1="1247.6170920616537" x2="1858.2158194082642" y2="1245.6170920616537" stroke="#ffffff" stroke-linecap="round" stroke-width="4.9798387843002505"/><line x1="2275.6761178777388" y1="1252.877701676159" x2="2273.6761178777388" y2="1250.877701676159" stroke="#ffffff" stroke-linecap="round" stroke-width="4.659063699514306"/><line x1="2273.6761178777388" y1="1252.877701676159" x2="2275.6761178777388" y2="1250.877701676159" stroke="#ffffff" stroke-linecap="round" stroke-width="4.659063699514306"/><line x1="740.082242879598" y1="1436.6368261337975" x2="738.082242879598" y2="1434.6368261337975" stroke="#ffffff" stroke-linecap="round" stroke-width="4.275414561399717"/><line x1="1333.6799484542075" y1="740.7632421652868" x2="1335.6799484542075" y2="738.7632421652868" stroke="#ffffff" stroke-linecap="round" stroke-width="3.666931306609736"/><line x1="2781.5715311763333" y1="931.9979879813194" x2="2779.5715311763333" y2="929.9979879813194" stroke="#ffffff" stroke-linecap="round" stroke-width="4.673661612739837"/><line x1="1280.9666025684708" y1="1168.1212525466856" x2="1282.9666025684708" y2="1166.1212525466856" stroke="#ffffff" stroke-linecap="round" stroke-width="4.348903666030559"/><line x1="1028.3221997945884" y1="411.5778063591074" x2="1026.3221997945884" y2="409.5778063591074" stroke="#ffffff" stroke-linecap="round" stroke-width="3.7334487091509447"/><line x1="1026.3221997945884" y1="411.5778063591074" x2="1028.3221997945884" y2="409.5778063591074" stroke="#ffffff" stroke-linecap="round" stroke-width="3.7334487091509447"/><line x1="2746.4147979523777" y1="907.5573651068545" x2="2748.4147979523777" y2="905.5573651068545" stroke="#ffffff" stroke-linecap="round" stroke-width="4.937429072383285"/><line x1="2132.5856844691007" y1="825.5929447869823" x2="2130.5856844691007" y2="823.5929447869823" stroke="#ffffff" stroke-linecap="round" stroke-width="3.323233617699054"/><line x1="1884.0510714941856" y1="320.7166380493677" x2="1886.0510714941856" y2="318.7166380493677" stroke="#ffffff" stroke-linecap="round" stroke-width="3.5457410499065465"/><line x1="1251.6654775696934" y1="489.7372962180608" x2="1249.6654775696934" y2="487.7372962180608" stroke="#ffffff" stroke-linecap="round" stroke-width="4.046971972092538"/><line x1="1117.2436910305755" y1="1425.9066333959245" x2="1115.2436910305755" y2="1423.9066333959245" stroke="#ffffff" stroke-linecap="round" stroke-width="4.907163229152501"/><line x1="651.2088565598722" y1="771.8084846009932" x2="649.2088565598722" y2="769.8084846009932" stroke="#ffffff" stroke-linecap="round" stroke-width="3.091339279279993"/><line x1="2130.5856844691007" y1="825.5929447869823" x2="2132.5856844691007" y2="823.5929447869823" stroke="#ffffff" stroke-linecap="round" stroke-width="3.323233617699054"/><line x1="512.6722411559313" y1="72.56638853101799" x2="510.67224115593126" y2="70.56638853101799" stroke="#ffffff" stroke-linecap="round" stroke-width="4.594798312156325"/><line x1="1689.5251107002266" y1="1407.7174581438142" x2="1687.5251107002266" y2="1405.7174581438142" stroke="#ffffff" stroke-linecap="round" stroke-width="4.679158615088941"/><line x1="1687.5251107002266" y1="1407.7174581438142" x2="1689.5251107002266" y2="1405.7174581438142" stroke="#ffffff" stroke-linecap="round" stroke-width="4.679158615088941"/><line x1="180.22529301247573" y1="925.4722720444305" x2="178.22529301247573" y2="923.4722720444305" stroke="#ffffff" stroke-linecap="round" stroke-width="4.387216117580111"/><line x1="1406.0927022308736" y1="808.8163756445913" x2="1408.0927022308736" y2="806.8163756445913" stroke="#ffffff" stroke-linecap="round" stroke-width="4.043289530223463"/><line x1="1115.2436910305755" y1="1425.9066333959245" x2="1117.2436910305755" y2="1423.9066333959245" stroke="#ffffff" stroke-linecap="round" stroke-width="4.907163229152501"/><line x1="86.17398442916738" y1="1138.7012211714712" x2="84.17398442916738" y2="1136.7012211714712" stroke="#ffffff" stroke-linecap="round" stroke-width="3.5508540935841992"/><line x1="1323.8720693290452" y1="236.79506026219497" x2="1321.8720693290452" y2="234.79506026219497" stroke="#ffffff" stroke-linecap="round" stroke-width="4.758962568693393"/><line x1="1321.8720693290452" y1="236.79506026219497" x2="1323.8720693290452" y2="234.79506026219497" stroke="#ffffff" stroke-linecap="round" stroke-width="4.758962568693393"/><line x1="2480.5638621226726" y1="755.5416394118101" x2="2478.5638621226726" y2="753.5416394118101" stroke="#ffffff" stroke-linecap="round" stroke-width="4.947518743996087"/><line x1="2478.5638621226726" y1="755.5416394118101" x2="2480.5638621226726" y2="753.5416394118101" stroke="#ffffff" stroke-linecap="round" stroke-width="4.947518743996087"/><line x1="2" y1="4" x2="4" y2="2" stroke="#ffffff" stroke-linecap="round" stroke-width="4.182707923923189"/><line x1="2846.589190992451" y1="1408.9819438996985" x2="2844.589190992451" y2="1406.9819438996985" stroke="#ffffff" stroke-linecap="round" stroke-width="3.2638190146761366"/><line x1="2912.141427200767" y1="1427.1366665583307" x2="2914.141427200767" y2="1425.1366665583307" stroke="#ffffff" stroke-linecap="round" stroke-width="3.6956745009664704"/><line x1="2801.627455805531" y1="99.17024583791112" x2="2799.627455805531" y2="97.17024583791112" stroke="#ffffff" stroke-linecap="round" stroke-width="3.112531890120314"/><line x1="2281.88394257835" y1="540.2047333308612" x2="2279.88394257835" y2="538.2047333308612" stroke="#ffffff" stroke-linecap="round" stroke-width="3.2726730122813907"/><line x1="2279.88394257835" y1="540.2047333308612" x2="2281.88394257835" y2="538.2047333308612" stroke="#ffffff" stroke-linecap="round" stroke-width="3.2726730122813907"/><line x1="299.03386388554577" y1="173.7122375151605" x2="297.03386388554577" y2="171.7122375151605" stroke="#ffffff" stroke-linecap="round" stroke-width="4.707128497502001"/><line x1="297.03386388554577" y1="173.7122375151605" x2="299.03386388554577" y2="171.7122375151605" stroke="#ffffff" stroke-linecap="round" stroke-width="4.707128497502001"/><line x1="2761.6000375249605" y1="330.9694823511004" x2="2763.6000375249605" y2="328.9694823511004" stroke="#ffffff" stroke-linecap="round" stroke-width="4.108372298257576"/><line x1="2385.2020693342683" y1="1044.8147377135635" x2="2383.2020693342683" y2="1042.8147377135635" stroke="#ffffff" stroke-linecap="round" stroke-width="3.583272746937035"/><line x1="1335.6799484542075" y1="740.7632421652868" x2="1333.6799484542075" y2="738.7632421652868" stroke="#ffffff" stroke-linecap="round" stroke-width="3.666931306609736"/><line x1="1618.649204213291" y1="433.06523914848185" x2="1620.649204213291" y2="431.06523914848185" stroke="#ffffff" stroke-linecap="round" stroke-width="3.816585320534403"/><line x1="2779.5715311763333" y1="931.9979879813194" x2="2781.5715311763333" y2="929.9979879813194" stroke="#ffffff" stroke-linecap="round" stroke-width="4.673661612739837"/><line x1="2351.2189303294945" y1="1184.0133171310565" x2="2349.2189303294945" y2="1182.0133171310565" stroke="#ffffff" stroke-linecap="round" stroke-width="4.364764848367402"/><line x1="649.2088565598722" y1="771.8084846009932" x2="651.2088565598722" y2="769.8084846009932" stroke="#ffffff" stroke-linecap="round" stroke-width="3.091339279279993"/><line x1="217.12300447315533" y1="708.639350357227" x2="219.12300447315533" y2="706.639350357227" stroke="#ffffff" stroke-linecap="round" stroke-width="3.5105112040411703"/><line x1="2010.9544355737094" y1="1285.5166711288455" x2="2008.9544355737094" y2="1283.5166711288455" stroke="#ffffff" stroke-linecap="round" stroke-width="4.874908831431865"/><line x1="1686.2189412013897" y1="468.8583681563207" x2="1688.2189412013897" y2="466.8583681563207" stroke="#ffffff" stroke-linecap="round" stroke-width="4.64547016305605"/><line x1="1837.3516079134993" y1="1227.8921387916018" x2="1835.3516079134993" y2="1225.8921387916018" stroke="#ffffff" stroke-linecap="round" stroke-width="3.5874805485197867"/><line x1="2439.4830885289985" y1="1354.4751116492955" x2="2441.4830885289985" y2="1352.4751116492955" stroke="#ffffff" stroke-linecap="round" stroke-width="4.152698673375584"/><line x1="928.968110327595" y1="197.09745691601415" x2="930.968110327595" y2="195.09745691601415" stroke="#ffffff" stroke-linecap="round" stroke-width="4.104742742398307"/><line x1="2480.9336881763793" y1="261.3442513096593" x2="2478.9336881763793" y2="259.3442513096593" stroke="#ffffff" stroke-linecap="round" stroke-width="3.1086351657733005"/><line x1="288.8941751085481" y1="75.33914938921657" x2="286.8941751085481" y2="73.33914938921657" stroke="#ffffff" stroke-linecap="round" stroke-width="3.3043497045712393"/><line x1="286.8941751085481" y1="75.33914938921657" x2="288.8941751085481" y2="73.33914938921657" stroke="#ffffff" stroke-linecap="round" stroke-width="3.3043497045712393"/><line x1="2349.2189303294945" y1="1184.0133171310565" x2="2351.2189303294945" y2="1182.0133171310565" stroke="#ffffff" stroke-linecap="round" stroke-width="4.364764848367402"/><line x1="677.9620395079546" y1="1206.36245904014" x2="675.9620395079546" y2="1204.36245904014" stroke="#ffffff" stroke-linecap="round" stroke-width="3.339382353433104"/><line x1="116.17319707564684" y1="272.72192153300466" x2="118.17319707564684" y2="270.72192153300466" stroke="#ffffff" stroke-linecap="round" stroke-width="3.4696717300976077"/><line x1="2763.6000375249605" y1="330.9694823511004" x2="2761.6000375249605" y2="328.9694823511004" stroke="#ffffff" stroke-linecap="round" stroke-width="4.108372298257576"/><line x1="2195.114970292275" y1="734.3519883842391" x2="2193.114970292275" y2="732.3519883842391" stroke="#ffffff" stroke-linecap="round" stroke-width="3.37547827764515"/><line x1="2193.114970292275" y1="734.3519883842391" x2="2195.114970292275" y2="732.3519883842391" stroke="#ffffff" stroke-linecap="round" stroke-width="3.37547827764515"/><line x1="2730.178340877148" y1="1377.984649547968" x2="2732.178340877148" y2="1375.984649547968" stroke="#ffffff" stroke-linecap="round" stroke-width="4.0937301043415015"/><line x1="1103.7072425788547" y1="345.5798307712636" x2="1101.7072425788547" y2="343.5798307712636" stroke="#ffffff" stroke-linecap="round" stroke-width="3.539985929259915"/><line x1="2391.659528345568" y1="204.37459882889448" x2="2389.659528345568" y2="202.37459882889448" stroke="#ffffff" stroke-linecap="round" stroke-width="4.757462750619574"/><line x1="2389.659528345568" y1="204.37459882889448" x2="2391.659528345568" y2="202.37459882889448" stroke="#ffffff" stroke-linecap="round" stroke-width="4.757462750619574"/><line x1="1517.855191766288" y1="1152.383606736754" x2="1519.855191766288" y2="1150.383606736754" stroke="#ffffff" stroke-linecap="round" stroke-width="3.104835338519322"/><line x1="1981.8503847495633" y1="585.7451628843529" x2="1979.8503847495633" y2="583.7451628843529" stroke="#ffffff" stroke-linecap="round" stroke-width="4.809762751758196"/><line x1="2623.050650788882" y1="1033.59980836117" x2="2621.050650788882" y2="1031.59980836117" stroke="#ffffff" stroke-linecap="round" stroke-width="3.486667732293245"/><line x1="2621.050650788882" y1="1033.59980836117" x2="2623.050650788882" y2="1031.59980836117" stroke="#ffffff" stroke-linecap="round" stroke-width="3.486667732293245"/><line x1="787.4343082384537" y1="330.42990072605585" x2="785.4343082384537" y2="328.42990072605585" stroke="#ffffff" stroke-linecap="round" stroke-width="3.3317383130679663"/><line x1="178.22529301247573" y1="925.4722720444305" x2="180.22529301247573" y2="923.4722720444305" stroke="#ffffff" stroke-linecap="round" stroke-width="4.387216117580111"/><line x1="1353.6457081667127" y1="990.753669864885" x2="1355.6457081667127" y2="988.753669864885" stroke="#ffffff" stroke-linecap="round" stroke-width="4.914307873769865"/><line x1="383.4254913151051" y1="1307.3883871816547" x2="381.4254913151051" y2="1305.3883871816547" stroke="#ffffff" stroke-linecap="round" stroke-width="4.425515044548739"/><line x1="1905.086486337023" y1="617.4641442813636" x2="1907.086486337023" y2="615.4641442813636" stroke="#ffffff" stroke-linecap="round" stroke-width="3.8004337929171275"/><line x1="2748.4147979523777" y1="907.5573651068545" x2="2746.4147979523777" y2="905.5573651068545" stroke="#ffffff" stroke-linecap="round" stroke-width="4.937429072383285"/><line x1="1979.8503847495633" y1="585.7451628843529" x2="1981.8503847495633" y2="583.7451628843529" stroke="#ffffff" stroke-linecap="round" stroke-width="4.809762751758196"/><line x1="2173.2230617864407" y1="1155.4658108248072" x2="2171.2230617864407" y2="1153.4658108248072" stroke="#ffffff" stroke-linecap="round" stroke-width="3.370258658980128"/><line x1="553.3011628782917" y1="741.3229634369118" x2="555.3011628782917" y2="739.3229634369118" stroke="#ffffff" stroke-linecap="round" stroke-width="4.514716011093707"/><line x1="2112.321451982276" y1="343.86131780683104" x2="2110.321451982276" y2="341.86131780683104" stroke="#ffffff" stroke-linecap="round" stroke-width="4.674139108659247"/><line x1="2714.833153975117" y1="1379.758793056017" x2="2712.833153975117" y2="1377.758793056017" stroke="#ffffff" stroke-linecap="round" stroke-width="3.0658946184662144"/><line x1="1835.3516079134993" y1="1227.8921387916018" x2="1837.3516079134993" y2="1225.8921387916018" stroke="#ffffff" stroke-linecap="round" stroke-width="3.5874805485197867"/><line x1="2799.627455805531" y1="99.17024583791112" x2="2801.627455805531" y2="97.17024583791112" stroke="#ffffff" stroke-linecap="round" stroke-width="3.112531890120314"/><line x1="2239.558179004147" y1="443.79143091944843" x2="2237.558179004147" y2="441.79143091944843" stroke="#ffffff" stroke-linecap="round" stroke-width="3.9206439309144736"/><line x1="1414.2374148879123" y1="1142.8797294993549" x2="1416.2374148879123" y2="1140.8797294993549" stroke="#ffffff" stroke-linecap="round" stroke-width="3.553089850293888"/><line x1="1886.0510714941856" y1="320.7166380493677" x2="1884.0510714941856" y2="318.7166380493677" stroke="#ffffff" stroke-linecap="round" stroke-width="3.5457410499065465"/><line x1="2383.2020693342683" y1="1044.8147377135635" x2="2385.2020693342683" y2="1042.8147377135635" stroke="#ffffff" stroke-linecap="round" stroke-width="3.583272746937035"/><line x1="2908.229801069543" y1="1191.5159339452864" x2="2906.229801069543" y2="1189.5159339452864" stroke="#ffffff" stroke-linecap="round" stroke-width="3.845148409894619"/><line x1="2624.919561499295" y1="407.0654220526583" x2="2622.919561499295" y2="405.0654220526583" stroke="#ffffff" stroke-linecap="round" stroke-width="4.666463252728801"/><line x1="2622.919561499295" y1="407.0654220526583" x2="2624.919561499295" y2="405.0654220526583" stroke="#ffffff" stroke-linecap="round" stroke-width="4.666463252728801"/><line x1="2198.7383668165176" y1="1355.806828236867" x2="2196.7383668165176" y2="1353.806828236867" stroke="#ffffff" stroke-linecap="round" stroke-width="4.61758770847918"/><line x1="2196.7383668165176" y1="1355.806828236867" x2="2198.7383668165176" y2="1353.806828236867" stroke="#ffffff" stroke-linecap="round" stroke-width="4.61758770847918"/><line x1="144.92975919182663" y1="950.8211811670526" x2="142.92975919182663" y2="948.8211811670526" stroke="#ffffff" stroke-linecap="round" stroke-width="4.452446478729609"/><line x1="142.92975919182663" y1="950.8211811670526" x2="144.92975919182663" y2="948.8211811670526" stroke="#ffffff" stroke-linecap="round" stroke-width="4.452446478729609"/><line x1="13.876192396257238" y1="470.31357806373376" x2="11.876192396257238" y2="468.31357806373376" stroke="#ffffff" stroke-linecap="round" stroke-width="4.85288041168084"/><line x1="11.876192396257238" y1="470.31357806373376" x2="13.876192396257238" y2="468.31357806373376" stroke="#ffffff" stroke-linecap="round" stroke-width="4.85288041168084"/><line x1="2896.747670235761" y1="1068.0826260438378" x2="2898.747670235761" y2="1066.0826260438378" stroke="#ffffff" stroke-linecap="round" stroke-width="3.3103378807144703"/><line x1="2732.178340877148" y1="1377.984649547968" x2="2730.178340877148" y2="1375.984649547968" stroke="#ffffff" stroke-linecap="round" stroke-width="4.0937301043415015"/><line x1="2260.6848039979777" y1="126.23607731739708" x2="2262.6848039979777" y2="124.23607731739708" stroke="#ffffff" stroke-linecap="round" stroke-width="3.640531429812978"/><line x1="1355.6457081667127" y1="990.753669864885" x2="1353.6457081667127" y2="988.753669864885" stroke="#ffffff" stroke-linecap="round" stroke-width="4.914307873769865"/><line x1="785.4343082384537" y1="330.42990072605585" x2="787.4343082384537" y2="328.42990072605585" stroke="#ffffff" stroke-linecap="round" stroke-width="3.3317383130679663"/><line x1="902.9185529502836" y1="412.4121219579878" x2="900.9185529502836" y2="410.4121219579878" stroke="#ffffff" stroke-linecap="round" stroke-width="4.919522273095518"/><line x1="2844.589190992451" y1="1408.9819438996985" x2="2846.589190992451" y2="1406.9819438996985" stroke="#ffffff" stroke-linecap="round" stroke-width="3.2638190146761366"/><line x1="930.968110327595" y1="197.09745691601415" x2="928.968110327595" y2="195.09745691601415" stroke="#ffffff" stroke-linecap="round" stroke-width="4.104742742398307"/><line x1="2680.6307690846706" y1="390.4649182619519" x2="2682.6307690846706" y2="388.4649182619519" stroke="#ffffff" stroke-linecap="round" stroke-width="4.405285135330818"/><line x1="1041.117483166043" y1="575.5006488195771" x2="1043.117483166043" y2="573.5006488195771" stroke="#ffffff" stroke-linecap="round" stroke-width="4.678308227816488"/><line x1="2024.8784633470316" y1="1081.379032412531" x2="2022.8784633470316" y2="1079.379032412531" stroke="#ffffff" stroke-linecap="round" stroke-width="4.002290623040694"/><line x1="2022.8784633470316" y1="1081.379032412531" x2="2024.8784633470316" y2="1079.379032412531" stroke="#ffffff" stroke-linecap="round" stroke-width="4.002290623040694"/><line x1="741.5133690490559" y1="303.2783479363943" x2="739.5133690490559" y2="301.2783479363943" stroke="#ffffff" stroke-linecap="round" stroke-width="4.982687940448152"/><line x1="739.5133690490559" y1="303.2783479363943" x2="741.5133690490559" y2="301.2783479363943" stroke="#ffffff" stroke-linecap="round" stroke-width="4.982687940448152"/><line x1="2651.669893384553" y1="716.6606580570821" x2="2649.669893384553" y2="714.6606580570821" stroke="#ffffff" stroke-linecap="round" stroke-width="4.5253892838499805"/><line x1="2649.669893384553" y1="716.6606580570821" x2="2651.669893384553" y2="714.6606580570821" stroke="#ffffff" stroke-linecap="round" stroke-width="4.5253892838499805"/><line x1="381.4254913151051" y1="1307.3883871816547" x2="383.4254913151051" y2="1305.3883871816547" stroke="#ffffff" stroke-linecap="round" stroke-width="4.425515044548739"/><line x1="1435.528669913722" y1="5.610888052218343" x2="1433.528669913722" y2="3.6108880522183426" stroke="#ffffff" stroke-linecap="round" stroke-width="4.1576769163638385"/><line x1="675.9620395079546" y1="1206.36245904014" x2="677.9620395079546" y2="1204.36245904014" stroke="#ffffff" stroke-linecap="round" stroke-width="3.339382353433104"/><line x1="2898.747670235761" y1="1068.0826260438378" x2="2896.747670235761" y2="1066.0826260438378" stroke="#ffffff" stroke-linecap="round" stroke-width="3.3103378807144703"/></svg>